<?xml version="1.0" encoding="utf-8"?><!-- Uploaded to: SVG Repo, www.svgrepo.com, Generator: SVG Repo Mixer Tools -->
<svg width="800px" height="800px" viewBox="0 0 400 400" fill="none" xmlns="http://www.w3.org/2000/svg">
<path d="M161.376 147.77C179.905 122.755 232.857 110.937 238.806 151.817C242.626 178.079 224.504 188.607 208.329 206.814C177.751 241.233 215.757 289.169 126.781 317.623C42.8723 344.456 35.4555 189.267 136.666 167.182" stroke="#000000" stroke-opacity="0.9" stroke-width="16" stroke-linecap="round" stroke-linejoin="round"/>
<path opacity="0.503384" d="M109.705 238.585C158.341 166.409 174.593 254.258 125.426 274.266C101.639 283.946 105.539 247.227 113.331 236.125" stroke="#000000" stroke-opacity="0.9" stroke-width="14" stroke-linecap="round" stroke-linejoin="round"/>
<path d="M225.421 121.307C226.026 77.749 303.118 60.6793 308.059 109.985C309.396 123.34 302.948 137.043 305.626 150.407C313.088 187.639 345.475 207.859 336.411 253.081C324.286 313.578 239.266 341.123 205.981 282.993" stroke="#000000" stroke-opacity="0.9" stroke-width="16" stroke-linecap="round" stroke-linejoin="round"/>
</svg>