<?xml version="1.0" encoding="utf-8"?><!-- Uploaded to: SVG Repo, www.svgrepo.com, Generator: SVG Repo Mixer Tools -->
<svg width="800px" height="800px" viewBox="0 0 400 400" fill="none" xmlns="http://www.w3.org/2000/svg">
<path opacity="0.503384" d="M118.191 116.917C67.8884 96.2116 116.466 72.4304 133.469 57.536C149.069 43.8688 159.289 58.4375 165.819 58.4375C170.064 58.4375 180.719 42.418 193.678 46.7401C198.793 48.4485 198.218 57.2519 201.767 58.4375C219.531 64.3657 236.777 41.5392 259.281 58.4375C276.887 71.6577 253.455 90.0409 244.904 99.8254C235.823 110.212 254.264 124.834 244.003 143.91C239.902 151.536 207.987 160.862 202.664 150.21C202.293 149.467 208.252 177.472 185.592 171.802C167.582 167.294 176.349 147.255 168.517 139.41C161.82 132.705 149.164 152.574 143.352 132.213" stroke="#000000" stroke-opacity="0.9" stroke-width="14" stroke-linecap="round" stroke-linejoin="round"/>
<path d="M115.826 140.572C115.826 208.025 125.942 277.922 109.541 322.728C107.617 327.982 94.7788 340.794 97.8613 346.955C98.9089 349.048 170.183 350.544 193.981 350.544C202.755 350.544 248.723 356.88 255.066 350.544C259.71 345.905 244.287 324.394 244.287 318.24C244.287 267.838 246.983 216.565 246.983 165.695" stroke="#000000" stroke-opacity="0.9" stroke-width="16" stroke-linecap="round" stroke-linejoin="round"/>
<path d="M242.031 162.783C325.251 38.235 315.274 290.284 261.681 270.153" stroke="#000000" stroke-opacity="0.9" stroke-width="16" stroke-linecap="round" stroke-linejoin="round"/>
<path opacity="0.503384" d="M219.968 321.025C195.229 319.287 168.918 322 146.741 319.287" stroke="#000000" stroke-opacity="0.9" stroke-width="14" stroke-linecap="round" stroke-linejoin="round"/>
<path d="M197.938 212.007C197.949 207.366 197.94 208.602 197.94 204.042" stroke="#000000" stroke-opacity="0.9" stroke-width="16" stroke-linecap="round" stroke-linejoin="round"/>
<path d="M195.727 212.007C195.727 209.352 195.727 206.697 195.727 204.042" stroke="#000000" stroke-opacity="0.9" stroke-width="16" stroke-linecap="round" stroke-linejoin="round"/>
<path d="M171.514 210.237C171.526 206.038 171.516 207.157 171.516 203.031" stroke="#000000" stroke-opacity="0.9" stroke-width="16" stroke-linecap="round" stroke-linejoin="round"/>
<path d="M169.304 210.237C169.304 207.835 169.304 205.433 169.304 203.031" stroke="#000000" stroke-opacity="0.9" stroke-width="16" stroke-linecap="round" stroke-linejoin="round"/>
<path d="M197.526 242.065C186.839 247.32 177.678 244.533 168.32 239.317" stroke="#000000" stroke-opacity="0.9" stroke-width="16" stroke-linecap="round" stroke-linejoin="round"/>
</svg>