<?xml version="1.0" encoding="utf-8"?><!-- Uploaded to: SVG Repo, www.svgrepo.com, Generator: SVG Repo Mixer Tools -->
<svg width="800px" height="800px" viewBox="0 0 400 400" fill="none" xmlns="http://www.w3.org/2000/svg">
<path d="M326.486 256.628C333.901 251.804 337.846 231.955 330.521 226.12C325.382 222.028 299.83 218.434 299.876 218.092C312.566 117.018 251.659 121.589 174.067 109.704C137.727 104.141 100.5 91.4488 66 80" stroke="#000000" stroke-opacity="0.9" stroke-width="16" stroke-linecap="round" stroke-linejoin="round"/>
<path d="M90.7193 96.0215C94.775 109.038 82.7575 142.061 93.9596 153.183C95.885 155.095 147.357 160.211 193.912 155.257C197.784 154.845 242.831 149.521 246.52 153.183C251.583 158.21 254.509 175.836 256.646 182.597C313.315 361.867 12.8704 375.294 90.7193 163.648" stroke="#000000" stroke-opacity="0.9" stroke-width="16" stroke-linecap="round" stroke-linejoin="round"/>
<path opacity="0.503384" d="M106.591 223.265C122.228 217.375 241.238 213.813 241.238 224.834C241.238 236.601 113.331 229.184 99.3789 230.319" stroke="#000000" stroke-opacity="0.9" stroke-width="14" stroke-linecap="round" stroke-linejoin="round"/>
</svg>