<?xml version="1.0" encoding="utf-8"?><!-- Uploaded to: SVG Repo, www.svgrepo.com, Generator: SVG Repo Mixer Tools -->
<svg width="800px" height="800px" viewBox="0 0 400 400" fill="none" xmlns="http://www.w3.org/2000/svg">
<path d="M151.91 361.569C151.224 322.703 144.777 281.888 150.327 243.001C153.5 220.794 156.045 187.22 172.976 170.276C173.878 169.374 181.107 163.809 180.878 162.899C180.83 162.703 150.327 156.486 143.482 133.387C127.571 79.6871 168.095 6.27506 226.177 52.7591C249.483 71.4145 252.513 122.321 230.917 143.927C224.742 150.101 215.341 151.605 209.847 157.102C207.435 159.515 226.177 159.515 245.664 188.719C266.235 219.547 263.893 251.894 268.313 287.264C268.963 292.464 270.417 353.141 265.152 355.771C261.585 357.556 250.289 355.002 245.664 355.771C240.399 356.649 229.603 359.243 224.594 358.41C221.961 357.969 237.971 256.769 208.754 271.383C179.08 286.229 199.037 344.748 187.376 360.275C183.431 365.529 177.35 361.569 166.173 361.569" stroke="#000000" stroke-opacity="0.9" stroke-width="16" stroke-linecap="round" stroke-linejoin="round"/>
<path d="M156 178C106.731 183.702 72.8859 286.31 112.181 270.308C130.258 262.95 131.479 235.177 150.312 226.46" stroke="#000000" stroke-opacity="0.9" stroke-width="16" stroke-linecap="round" stroke-linejoin="round"/>
<path d="M238 167.676C244.376 166.921 252.205 162.459 255.058 156.008C306.972 38.6548 334.876 169.965 255.058 197" stroke="#000000" stroke-opacity="0.9" stroke-width="16" stroke-linecap="round" stroke-linejoin="round"/>
<path d="M179.475 121.876C251.59 98.3185 194.074 155.098 179 126.993" stroke="#000000" stroke-opacity="0.9" stroke-width="16" stroke-linecap="round" stroke-linejoin="round"/>
<path d="M181 96C180.627 93.6714 180.331 91.3357 180 89" stroke="#000000" stroke-opacity="0.9" stroke-width="16" stroke-linecap="round" stroke-linejoin="round"/>
<path d="M211 91C210.652 88.3333 210.477 85.6644 210 83" stroke="#000000" stroke-opacity="0.9" stroke-width="16" stroke-linecap="round" stroke-linejoin="round"/>
<path d="M199 186C199 184.665 199 183.33 199 182" stroke="#000000" stroke-opacity="0.9" stroke-width="16" stroke-linecap="round" stroke-linejoin="round"/>
<path d="M200 213C200 211.643 200 210.333 200 209" stroke="#000000" stroke-opacity="0.9" stroke-width="16" stroke-linecap="round" stroke-linejoin="round"/>
<path opacity="0.503384" d="M181 239.196C182.086 242.66 186.98 248.705 191.378 247.932C197.658 246.832 200.852 225.349 210.574 228.273C218.69 230.712 227.833 258.647 236 239.74" stroke="#000000" stroke-opacity="0.9" stroke-width="16" stroke-linecap="round" stroke-linejoin="round"/>
<path d="M174.2 293C173.574 289.194 174.582 285.626 175 282" stroke="#000000" stroke-opacity="0.9" stroke-width="16" stroke-linecap="round" stroke-linejoin="round"/>
<path d="M246.7 291C247.799 287.384 245.569 283.667 245 280" stroke="#000000" stroke-opacity="0.9" stroke-width="16" stroke-linecap="round" stroke-linejoin="round"/>
<path opacity="0.503384" d="M107 229.125C123.769 222.832 114.584 245 131 245" stroke="#000000" stroke-opacity="0.9" stroke-width="16" stroke-linecap="round" stroke-linejoin="round"/>
<path opacity="0.503384" d="M274 133C284.998 134.957 275.956 147.051 291 143.274" stroke="#000000" stroke-opacity="0.9" stroke-width="16" stroke-linecap="round" stroke-linejoin="round"/>
<path opacity="0.503384" d="M161 328C173.205 330.139 173.814 344.807 187 331.446" stroke="#000000" stroke-opacity="0.9" stroke-width="16" stroke-linecap="round" stroke-linejoin="round"/>
<path opacity="0.503384" d="M227 326.598C242.644 313.083 247.294 343.361 258 324.775" stroke="#000000" stroke-opacity="0.9" stroke-width="16" stroke-linecap="round" stroke-linejoin="round"/>
</svg>