<?xml version="1.0" encoding="utf-8"?><!-- Uploaded to: SVG Repo, www.svgrepo.com, Generator: SVG Repo Mixer Tools -->
<svg width="800px" height="800px" viewBox="0 0 400 400" fill="none" xmlns="http://www.w3.org/2000/svg">
<path opacity="0.742304" d="M132.275 174.4C142.98 167.628 156.57 165.975 166.535 174.869C202.469 206.956 93.8088 244.007 124.163 191.307" stroke="#000000" stroke-opacity="0.9" stroke-width="16" stroke-linecap="round" stroke-linejoin="round"/>
<path opacity="0.742304" d="M160.768 207.434C212.295 222.099 147.712 293.954 129.821 252.988C125.979 244.19 127.689 234.957 132.634 227.678" stroke="#000000" stroke-opacity="0.9" stroke-width="16" stroke-linecap="round" stroke-linejoin="round"/>
<path opacity="0.742304" d="M202.034 240.958C242.237 285.744 151.583 305.103 165.017 267.233" stroke="#000000" stroke-opacity="0.9" stroke-width="16" stroke-linecap="round" stroke-linejoin="round"/>
<path opacity="0.742304" d="M184.169 185.516C233.234 162.059 223 253.53 186.838 237.848" stroke="#000000" stroke-opacity="0.9" stroke-width="16" stroke-linecap="round" stroke-linejoin="round"/>
<path opacity="0.742304" d="M223.509 218.5C264.282 209.298 256.474 288.029 220.095 270.689" stroke="#000000" stroke-opacity="0.9" stroke-width="16" stroke-linecap="round" stroke-linejoin="round"/>
<path opacity="0.742304" d="M179.041 296.473C156.523 332.134 110.299 298.774 139.879 268.035" stroke="#000000" stroke-opacity="0.9" stroke-width="16" stroke-linecap="round" stroke-linejoin="round"/>
<path opacity="0.742304" d="M113.148 295.079C80.9959 296.385 94.9978 258.339 118.739 256.431" stroke="#000000" stroke-opacity="0.9" stroke-width="16" stroke-linecap="round" stroke-linejoin="round"/>
<path opacity="0.742304" d="M141.835 319.249C132.691 347.734 86.8849 338.711 100.837 306.717" stroke="#000000" stroke-opacity="0.9" stroke-width="16" stroke-linecap="round" stroke-linejoin="round"/>
<path opacity="0.742304" d="M102.437 256.431C70.5963 248.942 85.2248 217.897 108.475 210.012" stroke="#000000" stroke-opacity="0.9" stroke-width="16" stroke-linecap="round" stroke-linejoin="round"/>
<path opacity="0.742304" d="M86.8036 212.591C40.2012 202.298 89.5517 134.069 110.914 178.444C116.052 189.113 113.868 191.604 104.163 198.476" stroke="#000000" stroke-opacity="0.9" stroke-width="16" stroke-linecap="round" stroke-linejoin="round"/>
<path d="M291.944 64.311C269.199 120.059 229.862 163.698 171.344 176.488" stroke="#000000" stroke-opacity="0.9" stroke-width="16" stroke-linecap="round" stroke-linejoin="round"/>
<path opacity="0.503384" d="M231.702 128.292C222.67 139.85 199.949 143.985 187.665 134.363C167.187 118.322 217.702 81.2207 242.362 98.4137C270.29 117.89 235.665 165.181 268.784 177.311C284.446 183.048 312.728 166.859 306.792 147.433C295.451 110.311 256.648 161.83 274.808 202.986C276.079 205.867 278.094 213.044 281.299 214.659C285.599 216.824 287.08 206.295 291.497 204.389C311.281 195.847 340.207 209.663 331.36 231.932" stroke="#000000" stroke-opacity="0.9" stroke-width="16" stroke-linecap="round" stroke-linejoin="round"/>
<path opacity="0.503384" d="M324.016 230.245C300.493 213.483 312.399 246.297 304.422 247.279C291.847 248.829 296.28 235.556 290.425 232.088C282.063 227.137 278.244 249.899 272.697 234.849" stroke="#000000" stroke-opacity="0.9" stroke-width="16" stroke-linecap="round" stroke-linejoin="round"/>
</svg>