<?xml version="1.0" encoding="utf-8"?><!-- Uploaded to: SVG Repo, www.svgrepo.com, Generator: SVG Repo Mixer Tools -->
<svg width="800px" height="800px" viewBox="0 0 400 400" fill="none" xmlns="http://www.w3.org/2000/svg">
<path d="M236.961 135.389C236.961 130.409 230.354 125.997 217.141 122.152C163.854 78.6767 85.706 144.15 71.6551 199.994C68.8846 211.011 63.7916 224.056 65.2609 235.737C65.8339 240.301 74.0206 250.915 72.4565 254.802C69.5438 262.034 64.058 272.533 70.4982 279.769C76.6577 286.689 88.3739 280.289 97.6765 277.977C100.059 277.386 102.815 280.556 104.702 281.806C110.894 285.908 128.294 281.806 135.606 281.806C162.527 281.806 174.639 273.688 194.757 260.36" stroke="#000000" stroke-opacity="0.9" stroke-width="16" stroke-linecap="round" stroke-linejoin="round"/>
<path d="M317.773 239.224C310.441 231.08 278.781 203.848 269.526 198.03C254.508 188.586 243.015 169.256 228.153 161.786C220.346 157.859 209.707 200.799 209.707 207.765C209.707 289.373 308.097 318.802 334.821 265.04" stroke="#000000" stroke-opacity="0.9" stroke-width="16" stroke-linecap="round" stroke-linejoin="round"/>
<path d="M217.138 211.023C229.694 218.102 276.248 201.446 285.168 210.215C286.388 211.414 276.186 279.698 274.512 283.537" stroke="#000000" stroke-opacity="0.9" stroke-width="16" stroke-linecap="round" stroke-linejoin="round"/>
<path d="M279.077 215.065C264.5 229.725 250.206 245.187 236.959 259.883" stroke="#000000" stroke-opacity="0.9" stroke-width="16" stroke-linecap="round" stroke-linejoin="round"/>
</svg>