<?xml version="1.0" encoding="utf-8"?><!-- Uploaded to: SVG Repo, www.svgrepo.com, Generator: SVG Repo Mixer Tools -->
<svg width="800px" height="800px" viewBox="0 0 400 400" fill="none" xmlns="http://www.w3.org/2000/svg">
<path d="M310.822 87C300.29 89.0998 284.758 90.9969 273.54 93.0694C245.401 98.2669 214.319 103.464 188.103 108.694C181.314 110.049 152.877 115.396 158.59 114.764" stroke="#000000" stroke-opacity="0.9" stroke-width="16" stroke-linecap="round" stroke-linejoin="round"/>
<path d="M327.511 127.333C315.831 128.382 298.604 129.331 286.162 130.367C254.954 132.966 220.48 135.565 191.405 138.18C183.875 138.857 152.336 141.531 158.672 141.214" stroke="#000000" stroke-opacity="0.9" stroke-width="16" stroke-linecap="round" stroke-linejoin="round"/>
<path opacity="0.503384" d="M188.597 116.206C227.65 137.187 168.461 189.178 193.402 203.825" stroke="#000000" stroke-opacity="0.9" stroke-width="14" stroke-linecap="round" stroke-linejoin="round"/>
<path opacity="0.503384" d="M174.607 120.378C183.261 147.463 168.138 173.992 170.639 202.434" stroke="#000000" stroke-opacity="0.9" stroke-width="14" stroke-linecap="round" stroke-linejoin="round"/>
<path opacity="0.503384" d="M155.312 124.551C160.46 151.674 156.866 181.151 152.273 207.997" stroke="#000000" stroke-opacity="0.9" stroke-width="14" stroke-linecap="round" stroke-linejoin="round"/>
<path d="M268.652 206.606C234.7 212.556 222.756 213.57 176.844 213.57C116.785 213.57 73 203.659 73 213.57C73 276.762 132.256 315.087 181.506 313.696C230.756 312.305 273.271 276.579 273.271 223.158" stroke="#000000" stroke-opacity="0.9" stroke-width="16" stroke-linecap="round" stroke-linejoin="round"/>
</svg>