<?xml version="1.0" encoding="utf-8"?><!-- Uploaded to: SVG Repo, www.svgrepo.com, Generator: SVG Repo Mixer Tools -->
<svg width="800px" height="800px" viewBox="0 0 400 400" fill="none" xmlns="http://www.w3.org/2000/svg">
<path d="M167.913 196.063C161.305 161.012 191.144 116.346 230.717 136.17C258.671 150.173 244.34 181.155 244.34 205.92C244.34 238.427 296.194 245.025 273.09 306.748C253.193 359.913 152.295 373.889 128.524 318.161C109.194 272.842 130.27 248.104 156.029 215.839" stroke="#000000" stroke-opacity="0.9" stroke-width="16" stroke-linecap="round" stroke-linejoin="round"/>
<path d="M201.851 121.993C204.859 115.134 208.698 108.957 212.817 102.728C216.332 97.4109 219.678 91.8925 222.704 86.288C260.24 16.8048 250.423 110.275 211.89 116.957C201.191 118.809 195.297 97.0809 193.524 84.7562" stroke="#000000" stroke-opacity="0.9" stroke-width="12" stroke-linecap="round" stroke-linejoin="round"/>
</svg>