<?xml version="1.0" encoding="utf-8"?><!-- Uploaded to: SVG Repo, www.svgrepo.com, Generator: SVG Repo Mixer Tools -->
<svg width="800px" height="800px" viewBox="0 0 400 400" fill="none" xmlns="http://www.w3.org/2000/svg">
<path d="M179.518 135.305C160.482 147.513 142.62 162.563 127.447 179.134C108.642 199.671 40.9663 259.988 35.2458 281.855C33.3836 288.975 28.0618 298.554 37.1571 303.77C58.3046 315.896 100.573 287.811 123.626 284.138C130.117 283.105 138.779 305.534 148.374 304.006C152.415 303.362 171.861 275.354 188.596 271.355C197.139 269.314 204.844 280.486 214.393 279.574C222.974 278.754 232.493 262.929 242.101 259.485C256.654 254.27 265.694 263.914 278.886 264.964C282.644 265.263 290.673 264.353 294.173 262.682C300.607 259.607 303.508 250.056 309.46 245.789C316.092 241.036 326.562 242.275 331.436 235.288C337.648 226.385 312.182 212.218 307.549 206.526C286.638 180.831 219.569 120.619 180.952 128.001C178.393 128.49 175.854 132.453 173.786 133.935" stroke="#000000" stroke-opacity="0.9" stroke-width="16" stroke-linecap="round" stroke-linejoin="round"/>
<path d="M191.331 119.144C204.488 85.3588 217.249 88.905 242.486 110.429C266.771 131.142 375.451 199.142 368.222 233.823C365.995 244.507 342.767 249.82 333.799 251.254C312.71 254.627 293.27 266.145 271.648 269.603C205.866 280.121 139.02 291.475 73.7227 304.006" stroke="#000000" stroke-opacity="0.9" stroke-width="16" stroke-linecap="round" stroke-linejoin="round"/>
<path d="M354.659 212.215C345.433 213.493 331.016 218.079 331.016 227.514" stroke="#000000" stroke-opacity="0.9" stroke-width="16" stroke-linecap="round" stroke-linejoin="round"/>
<path opacity="0.503384" d="M250.798 189.979C255.517 181.863 271.451 179.167 279.395 184.07C304.083 199.303 296.252 242.242 257.831 238.166C234.241 235.663 234.241 212.216 250.798 199.071" stroke="#000000" stroke-opacity="0.9" stroke-width="14" stroke-linecap="round" stroke-linejoin="round"/>
<path opacity="0.503384" d="M172.331 226.157C177.886 221.406 185.477 217.779 193.022 217.779C215.979 217.779 236.076 236.885 210.826 252.692C180.039 271.962 147.455 261.501 173.773 227.555" stroke="#000000" stroke-opacity="0.9" stroke-width="14" stroke-linecap="round" stroke-linejoin="round"/>
<path opacity="0.503384" d="M165.097 151.843C170.337 141.908 180.96 136.266 192.836 139.347C201.126 141.497 208.662 149.751 214.736 155.082C251.95 187.751 164.123 221.455 164.123 176.835C164.123 166.071 164.673 162.626 173.37 156.009" stroke="#000000" stroke-opacity="0.9" stroke-width="14" stroke-linecap="round" stroke-linejoin="round"/>
<path opacity="0.503384" d="M77.8955 261.532C80.2817 254.677 84.9967 248.788 91.0175 244.292C113.94 227.173 149.423 252.831 131.355 269.698C112.155 287.623 71.9761 288.051 86.643 253.819" stroke="#000000" stroke-opacity="0.9" stroke-width="14" stroke-linecap="round" stroke-linejoin="round"/>
</svg>