<?xml version="1.0" encoding="utf-8"?><!-- Uploaded to: SVG Repo, www.svgrepo.com, Generator: SVG Repo Mixer Tools -->
<svg width="800px" height="800px" viewBox="0 0 400 400" fill="none" xmlns="http://www.w3.org/2000/svg">
<path d="M310.134 185.174C315.201 167.903 343.132 179.215 334.917 195.684C327.606 210.347 319.14 200.248 310.134 204.76C307.488 206.087 282.179 225.785 276.616 234.951C261.563 259.752 220.471 298.514 170.952 292.673C136.781 288.643 132.829 249.423 145.692 225.785C174.108 173.559 255.17 205.813 256.748 204.76C268.435 196.95 276.616 189.682 287.333 186.211" stroke="#000000" stroke-opacity="0.9" stroke-width="16" stroke-linecap="round" stroke-linejoin="round"/>
<path d="M286.351 173.757C289.113 160.075 304.505 142.313 316.948 157.063" stroke="#000000" stroke-opacity="0.9" stroke-width="16" stroke-linecap="round" stroke-linejoin="round"/>
<path d="M119.287 259.985C110.756 259.319 98.6629 255.032 90.9486 250.874C48.1089 227.787 115.471 89.6966 225.167 125.174C252.704 134.08 273.344 152.154 282.18 174.449" stroke="#000000" stroke-opacity="0.9" stroke-width="16" stroke-linecap="round" stroke-linejoin="round"/>
<path d="M80.3649 201.572C47.9996 177.729 86.2896 141.943 113.895 140.378" stroke="#000000" stroke-opacity="0.9" stroke-width="16" stroke-linecap="round" stroke-linejoin="round"/>
<path d="M234.893 115.751C245.702 101.806 250.294 106.338 259.926 116.735" stroke="#000000" stroke-opacity="0.9" stroke-width="16" stroke-linecap="round" stroke-linejoin="round"/>
<path d="M263.647 107C282.646 110.227 279.424 128.61 262.708 132.034" stroke="#000000" stroke-opacity="0.9" stroke-width="16" stroke-linecap="round" stroke-linejoin="round"/>
</svg>