<?xml version="1.0" encoding="utf-8"?><!-- Uploaded to: SVG Repo, www.svgrepo.com, Generator: SVG Repo Mixer Tools -->
<svg width="800px" height="800px" viewBox="0 0 400 400" fill="none" xmlns="http://www.w3.org/2000/svg">
<path d="M151.066 324.654C158.267 306.982 142.467 260.44 156.752 246.243C171.23 231.858 284.052 241.41 285.692 243.036C288.549 245.875 286.836 320.115 282.59 328.555C278.344 336.996 166.544 332.146 150.547 330.821" stroke="#000000" stroke-opacity="0.9" stroke-width="16" stroke-linecap="round" stroke-linejoin="round"/>
<path d="M114.394 316.342C114.394 290.465 103.322 238.345 128.803 219.15C138.045 212.188 250.851 211.846 255.426 216.441C266.154 227.212 272.229 233.002 284.723 241.789" stroke="#000000" stroke-opacity="0.9" stroke-width="16" stroke-linecap="round" stroke-linejoin="round"/>
<path d="M117.15 316.342C127.112 322.369 138.277 326.441 149.138 330.25" stroke="#000000" stroke-opacity="0.9" stroke-width="16" stroke-linecap="round" stroke-linejoin="round"/>
<path d="M133.144 276.797C129.667 274.836 127.855 274.642 125.495 273.286" stroke="#000000" stroke-opacity="0.9" stroke-width="16" stroke-linecap="round" stroke-linejoin="round"/>
<path opacity="0.503384" d="M228.412 224.841C204.979 224.836 181.367 223.593 157.482 225.98" stroke="#000000" stroke-opacity="0.9" stroke-width="16" stroke-linecap="round" stroke-linejoin="round"/>
<path d="M227.473 181.504C199.309 175.497 176.666 186.452 156.722 181.504C154.504 180.952 157.689 134.843 157.907 130.516C158.683 115.152 137.398 97.3314 150.792 80.3159C174.065 50.7481 187.063 80.3159 199.06 80.3159C204.303 80.3159 231.966 56.5967 246.052 72.4716C266.822 95.8779 234.78 105.008 231.966 113.381C228.404 123.989 230.128 149.411 231.822 160.324" stroke="#000000" stroke-opacity="0.9" stroke-width="16" stroke-linecap="round" stroke-linejoin="round"/>
<path d="M151.92 139.65C136.747 140.349 124.961 135.334 117.15 123.025" stroke="#000000" stroke-opacity="0.9" stroke-width="16" stroke-linecap="round" stroke-linejoin="round"/>
<path d="M231.193 142.147C252.976 139.16 262.499 133.977 268.744 125.806" stroke="#000000" stroke-opacity="0.9" stroke-width="16" stroke-linecap="round" stroke-linejoin="round"/>
</svg>