<?xml version="1.0" encoding="utf-8"?><!-- Uploaded to: SVG Repo, www.svgrepo.com, Generator: SVG Repo Mixer Tools -->
<svg width="800px" height="800px" viewBox="0 0 400 400" fill="none" xmlns="http://www.w3.org/2000/svg">
<path d="M54 125.612C71.6543 315.538 308.794 340.765 345.123 123" stroke="#000000" stroke-opacity="0.9" stroke-width="12" stroke-linecap="round" stroke-linejoin="round"/>
<path opacity="0.503384" d="M88.6621 142.961C94.389 234.026 201.146 284.624 268.178 228.097C298.305 202.691 303.85 163.529 317.027 126.483" stroke="#000000" stroke-opacity="0.9" stroke-width="6" stroke-linecap="round" stroke-linejoin="round"/>
<path d="M245.535 197.886C246.168 193.366 247.172 188.085 247.721 183.954" stroke="#000000" stroke-opacity="0.9" stroke-width="12" stroke-linecap="round" stroke-linejoin="round"/>
<path d="M200.866 201.369C201.138 197.198 202.618 193.214 203.487 189.179" stroke="#000000" stroke-opacity="0.9" stroke-width="12" stroke-linecap="round" stroke-linejoin="round"/>
<path d="M151.842 192.661C152.498 188.992 152.898 184.464 153.155 180.471" stroke="#000000" stroke-opacity="0.9" stroke-width="12" stroke-linecap="round" stroke-linejoin="round"/>
<path fill-rule="evenodd" clip-rule="evenodd" d="M183.279 155.993C182.667 152.671 182.578 150.169 183.279 147.382V155.993Z" stroke="#000000" stroke-opacity="0.9" stroke-width="12" stroke-linecap="round" stroke-linejoin="round"/>
<path d="M226.801 157.831C227.193 154.352 227.638 150.829 228.108 147.382" stroke="#000000" stroke-opacity="0.9" stroke-width="12" stroke-linecap="round" stroke-linejoin="round"/>
<path d="M343.391 125.051C247.284 126.811 150.47 125.976 54.001 125.976" stroke="#000000" stroke-opacity="0.9" stroke-width="12" stroke-linecap="round" stroke-linejoin="round"/>
</svg>