<?xml version="1.0" encoding="utf-8"?><!-- Uploaded to: SVG Repo, www.svgrepo.com, Generator: SVG Repo Mixer Tools -->
<svg width="800px" height="800px" viewBox="0 0 400 400" fill="none" xmlns="http://www.w3.org/2000/svg">
<path d="M234.268 49C211.613 51.5551 184.033 52.3641 151.526 51.427C153.292 72.3464 153.834 84.8375 153.154 88.9002C145.026 137.408 123.185 194.269 188.044 205.997C202.831 208.669 226.451 208.744 238.631 199.058C280.556 165.701 236.18 93.0849 247.351 54.2036" stroke="#000000" stroke-opacity="0.9" stroke-width="16" stroke-linecap="round" stroke-linejoin="round"/>
<path d="M200.284 215.886C199.766 254.066 198.364 305.55 198.364 336.883" stroke="#000000" stroke-opacity="0.9" stroke-width="16" stroke-linecap="round" stroke-linejoin="round"/>
<path d="M168.832 339.017C187.056 336.829 205.622 336.174 221.59 339.682C274.299 351.261 174.813 354.042 158.967 348.059" stroke="#000000" stroke-opacity="0.9" stroke-width="16" stroke-linecap="round" stroke-linejoin="round"/>
<path opacity="0.503384" d="M160.898 114.753C294.295 110.875 222.544 137.368 158.299 118.834" stroke="#000000" stroke-opacity="0.9" stroke-width="14" stroke-linecap="round" stroke-linejoin="round"/>
</svg>