<?xml version="1.0" encoding="utf-8"?><!-- Uploaded to: SVG Repo, www.svgrepo.com, Generator: SVG Repo Mixer Tools -->
<svg width="800px" height="800px" viewBox="0 0 400 400" fill="none" xmlns="http://www.w3.org/2000/svg">
<path d="M95.7179 75.2973C51.5165 231.436 156.065 197.136 191.215 240.993C203.248 256.006 196.55 271.206 198.857 289.633C200.952 306.36 202.916 329.14 202.916 325.301C202.916 304.642 196.461 268.057 210.707 249.098C229.386 224.238 255.83 226.22 280.229 210.999C319.025 186.792 320.323 118.111 306.389 74" stroke="#000000" stroke-opacity="0.9" stroke-width="16" stroke-linecap="round" stroke-linejoin="round"/>
<path d="M159.381 325.729C167.932 323.723 256.065 310.592 256.065 321.971C256.065 323.298 159.602 325.887 150.366 325.103" stroke="#000000" stroke-opacity="0.9" stroke-width="16" stroke-linecap="round" stroke-linejoin="round"/>
<path opacity="0.503384" d="M113.426 122.074C430.242 114.318 259.835 167.303 107.252 130.235" stroke="#000000" stroke-opacity="0.9" stroke-width="14" stroke-linecap="round" stroke-linejoin="round"/>
</svg>