<?xml version="1.0" encoding="utf-8"?><!-- Uploaded to: SVG Repo, www.svgrepo.com, Generator: SVG Repo Mixer Tools -->
<svg width="800px" height="800px" viewBox="0 0 400 400" fill="none" xmlns="http://www.w3.org/2000/svg">
<path d="M165.505 119.268C127.499 161 152.611 185.047 170.999 219M172.999 250C169.044 282.5 138.79 319.553 136.85 337.133" stroke="#000000" stroke-opacity="0.9" stroke-width="16" stroke-linecap="round" stroke-linejoin="round"/>
<path d="M181.828 131.717C164.538 177.553 210.199 205.108 214.848 247.263C218.228 277.924 200.604 304.863 210.215 337.133" stroke="#000000" stroke-opacity="0.9" stroke-width="16" stroke-linecap="round" stroke-linejoin="round"/>
<path d="M170.466 219.295C140.915 214.745 114.549 247.928 83.3193 236.293" stroke="#000000" stroke-opacity="0.9" stroke-width="16" stroke-linecap="round" stroke-linejoin="round"/>
<path d="M171.955 253.568C148.942 225.964 122.6 267.088 94.7686 251.179" stroke="#000000" stroke-opacity="0.9" stroke-width="16" stroke-linecap="round" stroke-linejoin="round"/>
<path d="M195.365 191.474C204.572 168.811 228.342 188.89 241.428 181.047" stroke="#000000" stroke-opacity="0.9" stroke-width="16" stroke-linecap="round" stroke-linejoin="round"/>
<path d="M212.793 208.904C228.419 207.661 238.914 194.138 253.877 191.475" stroke="#000000" stroke-opacity="0.9" stroke-width="16" stroke-linecap="round" stroke-linejoin="round"/>
<path opacity="0.503384" d="M259.16 171.555C260.368 168.712 259.44 165.619 259.571 162.841" stroke="#000000" stroke-opacity="0.9" stroke-width="4" stroke-linecap="round" stroke-linejoin="round"/>
<path opacity="0.503384" d="M268.049 175.29C267.65 172.322 268.329 169.434 268.466 166.575" stroke="#000000" stroke-opacity="0.9" stroke-width="4" stroke-linecap="round" stroke-linejoin="round"/>
<path opacity="0.503384" d="M276.492 154.123C276.691 152.019 277.052 149.946 277.32 147.904" stroke="#000000" stroke-opacity="0.9" stroke-width="4" stroke-linecap="round" stroke-linejoin="round"/>
<path opacity="0.503384" d="M293.089 157.86C293.538 155.723 294.758 153.679 295.579 151.636" stroke="#000000" stroke-opacity="0.9" stroke-width="4" stroke-linecap="round" stroke-linejoin="round"/>
<path opacity="0.503384" d="M303.429 160.351C303.351 158.182 303.762 156.172 303.926 154.126" stroke="#000000" stroke-opacity="0.9" stroke-width="4" stroke-linecap="round" stroke-linejoin="round"/>
<path opacity="0.503384" d="M316.332 162.841C316.637 159.916 316.886 157.024 317.16 154.126" stroke="#000000" stroke-opacity="0.9" stroke-width="4" stroke-linecap="round" stroke-linejoin="round"/>
<path opacity="0.503384" d="M331.269 162.834C331.704 160.786 331.823 158.67 332.096 156.622" stroke="#000000" stroke-opacity="0.9" stroke-width="4" stroke-linecap="round" stroke-linejoin="round"/>
<path opacity="0.503384" d="M286.359 180.27C287.488 175.912 286.474 173.305 287.488 170.933C285.982 180.062 285.606 183.175 286.359 180.27Z" stroke="#000000" stroke-opacity="0.9" stroke-width="4" stroke-linecap="round" stroke-linejoin="round"/>
<path opacity="0.503384" d="M303.343 177.78C303.353 174.757 303.764 171.945 304.006 169.065" stroke="#000000" stroke-opacity="0.9" stroke-width="4" stroke-linecap="round" stroke-linejoin="round"/>
<path opacity="0.503384" d="M313.631 184.005C313.737 181.085 314.496 178.195 314.876 175.29" stroke="#000000" stroke-opacity="0.9" stroke-width="4" stroke-linecap="round" stroke-linejoin="round"/>
<path opacity="0.503384" d="M328.571 184.005C328.596 181.059 329.418 178.069 329.816 175.29" stroke="#000000" stroke-opacity="0.9" stroke-width="4" stroke-linecap="round" stroke-linejoin="round"/>
<path opacity="0.503384" d="M342.06 184.005C342.757 181.947 343.168 179.856 343.715 177.78" stroke="#000000" stroke-opacity="0.9" stroke-width="4" stroke-linecap="round" stroke-linejoin="round"/>
<path opacity="0.503384" d="M350.777 195.209C351.574 193.167 351.885 191.061 352.433 188.984" stroke="#000000" stroke-opacity="0.9" stroke-width="4" stroke-linecap="round" stroke-linejoin="round"/>
<path opacity="0.503384" d="M342.018 215.128C342.573 211.475 342.433 207.68 342.516 203.924" stroke="#000000" stroke-opacity="0.9" stroke-width="4" stroke-linecap="round" stroke-linejoin="round"/>
<path opacity="0.503384" d="M327.442 212.638C327.731 208.851 327.301 205.042 327.111 201.434" stroke="#000000" stroke-opacity="0.9" stroke-width="4" stroke-linecap="round" stroke-linejoin="round"/>
<path opacity="0.503384" d="M316.432 212.638C314.869 208.569 316.656 205.098 317.676 201.434" stroke="#000000" stroke-opacity="0.9" stroke-width="4" stroke-linecap="round" stroke-linejoin="round"/>
<path opacity="0.503384" d="M304.3 212.638C305.153 206.827 305.875 200.997 306.783 195.209" stroke="#000000" stroke-opacity="0.9" stroke-width="4" stroke-linecap="round" stroke-linejoin="round"/>
<path opacity="0.503384" d="M290.144 212.638C291.464 206.024 290.972 199.281 290.972 192.719" stroke="#000000" stroke-opacity="0.9" stroke-width="4" stroke-linecap="round" stroke-linejoin="round"/>
<path opacity="0.503384" d="M274.541 208.904C275.213 205.274 275.28 201.439 275.537 197.699" stroke="#000000" stroke-opacity="0.9" stroke-width="4" stroke-linecap="round" stroke-linejoin="round"/>
<path opacity="0.503384" d="M261.346 212.638C261.551 209.71 262.174 206.831 262.591 203.924" stroke="#000000" stroke-opacity="0.9" stroke-width="4" stroke-linecap="round" stroke-linejoin="round"/>
<path opacity="0.503384" d="M169.009 99.3483C167.422 97.0011 165.094 95.1509 163.208 93.1235" stroke="#000000" stroke-opacity="0.9" stroke-width="4" stroke-linecap="round" stroke-linejoin="round"/>
<path opacity="0.503384" d="M157.803 104.243C157.007 103.051 153.9 102.682 152.002 101.923" stroke="#000000" stroke-opacity="0.9" stroke-width="4" stroke-linecap="round" stroke-linejoin="round"/>
<path opacity="0.503384" d="M172.953 75.6945C171.789 73.7588 172.113 71.5043 171.708 69.4697" stroke="#000000" stroke-opacity="0.9" stroke-width="4" stroke-linecap="round" stroke-linejoin="round"/>
<path opacity="0.503384" d="M187.27 73.2042C187.27 71.1293 187.27 69.0544 187.27 66.9795" stroke="#000000" stroke-opacity="0.9" stroke-width="4" stroke-linecap="round" stroke-linejoin="round"/>
<path opacity="0.503384" d="M202.328 70.715C201.701 68.369 203.262 65.71 203.489 64.4902" stroke="#000000" stroke-opacity="0.9" stroke-width="4" stroke-linecap="round" stroke-linejoin="round"/>
<path opacity="0.503384" d="M219.601 66.9798C219.68 65.1872 220.477 63.5292 220.925 62" stroke="#000000" stroke-opacity="0.9" stroke-width="4" stroke-linecap="round" stroke-linejoin="round"/>
<path opacity="0.503384" d="M233.131 70.7146C233.56 67.7131 234.973 64.8566 236.032 62" stroke="#000000" stroke-opacity="0.9" stroke-width="4" stroke-linecap="round" stroke-linejoin="round"/>
<path opacity="0.503384" d="M188.723 93.1237C186.768 91.3103 186.75 88.8838 185.822 86.8989" stroke="#000000" stroke-opacity="0.9" stroke-width="4" stroke-linecap="round" stroke-linejoin="round"/>
<path opacity="0.503384" d="M202.918 93.1235C202.851 89.3852 202.836 85.6572 202.751 81.9189" stroke="#000000" stroke-opacity="0.9" stroke-width="4" stroke-linecap="round" stroke-linejoin="round"/>
<path opacity="0.503384" d="M222.466 90.6336C222.138 87.5374 222.81 84.6728 223.128 81.9189" stroke="#000000" stroke-opacity="0.9" stroke-width="4" stroke-linecap="round" stroke-linejoin="round"/>
<path opacity="0.503384" d="M236.451 95.6137C236.325 90.8583 238.197 87.3623 238.935 84.4092" stroke="#000000" stroke-opacity="0.9" stroke-width="4" stroke-linecap="round" stroke-linejoin="round"/>
<path opacity="0.503384" d="M253.874 99.3481C255.076 96.1964 255.674 92.013 256.361 88.1436" stroke="#000000" stroke-opacity="0.9" stroke-width="4" stroke-linecap="round" stroke-linejoin="round"/>
<path opacity="0.503384" d="M266.12 99.3455C267.907 97.5652 268.934 95.1251 270.266 93.127" stroke="#000000" stroke-opacity="0.9" stroke-width="4" stroke-linecap="round" stroke-linejoin="round"/>
<path opacity="0.503384" d="M263.838 115.324C264.66 115.586 264.666 116.432 265.077 116.986" stroke="#000000" stroke-opacity="0.9" stroke-width="4" stroke-linecap="round" stroke-linejoin="round"/>
<path opacity="0.503384" d="M250.376 118.025C250.084 119.382 250.936 120.528 251.21 121.754" stroke="#000000" stroke-opacity="0.9" stroke-width="4" stroke-linecap="round" stroke-linejoin="round"/>
<path opacity="0.503384" d="M232.954 119.268C232.618 121.403 233.502 123.414 233.782 125.492" stroke="#000000" stroke-opacity="0.9" stroke-width="4" stroke-linecap="round" stroke-linejoin="round"/>
<path opacity="0.503384" d="M216.525 119.268C216.525 122.172 216.525 125.077 216.525 127.982" stroke="#000000" stroke-opacity="0.9" stroke-width="4" stroke-linecap="round" stroke-linejoin="round"/>
<path opacity="0.503384" d="M198.689 116.777C199.598 120.768 201.727 124.247 203.246 127.982" stroke="#000000" stroke-opacity="0.9" stroke-width="4" stroke-linecap="round" stroke-linejoin="round"/>
<path opacity="0.503384" d="M131.87 127.982C130.082 124.869 127.792 122.097 125.646 119.268" stroke="#000000" stroke-opacity="0.9" stroke-width="4" stroke-linecap="round" stroke-linejoin="round"/>
<path opacity="0.503384" d="M119.009 131.717C118.013 130.21 117.903 127.56 117.351 125.492" stroke="#000000" stroke-opacity="0.9" stroke-width="4" stroke-linecap="round" stroke-linejoin="round"/>
<path opacity="0.503384" d="M110.082 141.468C108.986 140.559 108.426 139.258 107.592 138.15" stroke="#000000" stroke-opacity="0.9" stroke-width="4" stroke-linecap="round" stroke-linejoin="round"/>
<path opacity="0.503384" d="M102.405 153.876C100.064 153.617 99.0183 152.399 97.8418 151.886" stroke="#000000" stroke-opacity="0.9" stroke-width="4" stroke-linecap="round" stroke-linejoin="round"/>
<path opacity="0.503384" d="M92.8631 164.833C90.7965 164.731 90.8525 163.799 89.9624 163.339" stroke="#000000" stroke-opacity="0.9" stroke-width="4" stroke-linecap="round" stroke-linejoin="round"/>
<path opacity="0.503384" d="M123.779 142.299C122.951 142.299 122.123 142.299 121.295 142.299" stroke="#000000" stroke-opacity="0.9" stroke-width="4" stroke-linecap="round" stroke-linejoin="round"/>
<path opacity="0.503384" d="M120.664 156.116C118.269 156.004 116.506 155.12 114.439 154.625" stroke="#000000" stroke-opacity="0.9" stroke-width="4" stroke-linecap="round" stroke-linejoin="round"/>
<path opacity="0.503384" d="M114.442 168.231C111.664 168.244 110.231 165.15 108.217 163.675" stroke="#000000" stroke-opacity="0.9" stroke-width="4" stroke-linecap="round" stroke-linejoin="round"/>
<path opacity="0.503384" d="M105.728 179.435C102.992 179.249 101.385 176.255 99.5029 174.879" stroke="#000000" stroke-opacity="0.9" stroke-width="4" stroke-linecap="round" stroke-linejoin="round"/>
<path opacity="0.503384" d="M109.687 221.353C106.506 219.576 108.853 217.203 108.442 215.128" stroke="#000000" stroke-opacity="0.9" stroke-width="4" stroke-linecap="round" stroke-linejoin="round"/>
<path opacity="0.503384" d="M94.7271 223.843C93.4448 220.195 93.6191 216.341 93.0713 212.639" stroke="#000000" stroke-opacity="0.9" stroke-width="4" stroke-linecap="round" stroke-linejoin="round"/>
<path opacity="0.503384" d="M78.7902 223.843C78.5413 220.917 79.0019 218.029 79.2073 215.128" stroke="#000000" stroke-opacity="0.9" stroke-width="4" stroke-linecap="round" stroke-linejoin="round"/>
<path opacity="0.503384" d="M69.1292 225.088C69.9136 222.708 67.5855 220.803 66.2285 218.863" stroke="#000000" stroke-opacity="0.9" stroke-width="4" stroke-linecap="round" stroke-linejoin="round"/>
<path opacity="0.503384" d="M56.5488 226.166C56.5488 225.446 56.5488 224.729 56.5488 224.01" stroke="#000000" stroke-opacity="0.9" stroke-width="4" stroke-linecap="round" stroke-linejoin="round"/>
<path opacity="0.503384" d="M48.6558 240.438C48.8425 238.633 47.554 237.4 47 235.881" stroke="#000000" stroke-opacity="0.9" stroke-width="4" stroke-linecap="round" stroke-linejoin="round"/>
<path opacity="0.503384" d="M92.2411 263.887C90.716 262.654 91.1767 261.229 90.5791 259.741" stroke="#000000" stroke-opacity="0.9" stroke-width="4" stroke-linecap="round" stroke-linejoin="round"/>
<path opacity="0.503384" d="M74.1895 264.926C73.3616 261.189 73.9841 257.458 74.1895 253.722" stroke="#000000" stroke-opacity="0.9" stroke-width="4" stroke-linecap="round" stroke-linejoin="round"/>
<path opacity="0.503384" d="M64.7372 262.436C64.1832 257.332 65.0422 252.406 65.9759 247.497" stroke="#000000" stroke-opacity="0.9" stroke-width="4" stroke-linecap="round" stroke-linejoin="round"/>
<path opacity="0.503384" d="M51.7788 258.702C52.0228 254.951 52.3888 251.277 52.6079 247.497" stroke="#000000" stroke-opacity="0.9" stroke-width="4" stroke-linecap="round" stroke-linejoin="round"/>
<path opacity="0.503384" d="M174.666 310.822C175.369 310.16 174.666 309.386 174.666 308.666" stroke="#000000" stroke-opacity="0.9" stroke-width="4" stroke-linecap="round" stroke-linejoin="round"/>
<path opacity="0.503384" d="M162.167 317.214C162.946 314.259 164.097 311.402 165.068 308.499" stroke="#000000" stroke-opacity="0.9" stroke-width="4" stroke-linecap="round" stroke-linejoin="round"/>
</svg>