<?xml version="1.0" encoding="utf-8"?><!-- Uploaded to: SVG Repo, www.svgrepo.com, Generator: SVG Repo Mixer Tools -->
<svg width="800px" height="800px" viewBox="0 0 400 400" fill="none" xmlns="http://www.w3.org/2000/svg">
<path d="M81 328.459C111.723 247.92 166.383 184.809 242.843 142.962" stroke="#000000" stroke-opacity="0.9" stroke-width="16" stroke-linecap="round" stroke-linejoin="round"/>
<path d="M151.266 164.155C144.226 163.307 207.365 181.074 199.9 173.522C198.424 172.03 196.823 182.797 196.811 182.889C196.003 190.234 194.61 197.652 198.356 203.964" stroke="#000000" stroke-opacity="0.9" stroke-width="16" stroke-linecap="round" stroke-linejoin="round"/>
<path d="M156.907 199.454C137.579 211.61 86.4357 205.606 97.4868 172.42C99.395 166.697 104.596 160.116 109.835 156.968C110.674 156.467 116.781 155.107 116.781 154.652C116.781 153.596 83.5487 104.362 131.444 99.0341C156.05 96.2999 175.231 118.712 181.604 139.974C181.84 140.764 187.796 163.15 187.007 163.15C172.416 163.15 192.659 95.51 204.753 85.1316C215.543 75.8734 227.045 72 241.025 72C285.844 72 254.834 125.138 259.546 134.567C260.49 136.462 331.895 154.895 316.652 195.592C308.435 217.522 279.903 238.587 256.458 228.808C254.018 227.79 218.195 213.037 220.96 210.269C226.066 205.158 266.488 239.707 266.488 251.984C266.488 280.4 236.738 265.541 226.362 275.931C220.418 281.878 226.389 304.693 206.297 312.234C181.115 321.69 165.796 276.44 163.854 258.933C162.598 247.613 169.802 237.117 171.57 226.492" stroke="#000000" stroke-opacity="0.9" stroke-width="16" stroke-linecap="round" stroke-linejoin="round"/>
</svg>