<?xml version="1.0" encoding="utf-8"?><!-- Uploaded to: SVG Repo, www.svgrepo.com, Generator: SVG Repo Mixer Tools -->
<svg width="800px" height="800px" viewBox="0 0 400 400" fill="none" xmlns="http://www.w3.org/2000/svg">
<path d="M205.872 21.676C212 112.49 193.189 192.493 197.142 283.42C198.585 316.61 196.27 334.742 197.766 378.233" stroke="#000000" stroke-opacity="0.9" stroke-width="16" stroke-linecap="round" stroke-linejoin="round"/>
<path d="M202.125 335.798C210.855 331.231 217.66 329.878 228.061 322.448" stroke="#000000" stroke-opacity="0.9" stroke-width="16" stroke-linecap="round" stroke-linejoin="round"/>
<path d="M197.137 335.798C192.798 334.291 185.443 327.699 182.171 324.725" stroke="#000000" stroke-opacity="0.9" stroke-width="16" stroke-linecap="round" stroke-linejoin="round"/>
<path d="M198.384 301.503C203.458 296.457 217.517 293.181 223.326 289.032" stroke="#000000" stroke-opacity="0.9" stroke-width="16" stroke-linecap="round" stroke-linejoin="round"/>
<path d="M195.89 301.503C188.196 298.704 183.353 291.898 177.183 287.785" stroke="#000000" stroke-opacity="0.9" stroke-width="16" stroke-linecap="round" stroke-linejoin="round"/>
<path d="M164.634 234.621C170.815 250.234 189.554 255.094 195.269 259.993" stroke="#000000" stroke-opacity="0.9" stroke-width="16" stroke-linecap="round" stroke-linejoin="round"/>
<path d="M197.76 261.596C208.616 260.252 221.143 255.816 231.964 254.463" stroke="#000000" stroke-opacity="0.9" stroke-width="16" stroke-linecap="round" stroke-linejoin="round"/>
<path d="M177.807 217.323C184.173 219.147 188.836 225.43 195.266 225.43" stroke="#000000" stroke-opacity="0.9" stroke-width="16" stroke-linecap="round" stroke-linejoin="round"/>
<path d="M198.384 229.166C206.469 225.185 220.213 222.043 228.314 218.571" stroke="#000000" stroke-opacity="0.9" stroke-width="16" stroke-linecap="round" stroke-linejoin="round"/>
<path d="M182.171 186.77C185.813 189.996 188.411 193.319 192.772 195.499" stroke="#000000" stroke-opacity="0.9" stroke-width="16" stroke-linecap="round" stroke-linejoin="round"/>
<path d="M198.384 194.252C204.458 192.469 218.992 181.887 219.279 181.6" stroke="#000000" stroke-opacity="0.9" stroke-width="16" stroke-linecap="round" stroke-linejoin="round"/>
<path d="M185.289 151.851C189.153 156.202 192.237 160.275 197.137 163.075" stroke="#000000" stroke-opacity="0.9" stroke-width="16" stroke-linecap="round" stroke-linejoin="round"/>
<path d="M203.996 155.592C207.344 153.417 214.28 148.363 216.676 145.167" stroke="#000000" stroke-opacity="0.9" stroke-width="16" stroke-linecap="round" stroke-linejoin="round"/>
<path d="M192.928 114.591C194.367 117.391 200.104 120.188 202.123 122.544" stroke="#000000" stroke-opacity="0.9" stroke-width="16" stroke-linecap="round" stroke-linejoin="round"/>
<path d="M208.36 118.179C211.552 117.143 214.538 115.742 217.09 113.191" stroke="#000000" stroke-opacity="0.9" stroke-width="16" stroke-linecap="round" stroke-linejoin="round"/>
<path d="M188.417 75.7815C189.362 78.7521 202.908 91.0036 205.866 91.9901" stroke="#000000" stroke-opacity="0.9" stroke-width="16" stroke-linecap="round" stroke-linejoin="round"/>
<path d="M210.854 89.4957C214.055 87.0963 215.371 84.4262 217.978 81.821" stroke="#000000" stroke-opacity="0.9" stroke-width="16" stroke-linecap="round" stroke-linejoin="round"/>
<path d="M192.772 63.3066C193.838 65.1623 203.372 66.0091 205.243 67.0479" stroke="#000000" stroke-opacity="0.9" stroke-width="16" stroke-linecap="round" stroke-linejoin="round"/>
<path d="M208.36 63.3066C212.541 62.1543 214.471 62.2353 215.843 59.4905" stroke="#000000" stroke-opacity="0.9" stroke-width="16" stroke-linecap="round" stroke-linejoin="round"/>
<path d="M168.862 309.111C169.263 311.678 180.726 322.988 182.174 324.725" stroke="#000000" stroke-opacity="0.9" stroke-width="16" stroke-linecap="round" stroke-linejoin="round"/>
<path d="M179.271 325.051C175.838 325.542 162.359 323.572 160.259 321.473" stroke="#000000" stroke-opacity="0.9" stroke-width="16" stroke-linecap="round" stroke-linejoin="round"/>
<path d="M228.061 322.448C234.242 319.097 238.053 312.829 244 309.111" stroke="#000000" stroke-opacity="0.9" stroke-width="16" stroke-linecap="round" stroke-linejoin="round"/>
<path d="M228.061 322.448C230.598 325.059 233.843 326.405 237.17 327.653" stroke="#000000" stroke-opacity="0.9" stroke-width="16" stroke-linecap="round" stroke-linejoin="round"/>
<path d="M226.434 284.715C227.421 282.317 228.723 280.031 230.012 277.884" stroke="#000000" stroke-opacity="0.9" stroke-width="16" stroke-linecap="round" stroke-linejoin="round"/>
<path d="M227.739 286.667C232.135 286.816 235.478 289.902 239.45 290.896" stroke="#000000" stroke-opacity="0.9" stroke-width="16" stroke-linecap="round" stroke-linejoin="round"/>
<path d="M175.693 286.667C173.894 283.206 162.288 281.13 160.259 277.884" stroke="#000000" stroke-opacity="0.9" stroke-width="16" stroke-linecap="round" stroke-linejoin="round"/>
<path d="M173.092 289.269C170.214 290.114 167.43 291.181 164.634 292.197" stroke="#000000" stroke-opacity="0.9" stroke-width="16" stroke-linecap="round" stroke-linejoin="round"/>
<path d="M171.789 251.536C167.007 253.19 162.082 254.112 157.151 254.463" stroke="#000000" stroke-opacity="0.9" stroke-width="16" stroke-linecap="round" stroke-linejoin="round"/>
<path d="M219.282 257.231C222.562 253.811 228.314 243.328 230.992 239.501" stroke="#000000" stroke-opacity="0.9" stroke-width="16" stroke-linecap="round" stroke-linejoin="round"/>
<path d="M231.968 254.463C235.298 254.973 239.351 259.621 242.703 259.993" stroke="#000000" stroke-opacity="0.9" stroke-width="16" stroke-linecap="round" stroke-linejoin="round"/>
<path d="M219.282 218.032C221.683 211.922 223.284 205.5 225.788 199.491" stroke="#000000" stroke-opacity="0.9" stroke-width="16" stroke-linecap="round" stroke-linejoin="round"/>
<path d="M228.314 218.571C231.473 219.194 236.368 217.435 239.121 219.007" stroke="#000000" stroke-opacity="0.9" stroke-width="16" stroke-linecap="round" stroke-linejoin="round"/>
<path d="M175.69 215.755C175.136 208.863 168.115 200.09 166.583 193.96" stroke="#000000" stroke-opacity="0.9" stroke-width="16" stroke-linecap="round" stroke-linejoin="round"/>
<path d="M175.695 215.755C170.269 213.398 160.655 212.413 155.203 211.2" stroke="#000000" stroke-opacity="0.9" stroke-width="16" stroke-linecap="round" stroke-linejoin="round"/>
<path d="M178.945 184.527C173.446 183.678 168.881 182.423 163.981 179.974" stroke="#000000" stroke-opacity="0.9" stroke-width="16" stroke-linecap="round" stroke-linejoin="round"/>
<path d="M178.946 184.527C176.949 178.447 172.465 169.078 168.862 164.035" stroke="#000000" stroke-opacity="0.9" stroke-width="16" stroke-linecap="round" stroke-linejoin="round"/>
<path d="M221.231 181.6C226.194 184.515 237.469 185.328 239.122 185.178" stroke="#000000" stroke-opacity="0.9" stroke-width="16" stroke-linecap="round" stroke-linejoin="round"/>
<path d="M219.282 181.6C223.133 177.275 228.452 169.856 231.968 165.336" stroke="#000000" stroke-opacity="0.9" stroke-width="16" stroke-linecap="round" stroke-linejoin="round"/>
<path d="M217.977 145.168C220.557 141.545 225.437 135.34 227.085 133.457" stroke="#000000" stroke-opacity="0.9" stroke-width="16" stroke-linecap="round" stroke-linejoin="round"/>
<path d="M217.655 147.77C222.771 147.728 227.948 147.703 232.943 146.795" stroke="#000000" stroke-opacity="0.9" stroke-width="16" stroke-linecap="round" stroke-linejoin="round"/>
<path d="M183.657 149.397C182.109 143.14 176.991 131.963 175.04 129.23" stroke="#000000" stroke-opacity="0.9" stroke-width="16" stroke-linecap="round" stroke-linejoin="round"/>
<path d="M182.175 149.396C176.838 146.447 169.424 143.357 163.66 141.915" stroke="#000000" stroke-opacity="0.9" stroke-width="16" stroke-linecap="round" stroke-linejoin="round"/>
<path d="M194.23 112.639C193.697 107.211 187.774 100.979 186.098 99.303" stroke="#000000" stroke-opacity="0.9" stroke-width="16" stroke-linecap="round" stroke-linejoin="round"/>
<path d="M192.932 114.591C183.66 112.64 180.484 111.139 175.692 106.348" stroke="#000000" stroke-opacity="0.9" stroke-width="16" stroke-linecap="round" stroke-linejoin="round"/>
<path d="M216.681 111.339C218.07 107.235 218.561 103.7 221.887 100.929" stroke="#000000" stroke-opacity="0.9" stroke-width="16" stroke-linecap="round" stroke-linejoin="round"/>
<path d="M217.09 113.191C219.122 113.926 226.929 114.682 229.038 114.917" stroke="#000000" stroke-opacity="0.9" stroke-width="16" stroke-linecap="round" stroke-linejoin="round"/>
<path d="M197.137 63.3065C196.329 58.8706 196.842 55.133 195.266 51.1909" stroke="#000000" stroke-opacity="0.9" stroke-width="16" stroke-linecap="round" stroke-linejoin="round"/>
</svg>