<?xml version="1.0" encoding="utf-8"?><!-- Uploaded to: SVG Repo, www.svgrepo.com, Generator: SVG Repo Mixer Tools -->
<svg width="800px" height="800px" viewBox="0 0 400 400" fill="none" xmlns="http://www.w3.org/2000/svg">
<path opacity="0.503384" d="M215.044 82.3069C224.392 57.9893 261.489 99.5597 248.362 115.299C231.161 135.927 208.062 94.0564 210.198 80.1874L197.61 112.195" stroke="#000000" stroke-opacity="0.9" stroke-width="16" stroke-linecap="round" stroke-linejoin="round"/>
<path opacity="0.503384" d="M197.613 72.3569C172.18 43.7168 136.135 83.5614 145.524 83.5614C151.783 83.5614 165.014 89.0726 185.218 100.095C179.765 99.3403 173.921 99.6106 169.267 102.9C158.311 110.639 160.076 121.217 152.258 130.237C151.296 131.343 144.043 134.762 145.524 135.496C152.507 138.947 161.247 141.886 169.267 140.752C171.553 140.429 180.208 134.422 180.964 134.794C181.525 135.071 177.095 144.524 176.711 145.286C173.562 151.507 176.779 154.828 177.773 160.73C178.416 164.549 172.998 171.073 176.711 172.298C189.052 176.364 205.098 145.295 197.622 147.764C197.341 147.855 207.381 158.475 207.899 159.329C213.093 167.888 205.304 176.95 211.087 177.905C231.504 181.269 222.742 152.398 224.553 148.813C226.903 144.168 243.84 154.479 248.655 158.275C253.469 162.072 250.724 169.482 250.781 169.493C257.565 170.834 258.24 143.673 250.781 139.702" stroke="#000000" stroke-opacity="0.9" stroke-width="16" stroke-linecap="round" stroke-linejoin="round"/>
<path d="M170.615 149.543C165.704 162.445 160.149 177.775 161.807 191.932C165.472 223.232 179.015 250.475 180.158 282.61C180.769 299.776 169.31 325.766 170.983 337.53" stroke="#000000" stroke-opacity="0.9" stroke-width="16" stroke-linecap="round" stroke-linejoin="round"/>
<path d="M174.079 243.715C175.035 234.181 186.008 233.007 186.008 218.894C186.008 210.693 201.981 262.178 196.446 280.236C190.912 298.294 176.111 311.152 171.468 328.816" stroke="#000000" stroke-opacity="0.9" stroke-width="16" stroke-linecap="round" stroke-linejoin="round"/>
<path d="M173.959 301.427C148.689 278.797 137.289 242.1 148.236 210.546" stroke="#000000" stroke-opacity="0.9" stroke-width="16" stroke-linecap="round" stroke-linejoin="round"/>
<path d="M147.813 213.036C148.484 240.078 176.04 254.677 180.182 279.018" stroke="#000000" stroke-opacity="0.9" stroke-width="16" stroke-linecap="round" stroke-linejoin="round"/>
</svg>