<?xml version="1.0" encoding="utf-8"?><!-- Uploaded to: SVG Repo, www.svgrepo.com, Generator: SVG Repo Mixer Tools -->
<svg width="800px" height="800px" viewBox="0 0 400 400" fill="none" xmlns="http://www.w3.org/2000/svg">
<path d="M165.762 137.423C173.971 130.713 180.727 122.203 186.338 113.299C191.695 104.798 200.211 72.2485 208.91 85.9174C217.673 99.6888 238.602 131.546 242.764 134.815" stroke="#000000" stroke-opacity="0.9" stroke-width="16" stroke-linecap="round" stroke-linejoin="round"/>
<path d="M134.438 245.747C154.523 236.229 171.358 214.132 187.948 203.984" stroke="#000000" stroke-opacity="0.9" stroke-width="16" stroke-linecap="round" stroke-linejoin="round"/>
<path d="M121.388 292.731C142.262 283.758 162.608 270.711 177.508 256.188" stroke="#000000" stroke-opacity="0.9" stroke-width="16" stroke-linecap="round" stroke-linejoin="round"/>
<path d="M263.647 245.747C250.647 231.606 227.617 219.836 220.578 203.984" stroke="#000000" stroke-opacity="0.9" stroke-width="16" stroke-linecap="round" stroke-linejoin="round"/>
<path d="M221.879 252.273C240.01 264.704 255.271 278.606 277.999 288.816" stroke="#000000" stroke-opacity="0.9" stroke-width="16" stroke-linecap="round" stroke-linejoin="round"/>
<path d="M148.792 194.848C163.841 184.273 178.509 168.895 189.251 151.779" stroke="#000000" stroke-opacity="0.9" stroke-width="16" stroke-linecap="round" stroke-linejoin="round"/>
<path d="M216.658 149.169C229.729 164.708 240.732 182.086 257.117 194.848" stroke="#000000" stroke-opacity="0.9" stroke-width="16" stroke-linecap="round" stroke-linejoin="round"/>
<path d="M199.972 270.799C204.075 286.493 204.508 302.168 204.508 317.98" stroke="#000000" stroke-opacity="0.9" stroke-width="16" stroke-linecap="round" stroke-linejoin="round"/>
</svg>