<?xml version="1.0" encoding="utf-8"?><!-- Uploaded to: SVG Repo, www.svgrepo.com, Generator: SVG Repo Mixer Tools -->
<svg width="800px" height="800px" viewBox="0 0 400 400" fill="none" xmlns="http://www.w3.org/2000/svg">
<path d="M142.1 237.472C115.964 227.971 100.53 191.6 90.4288 210.523C87.9958 215.081 89.0829 224.229 82.5371 224.229C80.8572 224.229 71.7493 222.902 71.5874 223.066C71.102 223.556 74.2998 233.388 73.8914 235.87C73.3674 239.052 63.6315 246.69 64.0938 248.09C67.9697 259.836 93.4867 259.778 93.4867 277.188C93.4867 280.849 66.1859 287.981 61.7898 286.502C56.97 284.88 63.1113 295.303 57.756 303.959C54.3347 309.488 39.2894 313.316 43.8549 317.927C45.8853 319.973 58.1956 321.252 61.7898 323.163C76.1992 330.826 71.9649 334.606 79.6552 342.371C82.5717 345.317 102.215 315.276 114.715 317.927C126.554 320.437 130.296 335.183 133.559 343.424C135.413 348.1 144.44 343.937 147.969 347.497C149.051 348.594 159.838 362.926 161.961 360.782C167.328 355.362 164.582 345.225 172.75 340.513C175.882 338.704 190.905 333.539 188.354 330.959C177.209 319.708 169.791 295.774 166.1 259.158L154.494 248.09C162.502 244.974 168.587 241.435 172.75 237.472" stroke="#000000" stroke-opacity="0.9" stroke-width="16" stroke-linecap="round" stroke-linejoin="round"/>
<path opacity="0.5" d="M195.467 218.699C207.902 205.9 234.819 193.477 276.217 181.43C338.315 163.36 356.455 61.2633 356.967 38" stroke="#000000" stroke-opacity="0.9" stroke-width="6" stroke-linecap="round" stroke-linejoin="round" stroke-dasharray="22 27"/>
</svg>