<?xml version="1.0" encoding="utf-8"?><!-- Uploaded to: SVG Repo, www.svgrepo.com, Generator: SVG Repo Mixer Tools -->
<svg width="800px" height="800px" viewBox="0 0 400 400" fill="none" xmlns="http://www.w3.org/2000/svg">
<path d="M187.423 200.626C43.494 233.258 82.7604 72.9469 191.267 62.1245C227.611 58.5003 334.981 134.839 296.977 179.06C273.525 206.35 230.011 188.385 201.838 197.751" stroke="#000000" stroke-opacity="0.5" stroke-width="16" stroke-linecap="round" stroke-linejoin="round"/>
<path d="M185.944 66C181.141 156.122 196.626 246.773 188.698 337" stroke="#000000" stroke-opacity="0.9" stroke-width="16" stroke-linecap="round" stroke-linejoin="round"/>
<path d="M139 82C155.859 91.8713 172.095 105.859 182 123" stroke="#000000" stroke-opacity="0.5" stroke-width="12" stroke-linecap="round" stroke-linejoin="round"/>
<path d="M187 121C202.129 106.041 220.739 86.9293 243 84" stroke="#000000" stroke-opacity="0.5" stroke-width="12" stroke-linecap="round" stroke-linejoin="round"/>
<path d="M104 134C139.914 139.817 157.406 175.282 185 193" stroke="#000000" stroke-opacity="0.5" stroke-width="12" stroke-linecap="round" stroke-linejoin="round"/>
<path d="M184 188C213.663 156.824 256.669 150.515 294 134" stroke="#000000" stroke-opacity="0.5" stroke-width="12" stroke-linecap="round" stroke-linejoin="round"/>
</svg>