<?xml version="1.0" encoding="utf-8"?><!-- Uploaded to: SVG Repo, www.svgrepo.com, Generator: SVG Repo Mixer Tools -->
<svg width="800px" height="800px" viewBox="0 0 400 400" fill="none" xmlns="http://www.w3.org/2000/svg">
<path d="M161.063 57.5681C159.194 -0.536411 108.493 46.8683 108.493 102.22" stroke="#000000" stroke-opacity="0.9" stroke-width="12" stroke-linecap="round" stroke-linejoin="round"/>
<path d="M162.18 51.4287C165.431 48.4125 168.284 46.4009 172.785 46.9635C187.583 48.8132 184.748 79.4076 176.134 86.034C157.295 100.526 127.744 80.4123 111.388 102.22" stroke="#000000" stroke-opacity="0.9" stroke-width="16" stroke-linecap="round" stroke-linejoin="round"/>
<path d="M244.323 92.7316C211.614 57.6386 274.125 49.8524 290.999 125.785" stroke="#000000" stroke-opacity="0.9" stroke-width="16" stroke-linecap="round" stroke-linejoin="round"/>
<path d="M240.976 87.1502C235.287 85.0829 228.755 84.2133 224.231 89.3828C219.566 94.7143 217.836 103.838 219.766 110.593C229.902 146.068 261.364 106.324 282.837 120.639" stroke="#000000" stroke-opacity="0.9" stroke-width="16" stroke-linecap="round" stroke-linejoin="round"/>
<path d="M221.44 218.873C227.697 199.382 235.996 164.221 222.557 149.663C216.793 143.419 208.832 139.518 201.347 145.755C194.664 151.325 203.62 169.116 204.696 166.965C208.311 159.733 180.344 149.287 183.486 177.57C185.051 191.651 211.989 207.403 218.989 219.653" stroke="#000000" stroke-opacity="0.9" stroke-width="16" stroke-linecap="round" stroke-linejoin="round"/>
<path d="M167.857 91.0571C168.527 130.788 181.103 179.245 182.369 208.827C183.219 228.676 188.496 287.714 188.496 307.619" stroke="#000000" stroke-opacity="0.5" stroke-width="16" stroke-linecap="round" stroke-linejoin="round"/>
<path d="M239.859 125.785C229.764 185.289 227.113 247.224 221.44 307.619" stroke="#000000" stroke-opacity="0.5" stroke-width="16" stroke-linecap="round" stroke-linejoin="round"/>
<path d="M199.114 198.222C203.046 233.801 201.039 272.199 201.039 307.619" stroke="#000000" stroke-opacity="0.5" stroke-width="16" stroke-linecap="round" stroke-linejoin="round"/>
<path d="M235.751 316.49C233.179 323.935 146.179 321.971 169.342 315.115C176.507 312.994 190.847 311.495 199.226 311.231C210.797 310.866 224.13 313.066 231.324 314.591" stroke="#000000" stroke-opacity="0.9" stroke-width="16" stroke-linecap="round" stroke-linejoin="round"/>
<path d="M167.298 324.364C165.047 383.092 184.882 366.783 231.486 366.783" stroke="#000000" stroke-opacity="0.9" stroke-width="16" stroke-linecap="round" stroke-linejoin="round"/>
<path d="M238.742 316.55C237.886 332.283 237.626 340.773 233.719 363.434" stroke="#000000" stroke-opacity="0.9" stroke-width="16" stroke-linecap="round" stroke-linejoin="round"/>
<path d="M177.933 254.14C212.7 258.467 169.222 271.61 155.816 275.266" stroke="#000000" stroke-opacity="0.9" stroke-width="16" stroke-linecap="round" stroke-linejoin="round"/>
<path d="M154.495 270.314C149.13 232.529 211.06 237.113 182.884 249.188" stroke="#000000" stroke-opacity="0.9" stroke-width="16" stroke-linecap="round" stroke-linejoin="round"/>
</svg>