<?xml version="1.0" encoding="utf-8"?><!-- Uploaded to: SVG Repo, www.svgrepo.com, Generator: SVG Repo Mixer Tools -->
<svg width="800px" height="800px" viewBox="0 0 400 400" fill="none" xmlns="http://www.w3.org/2000/svg">
<path d="M266.661 49C211.31 138.548 163.33 244.104 163.33 351.522" stroke="#000000" stroke-opacity="0.9" stroke-width="16" stroke-linecap="round" stroke-linejoin="round"/>
<path d="M269.153 51.4902C263.53 69.2313 265.997 88.1107 262.928 106.268" stroke="#000000" stroke-opacity="0.9" stroke-width="16" stroke-linecap="round" stroke-linejoin="round"/>
<path d="M274.13 97.5527C273.886 99.7952 267.437 121.613 269.588 132.411" stroke="#000000" stroke-opacity="0.9" stroke-width="16" stroke-linecap="round" stroke-linejoin="round"/>
<path d="M277.868 128.677C272.023 142.325 272.941 156.762 272.941 171.005" stroke="#000000" stroke-opacity="0.9" stroke-width="16" stroke-linecap="round" stroke-linejoin="round"/>
<path d="M277.868 177.229C274.737 185.689 274.471 194.628 272.888 203.373" stroke="#000000" stroke-opacity="0.9" stroke-width="16" stroke-linecap="round" stroke-linejoin="round"/>
<path d="M275.374 208.353C269.987 222.768 259.783 233.92 250.476 245.701" stroke="#000000" stroke-opacity="0.9" stroke-width="16" stroke-linecap="round" stroke-linejoin="round"/>
<path d="M261.683 56.4697C258.042 63.6619 250.595 67.1632 244.254 71.4091" stroke="#000000" stroke-opacity="0.9" stroke-width="16" stroke-linecap="round" stroke-linejoin="round"/>
<path d="M233.048 61.4492C227.531 67.1111 222.379 71.9269 215.619 75.1436" stroke="#000000" stroke-opacity="0.9" stroke-width="16" stroke-linecap="round" stroke-linejoin="round"/>
<path d="M209.394 71.4092C202.883 76.4788 194.273 80.6676 186.985 85.1036" stroke="#000000" stroke-opacity="0.9" stroke-width="16" stroke-linecap="round" stroke-linejoin="round"/>
<path d="M173.292 86.3486C164.946 93.0049 161.865 104.013 155.862 112.492" stroke="#000000" stroke-opacity="0.9" stroke-width="16" stroke-linecap="round" stroke-linejoin="round"/>
<path d="M144.655 119.962C140.336 133.402 134.542 146.478 129.716 159.8" stroke="#000000" stroke-opacity="0.9" stroke-width="16" stroke-linecap="round" stroke-linejoin="round"/>
<path d="M122.492 166.025C121.725 182.901 122.084 200.074 122.084 217.068" stroke="#000000" stroke-opacity="0.9" stroke-width="16" stroke-linecap="round" stroke-linejoin="round"/>
<path d="M125.098 219.558C116.303 250.234 145.731 265.197 163.332 283.05" stroke="#000000" stroke-opacity="0.9" stroke-width="16" stroke-linecap="round" stroke-linejoin="round"/>
<path d="M251.721 251.926C223.207 261.299 203.253 285.539 172.044 285.539" stroke="#000000" stroke-opacity="0.9" stroke-width="16" stroke-linecap="round" stroke-linejoin="round"/>
</svg>