<?xml version="1.0" encoding="utf-8"?><!-- Uploaded to: SVG Repo, www.svgrepo.com, Generator: SVG Repo Mixer Tools -->
<svg width="800px" height="800px" viewBox="0 0 400 400" fill="none" xmlns="http://www.w3.org/2000/svg">
<path d="M210 55C184.812 139.438 190.188 207.85 201.239 288.197C204.653 313.008 199.072 337.279 202.335 361" stroke="#000000" stroke-opacity="0.9" stroke-width="12" stroke-linecap="round" stroke-linejoin="round"/>
<path d="M99 163C130.727 177.888 168.092 195.702 195 217" stroke="#000000" stroke-opacity="0.9" stroke-width="12" stroke-linecap="round" stroke-linejoin="round"/>
<path d="M195.449 216.942C187.995 219.061 275.243 162.867 311 150" stroke="#000000" stroke-opacity="0.9" stroke-width="12" stroke-linecap="round" stroke-linejoin="round"/>
<path d="M107 282.222C138.449 281.388 169.449 282.813 200 288" stroke="#000000" stroke-opacity="0.9" stroke-width="12" stroke-linecap="round" stroke-linejoin="round"/>
<path d="M204 286C230.695 277.826 263.014 284.711 290 284.711" stroke="#000000" stroke-opacity="0.9" stroke-width="12" stroke-linecap="round" stroke-linejoin="round"/>
<path d="M204.613 38C138.435 64.6401 178.462 108.367 178.462 152.95C178.462 188.403 112.318 127.264 86.3592 149.535C32.7028 195.569 171.129 215.068 171.129 245.746C171.129 276.977 41.1355 242.824 86.3592 303.179C107.936 331.975 170.078 295.639 198.929 299.764C242.717 306.026 274.987 348.828 317.181 306.593C326.422 297.346 328.269 286.681 326.278 274.728C320.17 238.044 189.324 273.822 238.725 232.617C275.46 201.976 334.758 207.914 321.729 142.707C311.056 89.283 227.544 189.242 214.847 172.297C191.176 140.707 267.765 75.3668 223.942 40.2777" stroke="#000000" stroke-opacity="0.9" stroke-width="16" stroke-linecap="round" stroke-linejoin="round"/>
</svg>