<?xml version="1.0" encoding="utf-8"?><!-- Uploaded to: SVG Repo, www.svgrepo.com, Generator: SVG Repo Mixer Tools -->
<svg width="800px" height="800px" viewBox="0 0 400 400" fill="none" xmlns="http://www.w3.org/2000/svg">
<path d="M204 144C204.63 244.213 210 273 183 353" stroke="#000000" stroke-opacity="0.9" stroke-width="16" stroke-linecap="round" stroke-linejoin="round"/>
<path fill-rule="evenodd" clip-rule="evenodd" d="M201.394 43.1928C198.739 39.6612 193.724 38.9504 190.193 41.6053C188.332 43.0044 187.254 45.059 187.039 47.2065C170.55 75.072 172.266 109.778 194.014 134.307C196.073 136.63 199.181 137.471 201.994 136.749C203.97 137.256 206.14 137.012 208.038 135.895C217.277 130.459 222.762 122.789 225.095 113.956C227.357 105.395 226.524 96.3022 224.33 87.8181C219.964 70.9298 209.581 54.0827 201.394 43.1928ZM202.984 120.007C206.633 117.08 208.631 113.636 209.626 109.869C210.942 104.887 210.636 98.7698 208.84 91.8232C206.426 82.4881 201.611 72.7417 196.406 64.274C188.827 83.1696 191.021 103.987 202.984 120.007Z" fill="#000000" fill-opacity="0.5"/>
<path fill-rule="evenodd" clip-rule="evenodd" d="M121.677 130.395C124.965 143.195 132.365 151.362 141.96 157.297C151.006 162.893 161.988 166.503 173.836 169.581C159.189 152.781 141.702 138.94 121.677 130.395ZM193.929 177.002C194.909 178.699 195.271 180.757 194.791 182.816C193.788 187.119 189.487 189.794 185.184 188.791L184.395 188.607C167.757 184.73 148.724 180.295 133.543 170.904C117.438 160.942 105.685 145.451 104.018 120.534C103.723 116.126 107.057 112.313 111.466 112.018C112.526 111.947 113.552 112.086 114.503 112.399C116.119 111.867 117.918 111.844 119.649 112.451C149.683 122.991 174.366 143.666 193.321 168.096C195.374 170.742 195.506 174.27 193.929 177.002Z" fill="#000000" fill-opacity="0.5"/>
<path fill-rule="evenodd" clip-rule="evenodd" d="M288.614 119.5C289.954 117.529 290.402 114.983 289.612 112.54C288.253 108.335 283.744 106.029 279.539 107.388C246.179 118.17 224.428 141.279 209.846 170.42C208.336 173.437 208.912 176.952 211.027 179.325C210.99 179.766 210.99 180.215 211.028 180.67C211.398 185.073 215.267 188.342 219.67 187.972C255.837 184.931 281.503 158.417 289.753 125.971C290.341 123.66 289.857 121.329 288.614 119.5ZM272.723 127.239C253.167 136.453 238.812 151.387 227.955 170.458C249.566 165.144 265.654 148.551 272.723 127.239Z" fill="#000000" fill-opacity="0.5"/>
<path fill-rule="evenodd" clip-rule="evenodd" d="M122.585 197.236C133.562 195.993 143.201 199.802 151.985 206.812C159.139 212.52 165.526 220.223 171.147 228.651C160.469 228.036 150.606 226.466 142.51 222.876C136.921 220.398 132.361 217.029 128.946 212.457C126.11 208.661 123.844 203.74 122.585 197.236ZM108.204 188.486C108.868 185.622 111.092 183.233 114.146 182.506C133.04 178.006 149.104 184.044 161.964 194.305C174.593 204.381 184.481 218.749 191.974 232.08C192.76 233.48 193.081 235.015 192.985 236.505C192.995 236.669 193 236.834 193 237C193 241.418 189.418 245 185 245C169.072 245 150.922 244.108 136.025 237.503C128.412 234.127 121.476 229.194 116.127 222.031C110.773 214.863 107.327 205.889 106.053 194.923C105.768 192.469 106.625 190.146 108.204 188.486Z" fill="#000000" fill-opacity="0.5"/>
<path fill-rule="evenodd" clip-rule="evenodd" d="M285.586 181.458C285.475 181.127 285.341 180.801 285.184 180.479C283.239 176.512 278.446 174.872 274.479 176.817C249.618 189.002 220.072 205.836 206.74 234.64C204.884 238.649 206.63 243.404 210.64 245.26C212.446 246.096 214.404 246.201 216.18 245.698C217.367 247.632 219.365 249.051 221.783 249.423C240.157 252.251 256.653 244.453 268.235 232.272C279.76 220.152 287.009 203.154 287 185.996C286.999 184.31 286.477 182.747 285.586 181.458ZM269.634 197.27C251.811 206.872 235.378 218.288 225.435 233.774C237.099 235.134 248.136 230.191 256.64 221.247C262.897 214.667 267.482 206.196 269.634 197.27Z" fill="#000000" fill-opacity="0.5"/>
<path d="M125 250.512C155.19 239.508 175.85 266.604 186 294" stroke="#000000" stroke-opacity="0.5" stroke-width="16" stroke-linecap="round" stroke-linejoin="round"/>
<path d="M113 254C121.737 289.555 156.255 319.114 192 303.914" stroke="#000000" stroke-opacity="0.5" stroke-width="16" stroke-linecap="round" stroke-linejoin="round"/>
<path d="M279 248.077C253.238 246.472 218.929 270.2 217 294" stroke="#000000" stroke-opacity="0.5" stroke-width="16" stroke-linecap="round" stroke-linejoin="round"/>
<path d="M287 252C279.317 292.558 244.737 304.697 209 308" stroke="#000000" stroke-opacity="0.5" stroke-width="16" stroke-linecap="round" stroke-linejoin="round"/>
</svg>