<?xml version="1.0" encoding="utf-8"?><!-- Uploaded to: SVG Repo, www.svgrepo.com, Generator: SVG Repo Mixer Tools -->
<svg width="800px" height="800px" viewBox="0 0 400 400" fill="none" xmlns="http://www.w3.org/2000/svg">
<path d="M132.094 229.262C127.676 229.257 124.09 232.835 124.085 237.253C124.08 241.672 127.658 245.257 132.076 245.262L132.094 229.262ZM246.632 240.03L251.335 233.558C251.017 233.327 250.682 233.119 250.334 232.938L246.632 240.03ZM132.084 343.907L126.811 349.923L126.811 349.923L132.084 343.907ZM131.257 256.153C131.831 251.772 128.745 247.756 124.365 247.182C119.984 246.607 115.967 249.694 115.393 254.074L131.257 256.153ZM241.929 246.501C241.629 246.283 242.356 246.77 243.425 249.491C244.385 251.934 245.291 255.321 246.039 259.535C247.529 267.932 248.237 278.708 247.929 289.782C247.621 300.868 246.306 311.877 243.935 320.799C241.436 330.203 238.237 335.465 235.538 337.363L244.743 350.451C252.372 345.085 256.746 334.892 259.398 324.908C262.179 314.443 263.592 302.133 263.923 290.226C264.254 278.308 263.511 266.419 261.793 256.739C260.936 251.913 259.798 247.408 258.316 243.638C256.944 240.146 254.831 236.099 251.335 233.558L241.929 246.501ZM235.538 337.363C231.908 339.916 224.946 342.278 215.224 343.878C205.786 345.431 194.725 346.116 183.743 345.984C172.759 345.852 162.101 344.904 153.472 343.293C149.155 342.487 145.491 341.541 142.615 340.513C139.616 339.441 138.017 338.469 137.357 337.891L126.811 349.923C129.671 352.43 133.444 354.227 137.23 355.58C141.14 356.977 145.676 358.114 150.535 359.021C160.261 360.837 171.864 361.842 183.551 361.983C195.241 362.124 207.263 361.403 217.822 359.665C228.096 357.975 238.045 355.161 244.743 350.451L235.538 337.363ZM137.357 337.891C135.91 336.623 133.966 333.326 132.337 326.984C130.788 320.957 129.816 313.37 129.345 304.996C128.402 288.271 129.509 269.496 131.257 256.153L115.393 254.074C113.537 268.236 112.363 288.02 113.37 305.896C113.873 314.823 114.934 323.547 116.84 330.965C118.665 338.07 121.596 345.353 126.811 349.923L137.357 337.891ZM132.076 245.262C137.516 245.268 146.405 244.843 156.591 244.375C166.903 243.902 178.791 243.371 190.57 243.13C202.376 242.89 213.904 242.945 223.506 243.618C228.308 243.954 232.496 244.437 235.925 245.078C239.461 245.74 241.712 246.486 242.93 247.122L250.334 232.938C247.052 231.225 242.999 230.124 238.867 229.351C234.627 228.558 229.782 228.018 224.625 227.657C214.311 226.934 202.226 226.889 190.244 227.134C178.236 227.379 166.161 227.919 155.857 228.392C145.429 228.871 137.051 229.268 132.094 229.262L132.076 245.262Z" fill="#000000" fill-opacity="0.9"/>
<path d="M200 227C207.288 173.216 262.046 135.441 269 83" stroke="#000000" stroke-opacity="0.5" stroke-width="16" stroke-linecap="round" stroke-linejoin="round"/>
<path d="M174.928 231C181.253 205.545 157.22 179.327 164.329 161" stroke="#000000" stroke-opacity="0.5" stroke-width="16" stroke-linecap="round" stroke-linejoin="round"/>
<path d="M321 77.1535C216.523 72.7477 273.075 165.304 321 85.318" stroke="#000000" stroke-opacity="0.9" stroke-width="16" stroke-linecap="round" stroke-linejoin="round"/>
<path d="M198.277 125.937C300.467 88.895 237.443 216.377 187 130.853" stroke="#000000" stroke-opacity="0.9" stroke-width="16" stroke-linecap="round" stroke-linejoin="round"/>
<path d="M286 205.036C260.368 129.453 172.591 193.677 284.382 210" stroke="#000000" stroke-opacity="0.9" stroke-width="16" stroke-linecap="round" stroke-linejoin="round"/>
<path d="M165.611 104.912C113.787 149.387 203.085 232.192 167.26 92" stroke="#000000" stroke-opacity="0.9" stroke-width="16" stroke-linecap="round" stroke-linejoin="round"/>
<path d="M101.736 195.493C179.378 137.599 213.556 215 79 215" stroke="#000000" stroke-opacity="0.9" stroke-width="16" stroke-linecap="round" stroke-linejoin="round"/>
<path d="M244 50.9005C246.594 135.104 322.632 59.0688 245.606 46" stroke="#000000" stroke-opacity="0.9" stroke-width="16" stroke-linecap="round" stroke-linejoin="round"/>
</svg>