<?xml version="1.0" encoding="utf-8"?><!-- Uploaded to: SVG Repo, www.svgrepo.com, Generator: SVG Repo Mixer Tools -->
<svg width="800px" height="800px" viewBox="0 0 400 400" fill="none" xmlns="http://www.w3.org/2000/svg">
<path opacity="0.503384" d="M160.272 72C176.219 129.542 202.776 191.36 198.131 254.03C196.582 274.935 186.929 316.551 185.768 328.607" stroke="#000000" stroke-opacity="0.9" stroke-width="24" stroke-linecap="round" stroke-linejoin="round"/>
<path opacity="0.503384" d="M265.675 85C256.448 126.544 224.784 153.448 198.483 183.398" stroke="#000000" stroke-opacity="0.9" stroke-width="24" stroke-linecap="round" stroke-linejoin="round"/>
<path opacity="0.503384" d="M95 151.104C110.329 182.519 151.892 204.098 185.23 208.986" stroke="#000000" stroke-opacity="0.9" stroke-width="24" stroke-linecap="round" stroke-linejoin="round"/>
<path opacity="0.503384" d="M208.269 235.997C245.661 229.058 297.448 187.288 304.258 156.893" stroke="#000000" stroke-opacity="0.9" stroke-width="24" stroke-linecap="round" stroke-linejoin="round"/>
<path opacity="0.503384" d="M210.191 243.714C232.938 256.407 276.202 258.432 292.741 250.921" stroke="#000000" stroke-opacity="0.9" stroke-width="24" stroke-linecap="round" stroke-linejoin="round"/>
<path opacity="0.503384" d="M202.511 282.302C211.927 290.948 235.996 307.479 248.585 299.462" stroke="#000000" stroke-opacity="0.9" stroke-width="24" stroke-linecap="round" stroke-linejoin="round"/>
<path opacity="0.503384" d="M185.051 289C151.895 292.586 109.428 276.5 104.223 251.432" stroke="#000000" stroke-opacity="0.9" stroke-width="24" stroke-linecap="round" stroke-linejoin="round"/>
<path opacity="0.503384" d="M198.576 101C177.613 124.025 173.809 122.837 146.742 115.854" stroke="#000000" stroke-opacity="0.9" stroke-width="24" stroke-linecap="round" stroke-linejoin="round"/>
<path opacity="0.503384" d="M126.993 157C117.594 197.811 137.931 175.582 103.956 191.729" stroke="#000000" stroke-opacity="0.9" stroke-width="24" stroke-linecap="round" stroke-linejoin="round"/>
<path opacity="0.503384" d="M160.271 183C163.225 203.282 154.125 204.561 137.786 215.799" stroke="#000000" stroke-opacity="0.9" stroke-width="24" stroke-linecap="round" stroke-linejoin="round"/>
<path opacity="0.503384" d="M142.644 257.22C146.304 275.734 148.992 293.878 121.878 293.878" stroke="#000000" stroke-opacity="0.9" stroke-width="24" stroke-linecap="round" stroke-linejoin="round"/>
<path opacity="0.503384" d="M237.062 106.729C241.892 127.354 245.386 136.686 267.779 132.924" stroke="#000000" stroke-opacity="0.9" stroke-width="24" stroke-linecap="round" stroke-linejoin="round"/>
<path opacity="0.503384" d="M266.145 173C270.207 196.88 276.758 200.011 300.701 200.011" stroke="#000000" stroke-opacity="0.9" stroke-width="24" stroke-linecap="round" stroke-linejoin="round"/>
<path opacity="0.503384" d="M265.793 241C255.134 253.518 251.633 256.835 264.266 268.011" stroke="#000000" stroke-opacity="0.9" stroke-width="24" stroke-linecap="round" stroke-linejoin="round"/>
<path opacity="0.503384" d="M230.897 285C217.622 290.527 215.779 300.821 225.588 310.082" stroke="#000000" stroke-opacity="0.9" stroke-width="24" stroke-linecap="round" stroke-linejoin="round"/>
</svg>