<?xml version="1.0" encoding="utf-8"?><!-- Uploaded to: SVG Repo, www.svgrepo.com, Generator: SVG Repo Mixer Tools -->
<svg width="800px" height="800px" viewBox="0 0 400 400" fill="none" xmlns="http://www.w3.org/2000/svg">
<path d="M170.444 78.4727C157.09 139.751 170.088 170.789 209.437 171.585C268.46 172.78 254.106 72 246.598 72C238.358 72 232.01 81.0198 227.554 99.0595C225.03 81.0198 219.819 72 211.921 72C200.074 72 206.511 104.188 197.661 104.188C191.76 104.188 185.236 93.4587 178.089 72" stroke="#000000" stroke-opacity="0.9" stroke-width="16" stroke-linecap="round" stroke-linejoin="round"/>
<path d="M210.186 172.841C205.206 248.976 205.206 300.433 210.186 327.214" stroke="#000000" stroke-opacity="0.9" stroke-width="16" stroke-linecap="round" stroke-linejoin="round"/>
<path d="M205.205 259.672C222.047 236.843 254.856 217.25 261.187 219.014C267.517 220.778 277.448 264.082 222.047 259.672" stroke="#000000" stroke-opacity="0.9" stroke-width="16" stroke-linecap="round" stroke-linejoin="round"/>
<path d="M205.207 221.405C180.985 206.454 165.595 206.454 141.446 206.454C117.296 206.454 148.429 260.543 190.695 228.881" stroke="#000000" stroke-opacity="0.9" stroke-width="16" stroke-linecap="round" stroke-linejoin="round"/>
</svg>