<?xml version="1.0" encoding="utf-8"?><!-- Uploaded to: SVG Repo, www.svgrepo.com, Generator: SVG Repo Mixer Tools -->
<svg width="800px" height="800px" viewBox="0 0 400 400" fill="none" xmlns="http://www.w3.org/2000/svg">
<path d="M152.123 83.1641C246.391 164.861 167.76 302.79 184.403 335.888" stroke="#000000" stroke-opacity="0.9" stroke-width="16" stroke-linecap="round" stroke-linejoin="round"/>
<path d="M149.729 86.8989C139.47 123.711 161.08 130.237 190.716 136.697" stroke="#000000" stroke-opacity="0.9" stroke-width="16" stroke-linecap="round" stroke-linejoin="round"/>
<path d="M168.786 94.5263C163.914 29.6603 198.224 90.4735 187.319 120.512" stroke="#000000" stroke-opacity="0.9" stroke-width="16" stroke-linecap="round" stroke-linejoin="round"/>
<path d="M190.717 78.7773C203.847 58.7589 196.196 55.5616 198.534 75.1417C200.818 94.2521 221.418 116.563 194.192 129.227" stroke="#000000" stroke-opacity="0.9" stroke-width="16" stroke-linecap="round" stroke-linejoin="round"/>
<path d="M184.884 318.626C182.442 293.445 191.816 269.405 200.952 246.589C205.441 235.379 211.549 223.973 219.698 215.126C232.198 201.559 247.268 192.656 261.203 180.932C266.694 176.311 283.195 162.571 278.166 167.708C262.884 183.32 246.677 204.009 237.996 224.703C225.417 254.687 238.665 288.053 222.824 318.626C216.947 329.966 202.547 339.683 189.794 338.234" stroke="#000000" stroke-opacity="0.9" stroke-width="16" stroke-linecap="round" stroke-linejoin="round"/>
<path d="M178.991 324.684C187.613 261.797 163.456 262.635 132.879 214.325C131.709 212.478 119.145 179.025 121.234 179.025C123.887 179.025 131.057 220.382 131.481 222.813C139.803 270.706 135.442 292.719 180.389 322.898" stroke="#000000" stroke-opacity="0.9" stroke-width="16" stroke-linecap="round" stroke-linejoin="round"/>
</svg>