<?xml version="1.0" encoding="utf-8"?><!-- Uploaded to: SVG Repo, www.svgrepo.com, Generator: SVG Repo Mixer Tools -->
<svg width="800px" height="800px" viewBox="0 0 400 400" fill="none" xmlns="http://www.w3.org/2000/svg">
<path d="M142.969 225.891C224.317 282.363 210.165 264.142 261.362 225.891" stroke="#000000" stroke-opacity="0.9" stroke-width="16" stroke-linecap="round" stroke-linejoin="round"/>
<path d="M246.156 193.305C188.69 230.462 204.51 225.578 162.52 193.305" stroke="#000000" stroke-opacity="0.9" stroke-width="16" stroke-linecap="round" stroke-linejoin="round"/>
<path d="M224.433 114.183C207.226 138.248 203.123 130.969 190.762 109.669" stroke="#000000" stroke-opacity="0.9" stroke-width="16" stroke-linecap="round" stroke-linejoin="round"/>
<path d="M208.145 89.0321C199.454 174.48 211.449 264.201 206.618 347.543" stroke="#000000" stroke-opacity="0.9" stroke-width="16" stroke-linecap="round" stroke-linejoin="round"/>
<path d="M282.002 268.925C193.789 314.695 202.058 308.667 117.988 267.166" stroke="#000000" stroke-opacity="0.9" stroke-width="16" stroke-linecap="round" stroke-linejoin="round"/>
<path d="M233.121 158.548C207.416 185.686 200.792 177.183 180.984 159.267" stroke="#000000" stroke-opacity="0.9" stroke-width="16" stroke-linecap="round" stroke-linejoin="round"/>
<path opacity="0.500721" d="M207.254 51.8776C208.2 63.471 207.893 75.3964 207.893 86.6353" stroke="#000000" stroke-opacity="0.9" stroke-width="6" stroke-linecap="round" stroke-linejoin="round"/>
<path opacity="0.500721" d="M221.174 62.7394C212.557 68.0274 204.37 72.1707 195.105 75.7735" stroke="#000000" stroke-opacity="0.9" stroke-width="6" stroke-linecap="round" stroke-linejoin="round"/>
<path opacity="0.500721" d="M221.177 76.8597C210.588 75.7242 202.632 66.1276 196.195 60.567" stroke="#000000" stroke-opacity="0.9" stroke-width="6" stroke-linecap="round" stroke-linejoin="round"/>
<path opacity="0.495396" d="M178.592 181.357C183.76 186.47 171.614 187.336 176.942 182.53" stroke="#000000" stroke-opacity="0.9" stroke-width="10" stroke-linecap="round" stroke-linejoin="round"/>
<path opacity="0.495396" d="M230.406 181.357V177.013" stroke="#000000" stroke-opacity="0.9" stroke-width="10" stroke-linecap="round" stroke-linejoin="round"/>
<path opacity="0.495396" d="M191.848 131.393L196.192 129.221" stroke="#000000" stroke-opacity="0.9" stroke-width="10" stroke-linecap="round" stroke-linejoin="round"/>
<path opacity="0.495396" d="M148.398 303.01L149.485 297.579" stroke="#000000" stroke-opacity="0.9" stroke-width="10" stroke-linecap="round" stroke-linejoin="round"/>
<path opacity="0.495396" d="M255.934 302.26C249.065 304.833 255.201 299.973 255.13 299.751" stroke="#000000" stroke-opacity="0.9" stroke-width="10" stroke-linecap="round" stroke-linejoin="round"/>
<path opacity="0.495396" d="M257.017 234.983C257.092 235.614 255.571 234.983 254.848 234.983" stroke="#000000" stroke-opacity="0.9" stroke-width="10" stroke-linecap="round" stroke-linejoin="round"/>
<path opacity="0.495396" d="M175.555 247.762C175.285 248.497 174.107 248.289 173.383 248.553" stroke="#000000" stroke-opacity="0.9" stroke-width="10" stroke-linecap="round" stroke-linejoin="round"/>
<path opacity="0.495396" d="M185.329 310.76C185.059 311.495 183.88 311.288 183.156 311.552" stroke="#000000" stroke-opacity="0.9" stroke-width="10" stroke-linecap="round" stroke-linejoin="round"/>
<path opacity="0.495396" d="M145.141 248.538C144.676 249.091 143.693 247.933 142.969 247.63" stroke="#000000" stroke-opacity="0.9" stroke-width="10" stroke-linecap="round" stroke-linejoin="round"/>
<path opacity="0.315941" d="M233.122 273.52C232.656 274.073 231.673 272.915 230.949 272.612" stroke="#000000" stroke-opacity="0.9" stroke-width="10" stroke-linecap="round" stroke-linejoin="round"/>
<path opacity="0.495396" d="M228.778 138.834C228.312 139.386 227.33 138.229 226.605 137.926" stroke="#000000" stroke-opacity="0.9" stroke-width="10" stroke-linecap="round" stroke-linejoin="round"/>
<path opacity="0.20452" d="M161.434 219.696C175.768 175.742 199.468 242.428 215.303 228.204C226.58 218.075 227.3 207.426 241.811 200.909" stroke="#000000" stroke-opacity="0.9" stroke-width="10" stroke-linecap="round" stroke-linejoin="round"/>
<path opacity="0.197545" d="M242.898 282.694C225.464 238.74 196.641 305.427 177.381 291.202C163.667 281.073 162.791 270.424 145.142 263.907" stroke="#000000" stroke-opacity="0.9" stroke-width="10" stroke-linecap="round" stroke-linejoin="round"/>
<path opacity="0.195196" d="M223.348 168.764C216.568 152.485 205.359 177.184 197.869 171.916C192.535 168.164 192.195 164.22 185.331 161.806" stroke="#000000" stroke-opacity="0.9" stroke-width="10" stroke-linecap="round" stroke-linejoin="round"/>
</svg>