<?xml version="1.0" encoding="iso-8859-1"?>
<!-- Uploaded to: SVG Repo, www.svgrepo.com, Generator: SVG Repo Mixer Tools -->
<svg fill="#000000" height="800px" width="800px" version="1.1" id="Layer_1" xmlns="http://www.w3.org/2000/svg" xmlns:xlink="http://www.w3.org/1999/xlink" 
	 viewBox="0 0 512 512" xml:space="preserve">
<g>
	<g>
		<path d="M417.838,478.617H128.973c-9.992,0-18.118-8.128-18.118-18.118c0-9.825,7.986-18.118,18.118-18.118h269.542h1.073
			c17.615,0,31.945-14.33,31.945-31.945V31.945C431.532,14.33,417.201,0,399.586,0H129.403c-28.398,0-51.501,23.103-51.501,51.501
			c-0.432,394.399-0.432,408.998-0.432,408.998c0,34.179,22.711,51.501,51.501,51.501h288.866c9.218,0,16.692-7.473,16.692-16.692
			S427.057,478.617,417.838,478.617z M111.285,51.501c0-9.99,8.128-18.118,18.118-18.118h268.745v375.613H128.973
			c-5.88,0-12.041,1.047-17.688,3.1V51.501z"/>
	</g>
</g>
<g>
	<g>
		<path d="M292.231,131.361H271.41v-27.642c0-9.218-7.473-16.692-16.692-16.692c-9.218,0-16.692,7.473-16.692,16.692v27.642h-20.822
			c-9.218,0-16.692,7.473-16.692,16.692c0,9.218,7.472,16.692,16.692,16.692h20.822v89.026c0,9.218,7.473,16.692,16.692,16.692
			s16.692-7.473,16.692-16.692v-89.026h20.821c9.218,0,16.692-7.473,16.692-16.692C308.922,138.835,301.449,131.361,292.231,131.361
			z"/>
	</g>
</g>
</svg>