<?xml version="1.0" encoding="iso-8859-1"?>
<!-- Uploaded to: SVG Repo, www.svgrepo.com, Generator: SVG Repo Mixer Tools -->
<!DOCTYPE svg PUBLIC "-//W3C//DTD SVG 1.1//EN" "http://www.w3.org/Graphics/SVG/1.1/DTD/svg11.dtd">
<svg fill="#000000" version="1.1" id="Capa_1" xmlns="http://www.w3.org/2000/svg" xmlns:xlink="http://www.w3.org/1999/xlink" 
	 viewBox="0 0 487.967 487.967" xml:space="preserve">
<g>
	<path d="M457.216,142.876C433.188,112.3,397.099,91.734,356.067,88.36v55.093c21.078,2.656,40.023,12.199,54.471,26.369
		L457.216,142.876z"/>
	<path d="M277.793,169.826c14.449-14.176,33.4-23.72,54.484-26.374V88.36c-40.757,3.351-76.61,23.692-100.638,53.941
		c3.199,1.915,6.248,4.05,9.267,6.226L277.793,169.826z"/>
	<path d="M470.424,162.715l-45.038,26c7.894,13.093,12.686,28.205,13.433,44.395h49.148v-1.552
		C487.967,206.611,481.599,183.163,470.424,162.715z"/>
	<path d="M439.041,399.606h30.154c10.368,0,18.772-8.401,18.772-18.768v-44.657h-48.926V399.606z"/>
	<rect x="439.041" y="256.9" width="48.926" height="55.499"/>
	<path d="M292.753,307.125l-12.591-58.953c-3.112-14.532-9.194-28.265-17.883-40.325L251.17,192.42
		c-11.976-16.631-28.447-29.484-47.486-37.047l-41.506-16.496c-12.78-5.075-26.244-7.594-39.668-7.594
		c-18.008,0-35.954,4.53-52.085,13.472l-27.687,15.354c-17.645,9.782-29.872,27.078-33.215,46.97L2.89,246.565
		c-5.197,30.909-3.368,62.587,5.36,92.682c4.243,14.658,13.415,27.392,25.951,36.063l18.095,12.528
		c11.079,7.667,24.234,11.768,37.712,11.768h110.374h10.73c14.114,0,27.861-4.505,39.233-12.86l16.829-12.361
		C288.191,358.941,298.202,332.624,292.753,307.125z"/>
	<path d="M344.165,166.952c-24.621,0-46.236,12.654-58.855,31.773c8.333,12.753,14.412,26.658,17.944,41.548h27.572v-25.514
		c0-3.925,3.182-7.106,7.106-7.106h14.555c3.925,0,7.107,3.182,7.107,7.106v25.514h25.515c3.925,0,7.106,3.182,7.106,7.107v14.554
		c0,3.925-3.182,7.107-7.106,7.107h-25.515v69.693c0,3.925-3.182,7.107-7.107,7.107h-14.555c-3.925,0-7.106-3.182-7.106-7.107
		v-69.693h-21.331l7.048,33c7.436,34.789-6.288,70.877-34.963,91.951l-7.643,5.615h140.776V237.498
		C414.713,198.534,383.129,166.952,344.165,166.952z"/>
</g>
</svg>