<?xml version="1.0" encoding="iso-8859-1"?>
<!-- Uploaded to: SVG Repo, www.svgrepo.com, Generator: SVG Repo Mixer Tools -->
<!DOCTYPE svg PUBLIC "-//W3C//DTD SVG 1.1//EN" "http://www.w3.org/Graphics/SVG/1.1/DTD/svg11.dtd">
<svg fill="#000000" height="800px" width="800px" version="1.1" id="Capa_1" xmlns="http://www.w3.org/2000/svg" xmlns:xlink="http://www.w3.org/1999/xlink" 
	 viewBox="0 0 511 511" xml:space="preserve">
<path d="M479.789,413.818c-10.718-15.699-25.664-26.598-43.22-31.516c-0.29-0.082-0.584-0.145-0.882-0.191l-91.045-14.023
	c-0.359-0.055-0.714-0.075-1.066-0.079l-8.96-26.88c-0.669-2.006-2.154-3.637-4.088-4.491c-1.12-0.494-2.331-0.692-3.527-0.612
	v-14.903c4.732-4.411,9.258-9.28,13.54-14.594c22.004-27.308,34.63-63.438,34.649-99.14C439.381,198.023,447,184.775,447,175.5
	c0-8.398-6.231-20.647-60.107-30.017c-8.717-1.516-18.141-2.862-28.14-4.031L339.354,33.006C336.167,13.881,319.781,0,300.392,0
	h-97.784c-19.389,0-35.775,13.881-38.947,32.918L144.117,142.18c-0.017,0.095-0.023,0.19-0.036,0.285
	c-6.992,0.916-13.67,1.922-19.973,3.018C70.231,154.853,64,167.102,64,175.5c0,9.272,7.614,22.514,71.749,31.88
	c0.031,35.673,12.697,71.795,34.764,99.123c4.268,5.286,8.777,10.13,13.488,14.523v15c-1.196-0.08-2.406,0.118-3.527,0.612
	c-1.935,0.854-3.419,2.484-4.088,4.491l-8.96,26.88c-0.353,0.004-0.708,0.023-1.066,0.079l-91.045,14.023
	c-0.297,0.046-0.592,0.109-0.882,0.191c-17.557,4.918-32.502,15.817-43.22,31.516C21.402,428.186,16,445.525,16,462.643v19.842
	C16,498.208,30.131,511,47.5,511h416c17.369,0,31.5-12.792,31.5-28.515v-19.842C495,445.525,489.598,428.186,479.789,413.818z
	 M355.513,451.255L263,418.215v-37.841l59.997-26.666L355.513,451.255z M272,136.128c-5.457-0.083-10.959-0.128-16.5-0.128
	s-11.043,0.044-16.5,0.128V111.5c0-0.111-0.012-0.218-0.017-0.328c5.542-0.113,11.071-0.172,16.517-0.172
	c5.395,0,10.935,0.061,16.516,0.175c-0.005,0.109-0.016,0.215-0.016,0.325V136.128z M287,111.606
	c19.166,0.709,37.788,2.002,51.831,3.659l4.393,24.558c-17.533-1.641-36.474-2.775-56.223-3.361V111.606z M178.441,35.472
	C180.418,23.61,190.582,15,202.608,15h97.784c12.026,0,22.189,8.61,24.182,20.56l11.501,64.301C313.789,97.485,283.307,96,255.5,96
	c-30.945,0-64.6,1.87-88.753,4.855L178.441,35.472z M163.977,116.342c16.132-2.221,37.672-3.893,60.023-4.735v24.855
	c-22.848,0.677-44.613,2.09-64.368,4.171L163.977,116.342z M79.271,175.504c2.438-2.908,15.132-10.08,52.464-16.089
	C165.446,153.989,209.4,151,255.5,151s90.054,2.989,123.765,8.416c37.332,6.009,50.025,13.181,52.464,16.089
	c-2.585,3.137-16.342,10.628-56.54,16.716V175.5c0-0.586-0.074-1.154-0.201-1.702c-0.145-3.572-2.828-6.634-6.494-7.124
	C335.812,162.308,296.739,160,255.5,160s-80.312,2.308-112.994,6.675c-3.56,0.476-6.197,3.377-6.479,6.816
	c-0.178,0.64-0.28,1.312-0.28,2.009v16.711C95.599,186.124,81.854,178.64,79.271,175.504z M150.747,207.247v-4.461
	c0.077-0.294,0.142-0.594,0.183-0.902c0.134-1.003,0.06-1.985-0.183-2.906v-18.234C181.471,176.982,217.521,175,255.5,175
	c37.953,0,73.978,1.979,104.689,5.736v18.531c-0.186,0.837-0.239,1.718-0.119,2.617c0.03,0.223,0.071,0.442,0.119,0.657v4.77
	c0,32.364-11.419,65.097-31.33,89.807C308.655,322.191,282.631,336,255.579,336c-27.064,0-53.13-13.822-73.396-38.92
	C162.205,272.338,150.747,239.596,150.747,207.247z M255.579,351c19.855,0,39.118-6.206,56.421-17.898v9.079l-56.5,25.111
	L199,342.182v-9.166C216.359,344.762,235.677,351,255.579,351z M188.003,353.708L248,380.374v37.841l-92.513,33.04L188.003,353.708z
	 M31,482.485v-19.842c0-26.019,16.161-56.885,47.057-65.778l84.065-12.948l-25.737,77.212c-0.907,2.722-0.182,5.724,1.869,7.731
	c1.426,1.396,3.318,2.141,5.248,2.141c0.846,0,1.698-0.143,2.521-0.437L248,434.143V496H47.5C38.402,496,31,489.937,31,482.485z
	 M480,482.485c0,7.452-7.402,13.515-16.5,13.515H263v-61.857l101.978,36.42c0.823,0.294,1.676,0.437,2.521,0.437
	c1.929,0,3.822-0.745,5.248-2.141c2.051-2.007,2.776-5.009,1.869-7.731l-25.737-77.212l84.065,12.948
	C463.839,405.758,480,436.624,480,462.643V482.485z"/>
</svg>