<?xml version="1.0" encoding="iso-8859-1"?>
<!-- Uploaded to: SVG Repo, www.svgrepo.com, Generator: SVG Repo Mixer Tools -->
<svg height="800px" width="800px" version="1.1" id="Layer_1" xmlns="http://www.w3.org/2000/svg" xmlns:xlink="http://www.w3.org/1999/xlink" 
	 viewBox="0 0 512.001 512.001" xml:space="preserve">
<path style="fill:#10744A;" d="M407.553,307.951l-61.692,70.47l32.677,125.409h43.569V340.445
	C422.109,327.529,416.483,315.93,407.553,307.951z"/>
<path style="fill:#169B62;" d="M22.754,307.951C13.824,315.93,8.2,327.528,8.2,340.445V503.83h370.34V378.422L22.754,307.951z"/>
<path style="fill:#FFAB58;" d="M378.539,296.876h-2.192L193.369,411.789l21.785,92.041h32.677v-40.318
	c80.274-13.525,144.134-76,159.723-155.561C399.848,301.067,389.685,296.876,378.539,296.876z"/>
<path style="fill:#FFCD71;" d="M376.348,296.876H51.769c-11.146,0-21.31,4.19-29.015,11.075
	c15.589,79.561,79.449,142.036,159.723,155.561v40.318h32.677v-70.257C296.157,433.574,363.57,374.316,376.348,296.876z"/>
<path style="fill:#FFCFB2;" d="M84.337,188.496c-18.048,0-32.677,14.631-32.677,32.677c0,18.048,14.63,32.677,32.677,32.677h130.817
	v-65.354H84.337z"/>
<path style="fill:#FFB88B;" d="M345.97,188.496H215.153v65.354H345.97c18.048,0,32.677-14.63,32.677-32.677
	C378.647,203.127,364.018,188.496,345.97,188.496z"/>
<path style="fill:#D7E1E1;" d="M333.706,149.829h-29.638l-88.914,251.067c72.072,0,130.708-58.636,130.708-130.708v-65.354
	C345.862,185.196,341.5,166.559,333.706,149.829z"/>
<path style="fill:#FFFFFF;" d="M313.185,270.189v-65.354c0-19.639-3.272-38.276-9.117-55.005H96.601
	c-7.793,16.73-12.155,35.366-12.155,55.005v65.354c0,72.072,58.636,130.708,130.708,130.708
	C269.208,400.897,313.185,342.261,313.185,270.189z"/>
<path style="fill:#FFB88B;" d="M313.185,204.835c0-54.141-43.89-98.031-98.031-98.031v130.708h98.031V204.835z"/>
<path style="fill:#FFCFB2;" d="M280.508,237.512v-32.677c0-54.141-29.26-98.031-65.354-98.031c-54.141,0-98.031,43.89-98.031,98.031
	v32.677H280.508z"/>
<polygon style="fill:#10744A;" points="241.581,16.157 285.954,133.491 324.078,117.152 334.97,84.475 "/>
<path style="fill:#169B62;" d="M241.581,16.157c-1.46-1.061-3.015-2.011-4.642-2.859l-21.785,38.5l-21.785-38.5
	c-1.627,0.849-3.183,1.797-4.642,2.859L95.338,84.475l10.892,32.677l108.923,16.339h70.8l16.339-49.016L241.581,16.157z"/>
<polygon style="fill:#FFAB58;" points="291.401,117.152 275.062,133.491 280.508,149.829 313.185,149.829 324.078,117.152 "/>
<path style="fill:#FFCD71;" d="M236.939,117.152V13.298c-12.952-6.752-30.617-6.752-43.569,0v103.854h-87.139l10.892,32.677h163.385
	l10.892-32.677C291.401,117.152,236.939,117.152,236.939,117.152z"/>
<path d="M76.277,261.217v8.972c0,76.578,62.3,138.877,138.877,138.877s138.877-62.3,138.877-138.877v-8.972
	c18.675-3.754,32.786-20.279,32.786-40.044c0-20.466-15.129-37.46-34.872-40.394c-2.074-11.842-5.686-23.35-10.832-34.399
	c-1.341-2.879-4.228-4.72-7.405-4.72h-9.188l7.356-22.068c0.005-0.015,10.844-32.533,10.844-32.533
	c1.123-3.37-0.06-7.08-2.927-9.177L246.386,9.55c-17.515-12.735-44.952-12.736-62.483,0.014L90.514,77.882
	c-2.867,2.097-4.05,5.807-2.927,9.177l10.839,32.518c0.005,0.015,7.361,22.083,7.361,22.083H96.6c-3.176,0-6.064,1.841-7.405,4.72
	c-5.146,11.046-8.756,22.549-10.83,34.388c-19.702,2.9-34.875,19.911-34.875,40.405C43.49,240.937,57.601,257.464,76.277,261.217z
	 M370.478,221.173c0,10.69-6.883,19.798-16.447,23.14v-39.478c0-2.296-0.063-4.582-0.173-6.86
	C363.512,201.267,370.478,210.419,370.478,221.173z M325.333,87.548l-7.145,21.435h-73.081V28.858L325.333,87.548z M185.2,28.859
	v80.125h-73.081l-7.145-21.435L185.2,28.859z M117.564,125.322h75.804c4.512,0,8.169-3.657,8.169-8.169V18.646
	c8.521-3.011,18.717-3.012,27.231-0.003v98.509c0,4.513,3.658,8.169,8.169,8.169h75.804l-5.446,16.339H123.01L117.564,125.322z
	 M101.925,157.999h17.904c-7.139,14.493-10.876,30.438-10.876,46.836c0,4.513,3.658,8.169,8.169,8.169
	c4.512,0,8.169-3.657,8.169-8.169c0-16.655,4.549-32.755,13.171-46.836h153.381c8.623,14.081,13.171,30.181,13.171,46.836v24.508
	H117.121c-4.512,0-8.169,3.657-8.169,8.169c0,4.513,3.658,8.169,8.169,8.169h196.062c4.512,0,8.169-3.657,8.169-8.169v-32.677
	c0-16.398-3.737-32.343-10.876-46.836h2.682c0.053,0,15.223,0,15.223,0c6.181,14.855,9.311,30.585,9.311,46.836v65.354
	c0,67.567-54.97,122.539-122.539,122.539S92.614,337.756,92.614,270.189v-65.354C92.615,188.583,95.745,172.854,101.925,157.999z
	 M76.45,197.975c-0.11,2.278-0.173,4.563-0.173,6.86v39.478c-9.565-3.342-16.447-12.45-16.447-23.14
	C59.828,210.419,66.795,201.266,76.45,197.975z"/>
<path d="M413.406,302.256c-0.289-0.297-0.605-0.569-0.938-0.82c-9.091-7.918-20.956-12.729-33.929-12.729
	c-4.512,0-8.169,3.657-8.169,8.169c0,4.513,3.658,8.169,8.169,8.169c7.405,0,14.282,2.288,19.971,6.19
	c-16.554,73.937-77.061,131.589-152.036,144.221c-3.932,0.662-6.812,4.067-6.812,8.056v32.149h-49.016v-32.149
	c0-3.988-2.88-7.393-6.812-8.056c-74.975-12.632-135.482-70.284-152.036-144.22c5.689-3.902,12.566-6.19,19.971-6.19
	c4.512,0,8.169-3.657,8.169-8.169c0-4.513-3.658-8.169-8.169-8.169c-12.974,0-24.838,4.811-33.929,12.729
	c-0.333,0.252-0.648,0.523-0.938,0.82C6.542,311.724,0.03,325.339,0.03,340.446v163.385c0,4.513,3.658,8.169,8.169,8.169h413.909
	c4.512,0,8.169-3.657,8.169-8.169V340.446C430.278,325.338,423.766,311.723,413.406,302.256z M16.369,340.445
	c0-4.736,0.941-9.253,2.636-13.386c21.012,72.23,81.112,128.099,155.303,143.241v25.361H114.4v-24.508
	c0-4.513-3.658-8.169-8.169-8.169c-4.512,0-8.169,3.657-8.169,8.169v24.508H16.369V340.445z M413.939,495.661h-81.693v-24.508
	c0-4.513-3.658-8.169-8.169-8.169c-4.512,0-8.169,3.657-8.169,8.169v24.508H256v-25.361
	c74.191-15.141,134.291-71.01,155.303-143.241c1.695,4.133,2.636,8.651,2.636,13.386L413.939,495.661L413.939,495.661z"/>
<path d="M167.772,213.004h10.813c1.121,3.173,4.148,5.446,7.704,5.446c4.512,0,8.169-3.657,8.169-8.169v-5.446
	c0-4.513-3.658-8.169-8.169-8.169h-18.517c-4.512,0-8.169,3.657-8.169,8.169C159.603,209.347,163.26,213.004,167.772,213.004z"/>
<path d="M244.019,218.45c3.557,0,6.583-2.273,7.704-5.446h10.813c4.512,0,8.169-3.657,8.169-8.169c0-4.513-3.658-8.169-8.169-8.169
	h-18.517c-4.512,0-8.169,3.657-8.169,8.169v5.446C235.85,214.793,239.506,218.45,244.019,218.45z"/>
<path d="M215.154,291.042c11.502,0,21.817-7.28,25.67-18.116c1.511-4.251-0.71-8.923-4.961-10.434
	c-4.251-1.513-8.922,0.71-10.434,4.96c-1.542,4.337-5.671,7.251-10.275,7.251s-8.733-2.914-10.275-7.251
	c-1.512-4.25-6.182-6.473-10.434-4.96c-4.251,1.511-6.472,6.182-4.961,10.434C193.336,283.762,203.652,291.042,215.154,291.042z"/>
<path d="M511.97,149.829c0-31.531-25.653-57.185-57.185-57.185s-57.185,25.654-57.185,57.185c0,22.523,18.323,40.846,40.846,40.846
	c13.514,0,24.508-10.995,24.508-24.508v-8.169h32.083c-3.24,22.582-19.716,41.405-42.291,47.215
	c-2.194,0.565-4.055,2.016-5.138,4.006c-0.661,1.213-0.997,2.563-0.994,3.917c0.001,1.169,0.001,287.8,0.001,290.695
	c0,4.513,3.658,8.169,8.169,8.169c4.512,0,8.169-3.657,8.169-8.169V225.618c0-2.607,0-4.721-0.003-6.445
	C492.11,208.901,511.97,181.242,511.97,149.829z M446.616,109.803v31.857h-31.847C418.028,125.681,430.636,113.061,446.616,109.803z
	 M446.616,166.168c0,4.505-3.664,8.169-8.169,8.169c-10.649,0-19.73-6.831-23.103-16.339h31.272V166.168z M462.955,109.803
	c15.979,3.258,28.588,15.878,31.846,31.857h-31.846V109.803z"/>
</svg>