<?xml version="1.0" encoding="utf-8"?><!-- Uploaded to: SVG Repo, www.svgrepo.com, Generator: SVG Repo Mixer Tools -->
<svg width="800px" height="800px" viewBox="0 0 400 400" fill="none" xmlns="http://www.w3.org/2000/svg">
<path d="M115.838 371.142C109.502 322.304 98.4245 274.161 90.3386 225.646C88.3059 213.449 87.4875 200.89 85.0889 188.897" stroke="#000000" stroke-opacity="0.9" stroke-width="16" stroke-linecap="round" stroke-linejoin="round"/>
<path d="M160.965 180.19C170.358 229.596 177.559 275.509 188.591 322.393C191.397 334.321 192.329 348.614 196.841 359.892" stroke="#000000" stroke-opacity="0.9" stroke-width="16" stroke-linecap="round" stroke-linejoin="round"/>
<path d="M86.5859 187.772C136.131 172.735 151.03 173.621 163.459 175.397" stroke="#000000" stroke-opacity="0.9" stroke-width="16" stroke-linecap="round" stroke-linejoin="round"/>
<path d="M121.466 373.392C146.747 373.208 172.193 371.277 194.964 359.892" stroke="#000000" stroke-opacity="0.9" stroke-width="16" stroke-linecap="round" stroke-linejoin="round"/>
<path d="M100.262 165.552C110.561 163.405 120.701 158.63 131.543 158.63" stroke="#000000" stroke-opacity="0.9" stroke-width="16" stroke-linecap="round" stroke-linejoin="round"/>
<path d="M105.644 161.963C104.552 155.362 103.002 148.582 104.105 141.963" stroke="#000000" stroke-opacity="0.9" stroke-width="16" stroke-linecap="round" stroke-linejoin="round"/>
<path d="M104.103 142.989C109.12 140.354 119.37 137.901 121.025 138.374" stroke="#000000" stroke-opacity="0.9" stroke-width="16" stroke-linecap="round" stroke-linejoin="round"/>
<path d="M122.816 141.194C124.221 146.62 124.734 152.19 125.636 157.604" stroke="#000000" stroke-opacity="0.9" stroke-width="16" stroke-linecap="round" stroke-linejoin="round"/>
<path d="M85.9014 184.783C89.7621 177.765 93.1702 170.365 100.004 165.809" stroke="#000000" stroke-opacity="0.9" stroke-width="16" stroke-linecap="round" stroke-linejoin="round"/>
<path d="M141.797 162.476C147.38 163.248 154.795 166.816 156.412 172.476" stroke="#000000" stroke-opacity="0.9" stroke-width="16" stroke-linecap="round" stroke-linejoin="round"/>
<path d="M184.89 84.7036C181.324 74.0044 179.784 64.2277 190.078 52.6061C194.96 47.0945 207.883 56.374 210.828 51.9577C217.963 41.2552 213.691 24.7935 246.816 26.0201C264.324 26.6685 267.263 49.7615 269.511 50.6609C273.308 52.1795 286.959 44.0569 303.878 64.6021C309.866 71.8733 313.453 83.8537 311.011 93.1332C309.29 99.6717 301.073 103.405 301.933 104.481C314.159 119.763 322.709 141.873 304.526 157.328C297.061 163.674 285.898 166.057 276.32 164.461C269.462 163.318 261.633 158.284 261.406 158.625C257.481 176.538 248.394 180.19 235.793 180.19C226.271 180.19 216.844 170.514 214.394 163.164C214.119 162.337 214.941 160.57 214.07 160.57C213.291 160.57 213.272 161.917 212.773 162.516C205.512 171.229 180.568 165.649 186.836 153.113" stroke="#000000" stroke-opacity="0.5" stroke-width="16" stroke-linecap="round" stroke-linejoin="round"/>
<path d="M135.938 135.606C154.86 120.081 176.329 107.953 198.187 97.0242" stroke="#000000" stroke-opacity="0.5" stroke-width="16" stroke-linecap="round" stroke-linejoin="round"/>
<path d="M144.038 144.359C161.764 139.264 180.897 134.957 199.479 134.957" stroke="#000000" stroke-opacity="0.5" stroke-width="16" stroke-linecap="round" stroke-linejoin="round"/>
</svg>