<?xml version="1.0" encoding="utf-8"?><!-- Uploaded to: SVG Repo, www.svgrepo.com, Generator: SVG Repo Mixer Tools -->
<svg width="800px" height="800px" viewBox="0 0 400 400" fill="none" xmlns="http://www.w3.org/2000/svg">
<path d="M168.443 163.289C178.503 159.811 192.721 158.072 211.097 158.072C238.662 158.072 249.178 156.044 255.821 158.072" stroke="#000000" stroke-opacity="0.9" stroke-width="16" stroke-linecap="round" stroke-linejoin="round"/>
<path d="M211.564 160.842C208.697 199.775 207.263 225.881 207.263 239.158C207.263 259.074 205.891 312.321 205.891 317.475" stroke="#000000" stroke-opacity="0.9" stroke-width="16" stroke-linecap="round" stroke-linejoin="round"/>
<path d="M126.455 230.592C135.014 262.547 147.708 285.462 164.537 299.339C189.781 320.154 197.672 321.034 221.307 312.086C244.943 303.137 280.159 268.682 284.189 249.637" stroke="#000000" stroke-opacity="0.9" stroke-width="16" stroke-linecap="round" stroke-linejoin="round"/>
<path d="M108.301 258.737C111.722 255.441 123.64 226.921 126.962 226.921C130.285 226.921 142.878 233.64 153.692 248.345" stroke="#000000" stroke-opacity="0.9" stroke-width="16" stroke-linecap="round" stroke-linejoin="round"/>
<path d="M261.497 262.185C274.83 247.848 282.305 241.475 283.921 243.068C286.346 245.457 291.001 260.394 291.001 268.527" stroke="#000000" stroke-opacity="0.9" stroke-width="16" stroke-linecap="round" stroke-linejoin="round"/>
<path d="M193.879 95.8294C196.204 86.9599 202.128 82.5251 211.65 82.5251C225.934 82.5251 235.396 95.3767 235.396 104.768C235.396 114.16 226.92 136.368 214.637 136.368C202.354 136.368 185.561 127.07 187.968 109.446" stroke="#000000" stroke-opacity="0.9" stroke-width="16" stroke-linecap="round" stroke-linejoin="round"/>
</svg>