<?xml version="1.0" encoding="utf-8"?><!-- Uploaded to: SVG Repo, www.svgrepo.com, Generator: SVG Repo Mixer Tools -->
<svg width="800px" height="800px" viewBox="0 0 400 400" fill="none" xmlns="http://www.w3.org/2000/svg">
<path fill-rule="evenodd" clip-rule="evenodd" d="M139.874 150.624C120.135 154.73 117.554 171.983 116.454 181.076C114.307 198.814 112.22 248.869 116.454 257.212C120.687 265.554 137.893 271.542 162.909 271.542C187.925 271.542 237.873 274.822 253.392 271.542C268.912 268.262 285.482 161.78 268.223 154.48C247.292 148.343 159.613 146.517 139.874 150.624Z" stroke="#000000" stroke-opacity="0.9" stroke-width="16" stroke-linecap="round" stroke-linejoin="round"/>
<path d="M276.582 162.825C282.76 203.385 285.849 228.44 285.849 237.989C285.849 252.312 284.075 268.915 274.296 270.925C270.247 271.757 262.348 271.757 250.598 270.925" stroke="#000000" stroke-opacity="0.9" stroke-width="16" stroke-linecap="round" stroke-linejoin="round"/>
<path d="M228.348 140.211C229.493 131.008 226.129 126.407 218.255 126.407C206.445 126.407 194.483 124.225 190.594 129.966C188.001 133.793 186.705 138.807 186.705 145.007" stroke="#000000" stroke-opacity="0.9" stroke-width="16" stroke-linecap="round" stroke-linejoin="round"/>
</svg>