<?xml version="1.0" encoding="utf-8"?><!-- Uploaded to: SVG Repo, www.svgrepo.com, Generator: SVG Repo Mixer Tools -->
<svg width="800px" height="800px" viewBox="0 0 400 400" fill="none" xmlns="http://www.w3.org/2000/svg">
<path d="M135.36 78.428C199.156 -7.50982 315.513 130.863 233.749 187.503C170.214 231.519 95.621 162.912 125.451 103.218" stroke="#000000" stroke-opacity="0.9" stroke-width="16" stroke-linecap="round" stroke-linejoin="round"/>
<path d="M210.661 157.109C205.399 169.569 201.574 157.65 194.317 158.797C186.726 159.996 187.977 164.393 179.867 165.491C176.102 166.001 176.205 159.558 169.245 159.558C162.629 159.558 159.447 165.968 154.1 149.076" stroke="#000000" stroke-opacity="0.9" stroke-width="12" stroke-linecap="round" stroke-linejoin="round"/>
<path d="M195.291 117.469C195.553 113.433 195.109 109.379 194.816 105.346" stroke="#000000" stroke-opacity="0.9" stroke-width="16" stroke-linecap="round" stroke-linejoin="round"/>
<path d="M171.194 116.892C170.927 113.029 171.272 109.077 171.668 105.346" stroke="#000000" stroke-opacity="0.9" stroke-width="16" stroke-linecap="round" stroke-linejoin="round"/>
<path opacity="0.503384" d="M152.101 133.489C150.438 135.197 148.831 136.961 147.102 138.541" stroke="#000000" stroke-opacity="0.9" stroke-width="4" stroke-linecap="round" stroke-linejoin="round"/>
<path opacity="0.503384" d="M143.53 124.107C141.867 125.815 140.261 127.579 138.531 129.159" stroke="#000000" stroke-opacity="0.9" stroke-width="4" stroke-linecap="round" stroke-linejoin="round"/>
<path opacity="0.503384" d="M151.388 128.582C148.233 131.426 145.157 134.305 142.104 137.242" stroke="#000000" stroke-opacity="0.9" stroke-width="4" stroke-linecap="round" stroke-linejoin="round"/>
<path opacity="0.503384" d="M148.529 125.551C145.06 128.346 142.106 131.711 138.531 134.21" stroke="#000000" stroke-opacity="0.9" stroke-width="4" stroke-linecap="round" stroke-linejoin="round"/>
<path opacity="0.503384" d="M224.23 139.984C222.567 141.692 220.96 143.456 219.23 145.036" stroke="#000000" stroke-opacity="0.9" stroke-width="4" stroke-linecap="round" stroke-linejoin="round"/>
<path opacity="0.503384" d="M215.661 130.459C213.998 132.166 212.391 133.93 210.662 135.51" stroke="#000000" stroke-opacity="0.9" stroke-width="4" stroke-linecap="round" stroke-linejoin="round"/>
<path opacity="0.503384" d="M223.518 134.932C220.364 137.776 217.288 140.654 214.234 143.591" stroke="#000000" stroke-opacity="0.9" stroke-width="4" stroke-linecap="round" stroke-linejoin="round"/>
<path opacity="0.503384" d="M220.66 131.901C217.191 134.696 214.236 138.061 210.662 140.561" stroke="#000000" stroke-opacity="0.9" stroke-width="4" stroke-linecap="round" stroke-linejoin="round"/>
<path d="M188.699 229.714C158.513 253.492 128.663 308.156 119.194 346.837C111.96 348.183 106.562 348.857 103 348.857" stroke="#000000" stroke-opacity="0.9" stroke-width="16" stroke-linecap="round" stroke-linejoin="round"/>
<path d="M191.834 229.714C201.535 232.936 210.699 238.491 219.448 243.569C244.372 258.036 263.911 275.658 276.771 300.28C283.49 313.144 284.111 327.83 284.111 341.846C284.111 343.442 283.372 347.055 285.16 348.291C286.729 349.376 296.095 348.556 296.345 348.613" stroke="#000000" stroke-opacity="0.9" stroke-width="16" stroke-linecap="round" stroke-linejoin="round"/>
<path d="M176.704 340.496C162.605 321.139 134.155 269.032 155.786 247.293C167.563 235.456 179.071 265.554 181.934 270.769C183.292 273.242 184.13 280.124 186.117 278.126C186.664 277.578 187.311 271.805 187.512 271.119C188.895 266.393 191.379 261.736 193.787 257.454C200.274 245.92 209.114 235.274 216.798 224.517C230.552 205.264 256.143 211.055 257.589 235.029C259.494 266.616 229.073 285.549 208.779 304.406C199.895 312.66 190.587 324.983 178.796 328.933" stroke="#000000" stroke-opacity="0.9" stroke-width="16" stroke-linecap="round" stroke-linejoin="round"/>
</svg>