<?xml version="1.0" encoding="utf-8"?><!-- Uploaded to: SVG Repo, www.svgrepo.com, Generator: SVG Repo Mixer Tools -->
<svg width="800px" height="800px" viewBox="0 0 400 400" fill="none" xmlns="http://www.w3.org/2000/svg">
<path d="M95.7977 190.296C109.907 172.278 127.86 159.015 152.468 164.323C221.816 179.281 208.476 284.861 139.876 289.616C84.3291 293.469 63.5476 200.299 108.39 187.241" stroke="#000000" stroke-opacity="0.9" stroke-width="16" stroke-linecap="round" stroke-linejoin="round"/>
<path d="M183.177 176.761C189.777 171.319 194.395 168.598 197.03 168.598C200.983 168.598 210.16 186.329 212.264 192.5C213.667 196.614 209.41 199.924 199.493 202.428" stroke="#000000" stroke-opacity="0.9" stroke-width="16" stroke-linecap="round" stroke-linejoin="round"/>
<path opacity="0.503384" d="M213.537 176.507C221.275 173.173 232.745 172.104 247.945 173.299C270.746 175.093 254.205 143.83 282.353 143.83" stroke="#000000" stroke-opacity="0.9" stroke-width="16" stroke-linecap="round" stroke-linejoin="round"/>
<path opacity="0.503384" d="M281.341 126.37C279.992 119.281 279.317 113.824 279.317 110" stroke="#000000" stroke-opacity="0.9" stroke-width="16" stroke-linecap="round" stroke-linejoin="round"/>
<path opacity="0.503384" d="M296.521 129.644C296.521 129.644 300.451 119.948 305.629 115.457" stroke="#000000" stroke-opacity="0.9" stroke-width="16" stroke-linecap="round" stroke-linejoin="round"/>
<path opacity="0.503384" d="M304.617 143.806C306.178 142.415 310.226 142.415 316.761 143.806" stroke="#000000" stroke-opacity="0.9" stroke-width="16" stroke-linecap="round" stroke-linejoin="round"/>
<path opacity="0.503384" d="M299.557 153.652C302.93 157.277 304.617 160.915 304.617 164.565" stroke="#000000" stroke-opacity="0.9" stroke-width="16" stroke-linecap="round" stroke-linejoin="round"/>
</svg>