<?xml version="1.0" encoding="utf-8"?><!-- Uploaded to: SVG Repo, www.svgrepo.com, Generator: SVG Repo Mixer Tools -->
<svg width="800px" height="800px" viewBox="0 0 400 400" fill="none" xmlns="http://www.w3.org/2000/svg">
<path d="M166.447 73.7261C219.554 25.85 283.082 117.057 226.993 152.157C180.022 181.551 145.701 126.309 165.236 89.6385" stroke="#000000" stroke-opacity="0.9" stroke-width="16" stroke-linecap="round" stroke-linejoin="round"/>
<path d="M164.564 180.553C156.707 206.555 153.52 233.566 153.52 260.612" stroke="#000000" stroke-opacity="0.9" stroke-width="16" stroke-linecap="round" stroke-linejoin="round"/>
<path d="M153.529 260.612C111.724 305.883 113.853 315.812 143.866 372.419" stroke="#000000" stroke-opacity="0.9" stroke-width="16" stroke-linecap="round" stroke-linejoin="round"/>
<path d="M227.354 188.125C230.243 213.828 231.031 239.271 225.936 264.739" stroke="#000000" stroke-opacity="0.9" stroke-width="16" stroke-linecap="round" stroke-linejoin="round"/>
<path d="M228.269 266.992C263.782 308.361 247.823 332.596 221.581 371.043" stroke="#000000" stroke-opacity="0.9" stroke-width="16" stroke-linecap="round" stroke-linejoin="round"/>
<path d="M220.342 373.521C224.555 373.521 229.53 373.521 232.729 373.521" stroke="#000000" stroke-opacity="0.9" stroke-width="16" stroke-linecap="round" stroke-linejoin="round"/>
<path d="M128.03 375.4C133.926 376.813 139.993 375.978 145.764 375.4" stroke="#000000" stroke-opacity="0.9" stroke-width="16" stroke-linecap="round" stroke-linejoin="round"/>
<path d="M164.608 177.805C73.873 151.613 89.8446 176.342 151.594 106.58" stroke="#000000" stroke-opacity="0.9" stroke-width="16" stroke-linecap="round" stroke-linejoin="round"/>
<path d="M154.873 93.5742C152.498 97.614 154.027 99.4933 153.452 103.504" stroke="#000000" stroke-opacity="0.9" stroke-width="16" stroke-linecap="round" stroke-linejoin="round"/>
<path d="M227.349 188.125C247.664 183.523 272.042 173.23 298.995 162.59" stroke="#000000" stroke-opacity="0.9" stroke-width="16" stroke-linecap="round" stroke-linejoin="round"/>
<path d="M299 161.702C284.136 142.502 273.278 128.389 257.503 113.393" stroke="#000000" stroke-opacity="0.9" stroke-width="16" stroke-linecap="round" stroke-linejoin="round"/>
<path d="M253.787 89.8574C256.183 96.5827 256.795 103.438 257.334 110.431" stroke="#000000" stroke-opacity="0.9" stroke-width="16" stroke-linecap="round" stroke-linejoin="round"/>
<path d="M191.852 186.477C192.9 204.207 193.738 222.256 195.568 239.741" stroke="#000000" stroke-opacity="0.9" stroke-width="16" stroke-linecap="round" stroke-linejoin="round"/>
<path d="M191.852 186.477C191.452 204.564 190.614 222.928 190.614 240.979" stroke="#000000" stroke-opacity="0.9" stroke-width="16" stroke-linecap="round" stroke-linejoin="round"/>
<path d="M201.762 143.122C201.762 139.407 201.762 135.691 201.762 131.974" stroke="#000000" stroke-opacity="0.9" stroke-width="16" stroke-linecap="round" stroke-linejoin="round"/>
<path d="M216.626 115.871C216.626 114.218 216.626 112.566 216.626 110.916" stroke="#000000" stroke-opacity="0.9" stroke-width="16" stroke-linecap="round" stroke-linejoin="round"/>
<path d="M193.568 115.871C193.568 114.22 193.568 112.569 193.568 110.916" stroke="#000000" stroke-opacity="0.9" stroke-width="16" stroke-linecap="round" stroke-linejoin="round"/>
<path d="M126.201 50.3471C131.459 49.6627 136 51.8668 140.902 53.3748" stroke="#000000" stroke-opacity="0.5" stroke-width="16" stroke-linecap="round" stroke-linejoin="round"/>
<path d="M151.335 22.9678C149.929 28.417 152.974 31.6158 154.792 35.9369" stroke="#000000" stroke-opacity="0.5" stroke-width="16" stroke-linecap="round" stroke-linejoin="round"/>
<path d="M263.066 29.4523C263.966 36.0933 260.989 41.797 257.504 47.2243" stroke="#000000" stroke-opacity="0.5" stroke-width="16" stroke-linecap="round" stroke-linejoin="round"/>
<path d="M283.016 50.0498C269.942 63.1234 287.566 40.0474 273.936 59.1299" stroke="#000000" stroke-opacity="0.5" stroke-width="16" stroke-linecap="round" stroke-linejoin="round"/>
</svg>