<?xml version="1.0" encoding="utf-8"?><!-- Uploaded to: SVG Repo, www.svgrepo.com, Generator: SVG Repo Mixer Tools -->
<svg width="800px" height="800px" viewBox="0 0 400 400" fill="none" xmlns="http://www.w3.org/2000/svg">
<path d="M112.986 157.965C141.015 101.337 226.55 102.734 263.25 150.834C264.407 152.356 266.951 155.891 265.562 158.687C263.423 163.005 148.284 163.394 110.475 163.394" stroke="#000000" stroke-opacity="0.9" stroke-width="16" stroke-linecap="round" stroke-linejoin="round"/>
<path d="M190.576 119.809C194.764 173.486 189.284 234.1 194.11 284.724" stroke="#000000" stroke-opacity="0.9" stroke-width="16" stroke-linecap="round" stroke-linejoin="round"/>
<path d="M151.703 217.099C178.463 218.563 205.169 215.47 231.805 214.142" stroke="#000000" stroke-opacity="0.9" stroke-width="16" stroke-linecap="round" stroke-linejoin="round"/>
<path opacity="0.503384" d="M185.864 117.453C168.415 122.297 155.848 150.761 155.237 152.792" stroke="#000000" stroke-opacity="0.9" stroke-width="16" stroke-linecap="round" stroke-linejoin="round"/>
<path opacity="0.503384" d="M195.288 123.343C210.738 127.157 229.669 143.538 230.627 159.86" stroke="#000000" stroke-opacity="0.9" stroke-width="16" stroke-linecap="round" stroke-linejoin="round"/>
<path d="M65.7119 243.666C67.1195 168.885 109.297 210.567 109.297 250.563" stroke="#000000" stroke-opacity="0.9" stroke-width="16" stroke-linecap="round" stroke-linejoin="round"/>
<path d="M61 284.724C69.7257 232.972 55.7538 251.393 91.4203 251.393C127.359 251.393 120.454 250.635 124.61 284.377" stroke="#000000" stroke-opacity="0.9" stroke-width="16" stroke-linecap="round" stroke-linejoin="round"/>
<path d="M101.44 258.809C101.77 265.496 102.175 272.183 103.018 278.835" stroke="#000000" stroke-opacity="0.9" stroke-width="16" stroke-linecap="round" stroke-linejoin="round"/>
<path d="M78.5534 251.741C76.9466 259.457 79.3026 282.925 79.345 283.546" stroke="#000000" stroke-opacity="0.9" stroke-width="16" stroke-linecap="round" stroke-linejoin="round"/>
<path d="M294.237 227.706C311.525 170.669 349.136 193.208 334.519 242.318" stroke="#000000" stroke-opacity="0.9" stroke-width="16" stroke-linecap="round" stroke-linejoin="round"/>
<path d="M337.913 280.012C337.537 272.289 341.843 252.1 335.529 246.223C328.724 239.896 274.478 241.819 266.62 247.965C258.763 254.111 264.371 270.299 264.371 280.012" stroke="#000000" stroke-opacity="0.9" stroke-width="16" stroke-linecap="round" stroke-linejoin="round"/>
<path d="M280.097 252.919C280.811 261.125 281.779 269.459 280.984 277.657" stroke="#000000" stroke-opacity="0.9" stroke-width="16" stroke-linecap="round" stroke-linejoin="round"/>
<path d="M319.962 249.385C318.27 259.632 318.237 279.491 317.988 285.902" stroke="#000000" stroke-opacity="0.9" stroke-width="16" stroke-linecap="round" stroke-linejoin="round"/>
<path d="M168.195 285.902C209.606 256.556 180.716 266.209 215.313 282.964" stroke="#000000" stroke-opacity="0.9" stroke-width="16" stroke-linecap="round" stroke-linejoin="round"/>
</svg>