<?xml version="1.0" encoding="utf-8"?><!-- Uploaded to: SVG Repo, www.svgrepo.com, Generator: SVG Repo Mixer Tools -->
<svg width="800px" height="800px" viewBox="0 0 400 400" fill="none" xmlns="http://www.w3.org/2000/svg">
<path d="M130.749 136.63C166.202 133.837 190.706 132.195 204.261 131.705C246.74 130.169 268.149 131.608 272.419 131.705C281.891 131.918 289.495 136.116 291.642 144.968C293.788 153.82 300.853 254.744 285.428 262.996C276.352 267.851 200.056 270.744 149.05 269.545C132.06 269.145 114.491 267.54 111.874 262.996C102.057 245.956 103.384 151.744 111.874 140.237" stroke="#000000" stroke-opacity="0.9" stroke-width="16" stroke-linecap="round" stroke-linejoin="round"/>
<path d="M113.383 211.244L290.504 209.244" stroke="#000000" stroke-opacity="0.9" stroke-width="16" stroke-linecap="round" stroke-linejoin="round"/>
<path d="M115.236 234.244C194.465 236.244 236.684 237.244 241.893 237.244C247.101 237.244 264.232 236.244 293.285 234.244" stroke="#000000" stroke-opacity="0.9" stroke-width="16" stroke-linecap="round" stroke-linejoin="round"/>
<path d="M126.368 196.244C126.322 192.002 126.898 188.992 128.097 187.213C129.894 184.545 133.37 192.09 134.62 191.728C135.871 191.367 136.719 179.047 138.834 181.589C140.949 184.132 140.433 196.244 142.597 196.244C144.76 196.244 142.276 181.735 149.393 183.456C156.51 185.177 159.778 195.101 161.93 195.101C164.082 195.101 164.122 185.681 166.63 187.213C169.138 188.744 169.812 195.101 172.638 195.101C175.465 195.101 173.174 191.606 177.854 190.175C182.533 188.744 188.161 193.728 192.206 193.728" stroke="#000000" stroke-opacity="0.9" stroke-width="16" stroke-linecap="round" stroke-linejoin="round"/>
</svg>