<?xml version="1.0" encoding="utf-8"?><!-- Uploaded to: SVG Repo, www.svgrepo.com, Generator: SVG Repo Mixer Tools -->
<svg width="800px" height="800px" viewBox="0 0 400 400" fill="none" xmlns="http://www.w3.org/2000/svg">
<path opacity="0.503384" d="M192.3 81.4951C199.226 66.3583 203.945 59.606 206.458 61.2383C210.226 63.6869 216.941 81.4951 216.941 81.4951C216.941 81.4951 231.207 68.0443 235.174 67.7277C238.251 67.4821 232.429 85.3109 235.174 86.7156C241.459 89.9311 252.947 79.9504 255.63 81.4951C261.025 84.6015 250.767 104.371 250.767 106.772C250.767 109.172 272.184 104.829 272.184 106.772C272.184 108.714 263.078 127.097 266.296 127.097C269.515 127.097 282.468 137.991 282.468 137.991C282.468 137.991 266.296 146.066 266.296 151.197C266.296 156.327 283.601 167.695 282.468 170.22C281.336 172.744 259.545 175.362 259.545 177.411C259.545 179.46 275.33 197.998 272.184 201.337C269.038 204.676 252.803 197.998 250.767 201.337C248.731 204.676 259.94 222.674 255.63 222.674C251.32 222.674 237.395 218.389 235.174 218.389C232.953 218.389 231.648 237.459 228.653 237.459C225.659 237.459 210.104 226.904 210.104 226.904C210.104 226.904 196.966 240.343 194.734 240.343C192.502 240.343 185.781 228.509 182.775 224.908C179.769 221.307 167.004 231.53 164.229 231.388C161.454 231.247 162.146 211.837 160.574 209.881C159.002 207.925 141.568 218.387 139.512 214.474C137.455 210.561 144.045 193.77 144.045 191.914C144.045 190.058 124.347 188.939 124.347 184.398C124.347 179.856 135.418 170.275 135.418 168.111C135.418 165.947 118 159.471 118 152.667C118 145.863 138.724 143.365 138.724 141.194C138.724 139.024 127.023 116.928 127.023 116.928C127.023 116.928 152.681 119.713 154.641 116.928C156.601 114.143 145.174 92.2006 147.199 88.9851C149.224 85.7695 168.03 97.2987 171.938 94.9769C175.847 92.6551 167.771 69.9524 169.749 67.7277C171.727 65.5029 184.138 80.2845 187.275 83.5" stroke="#000000" stroke-opacity="0.9" stroke-width="16" stroke-linecap="round" stroke-linejoin="round"/>
<path d="M169.137 234.509C170.265 298.05 170.829 331.586 170.829 335.117C170.829 340.414 195.968 304.96 198.926 304.96C201.884 304.96 221.625 339.421 224.449 339.421C227.274 339.421 221.625 269.642 224.449 259.395" stroke="#000000" stroke-opacity="0.9" stroke-width="16" stroke-linecap="round" stroke-linejoin="round"/>
<path d="M172.708 125.19C208.276 73.7305 273.148 156.588 227.562 190.504C192.14 216.861 150.553 175.779 167.184 140.034" stroke="#000000" stroke-opacity="0.9" stroke-width="16" stroke-linecap="round" stroke-linejoin="round"/>
</svg>