<?xml version="1.0" encoding="utf-8"?><!-- Uploaded to: SVG Repo, www.svgrepo.com, Generator: SVG Repo Mixer Tools -->
<svg width="800px" height="800px" viewBox="0 0 400 400" fill="none" xmlns="http://www.w3.org/2000/svg">
<path d="M273.846 100C232.817 115.044 209.229 118.509 169.311 127C165.655 127.775 119.552 135.538 117.339 140.269C115.126 145 112.891 287.127 114.61 288.833C115.126 289.346 184.701 293.126 201.846 294.436C213.016 295.289 256.939 297 273.415 300C275.049 238.667 274.577 178.833 271.998 120.5" stroke="#000000" stroke-opacity="0.9" stroke-width="16" stroke-linecap="round" stroke-linejoin="round"/>
<path d="M285.846 105C282.688 151.029 283.928 197.827 285.115 244.056C285.455 257.334 284.213 289.915 285.846 299" stroke="#000000" stroke-opacity="0.9" stroke-width="12" stroke-linecap="round" stroke-linejoin="round"/>
<path opacity="0.503384" d="M118.846 161C122.105 159.405 125.812 158.726 129.28 157.707C139.563 154.689 160.457 155.696 171.69 153.756C200.324 148.814 229.286 142.987 256.846 134" stroke="#000000" stroke-opacity="0.9" stroke-width="6" stroke-linecap="round" stroke-linejoin="round"/>
<path opacity="0.503384" d="M266.846 154C234.099 160.808 200.958 166.152 167.847 170.902C156.735 172.495 145.985 178 134.846 178" stroke="#000000" stroke-opacity="0.9" stroke-width="6" stroke-linecap="round" stroke-linejoin="round"/>
<path opacity="0.503384" d="M117.846 199C121.441 198.287 124.795 196.406 128.456 195.935C134.469 195.164 140.635 195.392 146.694 194.916C150.485 194.615 154.102 193.155 157.966 192.874C169.646 192.016 181.485 190.62 193.115 189.126C210.092 186.948 226.783 183 243.846 183" stroke="#000000" stroke-opacity="0.9" stroke-width="6" stroke-linecap="round" stroke-linejoin="round"/>
<path opacity="0.503384" d="M266.846 201C233.968 202.882 201.197 206.424 168.28 208.451C159.055 209.021 150.007 212 140.846 212" stroke="#000000" stroke-opacity="0.9" stroke-width="6" stroke-linecap="round" stroke-linejoin="round"/>
<path opacity="0.503384" d="M120.846 234C125.93 232.877 130.807 230.748 135.973 230.21C145.472 229.218 155.04 230.217 164.544 229.37C189.88 227.102 215.386 226 240.846 226" stroke="#000000" stroke-opacity="0.9" stroke-width="6" stroke-linecap="round" stroke-linejoin="round"/>
<path opacity="0.503384" d="M120.846 250.582C142.371 248.168 164.522 249.842 186.208 250.582C196.444 250.932 206.97 250.216 217.186 249.85C227.692 249.472 238.309 250.094 248.846 250.094" stroke="#000000" stroke-opacity="0.9" stroke-width="6" stroke-linecap="round" stroke-linejoin="round"/>
<path opacity="0.503384" d="M268.846 273.52C262.165 272.915 255.387 274.365 248.744 273.91C210.819 271.306 172.793 270 134.846 270" stroke="#000000" stroke-opacity="0.9" stroke-width="6" stroke-linecap="round" stroke-linejoin="round"/>
<path opacity="0.503384" d="M245.872 131C247.782 124.416 243.497 116.392 247.092 110" stroke="#000000" stroke-opacity="0.9" stroke-width="6" stroke-linecap="round" stroke-linejoin="round"/>
<path opacity="0.503384" d="M187.98 145C187.968 144.26 188.712 131.256 188.712 134.527" stroke="#000000" stroke-opacity="0.9" stroke-width="6" stroke-linecap="round" stroke-linejoin="round"/>
<path opacity="0.503384" d="M140.668 143C140.18 140.605 141.16 138.361 141.16 136" stroke="#000000" stroke-opacity="0.9" stroke-width="6" stroke-linecap="round" stroke-linejoin="round"/>
<path opacity="0.503384" d="M163.554 168C164.442 165.615 164.058 158.067 164.046 158" stroke="#000000" stroke-opacity="0.9" stroke-width="6" stroke-linecap="round" stroke-linejoin="round"/>
<path opacity="0.503384" d="M217.602 154C217.612 152.94 218.09 142.224 218.09 144.255" stroke="#000000" stroke-opacity="0.9" stroke-width="6" stroke-linecap="round" stroke-linejoin="round"/>
<path opacity="0.503384" d="M244.733 165C244.888 166.403 244.778 176.568 245.958 174.793" stroke="#000000" stroke-opacity="0.9" stroke-width="6" stroke-linecap="round" stroke-linejoin="round"/>
<path opacity="0.503384" d="M187.431 185C188.577 181.57 187.452 176.631 189.261 174" stroke="#000000" stroke-opacity="0.9" stroke-width="6" stroke-linecap="round" stroke-linejoin="round"/>
<path opacity="0.503384" d="M140.112 194C140.936 190.663 141.58 187.37 141.58 184" stroke="#000000" stroke-opacity="0.9" stroke-width="6" stroke-linecap="round" stroke-linejoin="round"/>
<path opacity="0.503384" d="M165.097 197C164.469 199.292 164.609 201.65 164.609 204" stroke="#000000" stroke-opacity="0.9" stroke-width="6" stroke-linecap="round" stroke-linejoin="round"/>
<path opacity="0.503384" d="M217.377 202C217.199 196.916 217.689 191.856 218.353 187" stroke="#000000" stroke-opacity="0.9" stroke-width="6" stroke-linecap="round" stroke-linejoin="round"/>
<path opacity="0.503384" d="M242.602 208C242.602 209.099 242.602 210.199 242.602 211.298C242.602 213.03 242.64 226.656 243.09 224.832" stroke="#000000" stroke-opacity="0.9" stroke-width="6" stroke-linecap="round" stroke-linejoin="round"/>
<path opacity="0.503384" d="M188.264 214C187.649 217.362 188.63 220.774 188.63 224" stroke="#000000" stroke-opacity="0.9" stroke-width="6" stroke-linecap="round" stroke-linejoin="round"/>
<path opacity="0.503384" d="M140.864 217C140.78 219.666 140.864 222.332 140.864 225" stroke="#000000" stroke-opacity="0.9" stroke-width="6" stroke-linecap="round" stroke-linejoin="round"/>
<path opacity="0.503384" d="M164.846 236C164.846 239.332 164.846 242.665 164.846 246" stroke="#000000" stroke-opacity="0.9" stroke-width="6" stroke-linecap="round" stroke-linejoin="round"/>
<path opacity="0.503384" d="M216.745 233C216.953 236.618 216.389 240.512 216.989 244" stroke="#000000" stroke-opacity="0.9" stroke-width="6" stroke-linecap="round" stroke-linejoin="round"/>
<path opacity="0.503384" d="M245.437 261C244.902 262.992 243.687 278.182 246.047 276.926" stroke="#000000" stroke-opacity="0.9" stroke-width="6" stroke-linecap="round" stroke-linejoin="round"/>
<path opacity="0.503384" d="M188.797 263C189.193 259.295 188.956 255.528 189.895 252" stroke="#000000" stroke-opacity="0.9" stroke-width="6" stroke-linecap="round" stroke-linejoin="round"/>
<path opacity="0.503384" d="M138.069 261C138.069 261.959 137.067 268.041 138.069 266.845" stroke="#000000" stroke-opacity="0.9" stroke-width="6" stroke-linecap="round" stroke-linejoin="round"/>
<path opacity="0.503384" d="M161.927 277C161.623 279.926 162.427 283.166 161.683 286" stroke="#000000" stroke-opacity="0.9" stroke-width="6" stroke-linecap="round" stroke-linejoin="round"/>
<path opacity="0.503384" d="M216.993 278C216.691 281.955 216.523 286.154 216.993 290" stroke="#000000" stroke-opacity="0.9" stroke-width="6" stroke-linecap="round" stroke-linejoin="round"/>
</svg>