<?xml version="1.0" encoding="utf-8"?><!-- Uploaded to: SVG Repo, www.svgrepo.com, Generator: SVG Repo Mixer Tools -->
<svg width="800px" height="800px" viewBox="0 0 400 400" fill="none" xmlns="http://www.w3.org/2000/svg">
<path d="M180.094 105.229C197.409 93.1275 224.008 87.7091 239.303 104.966" stroke="#000000" stroke-opacity="0.9" stroke-width="16" stroke-linecap="round" stroke-linejoin="round"/>
<path d="M174.455 107.728C162.946 112.308 149.193 127.646 157.014 138.957" stroke="#000000" stroke-opacity="0.9" stroke-width="16" stroke-linecap="round" stroke-linejoin="round"/>
<path d="M160.352 118.97C160.61 124.289 163.216 126.798 167.4 130.213" stroke="#000000" stroke-opacity="0.9" stroke-width="16" stroke-linecap="round" stroke-linejoin="round"/>
<path d="M173.793 110.226C174.405 112.271 174.687 114.413 175.115 116.472" stroke="#000000" stroke-opacity="0.9" stroke-width="16" stroke-linecap="round" stroke-linejoin="round"/>
<path d="M197 96.4851C204.049 97.4572 204.675 100.774 206.868 105.229" stroke="#000000" stroke-opacity="0.9" stroke-width="16" stroke-linecap="round" stroke-linejoin="round"/>
<path d="M215.332 95.2358C223.533 97.2094 224.348 101.268 225.2 103.98" stroke="#000000" stroke-opacity="0.9" stroke-width="16" stroke-linecap="round" stroke-linejoin="round"/>
<path d="M209.698 74.2605C189.683 71.6312 174.86 89.3993 177.6 105.229" stroke="#000000" stroke-opacity="0.9" stroke-width="16" stroke-linecap="round" stroke-linejoin="round"/>
<path d="M189.961 78.9968C194.155 79.1678 196.805 81.4689 199.829 83.9935" stroke="#000000" stroke-opacity="0.9" stroke-width="16" stroke-linecap="round" stroke-linejoin="round"/>
<path d="M182.914 89.6597C184.614 88.3555 186.714 88.7553 188.553 88.3206" stroke="#000000" stroke-opacity="0.9" stroke-width="16" stroke-linecap="round" stroke-linejoin="round"/>
<path d="M174.453 98.9834C167.312 82.9687 146.473 82.4198 134.98 89.8549" stroke="#000000" stroke-opacity="0.9" stroke-width="16" stroke-linecap="round" stroke-linejoin="round"/>
<path d="M154.716 87.7407C150.086 89.2889 147.674 93.1277 144.848 96.4849" stroke="#000000" stroke-opacity="0.9" stroke-width="16" stroke-linecap="round" stroke-linejoin="round"/>
<path d="M165.991 90.2393C162.659 90.5086 162.035 94.253 160.352 96.4851" stroke="#000000" stroke-opacity="0.9" stroke-width="16" stroke-linecap="round" stroke-linejoin="round"/>
<path d="M180.094 105.229C219.51 127.365 241.212 215.482 239.171 280.114" stroke="#000000" stroke-opacity="0.9" stroke-width="16" stroke-linecap="round" stroke-linejoin="round"/>
<path opacity="0.503384" d="M267.5 259.779C285.774 261.463 287.79 260.601 305.106 265.854C319.641 270.265 372.737 278.245 375.774 296.418C379.724 320.038 311.307 314.747 301.554 313.937C276.671 311.871 244.032 324.435 224.729 320.427C206.287 316.599 161.651 326.672 142.148 325.113C111.61 322.678 54.7673 324.771 27.4559 307.446C23.0498 304.651 23.6962 297.403 24.8512 293.173C34.9801 256.169 82.5294 259.324 112.978 255.535C130.721 253.322 190.75 253.662 216.5 255.534" stroke="#000000" stroke-opacity="0.9" stroke-width="16" stroke-linecap="round" stroke-linejoin="round"/>
</svg>