<?xml version="1.0" encoding="utf-8"?><!-- Uploaded to: SVG Repo, www.svgrepo.com, Generator: SVG Repo Mixer Tools -->
<svg width="800px" height="800px" viewBox="0 0 400 400" fill="none" xmlns="http://www.w3.org/2000/svg">
<path d="M77.0015 241.896C72.7884 207.941 76.5353 173.73 76.5353 139.757C76.5353 129.374 80.1656 105.87 88.1464 98.7007C114.229 75.2636 275.793 72.9245 309.175 90.6878C324.233 98.7007 332.743 236.639 317.068 249.909C301.393 263.178 239.129 267.326 205.441 267.326C174.65 267.326 114.649 274.585 90.0032 253.913" stroke="#000000" stroke-opacity="0.9" stroke-width="16" stroke-linecap="round" stroke-linejoin="round"/>
<path d="M100.681 227.909C170.321 228.309 239.116 224.342 308.495 224.342" stroke="#000000" stroke-opacity="0.9" stroke-width="16" stroke-linecap="round" stroke-linejoin="round"/>
<path d="M202.553 244.885C202.441 243.345 202.865 241.886 203.019 240.377" stroke="#000000" stroke-opacity="0.9" stroke-width="16" stroke-linecap="round" stroke-linejoin="round"/>
<path d="M181.556 276.443C180.911 290.606 177.551 307.956 166.231 316.499" stroke="#000000" stroke-opacity="0.9" stroke-width="16" stroke-linecap="round" stroke-linejoin="round"/>
<path d="M224.257 275.251C222.541 295.639 230.096 307.935 244.02 315.997" stroke="#000000" stroke-opacity="0.9" stroke-width="16" stroke-linecap="round" stroke-linejoin="round"/>
<path d="M142.892 320.376C182.421 321.88 223.986 316.04 263.62 319.167" stroke="#000000" stroke-opacity="0.9" stroke-width="16" stroke-linecap="round" stroke-linejoin="round"/>
</svg>