<?xml version="1.0" encoding="utf-8"?><!-- Uploaded to: SVG Repo, www.svgrepo.com, Generator: SVG Repo Mixer Tools -->
<svg width="800px" height="800px" viewBox="0 0 400 400" fill="none" xmlns="http://www.w3.org/2000/svg">
<path d="M88.0793 158.247C86.6613 148.371 85.3663 138.416 83.722 128.55C82.6644 122.205 81.8714 115.832 80.8166 109.506C79.7639 103.187 78.8369 96.6994 77.5891 90.4617C72.9582 67.3093 146.261 82.3241 123.747 108.053" stroke="#000000" stroke-opacity="0.9" stroke-width="16" stroke-linecap="round" stroke-linejoin="round"/>
<path d="M125.684 112.089C134.033 118.8 153.899 140.61 132.463 142.753" stroke="#000000" stroke-opacity="0.9" stroke-width="16" stroke-linecap="round" stroke-linejoin="round"/>
<path d="M133.592 146.143C135.584 153.017 145.212 163.333 142.147 170.997C141.149 173.49 107.52 169.161 101.313 164.864" stroke="#000000" stroke-opacity="0.9" stroke-width="16" stroke-linecap="round" stroke-linejoin="round"/>
<path d="M82.1127 170.019C64.4376 197.705 75.0611 233.382 73.996 264.26C73.6349 274.732 70.6143 285.323 70.6143 295.599" stroke="#000000" stroke-opacity="0.9" stroke-width="16" stroke-linecap="round" stroke-linejoin="round"/>
<path d="M133.742 173.175C114.066 192.987 136.39 226.031 138.702 249.154C140.755 269.675 134.905 284.082 132.165 303.264" stroke="#000000" stroke-opacity="0.9" stroke-width="16" stroke-linecap="round" stroke-linejoin="round"/>
<path d="M184.457 178.907C184.128 172.653 183.385 166.331 182.148 160.154C179.755 148.184 177.513 135.781 175.801 123.8C173.435 107.236 223.921 111.199 210.135 131.878" stroke="#000000" stroke-opacity="0.9" stroke-width="16" stroke-linecap="round" stroke-linejoin="round"/>
<path d="M211.001 137.072C228.421 157.851 216.681 155.521 215.618 158.712C215.086 160.307 228.71 180.631 221.965 184.679C216.773 187.794 202.459 179.328 197.44 177.177" stroke="#000000" stroke-opacity="0.9" stroke-width="16" stroke-linecap="round" stroke-linejoin="round"/>
<path d="M214.175 186.698C207.712 196.158 213.045 207.553 215.906 217.282C221.684 236.926 227.667 255.523 226.581 276.141C226.412 279.366 224.395 303.824 223.696 298.934" stroke="#000000" stroke-opacity="0.9" stroke-width="16" stroke-linecap="round" stroke-linejoin="round"/>
<path d="M181.571 182.659C175.078 189.318 170.957 197.628 170.03 206.895C167.834 228.859 176.378 250.757 176.378 272.679C176.378 274.733 170.576 307.036 172.084 303.264" stroke="#000000" stroke-opacity="0.9" stroke-width="16" stroke-linecap="round" stroke-linejoin="round"/>
<path d="M238.699 180.639C237.776 174.568 236.97 168.537 236.103 162.463C234.543 151.548 230.909 140.49 230.909 129.571C230.909 111.811 275.929 119.163 266.686 137.649" stroke="#000000" stroke-opacity="0.9" stroke-width="16" stroke-linecap="round" stroke-linejoin="round"/>
<path d="M267.552 140.823C276.672 146.455 279.507 160.6 273.322 160.154" stroke="#000000" stroke-opacity="0.9" stroke-width="16" stroke-linecap="round" stroke-linejoin="round"/>
<path d="M274.188 164.771C290.732 201.92 265.36 182.247 243.604 178.62" stroke="#000000" stroke-opacity="0.9" stroke-width="16" stroke-linecap="round" stroke-linejoin="round"/>
<path d="M272.57 189.408C271.097 192.502 269.534 196.281 269.973 199.795C271.389 211.121 279.279 221.618 281.803 232.975C286.452 253.899 286.419 277.787 286.419 297.027" stroke="#000000" stroke-opacity="0.9" stroke-width="16" stroke-linecap="round" stroke-linejoin="round"/>
<path d="M239.565 189.295C221.65 211.104 234.705 236.557 236.103 261.714C236.801 274.273 234.66 292.193 234.66 301.53" stroke="#000000" stroke-opacity="0.9" stroke-width="16" stroke-linecap="round" stroke-linejoin="round"/>
<path d="M246.746 139.34C252.899 138.775 258.828 140.168 264.969 140.168" stroke="#000000" stroke-opacity="0.9" stroke-width="16" stroke-linecap="round" stroke-linejoin="round"/>
<path d="M191.508 133.726C197.317 134.231 203.033 133.322 208.863 133.322" stroke="#000000" stroke-opacity="0.9" stroke-width="16" stroke-linecap="round" stroke-linejoin="round"/>
<path d="M101.505 109.308C108.54 108.594 115.764 109.472 122.695 108.702" stroke="#000000" stroke-opacity="0.9" stroke-width="16" stroke-linecap="round" stroke-linejoin="round"/>
<path d="M119.466 113.747C119.392 112.232 119.976 109.996 120.273 109.105" stroke="#000000" stroke-opacity="0.9" stroke-width="16" stroke-linecap="round" stroke-linejoin="round"/>
<path d="M203.817 138.164C203.913 136.864 204.094 135.606 204.222 134.33" stroke="#000000" stroke-opacity="0.9" stroke-width="16" stroke-linecap="round" stroke-linejoin="round"/>
<path d="M261.227 145.085C261.572 144.362 261.588 141.566 261.655 140.823" stroke="#000000" stroke-opacity="0.9" stroke-width="16" stroke-linecap="round" stroke-linejoin="round"/>
<path d="M22 218.639C35.2282 216.653 48.6799 216.683 61.9838 217.839C66.1328 218.2 67.432 218.382 71.5727 218.863" stroke="#000000" stroke-opacity="0.5" stroke-width="16" stroke-linecap="round" stroke-linejoin="round"/>
<path d="M141.151 232.854C150.552 235.077 160.026 236.952 169.516 238.748" stroke="#000000" stroke-opacity="0.5" stroke-width="16" stroke-linecap="round" stroke-linejoin="round"/>
<path d="M224.354 249.887C227.806 250.63 231.26 251.372 234.717 252.092" stroke="#000000" stroke-opacity="0.9" stroke-width="16" stroke-linecap="round" stroke-linejoin="round"/>
<path d="M284.836 260.558C315.155 268.331 345.629 278.428 377.245 278.61" stroke="#000000" stroke-opacity="0.5" stroke-width="16" stroke-linecap="round" stroke-linejoin="round"/>
<path d="M22.416 193.651C38.1857 194.287 53.963 194.701 69.7396 195.12" stroke="#000000" stroke-opacity="0.5" stroke-width="16" stroke-linecap="round" stroke-linejoin="round"/>
<path d="M126.546 195.785C142.329 195.79 158.11 195.547 173.887 195.145" stroke="#000000" stroke-opacity="0.5" stroke-width="16" stroke-linecap="round" stroke-linejoin="round"/>
<path d="M211.112 194.271L233.432 193.914" stroke="#000000" stroke-opacity="0.5" stroke-width="16" stroke-linecap="round" stroke-linejoin="round"/>
<path d="M271.107 193.701C305.516 193.739 339.921 194.403 374.329 194.483" stroke="#000000" stroke-opacity="0.5" stroke-width="16" stroke-linecap="round" stroke-linejoin="round"/>
<path d="M66.6973 321C137.409 311.661 162.221 318.336 197.44 316.135C225.453 314.383 262.324 316.349 290.551 316.349" stroke="#000000" stroke-opacity="0.9" stroke-width="16" stroke-linecap="round" stroke-linejoin="round"/>
</svg>