<?xml version="1.0" encoding="utf-8"?><!-- Uploaded to: SVG Repo, www.svgrepo.com, Generator: SVG Repo Mixer Tools -->
<svg width="800px" height="800px" viewBox="0 0 400 400" fill="none" xmlns="http://www.w3.org/2000/svg">
<path d="M127.045 94.768C193.909 -4.76792 315.863 155.5 230.166 221.102C163.575 272.083 85.3939 192.621 116.659 123.48" stroke="#000000" stroke-opacity="0.9" stroke-width="16" stroke-linecap="round" stroke-linejoin="round"/>
<path d="M283.322 113.389C285.936 108.102 287.922 105.468 291.601 103.322C307.135 94.2618 309.71 145.11 297.972 158.802C282.852 176.438 271.649 136.939 282.295 118.826" stroke="#000000" stroke-opacity="0.9" stroke-width="16" stroke-linecap="round" stroke-linejoin="round"/>
<path d="M311.027 113.389C313.641 108.102 315.627 105.468 319.306 103.322C334.84 94.2618 337.416 145.11 325.677 158.802C310.557 176.438 299.354 136.939 310 118.826" stroke="#000000" stroke-opacity="0.9" stroke-width="16" stroke-linecap="round" stroke-linejoin="round"/>
<path d="M68 329.49C79.7542 226.834 223.411 226.834 233.074 337.491" stroke="#000000" stroke-opacity="0.9" stroke-width="16" stroke-linecap="round" stroke-linejoin="round"/>
<path d="M322.537 125.336V135.725" stroke="#000000" stroke-opacity="0.9" stroke-width="12" stroke-linecap="round" stroke-linejoin="round"/>
<path d="M293.678 125.336V135.725" stroke="#000000" stroke-opacity="0.9" stroke-width="12" stroke-linecap="round" stroke-linejoin="round"/>
<path opacity="0.503384" d="M294.256 102.248C261.263 117.752 234.328 128.141 213.45 133.416" stroke="#000000" stroke-opacity="0.9" stroke-width="6" stroke-linecap="round" stroke-linejoin="round"/>
<path opacity="0.503384" d="M288.484 165.739C247.211 158.043 222.199 154.195 213.45 154.195" stroke="#000000" stroke-opacity="0.9" stroke-width="6" stroke-linecap="round" stroke-linejoin="round"/>
</svg>