<?xml version="1.0" encoding="utf-8"?><!-- Uploaded to: SVG Repo, www.svgrepo.com, Generator: SVG Repo Mixer Tools -->
<svg width="800px" height="800px" viewBox="0 0 400 400" fill="none" xmlns="http://www.w3.org/2000/svg">
<path d="M143.473 179.317C176.044 146.74 213.525 208.679 174.082 226.208C143.214 239.924 124.498 205.49 143.473 185.253" stroke="#000000" stroke-opacity="0.9" stroke-width="16" stroke-linecap="round" stroke-linejoin="round"/>
<path d="M221.753 172.983C247.829 159.665 277.212 193.741 255.159 219.781C249.009 227.043 240.902 231.18 231.378 228.557C216.429 224.436 198.412 204.268 214.628 184.472" stroke="#000000" stroke-opacity="0.9" stroke-width="16" stroke-linecap="round" stroke-linejoin="round"/>
<path d="M191.09 199.675C196.807 187.821 202.524 187.821 208.241 199.675" stroke="#000000" stroke-opacity="0.9" stroke-width="16" stroke-linecap="round" stroke-linejoin="round"/>
<path d="M135.837 199.675C129.403 188.87 124.171 183.468 120.141 183.468C116.111 183.468 113.397 187.313 112 195.003" stroke="#000000" stroke-opacity="0.9" stroke-width="16" stroke-linecap="round" stroke-linejoin="round"/>
<path d="M263.431 199.675C269.865 188.87 275.097 183.468 279.127 183.468C283.157 183.468 285.871 187.313 287.268 195.003" stroke="#000000" stroke-opacity="0.9" stroke-width="16" stroke-linecap="round" stroke-linejoin="round"/>
</svg>