<?xml version="1.0" encoding="utf-8"?><!-- Uploaded to: SVG Repo, www.svgrepo.com, Generator: SVG Repo Mixer Tools -->
<svg width="800px" height="800px" viewBox="0 0 400 400" fill="none" xmlns="http://www.w3.org/2000/svg">
<path d="M155.99 160.478C181.595 158.032 209.251 157.04 234.671 159.582" stroke="#000000" stroke-opacity="0.9" stroke-width="16" stroke-linecap="round" stroke-linejoin="round"/>
<path d="M175.064 154.013C178.969 128.857 208.968 132.765 214.405 154.518" stroke="#000000" stroke-opacity="0.9" stroke-width="16" stroke-linecap="round" stroke-linejoin="round"/>
<path d="M173.872 166.606C177.912 205.665 212.79 200.531 216.789 165.247" stroke="#000000" stroke-opacity="0.9" stroke-width="16" stroke-linecap="round" stroke-linejoin="round"/>
<path d="M167.912 204.587C166.576 229.775 165.527 256.958 165.527 280.883" stroke="#000000" stroke-opacity="0.9" stroke-width="16" stroke-linecap="round" stroke-linejoin="round"/>
<path d="M221.965 198.626C221.421 214.466 220.93 230.556 223.941 246.311" stroke="#000000" stroke-opacity="0.9" stroke-width="16" stroke-linecap="round" stroke-linejoin="round"/>
<path d="M221.557 198.626C234.294 229.026 236.929 237.967 238.247 246.311" stroke="#000000" stroke-opacity="0.9" stroke-width="16" stroke-linecap="round" stroke-linejoin="round"/>
<path d="M167.912 204.587C160.433 229.667 149.85 266.982 140.102 275.036C135.229 278.213 126.618 281.707 121.419 280.709" stroke="#000000" stroke-opacity="0.9" stroke-width="16" stroke-linecap="round" stroke-linejoin="round"/>
<path d="M109.982 118.446C113.022 172.113 111.736 225.999 111.736 279.868" stroke="#000000" stroke-opacity="0.5" stroke-width="16" stroke-linecap="round" stroke-linejoin="round"/>
<path d="M284.858 119.029C284.293 170.762 285.932 222.361 285.932 274.02" stroke="#000000" stroke-opacity="0.5" stroke-width="16" stroke-linecap="round" stroke-linejoin="round"/>
<path d="M111.882 282.815C171.955 284.512 231.709 280.883 291.892 280.883" stroke="#000000" stroke-opacity="0.9" stroke-width="16" stroke-linecap="round" stroke-linejoin="round"/>
<path d="M105.986 288.577C106.086 319.043 107.624 349.467 108.386 379.767" stroke="#000000" stroke-opacity="0.9" stroke-width="16" stroke-linecap="round" stroke-linejoin="round"/>
<path d="M302.603 281.379C306.147 313.442 304.718 345.352 304.718 377.368" stroke="#000000" stroke-opacity="0.9" stroke-width="16" stroke-linecap="round" stroke-linejoin="round"/>
<path d="M96.3051 104.251C96.3042 76.7746 92.7933 49.5311 94.4391 22.0337C95.5318 21.9913 96.6322 21.978 97.7245 21.9279C163.675 18.9289 229.721 24.3758 295.503 21.9104C299.61 48.5512 299.926 77.3653 297.578 104.136C234.678 107.576 171.167 103.888 108.167 104.961" stroke="#000000" stroke-opacity="0.5" stroke-width="16" stroke-linecap="round" stroke-linejoin="round"/>
<path d="M217.552 271.346C217.552 265.444 216.389 259.592 216.934 253.686C217.296 253.677 217.661 253.674 218.023 253.663C239.878 253.019 261.766 254.189 283.566 253.659C284.927 259.382 285.031 265.571 284.254 271.321" stroke="#000000" stroke-opacity="0.5" stroke-width="16" stroke-linecap="round" stroke-linejoin="round"/>
</svg>