<?xml version="1.0" encoding="utf-8"?><!-- Uploaded to: SVG Repo, www.svgrepo.com, Generator: SVG Repo Mixer Tools -->
<svg width="800px" height="800px" viewBox="0 0 400 400" fill="none" xmlns="http://www.w3.org/2000/svg">
<path d="M112.535 121.809C114.988 114.842 115.224 143.238 115.455 146.87C117.608 180.612 120.322 214.372 120.322 248.197C120.322 258.353 120.394 268.611 121.296 278.705C121.716 283.417 122.269 297.604 122.269 292.871C122.269 285.925 121.876 289.184 123.242 283.063" stroke="#000000" stroke-opacity="0.9" stroke-width="16" stroke-linecap="round" stroke-linejoin="round"/>
<path d="M116.105 129.256C151.792 78.3219 180.299 130.927 211.904 134.763C240.544 138.239 260.617 121.064 286.528 111.63" stroke="#000000" stroke-opacity="0.9" stroke-width="16" stroke-linecap="round" stroke-linejoin="round"/>
<path d="M121.455 224.202C191.697 169.622 193.578 282.091 274.032 216.512" stroke="#000000" stroke-opacity="0.9" stroke-width="16" stroke-linecap="round" stroke-linejoin="round"/>
<path d="M286.999 112.011C284.867 143.99 286.999 176.447 286.999 208.72" stroke="#000000" stroke-opacity="0.9" stroke-width="16" stroke-linecap="round" stroke-linejoin="round"/>
</svg>