<?xml version="1.0" encoding="utf-8"?><!-- Uploaded to: SVG Repo, www.svgrepo.com, Generator: SVG Repo Mixer Tools -->
<svg width="800px" height="800px" viewBox="0 0 400 400" fill="none" xmlns="http://www.w3.org/2000/svg">
<path d="M130.627 312.057C127.487 274.037 128.694 239.072 128.694 201.127C128.694 165.207 123.207 105.431 143.088 80.0923C164.619 52.6508 252.142 52.6508 263.9 84.2199C275.204 114.571 277.151 247.078 261.157 326.614C257.001 347.277 207.356 338.16 187.995 338.16C173.088 338.16 150.623 339.324 137.895 331.09" stroke="#000000" stroke-opacity="0.9" stroke-width="16" stroke-linecap="round" stroke-linejoin="round"/>
<path d="M143.088 145.227C180.274 137.322 217.727 142.991 255.232 142.991" stroke="#000000" stroke-opacity="0.9" stroke-width="16" stroke-linecap="round" stroke-linejoin="round"/>
<path d="M237.581 111.637C237.581 109.401 237.581 107.161 237.581 104.921" stroke="#000000" stroke-opacity="0.9" stroke-width="16" stroke-linecap="round" stroke-linejoin="round"/>
<path d="M241.736 229.202C241.736 222.111 241.736 215.02 241.736 207.929" stroke="#000000" stroke-opacity="0.9" stroke-width="16" stroke-linecap="round" stroke-linejoin="round"/>
</svg>