<?xml version="1.0" encoding="utf-8"?><!-- Uploaded to: SVG Repo, www.svgrepo.com, Generator: SVG Repo Mixer Tools -->
<svg width="800px" height="800px" viewBox="0 0 400 400" fill="none" xmlns="http://www.w3.org/2000/svg">
<path d="M191.995 34.1046C187.801 35.4953 185.529 40.0223 186.919 44.216C188.31 48.4097 192.837 50.6821 197.031 49.2914L191.995 34.1046ZM185.45 80.2305L180.322 86.3711H180.322L185.45 80.2305ZM189.654 56.5226C191.806 52.6639 190.423 47.7911 186.564 45.639C182.705 43.4868 177.832 44.8702 175.68 48.7289L189.654 56.5226ZM197.031 49.2914C210.207 44.9219 215.336 47.7716 217.116 49.6795C219.331 52.0523 220.513 57.1347 218.604 63.8095C216.747 70.3023 212.589 75.7811 207.904 78.1125C203.984 80.0636 198.296 80.5355 190.577 74.09L180.322 86.3711C192.132 96.2328 204.564 97.6468 215.033 92.4367C224.737 87.6071 231.238 77.8217 233.987 68.2094C236.684 58.7791 236.421 46.9157 228.815 38.7639C220.775 30.1472 207.709 28.8937 191.995 34.1046L197.031 49.2914ZM190.577 74.09C188.384 72.2588 187.281 69.6965 187.161 66.4643C187.036 63.0937 188.039 59.4177 189.654 56.5226L175.68 48.7289C172.812 53.8713 170.926 60.4228 171.172 67.0578C171.423 73.8311 173.953 81.0525 180.322 86.3711L190.577 74.09Z" fill="#000000" fill-opacity="0.9"/>
<path d="M186.222 101.206C136.617 123.613 160.829 170.073 206.167 133.802" stroke="#000000" stroke-opacity="0.9" stroke-width="16" stroke-linecap="round" stroke-linejoin="round"/>
<path d="M217.366 99.7465C267.91 117.555 253.32 167.349 200.824 144.018" stroke="#000000" stroke-opacity="0.9" stroke-width="16" stroke-linecap="round" stroke-linejoin="round"/>
<path d="M217.353 99.7465C218.273 154.988 223.676 213.879 223.676 269.049" stroke="#000000" stroke-opacity="0.9" stroke-width="16" stroke-linecap="round" stroke-linejoin="round"/>
<path d="M186.219 101.206C186.796 153.819 193.683 214.501 182.812 266.131" stroke="#000000" stroke-opacity="0.9" stroke-width="16" stroke-linecap="round" stroke-linejoin="round"/>
<path d="M182.813 266.13C149.233 263.958 136.936 301.872 104 307.97" stroke="#000000" stroke-opacity="0.9" stroke-width="16" stroke-linecap="round" stroke-linejoin="round"/>
<path d="M200.736 269.05C184.02 295.733 168.216 325.306 161.418 361" stroke="#000000" stroke-opacity="0.9" stroke-width="16" stroke-linecap="round" stroke-linejoin="round"/>
<path d="M223.687 269.05C247.728 294.518 273.416 266.699 296.663 300.671" stroke="#000000" stroke-opacity="0.9" stroke-width="16" stroke-linecap="round" stroke-linejoin="round"/>
<path d="M247.999 289.482C244.28 308.654 265.152 309.488 264.056 330.35" stroke="#000000" stroke-opacity="0.9" stroke-width="16" stroke-linecap="round" stroke-linejoin="round"/>
<path d="M182.812 317.213C209.511 326.392 184.107 348.837 219.789 348.837" stroke="#000000" stroke-opacity="0.9" stroke-width="16" stroke-linecap="round" stroke-linejoin="round"/>
<path d="M137.083 290.456C172.26 301.057 129.609 327.086 128.813 342.998" stroke="#000000" stroke-opacity="0.9" stroke-width="16" stroke-linecap="round" stroke-linejoin="round"/>
<path d="M203.257 346.891C202.858 351.655 201.813 356.303 200.824 361" stroke="#000000" stroke-opacity="0.9" stroke-width="16" stroke-linecap="round" stroke-linejoin="round"/>
<path d="M210.068 278.293C234.787 292.816 209.155 312.74 228.068 333.754" stroke="#000000" stroke-opacity="0.9" stroke-width="16" stroke-linecap="round" stroke-linejoin="round"/>
<path d="M224.175 311.863C227.14 314.336 230.988 312.835 234.39 313.322" stroke="#000000" stroke-opacity="0.9" stroke-width="16" stroke-linecap="round" stroke-linejoin="round"/>
<path d="M126.39 327.431C127.766 326.593 129.307 327.108 130.768 326.944" stroke="#000000" stroke-opacity="0.9" stroke-width="16" stroke-linecap="round" stroke-linejoin="round"/>
<path d="M155.402 350.296C157.595 348.325 160.674 347.432 163.313 345.996" stroke="#000000" stroke-opacity="0.9" stroke-width="16" stroke-linecap="round" stroke-linejoin="round"/>
<path d="M282.127 290.584C280.774 293.693 280.606 296.977 279.841 300.185" stroke="#000000" stroke-opacity="0.9" stroke-width="16" stroke-linecap="round" stroke-linejoin="round"/>
</svg>