<?xml version="1.0" encoding="utf-8"?><!-- Uploaded to: SVG Repo, www.svgrepo.com, Generator: SVG Repo Mixer Tools -->
<svg width="800px" height="800px" viewBox="0 0 400 400" fill="none" xmlns="http://www.w3.org/2000/svg">
<path d="M213.613 75C190.565 80.9094 197.53 119.246 186.437 130.294C173.862 142.814 87.507 139.379 135.629 223.229" stroke="#000000" stroke-opacity="0.9" stroke-width="16" stroke-linecap="round" stroke-linejoin="round"/>
<path d="M110.631 192.855C87.9512 207.873 76.9569 241.355 84.7251 267.345C109.095 348.906 223.723 321.223 286.107 312.277C320.445 307.352 325.296 271.983 299.062 255.52" stroke="#000000" stroke-opacity="0.9" stroke-width="16" stroke-linecap="round" stroke-linejoin="round"/>
<path d="M216.049 82.2899C243.794 104.156 298.596 121.544 282.467 169.77" stroke="#000000" stroke-opacity="0.9" stroke-width="16" stroke-linecap="round" stroke-linejoin="round"/>
<path d="M190.502 134.535C201.83 173.102 356.275 175.396 307.514 236.594" stroke="#000000" stroke-opacity="0.9" stroke-width="16" stroke-linecap="round" stroke-linejoin="round"/>
<path d="M223.613 217.155C224.256 211.891 224.077 206.491 224.288 201.36" stroke="#000000" stroke-opacity="0.9" stroke-width="16" stroke-linecap="round" stroke-linejoin="round"/>
<path d="M195.974 217.153C195.974 211.078 195.974 205.003 195.974 198.928" stroke="#000000" stroke-opacity="0.9" stroke-width="16" stroke-linecap="round" stroke-linejoin="round"/>
<path d="M192.945 247.439C290.906 236.042 189.848 316.663 184.421 246.377" stroke="#000000" stroke-opacity="0.9" stroke-width="16" stroke-linecap="round" stroke-linejoin="round"/>
</svg>