<?xml version="1.0" encoding="utf-8"?><!-- Uploaded to: SVG Repo, www.svgrepo.com, Generator: SVG Repo Mixer Tools -->
<svg width="800px" height="800px" viewBox="0 0 400 400" fill="none" xmlns="http://www.w3.org/2000/svg">
<path d="M227.971 162.142C225.692 177.516 224.059 193.482 226.384 208.983C230.303 235.111 251.796 263.385 255.542 289.606C264.499 352.301 211.606 405.571 156.984 359.209" stroke="#000000" stroke-opacity="0.9" stroke-width="16" stroke-linecap="round" stroke-linejoin="round"/>
<path d="M150.855 347.516C134.994 325.476 146.866 267.075 184.308 281.23" stroke="#000000" stroke-opacity="0.9" stroke-width="16" stroke-linecap="round" stroke-linejoin="round"/>
<path d="M228.258 160.423C205.428 148.172 193.882 172.03 191.452 193.899C186.427 239.129 239.032 281.394 224.003 326.483C220.29 337.123 210.995 344.175 198.421 342.212C185.847 340.248 160.771 316.668 184.826 282.367" stroke="#000000" stroke-opacity="0.9" stroke-width="16" stroke-linecap="round" stroke-linejoin="round"/>
<path d="M218.742 24C214.725 75.5616 211.742 127.419 211.742 179" stroke="#000000" stroke-opacity="0.5" stroke-width="16" stroke-linecap="round" stroke-linejoin="round"/>
</svg>