<?xml version="1.0" encoding="utf-8"?><!-- Uploaded to: SVG Repo, www.svgrepo.com, Generator: SVG Repo Mixer Tools -->
<svg width="800px" height="800px" viewBox="0 0 400 400" fill="none" xmlns="http://www.w3.org/2000/svg">
<path d="M148 90C181.81 92.1258 218.376 88.9692 251.862 92" stroke="#000000" stroke-opacity="0.9" stroke-width="16" stroke-linecap="round" stroke-linejoin="round"/>
<path d="M157.537 95C156.245 127.37 159.133 158.533 178.957 184.18C180.252 185.859 188.65 197.578 187.819 198.511C157.537 232.488 165.298 318.924 169.355 303.618" stroke="#000000" stroke-opacity="0.9" stroke-width="16" stroke-linecap="round" stroke-linejoin="round"/>
<path d="M244.254 92C246.222 131.239 232.626 169.041 211.059 200" stroke="#000000" stroke-opacity="0.9" stroke-width="16" stroke-linecap="round" stroke-linejoin="round"/>
<path d="M213.841 203C238.624 230.83 237.002 274.677 237.002 311" stroke="#000000" stroke-opacity="0.9" stroke-width="16" stroke-linecap="round" stroke-linejoin="round"/>
<path d="M250.007 310.695C216.692 305.316 182.769 310.695 149.854 310.695" stroke="#000000" stroke-opacity="0.9" stroke-width="16" stroke-linecap="round" stroke-linejoin="round"/>
<path opacity="0.503384" d="M167.475 289.875C198.945 218.566 251.454 286.793 233.305 303.511C228.613 307.832 217.585 306.92 211.89 306.92" stroke="#000000" stroke-opacity="0.9" stroke-width="16" stroke-linecap="round" stroke-linejoin="round"/>
<path opacity="0.503384" d="M168.401 151.696C177.516 149.778 187.733 147.742 197.089 149.98C206.186 152.159 216.889 146.212 224.342 155.132C232.738 165.178 204.75 200 197.065 200C191.443 200 175.138 164.556 174.138 158.565" stroke="#000000" stroke-opacity="0.9" stroke-width="16" stroke-linecap="round" stroke-linejoin="round"/>
</svg>