<?xml version="1.0" encoding="utf-8"?><!-- Uploaded to: SVG Repo, www.svgrepo.com, Generator: SVG Repo Mixer Tools -->
<svg width="800px" height="800px" viewBox="0 0 400 400" fill="none" xmlns="http://www.w3.org/2000/svg">
<path d="M68 250.209C71.8508 226.352 71.6316 200.583 84.8861 179.284C116.393 128.657 199.157 138.463 225.108 190.589C233.335 207.113 231.662 230.614 233.297 248.668" stroke="#000000" stroke-opacity="0.9" stroke-width="16" stroke-linecap="round" stroke-linejoin="round"/>
<path d="M257.254 246.776C267.289 181.763 326.503 188.702 332.715 251.407" stroke="#000000" stroke-opacity="0.9" stroke-width="16" stroke-linecap="round" stroke-linejoin="round"/>
<path d="M280.012 245.554C285.317 220.992 309.244 227.623 312.352 249.011" stroke="#000000" stroke-opacity="0.9" stroke-width="16" stroke-linecap="round" stroke-linejoin="round"/>
<path opacity="0.503384" d="M73.9893 231.93C122.577 239.063 171.463 229.846 220.121 229.846" stroke="#000000" stroke-opacity="0.9" stroke-width="6" stroke-linecap="round" stroke-linejoin="round"/>
<path opacity="0.503384" d="M78.7803 208.476C127.271 213.091 180.104 200.112 226.11 204.363" stroke="#000000" stroke-opacity="0.9" stroke-width="6" stroke-linecap="round" stroke-linejoin="round"/>
<path opacity="0.503384" d="M87.165 181.569C127.495 183.501 167.813 177.143 208.143 177.143" stroke="#000000" stroke-opacity="0.9" stroke-width="6" stroke-linecap="round" stroke-linejoin="round"/>
<path opacity="0.503384" d="M180.294 185.527C180.574 189.545 180.603 193.523 180.895 197.505" stroke="#000000" stroke-opacity="0.9" stroke-width="6" stroke-linecap="round" stroke-linejoin="round"/>
<path opacity="0.503384" d="M132.356 184.33C131.472 191.068 131.792 198.017 132.356 204.692" stroke="#000000" stroke-opacity="0.9" stroke-width="6" stroke-linecap="round" stroke-linejoin="round"/>
<path opacity="0.503384" d="M105.531 215.473C104.199 220.818 104.929 226.647 104.929 232.242" stroke="#000000" stroke-opacity="0.9" stroke-width="6" stroke-linecap="round" stroke-linejoin="round"/>
<path opacity="0.503384" d="M160.231 214.275C160.231 220.264 160.231 226.253 160.231 232.242" stroke="#000000" stroke-opacity="0.9" stroke-width="6" stroke-linecap="round" stroke-linejoin="round"/>
<path opacity="0.503384" d="M134.473 237.033C135.233 243.066 134.94 249.098 135.678 255" stroke="#000000" stroke-opacity="0.9" stroke-width="6" stroke-linecap="round" stroke-linejoin="round"/>
<path opacity="0.503384" d="M192.44 235.835C192.361 241.82 192.361 247.904 192.742 253.802" stroke="#000000" stroke-opacity="0.9" stroke-width="6" stroke-linecap="round" stroke-linejoin="round"/>
<path d="M232.099 204.194C251.534 204.053 271.425 205.383 290.791 201.488" stroke="#000000" stroke-opacity="0.9" stroke-width="16" stroke-linecap="round" stroke-linejoin="round"/>
<path opacity="0.503384" d="M114.714 155.998C139.195 159.543 164.327 155.748 188.978 157.2" stroke="#000000" stroke-opacity="0.9" stroke-width="6" stroke-linecap="round" stroke-linejoin="round"/>
<path opacity="0.503384" d="M150.817 160.374C150.309 166.335 150.517 172.352 150.517 178.341" stroke="#000000" stroke-opacity="0.9" stroke-width="6" stroke-linecap="round" stroke-linejoin="round"/>
<path opacity="0.503384" d="M104.727 180.736C104.612 173.833 104.379 167.068 105.63 160.374" stroke="#000000" stroke-opacity="0.9" stroke-width="6" stroke-linecap="round" stroke-linejoin="round"/>
</svg>