<?xml version="1.0" encoding="utf-8"?><!-- Uploaded to: SVG Repo, www.svgrepo.com, Generator: SVG Repo Mixer Tools -->
<svg width="800px" height="800px" viewBox="0 0 400 400" fill="none" xmlns="http://www.w3.org/2000/svg">
<path d="M176.672 221.15C183.92 158.934 235.869 125.607 282.003 100.54" stroke="#000000" stroke-opacity="0.9" stroke-width="16" stroke-linecap="round" stroke-linejoin="round"/>
<path d="M279.832 109.907C269.489 197.741 247.468 207.825 181.017 222.321" stroke="#000000" stroke-opacity="0.9" stroke-width="16" stroke-linecap="round" stroke-linejoin="round"/>
<path d="M274.4 111.078C237.21 152.381 202.233 195.956 169.069 241.057" stroke="#000000" stroke-opacity="0.9" stroke-width="16" stroke-linecap="round" stroke-linejoin="round"/>
<path d="M140.356 258.222C130.493 268.669 115.689 268.598 118.345 290.76C119.782 302.754 217.201 299.598 217.201 290.76C217.201 272.098 204.131 268.551 199.837 263.464C193.175 255.574 212.411 241.056 173.02 242.227C162.34 242.545 151.208 243.769 140.356 243.769" stroke="#000000" stroke-opacity="0.9" stroke-width="16" stroke-linecap="round" stroke-linejoin="round"/>
<path d="M252.682 155.244C246.928 156.113 241.11 155.878 235.308 155.878" stroke="#000000" stroke-opacity="0.9" stroke-width="16" stroke-linecap="round" stroke-linejoin="round"/>
<path d="M230.967 179.329C228.134 178.435 225.2 178.697 222.28 178.697" stroke="#000000" stroke-opacity="0.9" stroke-width="16" stroke-linecap="round" stroke-linejoin="round"/>
</svg>