<?xml version="1.0" encoding="utf-8"?><!-- Uploaded to: SVG Repo, www.svgrepo.com, Generator: SVG Repo Mixer Tools -->
<svg width="800px" height="800px" viewBox="0 0 400 400" fill="none" xmlns="http://www.w3.org/2000/svg">
<path d="M176.242 87C165.723 123.31 157.363 150.817 151.163 169.521C144.963 188.225 135.575 233.941 123 306.669" stroke="#000000" stroke-opacity="0.9" stroke-width="16" stroke-linecap="round" stroke-linejoin="round"/>
<path d="M229.484 87C215.816 150.892 206.859 191.733 202.613 209.523C196.244 236.209 182.029 302.488 182.029 306.669" stroke="#000000" stroke-opacity="0.9" stroke-width="16" stroke-linecap="round" stroke-linejoin="round"/>
<path opacity="0.503384" d="M170.454 88.248C206.72 229.469 224.853 302.276 224.853 306.669" stroke="#000000" stroke-opacity="0.9" stroke-width="16" stroke-linecap="round" stroke-linejoin="round"/>
<path opacity="0.503384" d="M229.483 93.2402C241.138 148.328 249.047 185.508 253.211 204.782C270.038 282.676 276.938 312.909 276.938 312.909" stroke="#000000" stroke-opacity="0.9" stroke-width="16" stroke-linecap="round" stroke-linejoin="round"/>
<path d="M160.037 87.624C172.597 87.624 183.1 87.624 191.545 87.624C199.99 87.624 213.408 87.624 231.797 87.624" stroke="#000000" stroke-opacity="0.9" stroke-width="16" stroke-linecap="round" stroke-linejoin="round"/>
<path d="M171.612 129.436C195.363 124.998 209.252 123.519 213.279 124.998" stroke="#000000" stroke-opacity="0.9" stroke-width="16" stroke-linecap="round" stroke-linejoin="round"/>
<path d="M156.565 169.376C184.873 169.376 200.692 170.208 204.02 171.872" stroke="#000000" stroke-opacity="0.9" stroke-width="16" stroke-linecap="round" stroke-linejoin="round"/>
<path d="M142.676 211.812C157.683 211.812 192.074 212.548 197.075 214.309" stroke="#000000" stroke-opacity="0.9" stroke-width="16" stroke-linecap="round" stroke-linejoin="round"/>
<path d="M132.26 255.496C141.482 255.496 149.454 255.496 156.177 255.496C162.901 255.496 174.605 256.744 191.289 259.241" stroke="#000000" stroke-opacity="0.9" stroke-width="16" stroke-linecap="round" stroke-linejoin="round"/>
<path d="M123 290.443C130.146 290.443 137.58 290.443 145.302 290.443C153.024 290.443 163.337 292.524 176.242 296.684" stroke="#000000" stroke-opacity="0.9" stroke-width="16" stroke-linecap="round" stroke-linejoin="round"/>
</svg>