<?xml version="1.0" encoding="utf-8"?><!-- Uploaded to: SVG Repo, www.svgrepo.com, Generator: SVG Repo Mixer Tools -->
<svg width="800px" height="800px" viewBox="0 0 400 400" fill="none" xmlns="http://www.w3.org/2000/svg">
<path opacity="0.503384" d="M230.869 86.3605C215.463 87.5435 195.288 87.09 170.344 85C165.565 98.3477 164.82 108.878 160.762 122.504C156.639 136.354 152.926 150.109 146.893 163.071C146.298 164.351 142.556 168.129 143.044 169.694C145.3 176.973 159.899 174.599 163.842 172.177C165.43 171.204 170.602 164.265 172.317 164.727C177.791 166.197 182.521 174.217 190.808 175.487C197.701 176.547 199.225 169.734 203.904 166.384C207.044 164.133 215.73 173.062 219.312 173.834C225.504 175.163 226.937 167.544 230.869 164.727C236.326 160.817 244.516 174.896 253.979 164.727" stroke="#000000" stroke-opacity="0.9" stroke-width="16" stroke-linecap="round" stroke-linejoin="round"/>
<path opacity="0.503384" d="M239.344 96.0137C247.02 116.251 257.062 146.269 257.062 163.07" stroke="#000000" stroke-opacity="0.9" stroke-width="16" stroke-linecap="round" stroke-linejoin="round"/>
<path opacity="0.503384" d="M216.02 99.1074C221.32 113.701 224.471 128.693 226.033 143.814" stroke="#000000" stroke-opacity="0.9" stroke-width="16" stroke-linecap="round" stroke-linejoin="round"/>
<path opacity="0.503384" d="M200.303 104.829C200.112 116.202 198.816 127.583 200.303 138.772" stroke="#000000" stroke-opacity="0.9" stroke-width="16" stroke-linecap="round" stroke-linejoin="round"/>
<path opacity="0.503384" d="M181.871 107.281C177.984 117.095 180.064 129.374 175.707 138.738" stroke="#000000" stroke-opacity="0.9" stroke-width="16" stroke-linecap="round" stroke-linejoin="round"/>
<path d="M202.328 183.305C203.281 222.083 205.371 260.206 205.371 299.205" stroke="#000000" stroke-opacity="0.9" stroke-width="16" stroke-linecap="round" stroke-linejoin="round"/>
<path d="M189.263 305.464C250.85 288.699 226.03 325.258 184.641 310.431" stroke="#000000" stroke-opacity="0.9" stroke-width="16" stroke-linecap="round" stroke-linejoin="round"/>
</svg>