<?xml version="1.0" encoding="utf-8"?><!-- Uploaded to: SVG Repo, www.svgrepo.com, Generator: SVG Repo Mixer Tools -->
<svg width="800px" height="800px" viewBox="0 0 400 400" fill="none" xmlns="http://www.w3.org/2000/svg">
<path d="M286.194 129.262C281.941 111.888 247.014 95.7029 230.342 98.2694C222.827 99.4256 215.105 107.283 211.099 113.296C209.468 115.743 204.555 122.208 207.344 121.279C211.274 119.968 204.605 114.312 203.589 113.296C197.877 107.58 181.107 103.033 173.551 105.782C163.842 109.315 154.822 116.339 152.9 126.914C152.637 128.356 157.185 140.282 156.185 140.532C155.142 140.793 140.409 132.907 136.473 132.549C128.106 131.788 115.771 138.019 113.475 146.636C112.92 148.715 114.208 163.145 114.883 162.132C115.2 161.657 114.229 159.886 113.944 159.315C106.39 144.199 75.2413 157.257 80.6206 173.402C83.9676 183.449 104.732 180.446 112.536 180.446C130.775 180.446 148.709 183.107 166.98 183.869C179.852 184.405 225.051 183.769 235.035 184.203C258.824 185.238 281.378 187.055 304.499 180.446C339.474 170.448 311.841 137.948 286.194 149.923" stroke="#000000" stroke-opacity="0.9" stroke-width="16" stroke-linecap="round" stroke-linejoin="round"/>
<path opacity="0.503384" d="M177.1 210.419C174.026 215.709 153.715 243.101 154.329 243.721C156.833 246.242 188.717 235.86 189.35 236.498C190.781 237.938 158.834 300.851 159.337 301.863C160.693 304.595 242.092 212.397 240.44 210.733C236.189 206.452 206.615 220.87 200.611 217.847C199.656 217.366 209.988 203.14 211.214 201.597" stroke="#000000" stroke-opacity="0.9" stroke-width="14" stroke-linecap="round" stroke-linejoin="round"/>
</svg>