<?xml version="1.0" encoding="utf-8"?><!-- Uploaded to: SVG Repo, www.svgrepo.com, Generator: SVG Repo Mixer Tools -->
<svg width="800px" height="800px" viewBox="0 0 400 400" fill="none" xmlns="http://www.w3.org/2000/svg">
<path d="M198.718 156.64C149.938 112.623 57.7108 136.894 72.9568 219.081C85.4251 286.311 173.632 273.495 203.336 228.654" stroke="#000000" stroke-opacity="0.9" stroke-width="16" stroke-linecap="round" stroke-linejoin="round"/>
<path d="M198.003 164.686C195.147 169.83 193.021 175.438 190.545 180.773" stroke="#000000" stroke-opacity="0.9" stroke-width="16" stroke-linecap="round" stroke-linejoin="round"/>
<path d="M189.125 181.922C174.911 170.432 153.128 164.09 135.48 170.432C69.4606 194.16 129.834 269.521 182.728 201.076" stroke="#000000" stroke-opacity="0.9" stroke-width="16" stroke-linecap="round" stroke-linejoin="round"/>
<path d="M187.346 203.759C192.587 209.98 198.204 215.855 204.399 220.995" stroke="#000000" stroke-opacity="0.9" stroke-width="16" stroke-linecap="round" stroke-linejoin="round"/>
<path d="M168.875 149.747C168.726 155.083 166.881 159.978 165.321 164.686" stroke="#000000" stroke-opacity="0.9" stroke-width="16" stroke-linecap="round" stroke-linejoin="round"/>
<path d="M168.16 227.506C172.527 231.943 175.403 237.751 178.107 243.211" stroke="#000000" stroke-opacity="0.9" stroke-width="16" stroke-linecap="round" stroke-linejoin="round"/>
<path opacity="0.503384" d="M220.593 206.146C242.373 124.801 251.505 208.202 257.207 206.146C268.449 202.101 265.389 157.902 281.177 169.279C289.525 175.287 285.614 205.431 294.782 207.085C305.621 209.037 311.514 118.681 328.56 209.217" stroke="#000000" stroke-opacity="0.9" stroke-width="16" stroke-linecap="round" stroke-linejoin="round"/>
</svg>