<?xml version="1.0" encoding="utf-8"?><!-- Uploaded to: SVG Repo, www.svgrepo.com, Generator: SVG Repo Mixer Tools -->
<svg width="800px" height="800px" viewBox="0 0 400 400" fill="none" xmlns="http://www.w3.org/2000/svg">
<path d="M149.621 114.587C78.3416 91.9726 114.635 142.621 113.037 184.054C112.401 200.487 91.925 254.747 96.7295 262.523C127.443 312.198 284.618 290.018 293.977 249.66C294.8 246.105 286.803 231.451 286.421 226.503C285.118 209.635 286.591 191.033 290.398 174.618C293.132 162.819 311.843 127.173 301.929 123.165C293.101 119.595 255.026 113.695 248.641 124.023C238.994 139.628 248.245 221.262 248.245 243.228" stroke="#000000" stroke-opacity="0.9" stroke-width="16" stroke-linecap="round" stroke-linejoin="round"/>
<path d="M148.031 121.876C147.985 159.968 132.158 206.777 144.452 243.228" stroke="#000000" stroke-opacity="0.9" stroke-width="16" stroke-linecap="round" stroke-linejoin="round"/>
<path d="M99.5156 247.514C103.417 228.297 160.286 220.607 137.691 253.088C132.744 260.201 112.977 264.202 118.206 251.803" stroke="#000000" stroke-opacity="0.9" stroke-width="16" stroke-linecap="round" stroke-linejoin="round"/>
<path d="M286.021 242.37C276.617 209.668 230.024 244.617 254.21 259.522C263.256 265.096 280.272 252.667 264.944 246.655" stroke="#000000" stroke-opacity="0.9" stroke-width="16" stroke-linecap="round" stroke-linejoin="round"/>
<path d="M145.248 133.455C169.931 146.577 209.059 162.681 236.316 149.323" stroke="#000000" stroke-opacity="0.9" stroke-width="16" stroke-linecap="round" stroke-linejoin="round"/>
<path opacity="0.503384" d="M201.717 182.338C191.087 156.638 183.336 178.974 171.094 181.907C166.942 182.904 161.787 179.424 157.972 181.48C139.727 191.317 163.475 210.47 172.289 213.639C174.015 214.26 176.016 200.573 181.036 199.49C194.703 196.542 197.816 204.574 203.305 185.339" stroke="#000000" stroke-opacity="0.9" stroke-width="16" stroke-linecap="round" stroke-linejoin="round"/>
<path opacity="0.503384" d="M228.759 200.348C218.591 198.835 215.363 210.387 207.682 215.354C204.028 217.718 198.803 214.317 195.353 216.639C167.613 235.335 203.17 263.957 229.555 235.507C232.191 232.66 236.652 239.096 239.893 230.364" stroke="#000000" stroke-opacity="0.9" stroke-width="16" stroke-linecap="round" stroke-linejoin="round"/>
<path opacity="0.503384" d="M223.59 172.476C224.587 178.068 223.722 190.632 223.59 193.059" stroke="#000000" stroke-opacity="0.9" stroke-width="16" stroke-linecap="round" stroke-linejoin="round"/>
<path opacity="0.503384" d="M232.734 181.05C227.516 178.885 221.961 180.627 216.826 181.05" stroke="#000000" stroke-opacity="0.9" stroke-width="16" stroke-linecap="round" stroke-linejoin="round"/>
<path d="M176.263 243.381C173.623 246.262 171.028 248.865 168.312 251.528" stroke="#000000" stroke-opacity="0.9" stroke-width="16" stroke-linecap="round" stroke-linejoin="round"/>
<path d="M180.64 252.813C176.114 250.318 172.226 246.745 168.707 242.95" stroke="#000000" stroke-opacity="0.9" stroke-width="16" stroke-linecap="round" stroke-linejoin="round"/>
</svg>