<?xml version="1.0" encoding="utf-8"?><!-- Uploaded to: SVG Repo, www.svgrepo.com, Generator: SVG Repo Mixer Tools -->
<svg width="800px" height="800px" viewBox="0 0 400 400" fill="none" xmlns="http://www.w3.org/2000/svg">
<path d="M328.649 296.726C328.107 273.768 330.907 249.707 328.649 226.737C327.211 212.098 334.028 113.265 329.443 108.596C328.385 107.519 319.398 106.387 318.113 106.573C306.663 108.239 199.7 100.648 156.997 103.756C155.145 103.89 133.639 103.368 132.757 104.564C130.371 107.802 130.762 131.435 131.963 135.716C132.662 138.204 202.506 130.332 204.281 131.688C213.701 138.883 195.616 178.812 215.801 182.236C219.354 182.84 227.169 183.244 239.248 183.451V133.286C246.611 130.846 255.088 130.846 264.677 133.286C267.356 133.968 265.073 156.569 265.073 159.177C265.073 193.35 267.193 186.651 303.313 186.651" stroke="#000000" stroke-opacity="0.9" stroke-width="16" stroke-linecap="round" stroke-linejoin="round"/>
<path d="M312.877 296.726C268.951 296.373 226.12 296.726 181.703 296.726C176.058 296.726 142.221 298.387 137.365 293.527C134.602 290.759 136.567 278.317 136.567 274.742C136.567 260.823 135.666 168.626 139.363 161.223C140.216 159.519 180.71 159.983 181.703 161.223C186.662 167.426 171.815 196.88 183.299 198.798C214.405 203.985 228.296 195.625 222.443 230.773C221.843 234.37 161.555 235.791 158.138 232.371C154.242 228.476 160.132 199.825 160.132 192.801" stroke="#000000" stroke-opacity="0.9" stroke-width="16" stroke-linecap="round" stroke-linejoin="round"/>
<path d="M161.771 254.744C164.712 255.791 176.214 254.197 178.169 256.738C188.312 269.895 164.809 274.671 193.839 274.671C195.934 274.671 203.875 273.528 205.415 272.331C210.481 268.391 204.96 261.493 207.406 256.738C208.58 254.458 250.213 257.906 250.851 258.732C255.293 264.493 251.3 283.063 252.077 290.628" stroke="#000000" stroke-opacity="0.9" stroke-width="16" stroke-linecap="round" stroke-linejoin="round"/>
<path d="M277.586 209.716C272.721 208.761 255.111 208.761 254.627 209.716C253.299 212.334 254.259 235.686 255.836 238.025C257.414 240.364 299.523 240.566 303.5 237.625C306.059 235.73 304.941 215.488 304.256 212.11" stroke="#000000" stroke-opacity="0.9" stroke-width="16" stroke-linecap="round" stroke-linejoin="round"/>
<path opacity="0.6" d="M298 260L278 277M278 260L293 277" stroke="#000000" stroke-opacity="0.9" stroke-width="16" stroke-linecap="round" stroke-linejoin="round"/>
<path d="M304.481 184.508C303.335 147.318 313.917 153.122 284.701 153.122" stroke="#000000" stroke-opacity="0.9" stroke-width="16" stroke-linecap="round" stroke-linejoin="round"/>
<path opacity="0.493931" d="M69 150C74.5383 149.333 80.0557 149 85.5522 149C93.797 149 100.299 150 102 150" stroke="#000000" stroke-opacity="0.9" stroke-width="16" stroke-linecap="round" stroke-linejoin="round"/>
<path opacity="0.493931" d="M107.053 136.937C110.02 137.866 116.758 147.304 118.548 148.29C120.338 149.276 112.622 160.559 109.08 162.552" stroke="#000000" stroke-opacity="0.9" stroke-width="16" stroke-linecap="round" stroke-linejoin="round"/>
</svg>