<?xml version="1.0" encoding="utf-8"?><!-- Uploaded to: SVG Repo, www.svgrepo.com, Generator: SVG Repo Mixer Tools -->
<svg width="800px" height="800px" viewBox="0 0 400 400" fill="none" xmlns="http://www.w3.org/2000/svg">
<path d="M202.12 177.457C175.074 183.219 175.918 149.349 184.48 130.107" stroke="#000000" stroke-opacity="0.9" stroke-width="16" stroke-linecap="round" stroke-linejoin="round"/>
<path d="M171.412 181.886C167.794 167.965 170.445 153.246 172.065 139.265C174.26 120.35 193.348 116.369 207.02 116.369C239.456 116.369 238.265 169.52 241.647 191.396C242.917 199.626 249.703 204.348 251.771 212.528" stroke="#000000" stroke-opacity="0.9" stroke-width="16" stroke-linecap="round" stroke-linejoin="round"/>
<path d="M254.711 214.996C271.007 255.804 256.414 288.094 215.187 292.134" stroke="#000000" stroke-opacity="0.9" stroke-width="16" stroke-linecap="round" stroke-linejoin="round"/>
<path d="M189.052 126.938C210.019 138.834 222.733 178.86 215.84 203.017" stroke="#000000" stroke-opacity="0.9" stroke-width="16" stroke-linecap="round" stroke-linejoin="round"/>
<path d="M238.201 195.318C208.494 199.516 191.344 230.005 189.052 258.318" stroke="#000000" stroke-opacity="0.9" stroke-width="16" stroke-linecap="round" stroke-linejoin="round"/>
<path d="M181.539 191.041C163.276 209.403 150.246 260.284 162.267 283.329" stroke="#000000" stroke-opacity="0.9" stroke-width="16" stroke-linecap="round" stroke-linejoin="round"/>
<path d="M179.578 195.271C171.639 214.675 168.751 239.93 174.027 260.784" stroke="#000000" stroke-opacity="0.9" stroke-width="16" stroke-linecap="round" stroke-linejoin="round"/>
<path d="M179.907 265.363C188.325 267.574 196.636 271.763 203.099 277.339" stroke="#000000" stroke-opacity="0.9" stroke-width="16" stroke-linecap="round" stroke-linejoin="round"/>
<path d="M235.105 236C224.427 248.769 211.821 262.414 207.285 277" stroke="#000000" stroke-opacity="0.9" stroke-width="16" stroke-linecap="round" stroke-linejoin="round"/>
<path d="M110 84.668C111.905 126.724 113.103 205.86 113.594 322.076C208.112 323.395 266.911 323.277 289.992 321.722" stroke="#000000" stroke-opacity="0.5" stroke-width="16" stroke-linecap="round" stroke-linejoin="round"/>
<path d="M115.227 80.1135C173.315 85.1034 231.56 74.2349 289.013 79.4596" stroke="#000000" stroke-opacity="0.5" stroke-width="16" stroke-linecap="round" stroke-linejoin="round"/>
<path d="M288.976 80.3164C289.445 157.862 288.318 235.979 289.787 313.141" stroke="#000000" stroke-opacity="0.5" stroke-width="16" stroke-linecap="round" stroke-linejoin="round"/>
<path d="M126.123 186.04C145.665 185.272 155.099 192.489 175.272 194.983" stroke="#000000" stroke-opacity="0.9" stroke-width="16" stroke-linecap="round" stroke-linejoin="round"/>
<path d="M124.838 214.91C136.625 213.752 157.837 216.739 165.641 212.947" stroke="#000000" stroke-opacity="0.9" stroke-width="16" stroke-linecap="round" stroke-linejoin="round"/>
<path d="M257.446 213.966C262 214.545 270.196 213.051 273.211 214.947" stroke="#000000" stroke-opacity="0.9" stroke-width="16" stroke-linecap="round" stroke-linejoin="round"/>
</svg>