<?xml version="1.0" encoding="utf-8"?><!-- Uploaded to: SVG Repo, www.svgrepo.com, Generator: SVG Repo Mixer Tools -->
<svg width="800px" height="800px" viewBox="0 0 400 400" fill="none" xmlns="http://www.w3.org/2000/svg">
<path opacity="0.503384" d="M162.666 193.769C181.102 177.047 180.014 208.477 169.198 204.779C166.791 203.956 199.745 185.076 194.394 214.353C192.085 216.76 189.631 218.803 185.996 218.182C183.077 217.683 199.067 205.262 208.859 211.002C223.408 219.531 203.301 231.655 201.86 229.192C197.461 221.671 245.46 209.353 221.923 233.5" stroke="#000000" stroke-opacity="0.9" stroke-width="16" stroke-linecap="round" stroke-linejoin="round"/>
<path d="M170.185 183.089C196.86 151.007 211.97 134.615 220.271 133.124C233.126 130.815 278.946 161.284 284.314 173.553C290.719 188.19 236.966 222.44 221.643 240.606" stroke="#000000" stroke-opacity="0.9" stroke-width="16" stroke-linecap="round" stroke-linejoin="round"/>
<path d="M95.9395 218.568C117.78 212.254 210.628 164.975 224.056 169.904C287.843 203.952 302.635 202.916 304.528 207.084C307.459 213.538 179.086 263.879 163.972 267" stroke="#000000" stroke-opacity="0.9" stroke-width="16" stroke-linecap="round" stroke-linejoin="round"/>
<path d="M95 226.395C114.728 246.193 138.968 255.365 160.787 267" stroke="#000000" stroke-opacity="0.9" stroke-width="16" stroke-linecap="round" stroke-linejoin="round"/>
<path d="M197.439 207.106C264.654 143.866 259.369 117.9 259.369 188.211" stroke="#000000" stroke-opacity="0.9" stroke-width="16" stroke-linecap="round" stroke-linejoin="round"/>
<path d="M179.583 196.016C166.308 203.022 124.265 231.52 146.469 198.828C160.068 178.806 158.28 171.2 179.124 192.298" stroke="#000000" stroke-opacity="0.9" stroke-width="16" stroke-linecap="round" stroke-linejoin="round"/>
<path d="M179.273 198.984C179.258 207.85 178.126 216.537 180.212 225.378" stroke="#000000" stroke-opacity="0.9" stroke-width="16" stroke-linecap="round" stroke-linejoin="round"/>
<path d="M179.583 227.409C172.784 235.91 148.173 246.704 140.111 251.773" stroke="#000000" stroke-opacity="0.9" stroke-width="16" stroke-linecap="round" stroke-linejoin="round"/>
<path d="M141.214 214.212C140.477 222.13 141.214 242.797 141.214 250.757" stroke="#000000" stroke-opacity="0.9" stroke-width="16" stroke-linecap="round" stroke-linejoin="round"/>
<path d="M174.884 219.586C171.614 235.724 154.231 223.146 170.373 215.228" stroke="#000000" stroke-opacity="0.9" stroke-width="16" stroke-linecap="round" stroke-linejoin="round"/>
<path d="M149.465 217.258C154.065 224.733 149.703 227.926 143.87 223.056" stroke="#000000" stroke-opacity="0.9" stroke-width="16" stroke-linecap="round" stroke-linejoin="round"/>
<path d="M164.546 189.849C163.442 199.382 160.672 195.806 158.907 191.994" stroke="#000000" stroke-opacity="0.9" stroke-width="16" stroke-linecap="round" stroke-linejoin="round"/>
</svg>