<?xml version="1.0" encoding="utf-8"?><!-- Uploaded to: SVG Repo, www.svgrepo.com, Generator: SVG Repo Mixer Tools -->
<svg width="800px" height="800px" viewBox="0 0 400 400" fill="none" xmlns="http://www.w3.org/2000/svg">
<path d="M120.034 175.244C123.251 170.486 129.581 168.627 135.96 170.163C158.782 175.66 153.761 207.033 133.426 212.009C114.114 216.734 103.272 193.544 114.605 183.015" stroke="#000000" stroke-opacity="0.9" stroke-width="16" stroke-linecap="round" stroke-linejoin="round"/>
<path d="M139.477 226.737C140.503 265.818 136.367 300.167 136.367 339.335" stroke="#000000" stroke-opacity="0.9" stroke-width="16" stroke-linecap="round" stroke-linejoin="round"/>
<path d="M109.329 230.344C110.864 268.907 107.379 304.028 107.379 339.336" stroke="#000000" stroke-opacity="0.9" stroke-width="16" stroke-linecap="round" stroke-linejoin="round"/>
<path d="M109.332 230.343C117.453 225.488 128.296 226.719 140.477 226.737" stroke="#000000" stroke-opacity="0.9" stroke-width="16" stroke-linecap="round" stroke-linejoin="round"/>
<path d="M136 339.636C139.68 339.182 144.202 337.642 146 336.636" stroke="#000000" stroke-opacity="0.9" stroke-width="16" stroke-linecap="round" stroke-linejoin="round"/>
<path d="M107 339.636C110.645 338.588 112.344 337.679 116 336.636" stroke="#000000" stroke-opacity="0.9" stroke-width="16" stroke-linecap="round" stroke-linejoin="round"/>
<path d="M140 227.136C153.5 235.136 130 288.636 121 288.636" stroke="#000000" stroke-opacity="0.9" stroke-width="16" stroke-linecap="round" stroke-linejoin="round"/>
<path d="M109.331 230.344C100.001 245.636 98.6691 277.136 116 289.136" stroke="#000000" stroke-opacity="0.9" stroke-width="16" stroke-linecap="round" stroke-linejoin="round"/>
<path d="M175 61.1361C247.107 58.5799 287.556 61.1361 307 61.1361" stroke="#000000" stroke-opacity="0.9" stroke-width="16" stroke-linecap="round" stroke-linejoin="round"/>
<path d="M174.667 62.3672C171.074 139.611 170.725 196.089 169.68 261.632" stroke="#000000" stroke-opacity="0.9" stroke-width="16" stroke-linecap="round" stroke-linejoin="round"/>
<path d="M306.343 65.0039C306.905 109.54 302.856 209.65 303.205 243.467" stroke="#000000" stroke-opacity="0.9" stroke-width="16" stroke-linecap="round" stroke-linejoin="round"/>
<path d="M205.852 96.0186C225.239 74.9591 245.666 111.428 228.55 127.228C211.647 142.83 188.038 125.981 198.645 101.025" stroke="#000000" stroke-opacity="0.9" stroke-width="16" stroke-linecap="round" stroke-linejoin="round"/>
<path d="M207.716 193.998C223.056 150.817 228.481 129.52 228.995 129.594C244.213 146.846 275.084 171.53 280.348 178.109C284.887 183.784 212.54 192.296 207.148 193.998" stroke="#000000" stroke-opacity="0.9" stroke-width="16" stroke-linecap="round" stroke-linejoin="round"/>
<path d="M260.614 181.151C256.986 202.824 253.764 225.465 250.476 237.78C249.668 240.808 220.066 235.097 218.34 232.22C225.144 202.313 226.469 191.347 229.404 180.584" stroke="#000000" stroke-opacity="0.9" stroke-width="16" stroke-linecap="round" stroke-linejoin="round"/>
<path d="M279.625 142.26C285.853 130.595 275.852 100.369 258.496 110.783C245.079 118.834 278.392 150.191 255.047 167.701C246.61 174.029 234.22 153.868 224 156.059" stroke="#000000" stroke-opacity="0.9" stroke-width="16" stroke-linecap="round" stroke-linejoin="round"/>
<path d="M171 261.632C209.35 261.632 250.914 261.632 303.186 261.632" stroke="#000000" stroke-opacity="0.9" stroke-width="16" stroke-linecap="round" stroke-linejoin="round"/>
<path d="M347.638 302.236C279.722 302.251 211.425 301.783 143.512 302.236" stroke="#000000" stroke-opacity="0.9" stroke-width="16" stroke-linecap="round" stroke-linejoin="round"/>
<path d="M98.362 302.236C76.8321 302.272 67.3981 303.624 52 303.631" stroke="#000000" stroke-opacity="0.9" stroke-width="16" stroke-linecap="round" stroke-linejoin="round"/>
</svg>