<?xml version="1.0" encoding="utf-8"?><!-- Uploaded to: SVG Repo, www.svgrepo.com, Generator: SVG Repo Mixer Tools -->
<svg width="800px" height="800px" viewBox="0 0 400 400" fill="none" xmlns="http://www.w3.org/2000/svg">
<path d="M116.228 250.104C160.625 231.004 176.248 295.603 132.546 311.567C88.4453 327.678 80.4484 273.335 97.7357 260.703C100.653 258.569 103.621 259.21 106.438 256.463" stroke="#000000" stroke-opacity="0.9" stroke-width="16" stroke-linecap="round" stroke-linejoin="round"/>
<path d="M249.999 217.862C297.451 173.612 337.281 267.64 281.465 281.467C240.284 291.668 224.622 254.235 256.295 222.849" stroke="#000000" stroke-opacity="0.9" stroke-width="16" stroke-linecap="round" stroke-linejoin="round"/>
<path d="M161.1 280.566C167.127 263.776 161.557 142.607 167.192 132.843C167.817 131.761 207.382 113.165 247.584 99.8579C274.443 90.9675 307.206 85.0325 308.1 86.0652C312.379 91.004 308.1 209.417 308.1 230.277" stroke="#000000" stroke-opacity="0.9" stroke-width="16" stroke-linecap="round" stroke-linejoin="round"/>
</svg>