<?xml version="1.0" encoding="utf-8"?><!-- Uploaded to: SVG Repo, www.svgrepo.com, Generator: SVG Repo Mixer Tools -->
<svg width="800px" height="800px" viewBox="0 0 400 400" fill="none" xmlns="http://www.w3.org/2000/svg">
<path d="M107.744 129.634C170.74 57.8802 200.332 166.945 136.624 194.674C136.136 194.888 130.686 197.281 130.971 197.864C133.315 202.622 141.59 195.935 146.669 197.225C162.289 201.193 176.773 205.395 189.361 216.355C213.006 236.937 212.428 274.141 191.873 297.334C156.968 336.725 90.0449 324.793 78.863 268.003C76.9212 258.158 78.863 246.305 78.863 236.123" stroke="#000000" stroke-opacity="0.9" stroke-width="16" stroke-linecap="round" stroke-linejoin="round"/>
<path d="M208.814 115.283C216.634 148.157 254.336 148.759 271.8 122.23" stroke="#000000" stroke-opacity="0.9" stroke-width="16" stroke-linecap="round" stroke-linejoin="round"/>
<path d="M247.607 103.11C248.126 102.074 248.644 101.037 249.163 100" stroke="#000000" stroke-opacity="0.9" stroke-width="16" stroke-linecap="round" stroke-linejoin="round"/>
<path d="M168.439 202.423C202.115 231.151 281.192 160.969 307.359 179.965C336.374 201.025 317.253 250.574 290.309 262.741C264.24 274.517 230.329 245.778 260 224.242" stroke="#000000" stroke-opacity="0.9" stroke-width="16" stroke-linecap="round" stroke-linejoin="round"/>
</svg>