<?xml version="1.0" encoding="utf-8"?><!-- Uploaded to: SVG Repo, www.svgrepo.com, Generator: SVG Repo Mixer Tools -->
<svg width="800px" height="800px" viewBox="0 0 400 400" fill="none" xmlns="http://www.w3.org/2000/svg">
<path d="M114.392 93.918C116.124 161.973 109.188 255.318 113.355 320.43" stroke="#000000" stroke-opacity="0.9" stroke-width="16" stroke-linecap="round" stroke-linejoin="round"/>
<path d="M124.041 105.46C175.173 101.182 231.413 108.288 281.915 104.018" stroke="#000000" stroke-opacity="0.9" stroke-width="16" stroke-linecap="round" stroke-linejoin="round"/>
<path d="M284.946 95.3608C283.319 171.331 288.002 249.098 284.749 324.758" stroke="#000000" stroke-opacity="0.9" stroke-width="16" stroke-linecap="round" stroke-linejoin="round"/>
<path d="M281.915 321.873C227.969 316.208 173.056 320.629 118.689 320.629" stroke="#000000" stroke-opacity="0.9" stroke-width="16" stroke-linecap="round" stroke-linejoin="round"/>
<path opacity="0.503384" d="M118.689 261.447C171.812 260.015 238.385 257.677 287.267 264.163" stroke="#000000" stroke-opacity="0.9" stroke-width="16" stroke-linecap="round" stroke-linejoin="round"/>
<path opacity="0.503384" d="M124.041 150.11C176.389 147.262 230.635 142.683 283.253 149.448" stroke="#000000" stroke-opacity="0.9" stroke-width="16" stroke-linecap="round" stroke-linejoin="round"/>
<path d="M155.036 176.69C170.097 169.901 219.954 171.775 229.011 173.159C253.039 176.834 271.959 205.381 248.328 225.619C241.102 231.807 164.486 238.951 155.509 233.184C144.887 226.362 144.211 203.129 146.557 191.823" stroke="#000000" stroke-opacity="0.9" stroke-width="16" stroke-linecap="round" stroke-linejoin="round"/>
<path d="M147.093 124.886C156.73 121.418 150.486 132.84 145.447 126.691" stroke="#000000" stroke-opacity="0.9" stroke-width="16" stroke-linecap="round" stroke-linejoin="round"/>
<path d="M181.601 124.33C190.211 127.126 174.566 132.962 180.119 122.773" stroke="#000000" stroke-opacity="0.9" stroke-width="16" stroke-linecap="round" stroke-linejoin="round"/>
<path d="M220.103 124.216C222.403 134.838 208.977 132.592 215.475 124.822" stroke="#000000" stroke-opacity="0.9" stroke-width="16" stroke-linecap="round" stroke-linejoin="round"/>
<path d="M252.89 132.873C249.033 130.988 251.18 129.416 252.89 125.659" stroke="#000000" stroke-opacity="0.9" stroke-width="16" stroke-linecap="round" stroke-linejoin="round"/>
<path d="M275.225 87.2817C230.861 87.931 187.018 87.2817 142.771 87.2817" stroke="#000000" stroke-opacity="0.9" stroke-width="16" stroke-linecap="round" stroke-linejoin="round"/>
<path d="M182.91 76C173.497 76.0519 163.97 76.3722 154.813 78.6533" stroke="#000000" stroke-opacity="0.9" stroke-width="16" stroke-linecap="round" stroke-linejoin="round"/>
<path d="M249.805 79.4336C239.628 77.1009 229.022 79.8577 219.033 78.105" stroke="#000000" stroke-opacity="0.9" stroke-width="16" stroke-linecap="round" stroke-linejoin="round"/>
</svg>