<?xml version="1.0" encoding="utf-8"?><!-- Uploaded to: SVG Repo, www.svgrepo.com, Generator: SVG Repo Mixer Tools -->
<svg width="800px" height="800px" viewBox="0 0 400 400" fill="none" xmlns="http://www.w3.org/2000/svg">
<path d="M131 270.102C136.931 258.193 142.915 246.327 149.193 234.617C156.453 221.081 163.971 206.401 168.564 191.528C169.122 189.716 170.145 181.169 172.084 180.124C192.331 169.193 205.553 185.969 222.056 150.34C224.854 144.301 253.912 74.3274 265.506 96.2309C282.774 128.856 211.761 175.888 237.023 209.979" stroke="#000000" stroke-opacity="0.9" stroke-width="16" stroke-linecap="round" stroke-linejoin="round"/>
<path d="M236.842 221.187C227.518 251.443 209.099 279.783 199.623 307.729" stroke="#000000" stroke-opacity="0.9" stroke-width="16" stroke-linecap="round" stroke-linejoin="round"/>
<path opacity="0.503384" d="M176.361 212.407C190.116 220.56 201.019 221.813 217.07 231.22" stroke="#000000" stroke-opacity="0.9" stroke-width="16" stroke-linecap="round" stroke-linejoin="round"/>
<path d="M208.927 245.017C199.972 262.54 192.419 282.39 186.828 300.203" stroke="#000000" stroke-opacity="0.9" stroke-width="16" stroke-linecap="round" stroke-linejoin="round"/>
<path d="M191.481 242.508C183.937 258.302 181.476 277.698 172.871 292.678" stroke="#000000" stroke-opacity="0.9" stroke-width="16" stroke-linecap="round" stroke-linejoin="round"/>
<path d="M172.871 246.271C172.933 255.199 157.21 285.416 157.765 282.438" stroke="#000000" stroke-opacity="0.9" stroke-width="16" stroke-linecap="round" stroke-linejoin="round"/>
<path d="M168.219 226.203C165.813 236.356 141.16 279.669 144.025 276.173" stroke="#000000" stroke-opacity="0.9" stroke-width="16" stroke-linecap="round" stroke-linejoin="round"/>
</svg>