<?xml version="1.0" encoding="utf-8"?><!-- Uploaded to: SVG Repo, www.svgrepo.com, Generator: SVG Repo Mixer Tools -->
<svg width="800px" height="800px" viewBox="0 0 400 400" fill="none" xmlns="http://www.w3.org/2000/svg">
<path d="M194.335 285.171C176.02 290.366 159.466 285.089 149.537 279.456C145.788 277.329 125.621 295.885 109.218 279.456C83.1039 253.301 120.158 213.392 160.736 213.392C169.179 213.392 171.534 186.018 208.521 182.903C250.928 179.332 252.755 210.216 258.548 210.216C262.694 210.216 283.531 195.214 304.04 211.075C347.34 244.564 282.836 259.503 283.185 260.397C285.333 265.879 304.81 262.22 307.825 271.197C315.661 294.528 254.787 287.334 242.866 280.091" stroke="#000000" stroke-opacity="0.9" stroke-width="16" stroke-linecap="round" stroke-linejoin="round"/>
<path d="M113.215 203.426C113.215 147.784 166.763 129.463 195.298 169.394" stroke="#000000" stroke-opacity="0.9" stroke-width="16" stroke-linecap="round" stroke-linejoin="round"/>
<path d="M88.9365 207.715C87.2698 207.895 78.5481 210.646 86.3588 209.04" stroke="#000000" stroke-opacity="0.9" stroke-width="12" stroke-linecap="round" stroke-linejoin="round"/>
<path d="M91.2488 171.633C88.1632 171.633 85.0816 171.633 82 171.633" stroke="#000000" stroke-opacity="0.9" stroke-width="12" stroke-linecap="round" stroke-linejoin="round"/>
<path d="M108.59 144.465C105.891 141.796 102.154 141.909 100.498 138.684" stroke="#000000" stroke-opacity="0.9" stroke-width="12" stroke-linecap="round" stroke-linejoin="round"/>
<path d="M134.024 124.811C134.024 122.112 132.868 119.417 132.868 116.718" stroke="#000000" stroke-opacity="0.9" stroke-width="12" stroke-linecap="round" stroke-linejoin="round"/>
<path d="M170.358 121.343C170.797 118.644 171.239 115.949 171.68 113.25" stroke="#000000" stroke-opacity="0.9" stroke-width="12" stroke-linecap="round" stroke-linejoin="round"/>
<path d="M198.766 134.06C200.635 130.649 203.947 128.466 206.859 125.967" stroke="#000000" stroke-opacity="0.9" stroke-width="12" stroke-linecap="round" stroke-linejoin="round"/>
<path d="M218.419 159.494C221.458 155.839 224.979 155.819 228.824 154.87" stroke="#000000" stroke-opacity="0.9" stroke-width="12" stroke-linecap="round" stroke-linejoin="round"/>
</svg>