<?xml version="1.0" encoding="utf-8"?><!-- Uploaded to: SVG Repo, www.svgrepo.com, Generator: SVG Repo Mixer Tools -->
<svg width="800px" height="800px" viewBox="0 0 400 400" fill="none" xmlns="http://www.w3.org/2000/svg">
<path opacity="0.503384" d="M89 118.349C118.09 118.39 145.151 112 174.122 112C216.791 112 265.169 112 307.801 112C310.648 112 311.97 174.305 311.425 186.699C310.795 200.994 313.589 275.88 307.801 285.273C305.761 288.581 93.5314 289.223 89.8802 285.273C88.918 284.232 92.599 154.764 89.8802 140.074" stroke="#000000" stroke-opacity="0.9" stroke-width="16" stroke-linecap="round" stroke-linejoin="round"/>
<path d="M125.166 216.443C130.496 219.086 129.861 221.183 146.369 210.63C149.537 208.605 166.303 205.018 169.288 202.893C177.246 197.226 184.863 190.99 192.141 184.184C201.895 189.392 208.984 195.628 213.41 202.893" stroke="#000000" stroke-opacity="0.9" stroke-width="16" stroke-linecap="round" stroke-linejoin="round"/>
<path d="M213.41 209.5C217.274 203.441 220.649 200.274 223.536 200C227.56 204.249 230.668 206.435 232.861 206.557C240.307 206.972 237.707 199.491 245.689 204.166C256.392 210.429 262.568 219 275.395 219" stroke="#000000" stroke-opacity="0.9" stroke-width="16" stroke-linecap="round" stroke-linejoin="round"/>
<path d="M273.685 241.491C266.819 241.604 236.582 234.655 229.681 236.116C222.709 237.594 217.175 251.108 202.515 246.56C185.442 241.263 142.213 238.004 125.166 241.867" stroke="#000000" stroke-opacity="0.9" stroke-width="16" stroke-linecap="round" stroke-linejoin="round"/>
<path d="M232.74 151.28C272.975 146.315 232.74 209.622 220.96 164.849C219.169 158.039 226.438 154.344 230.662 152.127" stroke="#000000" stroke-opacity="0.9" stroke-width="16" stroke-linecap="round" stroke-linejoin="round"/>
</svg>