<?xml version="1.0" encoding="utf-8"?><!-- Uploaded to: SVG Repo, www.svgrepo.com, Generator: SVG Repo Mixer Tools -->
<svg width="800px" height="800px" viewBox="0 0 400 400" fill="none" xmlns="http://www.w3.org/2000/svg">
<path d="M293.602 247.555C305.989 265.03 321.605 218.047 318.631 212.312C315.353 205.99 303.029 206.503 302.094 202.823C297.128 183.26 293.634 133.662 245.309 127.899M198.057 127.899C115.015 132.36 110.247 193.528 129.624 243.42C153.148 303.98 242.918 309.317 277.909 257.839" stroke="#000000" stroke-opacity="0.9" stroke-width="16" stroke-linecap="round" stroke-linejoin="round"/>
<path opacity="0.503384" d="M239.941 142.069C227.279 139.833 213.831 141.646 199.597 147.508" stroke="#000000" stroke-opacity="0.9" stroke-width="16" stroke-linecap="round" stroke-linejoin="round"/>
<path d="M277.527 195.706C278.593 191.554 278.593 190.083 279.675 187.403" stroke="#000000" stroke-opacity="0.9" stroke-width="16" stroke-linecap="round" stroke-linejoin="round"/>
<path d="M265.203 284.667C278.684 302.081 251.845 302.946 245.313 290.374" stroke="#000000" stroke-opacity="0.9" stroke-width="16" stroke-linecap="round" stroke-linejoin="round"/>
<path d="M142.092 275.178C132.419 297.373 160.467 307.764 160.467 284.741" stroke="#000000" stroke-opacity="0.9" stroke-width="16" stroke-linecap="round" stroke-linejoin="round"/>
<path d="M120.737 201.059C115.562 203.901 111.156 203.333 106.366 199.174C92.3889 187.046 91.4645 157.341 102.982 172.766C115.842 189.982 95.8063 197.766 81.0029 187.855" stroke="#000000" stroke-opacity="0.9" stroke-width="16" stroke-linecap="round" stroke-linejoin="round"/>
<path d="M285.038 137.196C302.871 121.302 298.649 143.844 293.265 151.818" stroke="#000000" stroke-opacity="0.9" stroke-width="16" stroke-linecap="round" stroke-linejoin="round"/>
<path d="M233.163 109.999C215.459 84.9374 183.168 125.29 205.859 141.807M232.847 138.57C237.616 132.929 239.528 124.83 235.913 117.228" stroke="#000000" stroke-opacity="0.9" stroke-width="16" stroke-linecap="round" stroke-linejoin="round"/>
</svg>