<?xml version="1.0" encoding="utf-8"?><!-- Uploaded to: SVG Repo, www.svgrepo.com, Generator: SVG Repo Mixer Tools -->
<svg width="800px" height="800px" viewBox="0 0 400 400" fill="none" xmlns="http://www.w3.org/2000/svg">
<path d="M192.821 192.108C207.696 169.838 234.826 205.696 215.761 220.374C200.947 231.78 183.555 214.001 190.51 198.532" stroke="#000000" stroke-opacity="0.9" stroke-width="16" stroke-linecap="round" stroke-linejoin="round"/>
<path d="M195.422 240.117C199.63 237.662 210.702 233.56 217.992 235.509C219.763 235.983 219.521 245.489 219.521 247.073C219.521 249.804 219.452 275.271 217.992 277.353C217.18 278.51 212.137 277.762 211.106 277.762C194.817 277.762 197.717 277.962 197.717 260.986C197.717 253.711 196.979 246.493 198.099 239.299" stroke="#000000" stroke-opacity="0.9" stroke-width="16" stroke-linecap="round" stroke-linejoin="round"/>
<path d="M218.605 277.095C224.227 277.095 239.579 276.607 240.844 277.845C241.111 278.105 238.251 304.596 238.16 305.609C237.264 315.552 237.852 326.252 235.86 336" stroke="#000000" stroke-opacity="0.9" stroke-width="16" stroke-linecap="round" stroke-linejoin="round"/>
<path d="M197.361 276C197.316 280.614 200.521 301.875 200.002 306.547C199.461 311.418 183.564 342.112 187.79 340.969" stroke="#000000" stroke-opacity="0.9" stroke-width="16" stroke-linecap="round" stroke-linejoin="round"/>
<path d="M218.605 236.084C221.63 239.528 223.895 243.49 226.898 246.939C228.296 248.545 234.809 259 236.698 259C237.256 259 251.783 244.14 252.153 243.722C252.906 242.872 262.216 235.11 258.561 236.084" stroke="#000000" stroke-opacity="0.9" stroke-width="16" stroke-linecap="round" stroke-linejoin="round"/>
<path d="M192.64 242.047C169.971 256.742 182.865 259.568 164.542 251.758C156.386 248.281 150.558 244.542 144.419 238" stroke="#000000" stroke-opacity="0.9" stroke-width="16" stroke-linecap="round" stroke-linejoin="round"/>
<path d="M137 110C168.808 105.013 252.995 107.749 262.19 107.749" stroke="#000000" stroke-opacity="0.9" stroke-width="16" stroke-linecap="round" stroke-linejoin="round"/>
<path d="M231.588 60C214.283 79.5557 177.259 136.417 165.747 148" stroke="#000000" stroke-opacity="0.9" stroke-width="16" stroke-linecap="round" stroke-linejoin="round"/>
<path opacity="0.503384" d="M239.007 110C242.256 140.835 246.758 171.437 251.468 202.026C253.288 213.846 253.764 227.06 257.553 238" stroke="#000000" stroke-opacity="0.9" stroke-width="16" stroke-linecap="round" stroke-linejoin="round"/>
<path opacity="0.503384" d="M229.483 60C226.316 111.869 235.298 163.227 235.298 214.909C235.298 225.005 232.973 266.362 235.298 273" stroke="#000000" stroke-opacity="0.9" stroke-width="16" stroke-linecap="round" stroke-linejoin="round"/>
<path opacity="0.503384" d="M196.35 112C199.498 136.811 199.35 162.72 203.768 187" stroke="#000000" stroke-opacity="0.9" stroke-width="16" stroke-linecap="round" stroke-linejoin="round"/>
<path opacity="0.503384" d="M172.238 146C175.077 184.059 186.964 320.944 188.93 332" stroke="#000000" stroke-opacity="0.9" stroke-width="16" stroke-linecap="round" stroke-linejoin="round"/>
<path opacity="0.503384" d="M157.401 114C157.185 147.315 156.511 180.628 154.539 213.938C153.972 223.507 151.394 234.755 153.721 244" stroke="#000000" stroke-opacity="0.9" stroke-width="16" stroke-linecap="round" stroke-linejoin="round"/>
</svg>