<?xml version="1.0" encoding="utf-8"?><!-- Uploaded to: SVG Repo, www.svgrepo.com, Generator: SVG Repo Mixer Tools -->
<svg width="800px" height="800px" viewBox="0 0 400 400" fill="none" xmlns="http://www.w3.org/2000/svg">
<path d="M126.084 159.332C144.174 150.383 273.722 145.635 288.656 171.187C303.59 196.738 298.792 294.704 295.809 297.1C293.355 299.071 122.65 307.476 108.602 299.955C106.114 298.622 100.106 263.805 100.106 213.352C100.106 197.171 102.978 177.745 108.602 171.187" stroke="#000000" stroke-opacity="0.9" stroke-width="16" stroke-linecap="round" stroke-linejoin="round"/>
<path d="M220.158 193.101C256.845 155.383 299.063 227.096 254.636 247.391C219.867 263.271 198.786 223.403 220.158 199.973" stroke="#000000" stroke-opacity="0.9" stroke-width="16" stroke-linecap="round" stroke-linejoin="round"/>
<path d="M238.894 212.848C245.009 206.732 252.045 218.361 244.64 221.652C238.846 224.228 235.332 217.762 238.894 213.963" stroke="#000000" stroke-opacity="0.9" stroke-width="16" stroke-linecap="round" stroke-linejoin="round"/>
<path opacity="0.503384" d="M126.756 211.099C140.837 211.099 180.927 211.099 186.329 211.099" stroke="#000000" stroke-opacity="0.9" stroke-width="16" stroke-linecap="round" stroke-linejoin="round"/>
<path opacity="0.503384" d="M126.756 241.278C141.45 241.278 183.282 241.278 188.919 241.278" stroke="#000000" stroke-opacity="0.9" stroke-width="16" stroke-linecap="round" stroke-linejoin="round"/>
<path opacity="0.503384" d="M126.756 270.528C162.47 270.528 264.147 270.528 277.848 270.528" stroke="#000000" stroke-opacity="0.9" stroke-width="16" stroke-linecap="round" stroke-linejoin="round"/>
<path opacity="0.503384" d="M284.355 166.789L112.937 96" stroke="#000000" stroke-opacity="0.9" stroke-width="16" stroke-linecap="round" stroke-linejoin="round"/>
<path opacity="0.503384" d="M266.816 198.099L237.461 222.242" stroke="#000000" stroke-opacity="0.9" stroke-width="16" stroke-linecap="round" stroke-linejoin="round"/>
<path d="M298.998 182.313C301.668 153.46 294.828 137.365 278.479 134.028C253.956 129.022 134.692 125.44 116.642 134.956C104.609 141.301 99.1011 157.086 100.119 182.313" stroke="#000000" stroke-opacity="0.9" stroke-width="16" stroke-linecap="round" stroke-linejoin="round"/>
</svg>