<?xml version="1.0" encoding="utf-8"?><!-- Uploaded to: SVG Repo, www.svgrepo.com, Generator: SVG Repo Mixer Tools -->
<svg width="800px" height="800px" viewBox="0 0 400 400" fill="none" xmlns="http://www.w3.org/2000/svg">
<path d="M281.429 161.156C327.005 144.233 320.824 195.926 284.438 211.343C262.038 220.833 238.906 214.143 215.017 217C201.896 218.571 189.189 218.723 176.063 219.752C166.28 220.515 156.485 221.636 146.686 222.348C134.955 223.199 122.094 224.091 110.288 222.998C97.8021 221.845 96.3638 217.466 90.4924 207.907C73.0994 179.614 125.535 151.333 140.941 166.998C142.004 168.083 138.262 165.19 137.744 163.752C136.314 159.746 136.318 152.176 137.108 148.167C139.953 133.702 160.831 112.693 174.787 109.857C198.525 105.027 206.266 121.263 207.992 142.325C208.996 154.583 267.71 97.2768 274.403 144.92" stroke="#000000" stroke-opacity="0.9" stroke-width="16" stroke-linecap="round" stroke-linejoin="round"/>
<path opacity="0.503384" d="M119.106 248.04C120.182 251.927 121.253 255.984 122.464 259.734" stroke="#000000" stroke-opacity="0.9" stroke-width="6" stroke-linecap="round" stroke-linejoin="round"/>
<path opacity="0.503384" d="M157.629 245.441C158.123 249.36 158.755 253.26 159.311 257.136" stroke="#000000" stroke-opacity="0.9" stroke-width="6" stroke-linecap="round" stroke-linejoin="round"/>
<path opacity="0.503384" d="M197.491 245.441C198.175 250.228 198.372 252.664 200.012 255.836" stroke="#000000" stroke-opacity="0.9" stroke-width="6" stroke-linecap="round" stroke-linejoin="round"/>
<path opacity="0.503384" d="M237.734 246.74C239.606 251.288 241.633 252.772 241.633 255.836" stroke="#000000" stroke-opacity="0.9" stroke-width="6" stroke-linecap="round" stroke-linejoin="round"/>
<path opacity="0.503384" d="M276.719 237.644C278.195 241.83 281.223 246.248 281.916 250.638" stroke="#000000" stroke-opacity="0.9" stroke-width="6" stroke-linecap="round" stroke-linejoin="round"/>
<path opacity="0.503384" d="M112.99 289.621C114.959 292.963 114.329 296.154 115.589 297.418" stroke="#000000" stroke-opacity="0.9" stroke-width="6" stroke-linecap="round" stroke-linejoin="round"/>
<path opacity="0.503384" d="M152.232 287.022C152.013 289.851 153.633 292.219 154.332 294.819" stroke="#000000" stroke-opacity="0.9" stroke-width="6" stroke-linecap="round" stroke-linejoin="round"/>
<path opacity="0.503384" d="M188.356 283.124C189.656 285.389 190.955 289.692 190.955 292.22" stroke="#000000" stroke-opacity="0.9" stroke-width="6" stroke-linecap="round" stroke-linejoin="round"/>
<path opacity="0.503384" d="M224.989 284.424C225.317 288.04 226.26 291.399 227.089 294.819" stroke="#000000" stroke-opacity="0.9" stroke-width="6" stroke-linecap="round" stroke-linejoin="round"/>
<path opacity="0.503384" d="M265.694 283.124C266.583 286.953 266.955 290.852 266.955 294.819" stroke="#000000" stroke-opacity="0.9" stroke-width="6" stroke-linecap="round" stroke-linejoin="round"/>
</svg>