<?xml version="1.0" encoding="utf-8"?><!-- Uploaded to: SVG Repo, www.svgrepo.com, Generator: SVG Repo Mixer Tools -->
<svg width="800px" height="800px" viewBox="0 0 400 400" fill="none" xmlns="http://www.w3.org/2000/svg">
<path d="M142.109 51.0234C58.0965 66.5334 11.0717 224.115 95.9273 280.687" stroke="#000000" stroke-opacity="0.5" stroke-width="16" stroke-linecap="round" stroke-linejoin="round"/>
<path d="M259.726 48.4385C374.758 54.9011 408.363 260.408 259.726 286.258" stroke="#000000" stroke-opacity="0.5" stroke-width="16" stroke-linecap="round" stroke-linejoin="round"/>
<path d="M210.197 52.3162C102.039 40.6836 46.0732 225.929 130.929 282.502" stroke="#000000" stroke-opacity="0.5" stroke-width="16" stroke-linecap="round" stroke-linejoin="round"/>
<path d="M99.4365 236.52C87.7088 236.685 76.1196 237.23 64.5391 234.077" stroke="#000000" stroke-opacity="0.5" stroke-width="16" stroke-linecap="round" stroke-linejoin="round"/>
<path d="M89.8349 170.063C78.0543 170.063 66.5647 170.063 54.9375 170.063" stroke="#000000" stroke-opacity="0.5" stroke-width="16" stroke-linecap="round" stroke-linejoin="round"/>
<path d="M352.785 141.499C345.804 141.499 338.996 141.499 332.105 141.499" stroke="#000000" stroke-opacity="0.5" stroke-width="16" stroke-linecap="round" stroke-linejoin="round"/>
<path d="M350.199 213.878C343.218 213.878 336.41 213.878 329.52 213.878" stroke="#000000" stroke-opacity="0.5" stroke-width="16" stroke-linecap="round" stroke-linejoin="round"/>
<path d="M111.657 95.5793C103.223 95.1476 95.2722 94.7407 86.9453 94.3145" stroke="#000000" stroke-opacity="0.5" stroke-width="16" stroke-linecap="round" stroke-linejoin="round"/>
<path d="M72.943 268.43C69.0368 272.873 40 348.105 40 348.105C40 348.105 213.123 337.296 288.987 353.468" stroke="#000000" stroke-opacity="0.5" stroke-width="16" stroke-linecap="round" stroke-linejoin="round"/>
<path d="M236.975 48.4385C395.438 93.6759 350.201 310.816 171.836 290.136" stroke="#000000" stroke-opacity="0.5" stroke-width="16" stroke-linecap="round" stroke-linejoin="round"/>
<path d="M216.427 99.0519C248.835 80.9541 275.553 119.58 249.331 143.06C219.475 169.794 194.354 126.061 216.427 103.987" stroke="#000000" stroke-opacity="0.9" stroke-width="16" stroke-linecap="round" stroke-linejoin="round"/>
<path d="M215.062 160.037C221.643 221.319 232.071 201.6 259.939 203.493" stroke="#000000" stroke-opacity="0.9" stroke-width="16" stroke-linecap="round" stroke-linejoin="round"/>
<path d="M215.062 160.037C171.571 172.896 190.24 165.406 167.934 198.865" stroke="#000000" stroke-opacity="0.9" stroke-width="16" stroke-linecap="round" stroke-linejoin="round"/>
<path d="M215.065 160.037C211.642 173.627 206.172 262.566 153.754 279.103" stroke="#000000" stroke-opacity="0.9" stroke-width="16" stroke-linecap="round" stroke-linejoin="round"/>
<path d="M202.348 224.796C224.397 243.783 222.702 265.513 231.339 284.022" stroke="#000000" stroke-opacity="0.9" stroke-width="16" stroke-linecap="round" stroke-linejoin="round"/>
<path d="M176.126 205.386C167.847 199.31 160.779 196.347 157.32 203.96" stroke="#000000" stroke-opacity="0.9" stroke-width="16" stroke-linecap="round" stroke-linejoin="round"/>
<path d="M148.886 203.493C179.36 209.852 201.01 208.208 185.389 242.875C180.577 253.556 138.369 240.716 131.405 236.074C124.566 231.513 135.45 209.046 139.76 203.493" stroke="#000000" stroke-opacity="0.9" stroke-width="16" stroke-linecap="round" stroke-linejoin="round"/>
</svg>