<?xml version="1.0" encoding="utf-8"?><!-- Uploaded to: SVG Repo, www.svgrepo.com, Generator: SVG Repo Mixer Tools -->
<svg width="800px" height="800px" viewBox="0 0 400 400" fill="none" xmlns="http://www.w3.org/2000/svg">
<path d="M138.289 124.662C180.769 88.3587 182.207 84.0241 238.111 84.0241C241.05 84.0241 255.598 81.7199 257.457 84.0241C266.229 94.8858 267.983 115.966 273.956 127.806C276.6 133.039 302.202 123.73 301.378 127.806C300.779 130.781 284.725 169.897 282.219 171.431C279.714 172.964 215.669 173.049 215.669 171.431C215.669 165.516 236.139 158.473 238.884 153.032C245.577 139.766 205.392 101.806 197.871 89.3914" stroke="#000000" stroke-opacity="0.9" stroke-width="16" stroke-linecap="round" stroke-linejoin="round"/>
<path d="M314.239 243.347C294.827 252.988 264.202 256.206 237.938 256.206C232.306 256.206 240.351 229.025 234.973 227.262C232.306 226.391 196.523 261.687 196.523 267.282C196.523 270.88 207.785 289.967 221.762 310.588C235.74 331.21 232.943 291.963 234.973 289.967C235.875 289.083 273.724 301.054 290.149 298.362C320.862 293.329 322.94 215.067 314.239 193.68" stroke="#000000" stroke-opacity="0.9" stroke-width="16" stroke-linecap="round" stroke-linejoin="round"/>
<path d="M166.471 207.487C163.521 200.204 149.612 161.829 145.631 160.789C140.321 159.403 87.5378 163.716 86.867 165.703C84.9292 171.44 112.098 176.771 107.944 184.975C103.48 193.796 79.6846 234.467 82.1833 244.334C85.3764 256.951 140.8 295.247 156.342 302.921" stroke="#000000" stroke-opacity="0.9" stroke-width="16" stroke-linecap="round" stroke-linejoin="round"/>
<path d="M158.491 210.265C156.053 210.648 146.358 204.5 145.147 205.24C128.944 215.121 118.85 247.779 113.75 264.111" stroke="#000000" stroke-opacity="0.9" stroke-width="16" stroke-linecap="round" stroke-linejoin="round"/>
<path opacity="0.487002" d="M128.184 254.051C190.124 268.291 164.188 251.31 172.925 301.485" stroke="#000000" stroke-opacity="0.9" stroke-width="16" stroke-linecap="round" stroke-linejoin="round"/>
<path opacity="0.487002" d="M292.849 239.676C274.685 204.829 258.053 200.939 301.379 193.68" stroke="#000000" stroke-opacity="0.9" stroke-width="16" stroke-linecap="round" stroke-linejoin="round"/>
<path opacity="0.487002" d="M141.172 134.019C200.666 154.794 158.713 142.999 213.335 120.372" stroke="#000000" stroke-opacity="0.9" stroke-width="16" stroke-linecap="round" stroke-linejoin="round"/>
</svg>