<?xml version="1.0" encoding="utf-8"?><!-- Uploaded to: SVG Repo, www.svgrepo.com, Generator: SVG Repo Mixer Tools -->
<svg width="800px" height="800px" viewBox="0 0 400 400" fill="none" xmlns="http://www.w3.org/2000/svg">
<path d="M145.55 170.041C174.27 125.378 244.884 125.746 253.787 168.947" stroke="#000000" stroke-opacity="0.9" stroke-width="16" stroke-linecap="round" stroke-linejoin="round"/>
<path d="M148.587 179.856C140.015 191.089 104.728 201.536 94.9736 183.128C52.3408 102.679 223.674 87.501 287.171 128.587C344.031 165.378 290.547 219.494 252.778 178.766" stroke="#000000" stroke-opacity="0.9" stroke-width="16" stroke-linecap="round" stroke-linejoin="round"/>
<path d="M105.087 273.668C136.295 197.181 202.42 156.685 259.857 228.945C268.249 239.499 281.205 256.514 279.077 272.578C276.284 293.655 125.308 303.102 111.157 280.213" stroke="#000000" stroke-opacity="0.9" stroke-width="16" stroke-linecap="round" stroke-linejoin="round"/>
<path d="M179.946 200.582C190.572 192.607 211.201 189.056 223.443 197.309C232.254 203.248 239.884 220.212 238.619 231.124C229.308 311.431 105.899 215.907 187.027 194.036" stroke="#000000" stroke-opacity="0.9" stroke-width="16" stroke-linecap="round" stroke-linejoin="round"/>
<path opacity="0.491978" d="M175.903 149.313C184.021 163.459 184.78 188.477 182.984 196.22" stroke="#000000" stroke-opacity="0.9" stroke-width="16" stroke-linecap="round" stroke-linejoin="round"/>
<path opacity="0.491978" d="M216.359 146.502C207.606 164.023 208.499 184.112 208.499 203.393" stroke="#000000" stroke-opacity="0.9" stroke-width="16" stroke-linecap="round" stroke-linejoin="round"/>
</svg>