<?xml version="1.0" encoding="utf-8"?><!-- Uploaded to: SVG Repo, www.svgrepo.com, Generator: SVG Repo Mixer Tools -->
<svg width="800px" height="800px" viewBox="0 0 400 400" fill="none" xmlns="http://www.w3.org/2000/svg">
<path d="M123 110.138C127.777 122.077 136.703 117.23 146.559 112.663C156.415 108.096 163.166 96.0155 177.349 101.322C203.896 113.638 179.134 238.712 214.016 283.749C218.246 289.207 226.762 297.464 233.7 299.595C263.438 308.739 246.306 252.075 263.194 226.524C272.084 213.074 277.405 208.821 276.905 207.208C275.988 204.253 232.618 189.686 226.049 192.041C224.526 192.588 228.916 212.491 229.297 214.338C233.053 232.52 232.357 251.629 221.372 267.387" stroke="#000000" stroke-opacity="0.9" stroke-width="16" stroke-linecap="round" stroke-linejoin="round"/>
<path d="M232.04 234.183C229.426 232.339 231.179 232.339 228.191 234.183" stroke="#000000" stroke-opacity="0.9" stroke-width="16" stroke-linecap="round" stroke-linejoin="round"/>
<path d="M231.274 254.604C229.645 253.901 228.016 253.199 226.387 252.496" stroke="#000000" stroke-opacity="0.9" stroke-width="16" stroke-linecap="round" stroke-linejoin="round"/>
<path d="M199.968 206.377C197.521 207.008 194.837 206.377 192.271 206.377" stroke="#000000" stroke-opacity="0.9" stroke-width="16" stroke-linecap="round" stroke-linejoin="round"/>
<path d="M197.403 180.76C195.265 180.409 193.127 180.057 190.989 179.706" stroke="#000000" stroke-opacity="0.9" stroke-width="16" stroke-linecap="round" stroke-linejoin="round"/>
<path d="M197.403 161.031C195.265 161.383 193.127 161.734 190.989 162.085" stroke="#000000" stroke-opacity="0.9" stroke-width="16" stroke-linecap="round" stroke-linejoin="round"/>
</svg>