<?xml version="1.0" encoding="utf-8"?><!-- Uploaded to: SVG Repo, www.svgrepo.com, Generator: SVG Repo Mixer Tools -->
<svg width="800px" height="800px" viewBox="0 0 400 400" fill="none" xmlns="http://www.w3.org/2000/svg">
<path d="M196.191 86C195.797 89.4692 195.363 94.0887 194.889 99.8584C194.178 108.513 192.164 118.656 192.164 181.632C192.164 223.616 193.072 267.738 194.889 314" stroke="#000000" stroke-opacity="0.9" stroke-width="16" stroke-linecap="round" stroke-linejoin="round"/>
<path d="M119.676 93.6001C156.239 105.587 181.637 113.748 195.87 118.082C244.964 133.031 273.331 147.758 282.78 150.057" stroke="#000000" stroke-opacity="0.9" stroke-width="16" stroke-linecap="round" stroke-linejoin="round"/>
<path opacity="0.502209" d="M306.94 205.318L280.709 150.057C271.355 171.334 265.468 184.173 263.05 188.575C260.631 192.977 257.81 200.405 254.586 210.857" stroke="#000000" stroke-opacity="0.9" stroke-width="16" stroke-linecap="round" stroke-linejoin="round"/>
<path opacity="0.502209" d="M119.676 94.6858L143.839 170.686" stroke="#000000" stroke-opacity="0.9" stroke-width="16" stroke-linecap="round" stroke-linejoin="round"/>
<path opacity="0.502209" d="M119.676 93.6001L91.4844 169.6" stroke="#000000" stroke-opacity="0.9" stroke-width="16" stroke-linecap="round" stroke-linejoin="round"/>
<path d="M88.168 172.493L142.529 169.6C144.605 194.593 134.666 209.292 116.598 210.075C98.5306 210.857 94.5039 204.343 88.1686 192.4" stroke="#000000" stroke-opacity="0.9" stroke-width="16" stroke-linecap="round" stroke-linejoin="round"/>
<path d="M249.555 218.457C254.985 240.171 265.047 251.028 279.74 251.028C301.78 251.028 311.977 222.404 311.977 219.736" stroke="#000000" stroke-opacity="0.9" stroke-width="16" stroke-linecap="round" stroke-linejoin="round"/>
<path d="M249.555 216.286L311.977 214.114" stroke="#000000" stroke-opacity="0.9" stroke-width="16" stroke-linecap="round" stroke-linejoin="round"/>
<path d="M146.855 314C154.91 314 155.031 314 165.007 314C171.658 314 197.825 313.572 243.511 312.715" stroke="#000000" stroke-opacity="0.9" stroke-width="16" stroke-linecap="round" stroke-linejoin="round"/>
</svg>