<?xml version="1.0" encoding="utf-8"?><!-- Uploaded to: SVG Repo, www.svgrepo.com, Generator: SVG Repo Mixer Tools -->
<svg width="800px" height="800px" viewBox="0 0 400 400" fill="none" xmlns="http://www.w3.org/2000/svg">
<path d="M149.947 88.0145C196.603 9.85951 318.994 77.8718 271.805 166.351C232.272 240.476 134.913 211.124 134.913 128.37" stroke="#000000" stroke-opacity="0.9" stroke-width="16" stroke-linecap="round" stroke-linejoin="round"/>
<path d="M287.069 208.84C375.567 361.842 314.732 381.977 217.836 293.827" stroke="#000000" stroke-opacity="0.9" stroke-width="16" stroke-linecap="round" stroke-linejoin="round"/>
<path d="M128.237 212.729C116.337 223.252 56.9594 311.569 71.4842 326.456C98.2264 353.866 155.704 314.356 181.276 288.783" stroke="#000000" stroke-opacity="0.9" stroke-width="16" stroke-linecap="round" stroke-linejoin="round"/>
<path d="M195.239 291.785C180.961 291.785 178.193 259.592 186.839 249.219" stroke="#000000" stroke-opacity="0.9" stroke-width="16" stroke-linecap="round" stroke-linejoin="round"/>
<path d="M203.124 292.577C216.254 292.577 227.184 270.258 214.202 249.057" stroke="#000000" stroke-opacity="0.9" stroke-width="16" stroke-linecap="round" stroke-linejoin="round"/>
<path d="M173.079 122.525C197.233 130.356 226.836 130.617 248.66 119.439" stroke="#000000" stroke-opacity="0.9" stroke-width="16" stroke-linecap="round" stroke-linejoin="round"/>
<path d="M223.573 136.887C223.72 134.502 223.771 132.131 223.969 129.751" stroke="#000000" stroke-opacity="0.9" stroke-width="16" stroke-linecap="round" stroke-linejoin="round"/>
<path d="M196.842 136.492C197.564 134.431 197.107 132.265 197.24 130.147" stroke="#000000" stroke-opacity="0.9" stroke-width="16" stroke-linecap="round" stroke-linejoin="round"/>
</svg>