<?xml version="1.0" encoding="utf-8"?><!-- Uploaded to: SVG Repo, www.svgrepo.com, Generator: SVG Repo Mixer Tools -->
<svg width="800px" height="800px" viewBox="0 0 400 400" fill="none" xmlns="http://www.w3.org/2000/svg">
<path fill-rule="evenodd" clip-rule="evenodd" d="M192.218 191.684C180.978 194.267 184.609 214.957 172.922 218.102C166.932 219.714 132.765 218.215 131.064 215.772C122.519 203.507 129.271 162.617 139.722 153.612C154.501 140.883 187.859 148.174 205.401 148.174C215.472 148.174 242.44 147.643 250.146 155.942C259.255 165.749 259.99 203.252 250.146 213.847C244.196 220.253 208.903 222.385 204.678 219.656C198.044 215.372 200.117 198.304 196.019 191.684H192.218Z" stroke="#000000" stroke-opacity="0.9" stroke-width="16" stroke-linecap="round" stroke-linejoin="round"/>
<path d="M178.152 241.489C183.65 239.77 189.549 239.173 195.274 239.173C224.601 239.173 222.709 257.018 207.73 265.352C201.249 268.958 150.428 277.579 168.878 247.66" stroke="#000000" stroke-opacity="0.9" stroke-width="16" stroke-linecap="round" stroke-linejoin="round"/>
<path d="M190.395 276.124C199.741 320.329 267.93 333.751 277.768 280.789C282.617 254.675 284.001 122.871 284.001 85.7939" stroke="#000000" stroke-opacity="0.9" stroke-width="16" stroke-linecap="round" stroke-linejoin="round"/>
<path d="M115.93 188.046C116.559 184.149 116.55 179.821 116.55 176.248" stroke="#000000" stroke-opacity="0.9" stroke-width="16" stroke-linecap="round" stroke-linejoin="round"/>
</svg>