<?xml version="1.0" encoding="utf-8"?><!-- Uploaded to: SVG Repo, www.svgrepo.com, Generator: SVG Repo Mixer Tools -->
<svg width="800px" height="800px" viewBox="0 0 400 400" fill="none" xmlns="http://www.w3.org/2000/svg">
<path d="M106.562 109.896C116.06 109.06 207.772 103.859 209.043 105.228C214.219 110.795 210.778 148.588 210.778 156.193C210.778 161.032 212.076 190.684 208.173 194.881C206.166 197.04 125.322 191.145 110.903 191.145" stroke="#000000" stroke-opacity="0.9" stroke-width="16" stroke-linecap="round" stroke-linejoin="round"/>
<path d="M104.605 120.489C101.553 143.192 102.767 166.258 102.767 188.902" stroke="#000000" stroke-opacity="0.9" stroke-width="16" stroke-linecap="round" stroke-linejoin="round"/>
<path opacity="0.503384" d="M102.97 140C131.615 144.079 180.355 134.743 199.927 140.661" stroke="#000000" stroke-opacity="0.9" stroke-width="16" stroke-linecap="round" stroke-linejoin="round"/>
<path opacity="0.503384" d="M108.955 168.249C141.222 164.161 180.77 168.842 210.7 165.667" stroke="#000000" stroke-opacity="0.9" stroke-width="16" stroke-linecap="round" stroke-linejoin="round"/>
<path opacity="0.503384" d="M174.371 119.199C174.101 127.54 173.731 202.881 171.616 190.008" stroke="#000000" stroke-opacity="0.9" stroke-width="16" stroke-linecap="round" stroke-linejoin="round"/>
<path opacity="0.503384" d="M138.826 112.745C141.261 140.393 136.991 167.05 136.991 194.065" stroke="#000000" stroke-opacity="0.9" stroke-width="16" stroke-linecap="round" stroke-linejoin="round"/>
<path d="M289.703 125.653C230.999 169.187 165.091 233.179 107.759 265.059" stroke="#000000" stroke-opacity="0.9" stroke-width="16" stroke-linecap="round" stroke-linejoin="round"/>
<path d="M102.97 191.484C144.925 207.331 170.714 251.663 207.109 275.386" stroke="#000000" stroke-opacity="0.9" stroke-width="16" stroke-linecap="round" stroke-linejoin="round"/>
<path d="M201.305 277.035C203.79 275.027 205.678 274.027 209.175 273.212C223.94 269.771 226.388 289.082 215.231 294.282C200.858 300.979 190.21 285.979 200.329 279.1" stroke="#000000" stroke-opacity="0.9" stroke-width="16" stroke-linecap="round" stroke-linejoin="round"/>
<path d="M288.687 124.72C291.172 122.713 293.059 121.712 296.556 120.897C311.322 117.456 313.77 136.767 302.612 141.967C288.24 148.664 277.592 133.664 287.711 126.785" stroke="#000000" stroke-opacity="0.9" stroke-width="16" stroke-linecap="round" stroke-linejoin="round"/>
<path d="M99.0991 271.486C137.352 261.403 105.509 315.905 92.8868 285.32C90.1332 278.648 89.9005 275.929 95.5502 272.409" stroke="#000000" stroke-opacity="0.9" stroke-width="16" stroke-linecap="round" stroke-linejoin="round"/>
</svg>