<?xml version="1.0" encoding="utf-8"?><!-- Uploaded to: SVG Repo, www.svgrepo.com, Generator: SVG Repo Mixer Tools -->
<svg width="800px" height="800px" viewBox="0 0 400 400" fill="none" xmlns="http://www.w3.org/2000/svg">
<path d="M89.1443 192.43C80.6543 115.569 153.669 125.883 199.887 125.883C247.32 125.883 307.793 112.55 303.084 189.496" stroke="#000000" stroke-opacity="0.9" stroke-width="16" stroke-linecap="round" stroke-linejoin="round"/>
<path d="M98.6992 199.87C167.806 203.966 237.343 201.307 306.756 201.307" stroke="#000000" stroke-opacity="0.9" stroke-width="16" stroke-linecap="round" stroke-linejoin="round"/>
<path opacity="0.503384" d="M104.383 232.888C168.279 226.723 233.252 228.12 297.659 228.12" stroke="#000000" stroke-opacity="0.9" stroke-width="16" stroke-linecap="round" stroke-linejoin="round"/>
<path d="M102.109 260.327C171.282 250.066 246.852 260.327 316.988 260.327" stroke="#000000" stroke-opacity="0.9" stroke-width="16" stroke-linecap="round" stroke-linejoin="round"/>
<path d="M312.32 254.867C310.297 246.163 311.826 236.856 312.32 227.909C316.797 146.539 362.796 252.567 330.689 259.434C323.957 260.873 322.768 258.588 320.01 253.95" stroke="#000000" stroke-opacity="0.9" stroke-width="16" stroke-linecap="round" stroke-linejoin="round"/>
<path d="M92.6692 263.539C93.4839 252.453 92.7121 241.182 91.8288 230.105C83.2534 122.195 26.2314 266.65 85.5431 261.731" stroke="#000000" stroke-opacity="0.9" stroke-width="16" stroke-linecap="round" stroke-linejoin="round"/>
<path d="M75.0205 268.977C74.9613 270.796 73.2377 271.541 72.3555 272.811" stroke="#000000" stroke-opacity="0.9" stroke-width="16" stroke-linecap="round" stroke-linejoin="round"/>
<path d="M326.528 272.629C326.228 273.109 325.932 273.585 325.637 274.066" stroke="#000000" stroke-opacity="0.9" stroke-width="16" stroke-linecap="round" stroke-linejoin="round"/>
<path opacity="0.503384" d="M167.076 149.521C166.796 160.272 167.337 169.458 167.964 178.945" stroke="#000000" stroke-opacity="0.9" stroke-width="16" stroke-linecap="round" stroke-linejoin="round"/>
<path opacity="0.503384" d="M234.242 149.521C235.279 168.617 234.542 160.465 236.02 174.041" stroke="#000000" stroke-opacity="0.9" stroke-width="16" stroke-linecap="round" stroke-linejoin="round"/>
</svg>