<?xml version="1.0" encoding="utf-8"?><!-- Uploaded to: SVG Repo, www.svgrepo.com, Generator: SVG Repo Mixer Tools -->
<svg width="800px" height="800px" viewBox="0 0 400 400" fill="none" xmlns="http://www.w3.org/2000/svg">
<path d="M180.509 116.356C160.715 97.4925 186.274 114.217 186.628 113.3C188.297 108.975 181.526 101.26 184.362 96.8513C185.862 94.5159 192.549 107.432 193.655 107.661C195.213 107.984 199.291 95.6036 200.454 93.7965C203.474 89.0979 202.177 106.721 204.986 106.721C208.347 106.721 213.72 93.6245 217.679 95.6766C219.559 96.6514 214.902 106.898 214.278 108.836C212.024 115.849 244.299 101.009 219.718 118" stroke="#000000" stroke-opacity="0.9" stroke-width="16" stroke-linecap="round" stroke-linejoin="round"/>
<path d="M183.771 127C184.167 132.344 184.421 137.631 184.043 143" stroke="#000000" stroke-opacity="0.9" stroke-width="16" stroke-linecap="round" stroke-linejoin="round"/>
<path d="M217.3 127C215.545 136.302 222.182 145.305 219.234 154" stroke="#000000" stroke-opacity="0.9" stroke-width="16" stroke-linecap="round" stroke-linejoin="round"/>
<path d="M198.952 117.313C164.307 138.246 216 162.053 216 134.656C216 126.801 207.703 131.465 203.328 115" stroke="#000000" stroke-opacity="0.9" stroke-width="16" stroke-linecap="round" stroke-linejoin="round"/>
<path d="M134.232 38.6789C134.005 66.2477 167.639 40.2134 158.39 31.2507C157.42 30.3103 152.483 36.3404 151.188 36.6533C148.759 37.2425 147.959 27.4043 146.078 29.2252C144.929 30.3386 143.766 38.0031 141.898 38.0031C138.627 38.0031 134 20.6436 134 37.329" stroke="#000000" stroke-opacity="0.9" stroke-width="16" stroke-linecap="round" stroke-linejoin="round"/>
<path d="M152 122C183.671 191.587 156.828 256.5 157 336" stroke="#000000" stroke-opacity="0.9" stroke-width="16" stroke-linecap="round" stroke-linejoin="round"/>
<path d="M188 156.47C215.605 152.33 236.18 155.299 239 187" stroke="#000000" stroke-opacity="0.9" stroke-width="16" stroke-linecap="round" stroke-linejoin="round"/>
<path d="M226 175C229.858 229.55 229.591 286.436 241 340" stroke="#000000" stroke-opacity="0.9" stroke-width="16" stroke-linecap="round" stroke-linejoin="round"/>
<path d="M235.801 190.163C255.645 180.993 256.159 168.725 266.197 188.955C266.334 189.23 273.154 198.767 272.997 199.029C266.511 209.922 241.727 210.276 233 222" stroke="#000000" stroke-opacity="0.9" stroke-width="16" stroke-linecap="round" stroke-linejoin="round"/>
<path d="M155 120C160.774 118.355 164.642 114.463 170 116.651" stroke="#000000" stroke-opacity="0.9" stroke-width="16" stroke-linecap="round" stroke-linejoin="round"/>
<path d="M152 57C149.506 84.0293 145.507 85.0707 141 59.5192" stroke="#000000" stroke-opacity="0.9" stroke-width="16" stroke-linecap="round" stroke-linejoin="round"/>
<path d="M132.842 52.2838C211.995 37.103 119.044 81.0206 127.558 54.0039" stroke="#000000" stroke-opacity="0.9" stroke-width="16" stroke-linecap="round" stroke-linejoin="round"/>
<path d="M146.5 83C148.365 94.6678 149.03 107.23 153.5 118" stroke="#000000" stroke-opacity="0.9" stroke-width="16" stroke-linecap="round" stroke-linejoin="round"/>
<path d="M154.5 83C156.365 94.6678 157.03 107.23 161.5 118" stroke="#000000" stroke-opacity="0.9" stroke-width="16" stroke-linecap="round" stroke-linejoin="round"/>
<path d="M214 178C205.423 195.068 187.315 213.222 168 216" stroke="#000000" stroke-opacity="0.9" stroke-width="16" stroke-linecap="round" stroke-linejoin="round"/>
<path d="M217 233C205.235 257.284 185.585 274.241 162 286" stroke="#000000" stroke-opacity="0.9" stroke-width="16" stroke-linecap="round" stroke-linejoin="round"/>
<path d="M130 369.243C135.24 361.046 134.211 348.793 137.392 341.691C140.572 334.589 199.642 336.196 204.71 336.196C212.008 336.196 252.368 334.723 257.53 339.852C261.855 344.151 262.651 365.302 264 372" stroke="#000000" stroke-opacity="0.9" stroke-width="16" stroke-linecap="round" stroke-linejoin="round"/>
</svg>