<?xml version="1.0" encoding="utf-8"?><!-- Uploaded to: SVG Repo, www.svgrepo.com, Generator: SVG Repo Mixer Tools -->
<svg width="800px" height="800px" viewBox="0 0 400 400" fill="none" xmlns="http://www.w3.org/2000/svg">
<path opacity="0.495629" d="M239.947 190.489C255.182 184.269 243.014 222.025 235.968 197.87" stroke="#000000" stroke-opacity="0.9" stroke-width="16" stroke-linecap="round" stroke-linejoin="round"/>
<path opacity="0.495629" d="M202.072 172.37C236.217 99.604 312.976 155.937 281.135 225.283C260.364 270.522 200.166 250.707 203.839 202.675" stroke="#000000" stroke-opacity="0.9" stroke-width="16" stroke-linecap="round" stroke-linejoin="round"/>
<path opacity="0.495629" d="M164.358 167.569C201.7 65.0725 325.548 75.8558 333.655 196.748C335.754 228.027 324.487 265.8 300.081 286.72C239.942 338.258 129.972 261.499 153.956 187.509" stroke="#000000" stroke-opacity="0.9" stroke-width="16" stroke-linecap="round" stroke-linejoin="round"/>
<path d="M210.675 194.16C162.716 171.534 113.94 152.553 65.9995 131.29" stroke="#000000" stroke-opacity="0.9" stroke-width="16" stroke-linecap="round" stroke-linejoin="round"/>
<path d="M189.623 160.611C204.696 173.817 220.013 192.315 220.013 192.315C220.013 192.315 208.273 200.7 185.87 202.137" stroke="#000000" stroke-opacity="0.9" stroke-width="16" stroke-linecap="round" stroke-linejoin="round"/>
</svg>