<?xml version="1.0" encoding="utf-8"?><!-- Uploaded to: SVG Repo, www.svgrepo.com, Generator: SVG Repo Mixer Tools -->
<svg width="800px" height="800px" viewBox="0 0 400 400" fill="none" xmlns="http://www.w3.org/2000/svg">
<path d="M134.393 296.672C128.305 287.116 123.513 276.729 118.021 266.578C60.6105 160.448 189.468 54.1703 259.417 147.006C289.277 186.637 287.945 264.771 247.51 297.474C244.394 299.994 139.453 295.002 137.742 294.264" stroke="#000000" stroke-opacity="0.9" stroke-width="16" stroke-linecap="round" stroke-linejoin="round"/>
<path d="M104.254 220.033C110.4 210.452 81.5218 145.247 82.3006 144.197C83.9631 141.956 97.9102 128.937 99.0448 129.752C108.835 136.79 103.538 150.948 120.626 152.623" stroke="#000000" stroke-opacity="0.9" stroke-width="16" stroke-linecap="round" stroke-linejoin="round"/>
<path d="M278.394 180.71C272.298 169.337 270.952 152.624 278.394 141.388C296.711 113.736 320.171 153.348 317.836 173.488C314.392 203.198 275.79 218.168 275.79 239.694" stroke="#000000" stroke-opacity="0.9" stroke-width="16" stroke-linecap="round" stroke-linejoin="round"/>
<path d="M131.043 140.185C168.704 141.153 210.562 135.213 248.997 138.981" stroke="#000000" stroke-opacity="0.9" stroke-width="16" stroke-linecap="round" stroke-linejoin="round"/>
<path d="M194.672 102.467C197.711 100.95 200.631 99.671 202.114 103.671C209.222 122.832 163.027 98.941 198.393 101.665" stroke="#000000" stroke-opacity="0.9" stroke-width="16" stroke-linecap="round" stroke-linejoin="round"/>
</svg>