<?xml version="1.0" encoding="utf-8"?><!-- Uploaded to: SVG Repo, www.svgrepo.com, Generator: SVG Repo Mixer Tools -->
<svg width="800px" height="800px" viewBox="0 0 400 400" fill="none" xmlns="http://www.w3.org/2000/svg">
<path d="M62 210.115C73.7436 201.503 88.6808 195.1 104.96 193.708C136.766 190.985 165.222 211.924 194.998 209.015C252.583 203.383 281.5 170.5 331 199" stroke="#000000" stroke-opacity="0.9" stroke-width="16" stroke-linecap="round" stroke-linejoin="round"/>
<path d="M146 180C164.54 143.082 219.143 128.958 247 175.094" stroke="#000000" stroke-opacity="0.9" stroke-width="16" stroke-linecap="round" stroke-linejoin="round"/>
<path d="M126 165C122.844 163.842 119.738 162.368 117 161" stroke="#000000" stroke-opacity="0.9" stroke-width="12" stroke-linecap="round" stroke-linejoin="round"/>
<path d="M153 138C150.383 134.882 146.863 133.828 145 131L153 138Z" stroke="#000000" stroke-opacity="0.9" stroke-width="12" stroke-linecap="round" stroke-linejoin="round"/>
<path d="M180 121C178.364 116.545 176.164 115.04 175 111L180 121Z" stroke="#000000" stroke-opacity="0.9" stroke-width="12" stroke-linecap="round" stroke-linejoin="round"/>
<path d="M213 120C213.842 116.331 213.591 112.463 215 109" stroke="#000000" stroke-opacity="0.9" stroke-width="12" stroke-linecap="round" stroke-linejoin="round"/>
<path d="M245 135C247.287 132.14 248.986 128.987 251 126" stroke="#000000" stroke-opacity="0.9" stroke-width="12" stroke-linecap="round" stroke-linejoin="round"/>
<path d="M267 161C268.971 160.286 273.571 158 275 158" stroke="#000000" stroke-opacity="0.9" stroke-width="12" stroke-linecap="round" stroke-linejoin="round"/>
<path d="M189 209.5C204.289 209.5 223 218.952 216.979 224.92C196.092 242.824 100.5 240 181 299.5" stroke="#000000" stroke-opacity="0.9" stroke-width="16" stroke-linecap="round" stroke-linejoin="round"/>
<path d="M210.513 210C233.915 210 251.362 219.862 235.111 234.829C225.36 243.809 202.378 252.56 194.712 261.768C187.069 268.752 243.226 295.381 253 304" stroke="#000000" stroke-opacity="0.9" stroke-width="16" stroke-linecap="round" stroke-linejoin="round"/>
</svg>