<?xml version="1.0" encoding="utf-8"?><!-- Uploaded to: SVG Repo, www.svgrepo.com, Generator: SVG Repo Mixer Tools -->
<svg width="800px" height="800px" viewBox="0 0 400 400" fill="none" xmlns="http://www.w3.org/2000/svg">
<path d="M96.6356 149C95.3086 166.579 96.6322 184.26 96.1041 201.873C95.6699 216.4 96.7051 230.466 97.1706 244.977C99.3593 313.475 86.6097 302.185 146.206 259.343C151.32 255.668 156.201 247.274 163.264 247.274C177.194 247.274 213.661 289.059 221.7 298.424C233.536 312.216 283.843 255.818 298.642 246.701" stroke="#000000" stroke-opacity="0.9" stroke-width="16" stroke-linecap="round" stroke-linejoin="round"/>
<path d="M96.1035 150.723C110.302 143.662 122.086 132.432 135.012 123.138C188.144 84.9455 182.606 107.649 232.017 146.127C233.559 147.326 241.626 156.469 243.745 156.469C247.16 156.469 246.292 149.476 248.539 146.7C263.224 128.607 281.445 114.403 298.11 99" stroke="#000000" stroke-opacity="0.9" stroke-width="16" stroke-linecap="round" stroke-linejoin="round"/>
<path d="M298.643 106.469C299.042 153.592 299.48 201.454 303.44 248.423" stroke="#000000" stroke-opacity="0.9" stroke-width="16" stroke-linecap="round" stroke-linejoin="round"/>
<path d="M164.862 113.942C162.371 113.036 167.381 105.008 168.058 106.469C173.325 117.83 155.159 213.598 160.065 242.677" stroke="#000000" stroke-opacity="0.9" stroke-width="16" stroke-linecap="round" stroke-linejoin="round"/>
<path d="M241.081 161.643C238.799 205.773 237.155 250.499 233.084 294.401" stroke="#000000" stroke-opacity="0.9" stroke-width="16" stroke-linecap="round" stroke-linejoin="round"/>
</svg>