<?xml version="1.0" encoding="utf-8"?><!-- Uploaded to: SVG Repo, www.svgrepo.com, Generator: SVG Repo Mixer Tools -->
<svg width="800px" height="800px" viewBox="0 0 400 400" fill="none" xmlns="http://www.w3.org/2000/svg">
<path d="M185.022 146.675C203.643 117.79 237.605 164.299 213.74 183.336C195.195 198.131 173.423 175.071 182.13 155.007" stroke="#000000" stroke-opacity="0.9" stroke-width="16" stroke-linecap="round" stroke-linejoin="round"/>
<path d="M189.15 168.833C201.596 166.613 200.203 168.802 203.059 156.391" stroke="#000000" stroke-opacity="0.9" stroke-width="16" stroke-linecap="round" stroke-linejoin="round"/>
<path d="M172.303 126.168C185.826 124.572 195.173 123.634 200.344 123.354C216.548 122.476 224.715 123.299 226.344 123.354C229.956 123.476 232.857 125.874 233.676 130.932C234.495 135.99 237.19 193.657 231.306 198.372C227.844 201.146 198.74 202.799 179.283 202.114C172.803 201.885 166.101 200.968 165.102 198.372C161.358 188.635 161.864 134.804 165.102 128.229" stroke="#000000" stroke-opacity="0.9" stroke-width="16" stroke-linecap="round" stroke-linejoin="round"/>
<path opacity="0.503384" d="M162.564 126.175C147.995 118.01 156.15 87.9416 172.79 91.9571C176.941 92.9587 181.749 106.177 183.834 106.177C187.424 106.177 193.419 80.8978 203.059 79.1534C215.602 76.8823 213.458 100.581 216.451 100.581C222.128 100.581 254.392 68.7245 239.598 108.9" stroke="#000000" stroke-opacity="0.9" stroke-width="16" stroke-linecap="round" stroke-linejoin="round"/>
<path opacity="0.503384" d="M157.992 217.864C162.829 222.71 173.346 225.13 180.081 224.086C184.618 223.38 189.401 212.387 191.943 216.53C208.015 242.717 209.066 217.864 216.077 217.864C223.178 217.864 245.953 233.983 243.893 216.086" stroke="#000000" stroke-opacity="0.9" stroke-width="16" stroke-linecap="round" stroke-linejoin="round"/>
<path d="M194.323 244.045C192.367 262.746 194.175 281.94 192.28 300.477" stroke="#000000" stroke-opacity="0.9" stroke-width="16" stroke-linecap="round" stroke-linejoin="round"/>
<path d="M191.638 302.521C206.062 311.813 182.685 334.968 187.959 309.189" stroke="#000000" stroke-opacity="0.9" stroke-width="16" stroke-linecap="round" stroke-linejoin="round"/>
<path d="M213.285 250.152C212.173 258.673 211.648 267.322 211.648 275.925" stroke="#000000" stroke-opacity="0.9" stroke-width="16" stroke-linecap="round" stroke-linejoin="round"/>
<path d="M213.215 278.59C217.934 284.283 209.975 292.81 209.126 280.812" stroke="#000000" stroke-opacity="0.9" stroke-width="16" stroke-linecap="round" stroke-linejoin="round"/>
</svg>