<?xml version="1.0" encoding="utf-8"?><!-- Uploaded to: SVG Repo, www.svgrepo.com, Generator: SVG Repo Mixer Tools -->
<svg width="800px" height="800px" viewBox="0 0 400 400" fill="none" xmlns="http://www.w3.org/2000/svg">
<path d="M157.204 217.384C180.751 192.462 212.375 168.788 234.123 146.008C236.925 143.074 240.188 78.4374 281.788 100.63" stroke="#000000" stroke-opacity="0.9" stroke-width="16" stroke-linecap="round" stroke-linejoin="round"/>
<path d="M280.51 110.142C275.028 112.5 260.477 128.891 269.78 133.874C270.97 134.512 273.116 137.498 274.252 137.681C287.666 139.851 297.55 112.104 303.964 125.852C312.169 143.437 291.373 159.837 279.044 165.123C273.077 167.68 263.413 161.819 260.721 163.552C260.111 163.942 170.916 246.579 169.107 249.16C168.851 249.529 173.757 272.966 169.841 281.365C163.628 294.678 142.765 307.135 128.795 304.142C121.012 302.473 148.652 271.117 142.51 260.493C140.847 257.617 137.222 256.031 135.857 254.502C128.477 246.237 104.696 280.67 99.4812 275.078C86.3068 260.964 103.08 219.754 130.995 224.029" stroke="#000000" stroke-opacity="0.9" stroke-width="16" stroke-linecap="round" stroke-linejoin="round"/>
</svg>