<?xml version="1.0" encoding="utf-8"?><!-- Uploaded to: SVG Repo, www.svgrepo.com, Generator: SVG Repo Mixer Tools -->
<svg width="800px" height="800px" viewBox="0 0 400 400" fill="none" xmlns="http://www.w3.org/2000/svg">
<path d="M99.9112 169.812C172.545 136.359 51.6761 116.211 67.4341 155.869C71.3904 165.821 181.924 207.873 199.502 218.19" stroke="#000000" stroke-opacity="0.9" stroke-width="16" stroke-linecap="round" stroke-linejoin="round"/>
<path d="M107.823 228.349C120.706 238.148 118.282 248.336 108.691 259.521C97.9681 272.029 59.8755 261.913 70.1465 244.8C78.62 230.678 181.58 180.497 203.111 161.663" stroke="#000000" stroke-opacity="0.9" stroke-width="16" stroke-linecap="round" stroke-linejoin="round"/>
<path opacity="0.503384" d="M205.516 190.128C215.07 189.526 224.767 189.778 234.381 189.778" stroke="#000000" stroke-opacity="0.9" stroke-width="16" stroke-linecap="round" stroke-linejoin="round"/>
<path opacity="0.503384" d="M259.637 190.452C268.901 190.224 278.161 190.008 287.299 189.402" stroke="#000000" stroke-opacity="0.9" stroke-width="16" stroke-linecap="round" stroke-linejoin="round"/>
<path opacity="0.503384" d="M310.152 190.627C317.833 190.49 325.405 189.732 333.004 189.227" stroke="#000000" stroke-opacity="0.9" stroke-width="16" stroke-linecap="round" stroke-linejoin="round"/>
</svg>