<?xml version="1.0" encoding="utf-8"?><!-- Uploaded to: SVG Repo, www.svgrepo.com, Generator: SVG Repo Mixer Tools -->
<svg width="800px" height="800px" viewBox="0 0 400 400" fill="none" xmlns="http://www.w3.org/2000/svg">
<path d="M167.002 269.605C164.76 257.775 166.341 227.942 162.536 203.527C158.745 179.202 154.623 160.153 157.498 156.098C168.485 140.605 178.671 185.076 178.671 183.012C178.671 178.826 173.482 131.947 185.987 136.133C197.529 139.995 192.106 183.836 200.711 175.198C208.247 167.629 194.789 128.094 210.567 123.567C224.457 119.578 217.704 168.037 223.398 168.037C225.252 168.037 228.71 133.135 237.662 136.133C251.046 140.613 241.55 191.655 241.55 201.239C241.55 214.342 277.091 161.513 279.604 194.621C279.806 197.285 260.982 216.78 247.293 235.14C240.966 243.627 234.823 262.698 230.464 268.051" stroke="#000000" stroke-opacity="0.9" stroke-width="16" stroke-linecap="round" stroke-linejoin="round"/>
<path d="M90.9648 151.51C90.9648 164.205 90.9648 238.822 90.9648 241.752C90.9648 244.682 156.769 313.673 158.11 313.673C159.451 313.673 194.417 310.605 204.89 310.605C211.872 310.605 230.326 312.07 260.253 315C291.935 278.823 308.92 259.472 311.209 256.947C313.498 254.423 319.44 249.358 329.035 241.752C327.849 187.136 327.256 158.212 327.256 154.979C327.256 150.13 266.751 93.123 265.024 88.3523C263.297 83.5817 216.917 86.8951 207.776 86.8951C201.683 86.8951 187.201 86.2634 164.331 85C126.225 123.089 104.775 143.11 99.9813 145.064" stroke="#000000" stroke-opacity="0.9" stroke-width="16" stroke-linecap="round" stroke-linejoin="round"/>
</svg>