<?xml version="1.0" encoding="utf-8"?><!-- Uploaded to: SVG Repo, www.svgrepo.com, Generator: SVG Repo Mixer Tools -->
<svg width="800px" height="800px" viewBox="0 0 400 400" fill="none" xmlns="http://www.w3.org/2000/svg">
<path d="M51 254.465C53.9069 216.993 58.4598 179.014 58.4598 141.325" stroke="#000000" stroke-opacity="0.9" stroke-width="16" stroke-linecap="round" stroke-linejoin="round"/>
<path d="M64.6758 135.11C125.117 134.505 186.896 132.722 247.44 127.65" stroke="#000000" stroke-opacity="0.9" stroke-width="16" stroke-linecap="round" stroke-linejoin="round"/>
<path d="M257.387 131.38C276.495 148.834 291.598 169.771 305.875 191.058" stroke="#000000" stroke-opacity="0.9" stroke-width="16" stroke-linecap="round" stroke-linejoin="round"/>
<path d="M59.7031 196.031C150.889 194.849 250.323 181.626 343.175 190.207" stroke="#000000" stroke-opacity="0.9" stroke-width="16" stroke-linecap="round" stroke-linejoin="round"/>
<path d="M344.844 191.761C344.864 210.437 344.327 229.312 345.998 247.71" stroke="#000000" stroke-opacity="0.9" stroke-width="16" stroke-linecap="round" stroke-linejoin="round"/>
<path d="M343.174 256.952C248.644 260.242 151.242 264.411 55.9727 264.411" stroke="#000000" stroke-opacity="0.9" stroke-width="16" stroke-linecap="round" stroke-linejoin="round"/>
<path d="M190.047 145.056C192.941 182.686 192.931 220.404 192.931 258.196" stroke="#000000" stroke-opacity="0.9" stroke-width="16" stroke-linecap="round" stroke-linejoin="round"/>
<path d="M202.68 138.194C280.408 127.3 245.07 127.831 256.141 182.354" stroke="#000000" stroke-opacity="0.9" stroke-width="16" stroke-linecap="round" stroke-linejoin="round"/>
<path d="M262.359 248.7C282.699 208.375 314.545 219.387 320.794 259.439" stroke="#000000" stroke-opacity="0.9" stroke-width="16" stroke-linecap="round" stroke-linejoin="round"/>
<path d="M263.605 246.416C281.548 204.144 340.838 251.4 311.569 280.668C285.373 306.854 258.64 275.655 269.883 247.557" stroke="#000000" stroke-opacity="0.9" stroke-width="16" stroke-linecap="round" stroke-linejoin="round"/>
<path d="M75.5885 236.972C98.3012 202.184 139.727 258.198 110.617 281.126C87.9971 298.944 61.4405 271.172 72.0605 247.007" stroke="#000000" stroke-opacity="0.9" stroke-width="16" stroke-linecap="round" stroke-linejoin="round"/>
<path opacity="0.503384" d="M127.505 152.516L128.109 163.589L138.028 163.129C134.711 163.417 131.408 163.579 128.116 163.702L128.659 173.652C128.373 170.341 128.145 167.026 127.962 163.707C125.498 163.799 123.038 163.868 120.582 163.951L119.293 163.996L127.956 163.595C127.802 160.785 127.682 157.973 127.587 155.161L127.505 152.516Z" stroke="#000000" stroke-opacity="0.9" stroke-width="16" stroke-linecap="round" stroke-linejoin="round"/>
<path opacity="0.503384" d="M246.035 109C269.081 118.872 221.052 129.282 237.13 112.75" stroke="#000000" stroke-opacity="0.9" stroke-width="16" stroke-linecap="round" stroke-linejoin="round"/>
</svg>