<?xml version="1.0" encoding="utf-8"?><!-- Uploaded to: SVG Repo, www.svgrepo.com, Generator: SVG Repo Mixer Tools -->
<svg width="800px" height="800px" viewBox="0 0 400 400" fill="none" xmlns="http://www.w3.org/2000/svg">
<path d="M363.468 249.716C347.548 159.645 232.702 190.146 168.382 190.146C162.26 190.146 111.55 193.872 112.562 186.74C115.772 164.11 157.207 133.774 172.891 160.074C184.436 179.438 176.251 213.727 174.325 235.091C257.114 232.884 297.304 232.884 294.894 235.091" stroke="#000000" stroke-opacity="0.9" stroke-width="16" stroke-linecap="round" stroke-linejoin="round"/>
<path d="M265.012 176.707C223.501 94.7457 108.976 136.526 66.2008 196.593C23.4256 256.66 37.2368 255.108 48.0764 255.108C55.5573 255.108 55.224 210.099 92.5859 210.099C128.329 210.099 121.133 253.4 124.56 253.4C154.514 253.4 185.659 253.4 210.826 253.4C228.514 253.4 279.437 254.275 280.309 253.4C287.325 246.363 318.331 190.755 339.247 218.724C347.734 230.067 348.555 232.981 346.012 248.288" stroke="#000000" stroke-opacity="0.9" stroke-width="16" stroke-linecap="round" stroke-linejoin="round"/>
<path d="M70.3337 226.168C108.634 199.242 125.456 231.931 117.265 252.841C108.821 274.397 51.1265 280.543 64.6873 241.633" stroke="#000000" stroke-opacity="0.9" stroke-width="16" stroke-linecap="round" stroke-linejoin="round"/>
<path d="M305.634 225.852C313.252 214.372 328.711 212.722 339.131 221.916C356.014 236.804 353.718 249.861 342.27 260.038C324.662 275.693 295.731 275.693 300.61 238.793" stroke="#000000" stroke-opacity="0.9" stroke-width="16" stroke-linecap="round" stroke-linejoin="round"/>
<path d="M198.282 143.845C246.218 113.316 242.571 208.982 195.955 176.965C185.193 169.573 187.642 158.576 190.717 147.268" stroke="#000000" stroke-opacity="0.9" stroke-width="16" stroke-linecap="round" stroke-linejoin="round"/>
</svg>