<?xml version="1.0" encoding="utf-8"?><!-- Uploaded to: SVG Repo, www.svgrepo.com, Generator: SVG Repo Mixer Tools -->
<svg width="800px" height="800px" viewBox="0 0 400 400" fill="none" xmlns="http://www.w3.org/2000/svg">
<path d="M51.0335 201.79C56.0556 188.948 65.4479 181.781 77.792 176.189C173.973 132.622 171.491 304.369 85.286 278.597C59.8261 270.983 51.8419 259.17 46.2148 234.858" stroke="#000000" stroke-opacity="0.9" stroke-width="16" stroke-linecap="round" stroke-linejoin="round"/>
<path d="M249.111 203.866C283.967 137.058 381.304 183.529 346.324 253.661C320.098 306.237 246.441 287.965 246.441 231.706" stroke="#000000" stroke-opacity="0.9" stroke-width="16" stroke-linecap="round" stroke-linejoin="round"/>
<path d="M142.708 125.649C161.242 156.382 169.865 200.931 183.718 233" stroke="#000000" stroke-opacity="0.9" stroke-width="16" stroke-linecap="round" stroke-linejoin="round"/>
<path d="M266.945 160.629C237.33 183.582 215.434 213.843 183.719 234.206" stroke="#000000" stroke-opacity="0.9" stroke-width="16" stroke-linecap="round" stroke-linejoin="round"/>
<path d="M256.092 128.062C268.907 163.556 280.739 203.013 303.133 233" stroke="#000000" stroke-opacity="0.9" stroke-width="16" stroke-linecap="round" stroke-linejoin="round"/>
<path d="M149.946 141.33C135.303 172.564 119.239 205.45 98.0801 233" stroke="#000000" stroke-opacity="0.9" stroke-width="16" stroke-linecap="round" stroke-linejoin="round"/>
<path opacity="0.503384" d="M108.499 226.529C262.128 192.712 191.67 299.632 95.6699 231.498" stroke="#000000" stroke-opacity="0.9" stroke-width="16" stroke-linecap="round" stroke-linejoin="round"/>
<path d="M124.616 116C136.437 122.274 151.299 127.086 163.214 128.062" stroke="#000000" stroke-opacity="0.9" stroke-width="16" stroke-linecap="round" stroke-linejoin="round"/>
<path d="M253.679 124.636C262.321 113.139 326.546 118.544 293.996 132.887" stroke="#000000" stroke-opacity="0.9" stroke-width="16" stroke-linecap="round" stroke-linejoin="round"/>
</svg>