<?xml version="1.0" encoding="utf-8"?><!-- Uploaded to: SVG Repo, www.svgrepo.com, Generator: SVG Repo Mixer Tools -->
<svg width="800px" height="800px" viewBox="0 0 400 400" fill="none" xmlns="http://www.w3.org/2000/svg">
<path d="M44.6222 218.232C44.1469 212.529 33.0853 206.909 44.1469 205.078C56.744 202.992 67.9222 199.371 80.189 197.622C141.523 188.9 361.955 185.82 353.461 205.078C352.94 206.26 355.051 208.395 353.461 209.106C340.685 214.818 311.351 206.106 300.932 212.529C269.107 232.142 309.238 236.679 232.967 236.679C216.154 236.679 196.79 237.083 179.998 237.083C140.982 237.083 80.7806 228.369 44.1469 221.11" stroke="#000000" stroke-opacity="0.9" stroke-width="16" stroke-linecap="round" stroke-linejoin="round"/>
<path d="M335.543 214.15C352.473 241.89 290.713 261.39 294.104 219.977" stroke="#000000" stroke-opacity="0.9" stroke-width="16" stroke-linecap="round" stroke-linejoin="round"/>
<path d="M141.527 240.183C134.936 266.402 88.5402 258.102 98.3704 228.99" stroke="#000000" stroke-opacity="0.9" stroke-width="16" stroke-linecap="round" stroke-linejoin="round"/>
<path d="M199.662 145.243C232.38 136.412 227.935 183.728 198.807 177.084C181.905 173.222 181.964 147.58 197.957 144" stroke="#000000" stroke-opacity="0.9" stroke-width="16" stroke-linecap="round" stroke-linejoin="round"/>
<path opacity="0.503384" d="M237.309 161.538C248.441 168.707 255.421 178.385 261.591 188.518" stroke="#000000" stroke-opacity="0.9" stroke-width="16" stroke-linecap="round" stroke-linejoin="round"/>
<path d="M146.099 185.308C138.939 180.469 132.447 178.05 126.625 178.05C120.802 178.05 117.675 182.889 117.244 192.566C102.145 188.596 52.6968 181.34 39 183.524L53.9476 192.566" stroke="#000000" stroke-opacity="0.9" stroke-width="16" stroke-linecap="round" stroke-linejoin="round"/>
<path d="M358.054 216.848C366.336 228.994 346.987 227.366 338.486 228.99" stroke="#000000" stroke-opacity="0.9" stroke-width="16" stroke-linecap="round" stroke-linejoin="round"/>
<path opacity="0.503384" d="M105.104 207.405C162.187 204.087 234.327 195.528 293.969 201.21" stroke="#000000" stroke-opacity="0.9" stroke-width="16" stroke-linecap="round" stroke-linejoin="round"/>
</svg>