<?xml version="1.0" encoding="utf-8"?><!-- Uploaded to: SVG Repo, www.svgrepo.com, Generator: SVG Repo Mixer Tools -->
<svg width="800px" height="800px" viewBox="0 0 400 400" fill="none" xmlns="http://www.w3.org/2000/svg">
<path d="M191.076 280.947C147.96 284.056 32.1847 280.947 70.8637 173.43C109.543 65.9132 274.74 81.5325 320.435 138.039C354.331 187.815 338.728 278.225 281.235 280.947" stroke="#000000" stroke-opacity="0.9" stroke-width="16" stroke-linecap="round" stroke-linejoin="round"/>
<path opacity="0.503384" d="M110.934 271.212C104.618 198.652 115.445 162.373 143.416 162.373C171.386 162.373 182.173 201.595 175.776 280.039" stroke="#000000" stroke-opacity="0.9" stroke-width="16" stroke-linecap="round" stroke-linejoin="round"/>
<path opacity="0.503384" d="M218.545 136.729C240.209 110.056 293.284 145.859 270.426 177.265C244.353 213.09 195.039 184.666 213.345 148.848" stroke="#000000" stroke-opacity="0.9" stroke-width="16" stroke-linecap="round" stroke-linejoin="round"/>
<path d="M209.007 248.034C230.672 221.361 283.747 257.163 260.889 288.569C234.816 324.395 185.502 295.97 203.808 260.153" stroke="#000000" stroke-opacity="0.9" stroke-width="16" stroke-linecap="round" stroke-linejoin="round"/>
<path d="M227.455 266.363C232.613 260.012 245.25 268.536 239.808 276.014C233.6 284.544 221.859 277.776 226.217 269.248" stroke="#000000" stroke-opacity="0.9" stroke-width="16" stroke-linecap="round" stroke-linejoin="round"/>
<path d="M58.3086 260.53C70.6524 270.037 77.9322 272.089 96.4706 272.089" stroke="#000000" stroke-opacity="0.9" stroke-width="16" stroke-linecap="round" stroke-linejoin="round"/>
<path opacity="0.503384" d="M58.3086 207.201C69.6238 208.258 76.2969 208.486 93.2904 208.486" stroke="#000000" stroke-opacity="0.9" stroke-width="16" stroke-linecap="round" stroke-linejoin="round"/>
<path opacity="0.503384" d="M217.313 162.679C233.258 163.735 242.661 163.963 266.606 163.963" stroke="#000000" stroke-opacity="0.9" stroke-width="16" stroke-linecap="round" stroke-linejoin="round"/>
<path opacity="0.503384" d="M191.875 209.096C241.25 211.209 270.369 211.665 344.523 211.665" stroke="#000000" stroke-opacity="0.9" stroke-width="16" stroke-linecap="round" stroke-linejoin="round"/>
</svg>