<?xml version="1.0" encoding="utf-8"?><!-- Uploaded to: SVG Repo, www.svgrepo.com, Generator: SVG Repo Mixer Tools -->
<svg width="800px" height="800px" viewBox="0 0 400 400" fill="none" xmlns="http://www.w3.org/2000/svg">
<path d="M185.502 306.891C227.175 305.307 267.728 299.755 309.567 303.393C310.561 303.479 333.029 305.302 333.249 305.007C335.131 243.966 338.656 199.652 336.463 191.977" stroke="#000000" stroke-opacity="0.9" stroke-width="16" stroke-linecap="round" stroke-linejoin="round"/>
<path d="M143.519 308.506C143.397 221.756 140.153 204.762 143.788 201.127C145.158 199.757 218.775 199.781 230.582 199.781" stroke="#000000" stroke-opacity="0.9" stroke-width="16" stroke-linecap="round" stroke-linejoin="round"/>
<path d="M219.143 199.781C218.397 230.629 219.412 273.504 219.412 298.549" stroke="#000000" stroke-opacity="0.9" stroke-width="16" stroke-linecap="round" stroke-linejoin="round"/>
<path d="M172.853 203.818C172.723 209.791 167.496 272.146 167.963 272.613C169.043 273.692 213.966 267.906 219.142 267.33" stroke="#000000" stroke-opacity="0.9" stroke-width="16" stroke-linecap="round" stroke-linejoin="round"/>
<path d="M319.256 186.594C317.155 202.901 320.387 219.855 316.834 235.843" stroke="#000000" stroke-opacity="0.9" stroke-width="16" stroke-linecap="round" stroke-linejoin="round"/>
<path d="M219.143 235.844C260.318 231.538 295.015 234.093 334.057 237.997" stroke="#000000" stroke-opacity="0.9" stroke-width="16" stroke-linecap="round" stroke-linejoin="round"/>
<path d="M165.856 290.744C186.932 257.126 230.206 296.898 207.57 325.192C183.824 354.874 149.896 334.037 157.783 298.549" stroke="#000000" stroke-opacity="0.9" stroke-width="16" stroke-linecap="round" stroke-linejoin="round"/>
<path d="M236.635 281.594C264.082 253.245 301 298.72 276.734 325.192C250.649 353.649 223.953 321.005 232.06 292.628" stroke="#000000" stroke-opacity="0.9" stroke-width="16" stroke-linecap="round" stroke-linejoin="round"/>
<path d="M256.281 303.124C269.292 311.092 284.077 315.278 297.188 322.769" stroke="#000000" stroke-opacity="0.9" stroke-width="16" stroke-linecap="round" stroke-linejoin="round"/>
<path d="M290.458 311.736C308.421 294.702 321.897 335.87 300.954 337.033C292.237 337.517 278.515 323.824 288.574 317.118" stroke="#000000" stroke-opacity="0.9" stroke-width="16" stroke-linecap="round" stroke-linejoin="round"/>
<path d="M316.564 312.274C330.385 300.576 342.709 322.038 332.98 333.535C322.643 345.752 307.947 332.744 312.258 319.809" stroke="#000000" stroke-opacity="0.9" stroke-width="16" stroke-linecap="round" stroke-linejoin="round"/>
<path d="M344.284 306.892C339.471 341.153 358.273 329.886 379 332.189" stroke="#000000" stroke-opacity="0.9" stroke-width="16" stroke-linecap="round" stroke-linejoin="round"/>
<path d="M344.283 306.892C355.258 312.205 369.427 325.352 379 332.189" stroke="#000000" stroke-opacity="0.9" stroke-width="16" stroke-linecap="round" stroke-linejoin="round"/>
<path d="M316.295 185.787C291.805 168.025 346.382 174.402 346.975 175.291C348.369 177.383 344.704 181.688 343.746 183.365" stroke="#000000" stroke-opacity="0.9" stroke-width="16" stroke-linecap="round" stroke-linejoin="round"/>
<path d="M299.339 179.059C287.529 185.511 281.153 175.121 280.77 163.988C280.458 154.952 289.105 152.069 288.574 152.954C280.85 165.828 265.128 139 265.129 122.139C265.13 110.5 276.318 96.5981 282.384 96.977C284.861 97.132 288.206 104.909 287.229 102.629C282.257 91.0289 290.319 68.8409 301.223 63.0678C314.748 55.9075 331.237 68.7344 337.016 80.2915C339.273 84.8035 335.487 73.5153 348.857 77.6003C401.498 96.977 360.893 126.237 361.998 129C364.454 135.139 373.741 140.487 367.427 148.379" stroke="#000000" stroke-opacity="0.5" stroke-width="16" stroke-linecap="round" stroke-linejoin="round"/>
<path d="M340.246 243.917C353.387 259.288 355.127 278.602 342.399 294.512" stroke="#000000" stroke-opacity="0.9" stroke-width="16" stroke-linecap="round" stroke-linejoin="round"/>
<path d="M110.507 305C113.065 225.03 114.836 213.336 113.594 212.227C68.7313 213.32 44.9873 211 21 211" stroke="#000000" stroke-opacity="0.9" stroke-width="16" stroke-linecap="round" stroke-linejoin="round"/>
<path d="M114 313C87.6188 313 43.2073 313 21 313" stroke="#000000" stroke-opacity="0.9" stroke-width="16" stroke-linecap="round" stroke-linejoin="round"/>
<path d="M63.0607 300.771C88.2908 284.869 97.1874 331.298 71.7366 336.388C50.1079 340.714 50.9783 309.201 61.2345 298.944" stroke="#000000" stroke-opacity="0.9" stroke-width="16" stroke-linecap="round" stroke-linejoin="round"/>
<path d="M120.094 308.99C127.796 309.228 135.722 310.084 143.382 308.99" stroke="#000000" stroke-opacity="0.9" stroke-width="16" stroke-linecap="round" stroke-linejoin="round"/>
<path d="M265.145 230.006C264.355 210.35 293.562 208.58 290.076 229.497" stroke="#000000" stroke-opacity="0.9" stroke-width="16" stroke-linecap="round" stroke-linejoin="round"/>
</svg>