<?xml version="1.0" encoding="utf-8"?><!-- Uploaded to: SVG Repo, www.svgrepo.com, Generator: SVG Repo Mixer Tools -->
<svg width="800px" height="800px" viewBox="0 0 400 400" fill="none" xmlns="http://www.w3.org/2000/svg">
<path d="M106.142 333.553C117.537 241.607 129.675 149.104 139.868 57" stroke="#000000" stroke-opacity="0.9" stroke-width="16" stroke-linecap="round" stroke-linejoin="round"/>
<path d="M139.867 63.7451C156.215 126.103 160.047 305.236 178.989 342.996" stroke="#000000" stroke-opacity="0.9" stroke-width="16" stroke-linecap="round" stroke-linejoin="round"/>
<path d="M94 119.055C109.05 106.766 122.16 92.42 135.82 78.584" stroke="#000000" stroke-opacity="0.9" stroke-width="16" stroke-linecap="round" stroke-linejoin="round"/>
<path d="M139.867 81.2832C193.226 99.1573 251.79 99.1108 305.799 110.962" stroke="#000000" stroke-opacity="0.9" stroke-width="16" stroke-linecap="round" stroke-linejoin="round"/>
<path d="M98.0469 119.056C173.479 117.891 249.331 115.009 324.686 115.009" stroke="#000000" stroke-opacity="0.9" stroke-width="16" stroke-linecap="round" stroke-linejoin="round"/>
<path d="M312.46 119.056C311.853 145.989 311.274 173.022 311.274 199.998" stroke="#000000" stroke-opacity="0.9" stroke-width="16" stroke-linecap="round" stroke-linejoin="round"/>
<path d="M263.57 206.824C340.659 198.6 342.755 177.722 342.755 246.146C342.755 248.444 344.595 268.635 342.755 269.863C340.642 271.27 310.957 267.003 306.591 267.365C238.638 273.035 266.075 269.33 258.583 209.323" stroke="#000000" stroke-opacity="0.9" stroke-width="16" stroke-linecap="round" stroke-linejoin="round"/>
<path d="M112.887 321.413C122.894 317.02 132.054 309.816 142.215 305.732C237.619 267.36 117.255 274.869 117.255 251.779C117.255 242.454 165.921 225.376 165.921 218.528C165.921 207.15 128.461 208.397 124.744 193.433C121.198 179.179 189.729 167.407 132.855 141.99" stroke="#000000" stroke-opacity="0.9" stroke-width="16" stroke-linecap="round" stroke-linejoin="round"/>
</svg>