<?xml version="1.0" encoding="utf-8"?><!-- Uploaded to: SVG Repo, www.svgrepo.com, Generator: SVG Repo Mixer Tools -->
<svg width="800px" height="800px" viewBox="0 0 400 400" fill="none" xmlns="http://www.w3.org/2000/svg">
<path d="M241.834 280.52C246.392 265.923 259.349 258.279 272.423 252.336C324.57 228.633 380.641 298.35 341.508 343.074C303.917 386.035 224.195 356.573 239.084 297.017" stroke="#000000" stroke-opacity="0.9" stroke-width="16" stroke-linecap="round" stroke-linejoin="round"/>
<path d="M48.6723 284.3C57.5183 270.653 69.8993 258.677 85.4483 253.023C143.12 232.052 174.891 296.736 143.19 340.324C108.097 388.578 41.2593 357.934 46.2663 302.86" stroke="#000000" stroke-opacity="0.9" stroke-width="16" stroke-linecap="round" stroke-linejoin="round"/>
<path d="M167 109.951C194 115 205.321 100.389 213.324 90.4579C231.255 68.2045 201.274 28.3428 174.999 35.9512C146.004 44.3477 120 82.4512 161 109.951" stroke="#000000" stroke-opacity="0.9" stroke-width="16" stroke-linecap="round" stroke-linejoin="round"/>
<path d="M156.939 130.321C169.158 159.709 198.715 182.833 229.117 192.187" stroke="#000000" stroke-opacity="0.9" stroke-width="16" stroke-linecap="round" stroke-linejoin="round"/>
<path d="M156.94 130.321C144.934 145.337 126.549 179.105 126.549 199.373" stroke="#000000" stroke-opacity="0.9" stroke-width="16" stroke-linecap="round" stroke-linejoin="round"/>
<path d="M126.549 199.373C144.025 216.735 176.389 223.476 200.59 230.736" stroke="#000000" stroke-opacity="0.9" stroke-width="16" stroke-linecap="round" stroke-linejoin="round"/>
<path d="M200.589 230.736C207.092 262.018 196.135 301.429 188.559 331.732" stroke="#000000" stroke-opacity="0.9" stroke-width="16" stroke-linecap="round" stroke-linejoin="round"/>
<path d="M126.549 199.373C152.628 208.834 187.165 211.761 215.029 214.548" stroke="#000000" stroke-opacity="0.9" stroke-width="16" stroke-linecap="round" stroke-linejoin="round"/>
<path d="M215.029 214.548C213.464 227.775 203.474 266.285 200.59 278.156" stroke="#000000" stroke-opacity="0.9" stroke-width="16" stroke-linecap="round" stroke-linejoin="round"/>
<path d="M229.805 192.531C240.381 177.095 281.084 185.864 250.771 195.968" stroke="#000000" stroke-opacity="0.9" stroke-width="16" stroke-linecap="round" stroke-linejoin="round"/>
<path d="M248.02 196.312C257.554 224.561 264.697 253.559 274.142 281.894" stroke="#000000" stroke-opacity="0.9" stroke-width="16" stroke-linecap="round" stroke-linejoin="round"/>
<path d="M275.518 283.269C282.851 291.516 288.517 300.602 295.109 309.391" stroke="#000000" stroke-opacity="0.9" stroke-width="16" stroke-linecap="round" stroke-linejoin="round"/>
<path d="M153.145 222.092C159.147 248.95 167.01 265.487 179.967 295.081" stroke="#000000" stroke-opacity="0.9" stroke-width="16" stroke-linecap="round" stroke-linejoin="round"/>
<path d="M254.208 235.151C234.554 253.802 219.581 276.652 200.59 295.643" stroke="#000000" stroke-opacity="0.9" stroke-width="16" stroke-linecap="round" stroke-linejoin="round"/>
<path d="M100.57 298.736C127.264 296.002 153.295 293.762 184.09 295.986" stroke="#000000" stroke-opacity="0.9" stroke-width="16" stroke-linecap="round" stroke-linejoin="round"/>
<path d="M97.1341 303.891C95.0751 316.067 106.092 316.081 114.663 317.64C160.03 327.263 178.164 337.316 179.967 335.512" stroke="#000000" stroke-opacity="0.9" stroke-width="16" stroke-linecap="round" stroke-linejoin="round"/>
<path d="M188.559 331.732C195.994 333.181 203.31 334.268 210.9 333.794" stroke="#000000" stroke-opacity="0.9" stroke-width="16" stroke-linecap="round" stroke-linejoin="round"/>
<path d="M172.273 304.576C187.641 283.529 219.741 308.068 194.852 325.846C178.465 337.55 157.633 328.038 169.655 308.502" stroke="#000000" stroke-opacity="0.9" stroke-width="16" stroke-linecap="round" stroke-linejoin="round"/>
<path d="M216.774 331.408C209.999 335.608 200.972 336.053 194.195 340.571" stroke="#000000" stroke-opacity="0.9" stroke-width="16" stroke-linecap="round" stroke-linejoin="round"/>
<path d="M106.686 303.458C125.433 288.648 139.571 267.132 159.148 253.428" stroke="#000000" stroke-opacity="0.9" stroke-width="16" stroke-linecap="round" stroke-linejoin="round"/>
</svg>