<?xml version="1.0" encoding="utf-8"?><!-- Uploaded to: SVG Repo, www.svgrepo.com, Generator: SVG Repo Mixer Tools -->
<svg width="800px" height="800px" viewBox="0 0 400 400" fill="none" xmlns="http://www.w3.org/2000/svg">
<path d="M295.142 240.356C329.518 202.049 385.933 253.724 350.511 293.487C322.396 325.049 273.723 300.454 287.179 259.677" stroke="#000000" stroke-opacity="0.9" stroke-width="16" stroke-linecap="round" stroke-linejoin="round"/>
<path d="M46.0623 248.577C49.8288 239.528 55.6136 232.033 64.1265 226.935C137.173 183.18 111.173 332.056 62.1188 297.075C50.0089 288.439 42.9633 282.959 42.0469 267.416" stroke="#000000" stroke-opacity="0.9" stroke-width="16" stroke-linecap="round" stroke-linejoin="round"/>
<path d="M85.2168 259.265C124.56 240.324 167.3 226.791 205.302 204.758C206.723 203.934 221.216 194.674 222.114 196.007C226.429 202.443 209.554 255.039 208.904 266.026" stroke="#000000" stroke-opacity="0.9" stroke-width="16" stroke-linecap="round" stroke-linejoin="round"/>
<path d="M203.432 267.459C119.5 203.137 87.2039 316.134 206.63 271.444" stroke="#000000" stroke-opacity="0.9" stroke-width="16" stroke-linecap="round" stroke-linejoin="round"/>
<path d="M213.375 189.459C182.791 173.731 169.292 203.828 156.715 225.555" stroke="#000000" stroke-opacity="0.9" stroke-width="16" stroke-linecap="round" stroke-linejoin="round"/>
<path d="M166.158 221.508C178.787 230.432 184.781 245.856 191.79 259.281" stroke="#000000" stroke-opacity="0.9" stroke-width="16" stroke-linecap="round" stroke-linejoin="round"/>
<path d="M113.547 222.406C133.145 220.307 152.978 217.911 172.905 217.911" stroke="#000000" stroke-opacity="0.9" stroke-width="16" stroke-linecap="round" stroke-linejoin="round"/>
<path d="M38 135.169C49.2234 160.543 64.3759 192.608 69.0279 217.461" stroke="#000000" stroke-opacity="0.9" stroke-width="16" stroke-linecap="round" stroke-linejoin="round"/>
<path d="M83.8672 160.801C85.1306 182.352 99.917 200.6 104.103 220.159" stroke="#000000" stroke-opacity="0.9" stroke-width="16" stroke-linecap="round" stroke-linejoin="round"/>
<path d="M86.5654 156.754C103.948 161.623 124.654 165.1 141.876 158.547" stroke="#000000" stroke-opacity="0.9" stroke-width="16" stroke-linecap="round" stroke-linejoin="round"/>
<path d="M145.924 156.754C159.786 150.654 173.638 144.693 186.395 136.518" stroke="#000000" stroke-opacity="0.9" stroke-width="16" stroke-linecap="round" stroke-linejoin="round"/>
<path d="M190.441 137.867C201.673 154.427 213.344 171.165 224.167 187.782" stroke="#000000" stroke-opacity="0.9" stroke-width="16" stroke-linecap="round" stroke-linejoin="round"/>
<path d="M225.517 190.48C257.393 216.821 293.02 239.411 323.997 266.026" stroke="#000000" stroke-opacity="0.9" stroke-width="16" stroke-linecap="round" stroke-linejoin="round"/>
<path d="M234.96 190.413C256.545 172.787 265.035 195.25 239.304 198.574" stroke="#000000" stroke-opacity="0.9" stroke-width="16" stroke-linecap="round" stroke-linejoin="round"/>
<path d="M78 106.545C90.1896 69.4904 142.672 93.865 124.039 128.113C111.486 151.179 74.673 140.998 81.0091 115.605" stroke="#000000" stroke-opacity="0.9" stroke-width="16" stroke-linecap="round" stroke-linejoin="round"/>
</svg>