<?xml version="1.0" encoding="utf-8"?><!-- Uploaded to: SVG Repo, www.svgrepo.com, Generator: SVG Repo Mixer Tools -->
<svg width="800px" height="800px" viewBox="0 0 400 400" fill="none" xmlns="http://www.w3.org/2000/svg">
<path d="M36 240.319C51.175 210.415 72.334 157.561 138.307 147.086C149.091 145.374 135.326 184.745 142.217 184.745C187.416 184.745 246.349 177.913 284.096 182.189C321.842 186.465 383.931 196.002 359.356 228.817C350.56 240.57 167.643 239.48 147.613 241.595C122.712 244.217 83.5715 248.621 65.3376 248.621" stroke="#000000" stroke-opacity="0.9" stroke-width="16" stroke-linecap="round" stroke-linejoin="round"/>
<path d="M84.5654 228.767C115.891 195.814 162.095 255.813 108.683 261.887C97.7424 263.128 94.1191 259.254 89.0065 249.545C83.4714 239.02 88.3566 232.104 94.7203 224.866" stroke="#000000" stroke-opacity="0.9" stroke-width="16" stroke-linecap="round" stroke-linejoin="round"/>
<path d="M277.868 225.295C302.55 203.08 330.951 245.318 301.063 257.271C277.672 266.624 263.49 243.143 277.868 229.343" stroke="#000000" stroke-opacity="0.9" stroke-width="16" stroke-linecap="round" stroke-linejoin="round"/>
<path opacity="0.503384" d="M214.073 138C231.908 146.069 246.562 158.891 254.544 177.122" stroke="#000000" stroke-opacity="0.9" stroke-width="16" stroke-linecap="round" stroke-linejoin="round"/>
<path d="M187.311 142.047C247.113 145.549 162.015 211.132 165.62 161.044C166.409 150.073 168.554 146.603 177.739 142.047" stroke="#000000" stroke-opacity="0.9" stroke-width="16" stroke-linecap="round" stroke-linejoin="round"/>
</svg>