<?xml version="1.0" encoding="utf-8"?><!-- Uploaded to: SVG Repo, www.svgrepo.com, Generator: SVG Repo Mixer Tools -->
<svg width="800px" height="800px" viewBox="0 0 400 400" fill="none" xmlns="http://www.w3.org/2000/svg">
<path d="M102.751 132.611C107.409 121.748 127.28 112.962 137.413 121.917C180.197 159.724 87.466 211.059 102.751 140.137" stroke="#000000" stroke-opacity="0.9" stroke-width="16" stroke-linecap="round" stroke-linejoin="round"/>
<path d="M120.655 187.479C121.204 199.782 119.718 211.578 117.115 223.302" stroke="#000000" stroke-opacity="0.9" stroke-width="16" stroke-linecap="round" stroke-linejoin="round"/>
<path d="M60.0836 105.086C59.4388 162.353 53.817 220.056 56.936 277.037" stroke="#000000" stroke-opacity="0.9" stroke-width="16" stroke-linecap="round" stroke-linejoin="round"/>
<path d="M59.2354 101.229C88.4034 95.4065 119.13 96.7582 148.793 98.4777" stroke="#000000" stroke-opacity="0.9" stroke-width="16" stroke-linecap="round" stroke-linejoin="round"/>
<path d="M151.184 99.1162C168.316 140.68 188.528 181.696 201.336 224.497" stroke="#000000" stroke-opacity="0.9" stroke-width="16" stroke-linecap="round" stroke-linejoin="round"/>
<path d="M58.043 208.084C72.8482 208.084 102.308 205.391 115.183 205.391C120.07 205.391 116.524 225.419 118.783 227.665C120.493 229.365 208.71 225.279 222.829 225.279" stroke="#000000" stroke-opacity="0.9" stroke-width="16" stroke-linecap="round" stroke-linejoin="round"/>
<path d="M224.408 225.689C226.424 239.948 225.98 254.332 225.98 268.677" stroke="#000000" stroke-opacity="0.9" stroke-width="16" stroke-linecap="round" stroke-linejoin="round"/>
<path d="M164.294 255.197C217.665 208.242 206.757 338.045 162.289 294.06C154.822 286.675 157.003 271.312 159.485 262.732" stroke="#000000" stroke-opacity="0.9" stroke-width="16" stroke-linecap="round" stroke-linejoin="round"/>
<path d="M86.7364 259.194C92.5084 247.403 106.956 245.198 117.581 252.848C160.022 283.41 63.4731 343.58 85.1365 263.156" stroke="#000000" stroke-opacity="0.9" stroke-width="16" stroke-linecap="round" stroke-linejoin="round"/>
<path d="M64.0156 281.811C117.235 272.079 164.752 282.408 224.025 275.244" stroke="#000000" stroke-opacity="0.9" stroke-width="16" stroke-linecap="round" stroke-linejoin="round"/>
<path d="M223.565 108.667C227.176 168.315 220.556 229.532 224.745 288.976" stroke="#000000" stroke-opacity="0.9" stroke-width="16" stroke-linecap="round" stroke-linejoin="round"/>
<path d="M225.214 289.16C264.618 289.045 304.919 286.404 344.624 286.404" stroke="#000000" stroke-opacity="0.9" stroke-width="16" stroke-linecap="round" stroke-linejoin="round"/>
<path d="M121.329 187.479C135.678 193.554 147.642 194.699 164.317 192.24" stroke="#000000" stroke-opacity="0.9" stroke-width="16" stroke-linecap="round" stroke-linejoin="round"/>
<path d="M164.317 187.479C176.134 199.844 189.89 209.557 198.946 223.302" stroke="#000000" stroke-opacity="0.9" stroke-width="16" stroke-linecap="round" stroke-linejoin="round"/>
</svg>