<?xml version="1.0" encoding="utf-8"?><!-- Uploaded to: SVG Repo, www.svgrepo.com, Generator: SVG Repo Mixer Tools -->
<svg width="800px" height="800px" viewBox="0 0 400 400" fill="none" xmlns="http://www.w3.org/2000/svg">
<path d="M93.104 229.377C97.0674 225.049 104.508 218.641 110.75 217.887C147.637 213.425 153.008 258.636 128.734 272.055C109.006 282.961 76.7517 259.355 89.0318 239.554" stroke="#000000" stroke-opacity="0.9" stroke-width="16" stroke-linecap="round" stroke-linejoin="round"/>
<path d="M287.816 223.571C324.185 197.233 354.022 250.773 318.825 271.471C316.152 273.043 312.354 273.131 309.387 273.454C284.516 276.162 274.21 253.277 282.423 233.151" stroke="#000000" stroke-opacity="0.9" stroke-width="16" stroke-linecap="round" stroke-linejoin="round"/>
<path d="M153.812 183.237C162.124 181.823 253.445 180.238 261.927 179.516C278.868 178.076 318.246 175.224 325.976 186.324C327.624 188.691 329.357 195.407 329.979 198.577M71.4482 237.04C73.1422 230.628 71.4789 192.636 73.1163 190.408C74.1373 189.019 84.1663 189.381 86.4599 189.046C93.8312 187.972 151.228 183.457 154.845 185.303L71.4482 237.04Z" stroke="#000000" stroke-opacity="0.9" stroke-width="16" stroke-linecap="round" stroke-linejoin="round"/>
<path d="M80.5986 226.452C100.111 194.559 93.2279 203.582 127.257 199.305C137.78 197.982 148.44 229.86 153.252 233.49C155.251 234.997 177.18 234.275 180.248 234.495C193.149 235.422 206.287 233.158 219.24 234.16C225.497 234.644 249.856 237.367 254.901 234.83C259.51 232.512 273.298 210.298 278.563 205.002C283.914 199.622 325.871 203.662 334.553 203.662" stroke="#000000" stroke-opacity="0.9" stroke-width="16" stroke-linecap="round" stroke-linejoin="round"/>
<path d="M76.0254 185.526C84.9002 181.147 91.4895 131.994 92.7382 131.369C93.7606 130.858 117.433 132.298 120.815 132.038C135.268 130.926 137.719 127.159 144.547 126.02C146.194 125.746 149.024 128.32 150.897 128.695C157.202 129.956 163.901 130.792 170.284 131.703C183.342 133.57 195.882 132.038 208.722 132.038" stroke="#000000" stroke-opacity="0.9" stroke-width="16" stroke-linecap="round" stroke-linejoin="round"/>
<path d="M209.863 135.159C216.635 146.307 222.903 169.376 228.166 178.659" stroke="#000000" stroke-opacity="0.9" stroke-width="16" stroke-linecap="round" stroke-linejoin="round"/>
<path d="M144.658 137.448C144.986 142.211 144.995 147.154 145.758 151.833C146.81 158.28 148.352 165.901 148.838 172.513C149.005 174.789 150.031 184.895 150.378 183.002" stroke="#000000" stroke-opacity="0.9" stroke-width="16" stroke-linecap="round" stroke-linejoin="round"/>
<path d="M51.5906 162.165C53.8487 162.564 63.7301 159.628 65.5162 160.505C66.9254 161.196 67.3272 213.7 65.1314 217.291C62.5716 221.475 50.8522 219.796 47.5283 217.623C44.2044 215.449 47.3045 170.329 47.5283 168.354" stroke="#000000" stroke-opacity="0.9" stroke-width="16" stroke-linecap="round" stroke-linejoin="round"/>
<path d="M61.8456 226.8C59.6671 226.636 57.6605 226.769 55.5981 227.483C54.3063 227.93 52.1936 238.97 53.6252 240.457C53.9498 240.794 79.0077 236.018 82.8889 236.018" stroke="#000000" stroke-opacity="0.9" stroke-width="16" stroke-linecap="round" stroke-linejoin="round"/>
<path d="M343.246 231.655C345.495 230.422 351.435 233.623 353.094 231.98C355.924 229.175 351.428 217.971 349.155 215.719C346.799 213.384 342.889 216.267 341.278 215.069C339.615 213.833 341.743 208.98 335.697 204.986" stroke="#000000" stroke-opacity="0.9" stroke-width="16" stroke-linecap="round" stroke-linejoin="round"/>
<path d="M150.994 235.896C150.535 237.43 149.589 241.25 151.671 242.157C157.798 244.825 216.81 246.944 226.076 246.944C227.795 246.944 234.866 248.053 236.222 246.576C237.415 245.276 238.496 242.126 239.604 240.315" stroke="#000000" stroke-opacity="0.9" stroke-width="16" stroke-linecap="round" stroke-linejoin="round"/>
<path d="M214.16 158.052C209.767 164.178 205.402 176.921 202.721 180.947" stroke="#000000" stroke-opacity="0.9" stroke-width="16" stroke-linecap="round" stroke-linejoin="round"/>
<path d="M173.227 142.315C175.357 139.363 184.014 132.931 187.939 136.1C202.019 147.469 188.684 173.298 171.516 167.523C166.742 165.917 155.333 128.428 176.306 131.956" stroke="#000000" stroke-opacity="0.9" stroke-width="16" stroke-linecap="round" stroke-linejoin="round"/>
<path d="M182.411 172.937C189.302 176.212 198.073 179.256 205.29 176.345" stroke="#000000" stroke-opacity="0.9" stroke-width="16" stroke-linecap="round" stroke-linejoin="round"/>
<path d="M182.412 177.512C181.22 178.365 177.349 185.725 179.751 182.36" stroke="#000000" stroke-opacity="0.9" stroke-width="16" stroke-linecap="round" stroke-linejoin="round"/>
</svg>