<?xml version="1.0" encoding="utf-8"?><!-- Uploaded to: SVG Repo, www.svgrepo.com, Generator: SVG Repo Mixer Tools -->
<svg width="800px" height="800px" viewBox="0 0 400 400" fill="none" xmlns="http://www.w3.org/2000/svg">
<path d="M71.1493 235.56C73.3789 146.063 52.1356 131.014 145.204 131.014C167.58 131.014 207.632 126.888 228.685 135.283C237.449 138.772 235.858 175.009 242.153 181.281C247.445 186.559 317.312 184.208 334.426 184.208" stroke="#000000" stroke-opacity="0.9" stroke-width="16" stroke-linecap="round" stroke-linejoin="round"/>
<path d="M77.8574 181.512C135.182 176.661 192.457 184.208 249.393 184.208" stroke="#000000" stroke-opacity="0.9" stroke-width="16" stroke-linecap="round" stroke-linejoin="round"/>
<path d="M159.943 133.782C158.61 141.501 157.165 165.261 158.207 172.518" stroke="#000000" stroke-opacity="0.9" stroke-width="16" stroke-linecap="round" stroke-linejoin="round"/>
<path d="M80.7861 232.628C84.4089 223.713 87.9202 214.699 92.515 206.238" stroke="#000000" stroke-opacity="0.9" stroke-width="16" stroke-linecap="round" stroke-linejoin="round"/>
<path d="M96.9141 206.197C112.549 202.151 127.772 201.883 143.83 201.883" stroke="#000000" stroke-opacity="0.9" stroke-width="16" stroke-linecap="round" stroke-linejoin="round"/>
<path d="M145.297 201.84C150.725 212.122 155.701 222.463 161.424 232.628" stroke="#000000" stroke-opacity="0.9" stroke-width="16" stroke-linecap="round" stroke-linejoin="round"/>
<path d="M164.358 233.092C196.116 233.245 227.666 233.633 259.656 233.633" stroke="#000000" stroke-opacity="0.9" stroke-width="16" stroke-linecap="round" stroke-linejoin="round"/>
<path d="M265.519 232.628C271.253 223.412 278.204 214.892 284.578 206.238" stroke="#000000" stroke-opacity="0.9" stroke-width="16" stroke-linecap="round" stroke-linejoin="round"/>
<path d="M286.044 205.452C316.278 202.827 346.863 187.668 350.553 226.764" stroke="#000000" stroke-opacity="0.9" stroke-width="16" stroke-linecap="round" stroke-linejoin="round"/>
<path d="M99.6232 225.554C109.213 215.393 124.643 216.552 136.51 222.517C154.905 231.763 147.958 251.235 133.472 261.571C112.591 276.472 80.7862 270.748 102.649 221.908" stroke="#000000" stroke-opacity="0.9" stroke-width="16" stroke-linecap="round" stroke-linejoin="round"/>
<path d="M294.742 224.35C371.847 184.958 317.472 309.275 290.889 258.253C286.842 250.492 286.45 240.541 289.601 232.981" stroke="#000000" stroke-opacity="0.9" stroke-width="16" stroke-linecap="round" stroke-linejoin="round"/>
<path d="M55.113 176.916C47.3884 184.986 47.8866 218.916 60.2628 217.947" stroke="#000000" stroke-opacity="0.9" stroke-width="16" stroke-linecap="round" stroke-linejoin="round"/>
<path d="M204.155 140.263C222.291 142.339 223.532 159.831 213.998 166.995C202.252 175.82 177.733 172.264 191.559 144.704" stroke="#000000" stroke-opacity="0.9" stroke-width="16" stroke-linecap="round" stroke-linejoin="round"/>
</svg>