<?xml version="1.0" encoding="utf-8"?><!-- Uploaded to: SVG Repo, www.svgrepo.com, Generator: SVG Repo Mixer Tools -->
<svg width="800px" height="800px" viewBox="0 0 400 400" fill="none" xmlns="http://www.w3.org/2000/svg">
<path d="M121.247 161.735C144.281 160.919 159.369 152.394 199.99 152.394C240.611 152.394 280.612 158.721 281.627 155.665C307.923 76.5355 172.295 27.9612 126.289 120.252C119.935 133.001 112.703 144.167 115.697 157.69" stroke="#000000" stroke-opacity="0.9" stroke-width="16" stroke-linecap="round" stroke-linejoin="round"/>
<path d="M194.093 258.129C209.22 241.838 226.628 272.813 208.309 281.578C193.973 288.437 185.28 271.218 194.093 261.098" stroke="#000000" stroke-opacity="0.9" stroke-width="16" stroke-linecap="round" stroke-linejoin="round"/>
<path d="M174.358 272.031C198.28 307.336 210.386 291.486 235.065 266.96" stroke="#000000" stroke-opacity="0.9" stroke-width="16" stroke-linecap="round" stroke-linejoin="round"/>
<path d="M205.526 295.291C204.962 306.78 207.121 317.837 208.035 329.017" stroke="#000000" stroke-opacity="0.9" stroke-width="16" stroke-linecap="round" stroke-linejoin="round"/>
<path d="M194.594 297.988C193.257 307.42 191.529 316.861 190.547 326.318" stroke="#000000" stroke-opacity="0.9" stroke-width="16" stroke-linecap="round" stroke-linejoin="round"/>
<path opacity="0.503384" d="M278.234 164.434C260.516 196.751 252.747 234.216 236.414 266.961" stroke="#000000" stroke-opacity="0.9" stroke-width="16" stroke-linecap="round" stroke-linejoin="round"/>
<path opacity="0.503384" d="M244.508 161.735C238.237 193.17 231.69 224.356 221.574 254.819" stroke="#000000" stroke-opacity="0.9" stroke-width="16" stroke-linecap="round" stroke-linejoin="round"/>
<path opacity="0.503384" d="M201.139 161.735C202.032 186.299 201.139 222.373 201.139 241.329" stroke="#000000" stroke-opacity="0.9" stroke-width="16" stroke-linecap="round" stroke-linejoin="round"/>
<path opacity="0.503384" d="M156.82 165.783C169.532 190.432 173.041 219.588 185.15 244.027" stroke="#000000" stroke-opacity="0.9" stroke-width="16" stroke-linecap="round" stroke-linejoin="round"/>
<path opacity="0.503384" d="M117.698 165.783C129.819 203.416 150.024 238.466 170.311 271.008" stroke="#000000" stroke-opacity="0.9" stroke-width="16" stroke-linecap="round" stroke-linejoin="round"/>
</svg>