<?xml version="1.0" encoding="utf-8"?><!-- Uploaded to: SVG Repo, www.svgrepo.com, Generator: SVG Repo Mixer Tools -->
<svg width="800px" height="800px" viewBox="0 0 400 400" fill="none" xmlns="http://www.w3.org/2000/svg">
<path d="M36 256.367C144.188 254.7 255.391 240.756 363.817 247.319" stroke="#000000" stroke-opacity="0.9" stroke-width="16" stroke-linecap="round" stroke-linejoin="round"/>
<path d="M118.36 238.364C160.583 205.889 129.673 290.019 117.895 251.396C115.652 244.038 117.441 242.083 122.509 237.895" stroke="#000000" stroke-opacity="0.9" stroke-width="16" stroke-linecap="round" stroke-linejoin="round"/>
<path d="M250.488 236.083C253.756 231.96 258.365 228.451 264.005 229.61C267.722 230.372 267.985 238.168 268.959 241.169C280.291 276.068 232.825 256.046 252.741 239.322" stroke="#000000" stroke-opacity="0.9" stroke-width="16" stroke-linecap="round" stroke-linejoin="round"/>
<path d="M167.251 190.764C188.67 151.305 255.782 196.661 217.157 229.33C192.468 250.206 145.57 240.81 164.505 202.377" stroke="#000000" stroke-opacity="0.9" stroke-width="16" stroke-linecap="round" stroke-linejoin="round"/>
<path d="M222.168 207.369C207.313 208.675 176.193 208.362 161.461 207.369" stroke="#000000" stroke-opacity="0.9" stroke-width="16" stroke-linecap="round" stroke-linejoin="round"/>
<path d="M196.062 139C196.245 150.713 197.006 162.352 197.006 174.075" stroke="#000000" stroke-opacity="0.9" stroke-width="16" stroke-linecap="round" stroke-linejoin="round"/>
<path d="M203.281 156.127C197.378 155.792 191.532 156.203 185.743 157.066" stroke="#000000" stroke-opacity="0.9" stroke-width="16" stroke-linecap="round" stroke-linejoin="round"/>
</svg>