<?xml version="1.0" encoding="utf-8"?><!-- Uploaded to: SVG Repo, www.svgrepo.com, Generator: SVG Repo Mixer Tools -->
<svg width="800px" height="800px" viewBox="0 0 400 400" fill="none" xmlns="http://www.w3.org/2000/svg">
<path d="M67.585 190.383C110.888 190.837 310.108 143.65 317.157 193.566" stroke="#000000" stroke-opacity="0.9" stroke-width="16" stroke-linecap="round" stroke-linejoin="round"/>
<path d="M63.5373 192.216C60.0929 204.83 57.1187 217.634 50.0469 228.64" stroke="#000000" stroke-opacity="0.9" stroke-width="16" stroke-linecap="round" stroke-linejoin="round"/>
<path d="M76.3084 221.285C106.929 171.433 146.232 237.947 96.514 251.057C81.1344 255.112 65.6923 234.319 76.7066 224.42" stroke="#000000" stroke-opacity="0.9" stroke-width="16" stroke-linecap="round" stroke-linejoin="round"/>
<path d="M297.234 217.255C345.121 174.823 345.116 280.457 298.801 250.027C289.96 244.225 290.599 233.482 293.322 226.048" stroke="#000000" stroke-opacity="0.9" stroke-width="16" stroke-linecap="round" stroke-linejoin="round"/>
<path d="M130.989 235.386C179.723 234.912 231.342 233.278 280.733 234.454" stroke="#000000" stroke-opacity="0.9" stroke-width="16" stroke-linecap="round" stroke-linejoin="round"/>
<path d="M59.4904 237.874C54.8484 237.766 50.4968 239.925 46 240.993" stroke="#000000" stroke-opacity="0.9" stroke-width="16" stroke-linecap="round" stroke-linejoin="round"/>
<path d="M102.66 176.028C105.896 170.633 103.428 160.165 106.967 155.376C108.071 153.886 196.492 144.202 197.753 145.053C201.07 147.298 203.77 160.483 205.187 164.512" stroke="#000000" stroke-opacity="0.9" stroke-width="16" stroke-linecap="round" stroke-linejoin="round"/>
<path opacity="0.503384" d="M211.5 193.565C214.641 201.432 214.409 209.749 215.067 217.848" stroke="#000000" stroke-opacity="0.9" stroke-width="16" stroke-linecap="round" stroke-linejoin="round"/>
<path opacity="0.503384" d="M221.375 227.291C254.205 224.112 318.232 170.686 348.202 205.041C353.934 211.617 357.354 214.192 352.87 222.553" stroke="#000000" stroke-opacity="0.9" stroke-width="16" stroke-linecap="round" stroke-linejoin="round"/>
<path d="M321.873 182.338C321.593 182.511 320.773 185.274 320.535 185.905" stroke="#000000" stroke-opacity="0.9" stroke-width="16" stroke-linecap="round" stroke-linejoin="round"/>
<path d="M169.744 153.657C195.308 128.193 195.89 194.165 168.641 168.734C163.235 163.689 162.426 161.362 164.235 155.031" stroke="#000000" stroke-opacity="0.9" stroke-width="16" stroke-linecap="round" stroke-linejoin="round"/>
<path opacity="0.503384" d="M152.575 155.792C142.178 162.697 133.162 170.396 125.594 180.075" stroke="#000000" stroke-opacity="0.9" stroke-width="16" stroke-linecap="round" stroke-linejoin="round"/>
</svg>