<?xml version="1.0" encoding="utf-8"?><!-- Uploaded to: SVG Repo, www.svgrepo.com, Generator: SVG Repo Mixer Tools -->
<svg width="800px" height="800px" viewBox="0 0 400 400" fill="none" xmlns="http://www.w3.org/2000/svg">
<path d="M139.553 109.695C172.723 65.1557 216.006 120.658 179.683 149.362C156.112 167.996 127.312 146.203 137.596 124.044" stroke="#000000" stroke-opacity="0.9" stroke-width="16" stroke-linecap="round" stroke-linejoin="round"/>
<path d="M88.2354 199.574C155.568 216.464 227.47 216.95 295.988 204.072" stroke="#000000" stroke-opacity="0.9" stroke-width="16" stroke-linecap="round" stroke-linejoin="round"/>
<path d="M297.337 206.319C295.761 221.446 290.787 236.014 287.894 250.838" stroke="#000000" stroke-opacity="0.9" stroke-width="16" stroke-linecap="round" stroke-linejoin="round"/>
<path d="M82.8398 206.319C86.1104 219.346 92.5602 234.001 100.377 245.442" stroke="#000000" stroke-opacity="0.9" stroke-width="16" stroke-linecap="round" stroke-linejoin="round"/>
<path d="M142.197 172.594C137.122 180.985 132.754 194.173 132.754 202.273" stroke="#000000" stroke-opacity="0.9" stroke-width="16" stroke-linecap="round" stroke-linejoin="round"/>
<path d="M143.546 172.594C154.202 184.319 171.033 199.384 186.715 202.273" stroke="#000000" stroke-opacity="0.9" stroke-width="16" stroke-linecap="round" stroke-linejoin="round"/>
<path d="M186.716 202.272C168.878 226.979 149.644 250.777 131.405 275.121" stroke="#000000" stroke-opacity="0.9" stroke-width="16" stroke-linecap="round" stroke-linejoin="round"/>
<path d="M112.519 289.479C121.604 279.876 138.277 268.701 136.696 289.96" stroke="#000000" stroke-opacity="0.9" stroke-width="16" stroke-linecap="round" stroke-linejoin="round"/>
<path opacity="0.503384" d="M68 256.813C84.6691 261.569 94.0482 246.036 108.528 242.953C118.825 240.762 148.846 256.514 162.57 257.326C172.755 257.928 186.32 251.485 196.345 249.115C204.285 247.237 278.214 257.759 293.809 258.865C305.403 259.686 325.415 252.725 332.412 253.221" stroke="#000000" stroke-opacity="0.9" stroke-width="16" stroke-linecap="round" stroke-linejoin="round"/>
<path d="M92.2832 296.705C116.211 312.09 136.567 304.97 161.084 301.003" stroke="#000000" stroke-opacity="0.9" stroke-width="16" stroke-linecap="round" stroke-linejoin="round"/>
</svg>