<?xml version="1.0" encoding="utf-8"?><!-- Uploaded to: SVG Repo, www.svgrepo.com, Generator: SVG Repo Mixer Tools -->
<svg width="800px" height="800px" viewBox="0 0 400 400" fill="none" xmlns="http://www.w3.org/2000/svg">
<path d="M64.5137 250.272C62.1232 211.517 63.4653 173.104 63.4653 134.288" stroke="#000000" stroke-opacity="0.9" stroke-width="16" stroke-linecap="round" stroke-linejoin="round"/>
<path d="M69.0742 131.348C89.2469 130.43 109.176 127.646 129.402 126.581C185.879 123.621 315.12 94.8919 331.343 175.686C335.073 194.27 348.845 223.836 332.078 240.543C308.9 263.632 110.173 260.695 69.0742 260.695" stroke="#000000" stroke-opacity="0.9" stroke-width="16" stroke-linecap="round" stroke-linejoin="round"/>
<path d="M72.0879 212.615C155.349 208.06 244.158 196.481 328.157 205.288" stroke="#000000" stroke-opacity="0.9" stroke-width="16" stroke-linecap="round" stroke-linejoin="round"/>
<path d="M319.117 149.351C272.37 154.089 270.763 138.935 275.979 191.527" stroke="#000000" stroke-opacity="0.9" stroke-width="16" stroke-linecap="round" stroke-linejoin="round"/>
<path d="M246.071 188.197C246.071 179.958 248.441 161.216 242.712 153.642C240.54 150.773 210.827 151.824 203.135 151.824C182.043 151.824 113.733 153.986 99.1763 162.644C95.6863 164.722 99.3338 197.366 100.284 202.071" stroke="#000000" stroke-opacity="0.9" stroke-width="16" stroke-linecap="round" stroke-linejoin="round"/>
<path d="M194.099 155.376C196.73 190.698 201.124 225.847 203.136 260.816" stroke="#000000" stroke-opacity="0.9" stroke-width="16" stroke-linecap="round" stroke-linejoin="round"/>
<path d="M234.272 242.397C242.459 232.426 249.303 234.906 260.071 237.601C303.842 248.557 258.642 305.91 235.744 276.726C228.885 267.981 229.272 258.513 232.427 249.041" stroke="#000000" stroke-opacity="0.9" stroke-width="16" stroke-linecap="round" stroke-linejoin="round"/>
<path d="M92.6416 245.338C115.57 216.933 159.304 254.771 130.207 279.162C106.618 298.935 81.0135 274.624 93.3843 250.427" stroke="#000000" stroke-opacity="0.9" stroke-width="16" stroke-linecap="round" stroke-linejoin="round"/>
<path d="M63.0503 250.43C58.7438 249.716 55.0428 251.036 51 251.822" stroke="#000000" stroke-opacity="0.9" stroke-width="16" stroke-linecap="round" stroke-linejoin="round"/>
<path d="M109.747 114.129C99.8383 113.619 89.2486 114.635 79.6211 116.917" stroke="#000000" stroke-opacity="0.9" stroke-width="16" stroke-linecap="round" stroke-linejoin="round"/>
<path d="M348.75 221.652C351.223 236.12 344.155 239.986 334.184 237.538" stroke="#000000" stroke-opacity="0.9" stroke-width="16" stroke-linecap="round" stroke-linejoin="round"/>
<path d="M144.909 162.906C146.852 174.42 147.833 185.886 148.393 197.551" stroke="#000000" stroke-opacity="0.9" stroke-width="16" stroke-linecap="round" stroke-linejoin="round"/>
</svg>