<?xml version="1.0" encoding="utf-8"?><!-- Uploaded to: SVG Repo, www.svgrepo.com, Generator: SVG Repo Mixer Tools -->
<svg width="800px" height="800px" viewBox="0 0 400 400" fill="none" xmlns="http://www.w3.org/2000/svg">
<path d="M236.998 50C204.483 110.833 157.465 161.746 115.146 215.67C113.964 217.177 106.916 225.493 94 240.619C179.788 243.947 226.783 245.611 234.984 245.611" stroke="#000000" stroke-opacity="0.9" stroke-width="16" stroke-linecap="round" stroke-linejoin="round"/>
<path d="M239.696 51.3496C236.247 138.436 234.3 219.515 234.3 306.318" stroke="#000000" stroke-opacity="0.9" stroke-width="16" stroke-linecap="round" stroke-linejoin="round"/>
<path d="M282.865 298.224C223.394 306.242 158.653 322.082 98.0469 310.056" stroke="#000000" stroke-opacity="0.9" stroke-width="16" stroke-linecap="round" stroke-linejoin="round"/>
<path d="M98.0469 313.062C99.7714 322.614 102.154 332.294 106.141 340.043" stroke="#000000" stroke-opacity="0.9" stroke-width="16" stroke-linecap="round" stroke-linejoin="round"/>
<path d="M289.61 299.572C281.917 309.115 279.776 322.879 273.422 333.298" stroke="#000000" stroke-opacity="0.9" stroke-width="16" stroke-linecap="round" stroke-linejoin="round"/>
<path opacity="0.503384" d="M257.233 340.668C229.39 355.096 195.686 338.308 193.279 338.702C185.132 340.037 178.496 347.376 170.297 348.53C158.678 350.161 97.4313 352.244 95.3486 349.511" stroke="#000000" stroke-opacity="0.9" stroke-width="16" stroke-linecap="round" stroke-linejoin="round"/>
<path d="M129.444 287.432C126.761 294.756 127.424 310.315 127.424 313.063" stroke="#000000" stroke-opacity="0.9" stroke-width="16" stroke-linecap="round" stroke-linejoin="round"/>
<path d="M131.773 287.271C148.021 285.915 165.578 281.957 181.688 284.24" stroke="#000000" stroke-opacity="0.9" stroke-width="16" stroke-linecap="round" stroke-linejoin="round"/>
<path d="M185.061 283.384C185.061 287.613 185.061 319.019 185.061 303.291" stroke="#000000" stroke-opacity="0.9" stroke-width="16" stroke-linecap="round" stroke-linejoin="round"/>
<path d="M280.867 199.14C289.205 192.632 296.301 195.982 301.304 203.889C324.752 240.94 247.442 240.892 275.661 207.447" stroke="#000000" stroke-opacity="0.9" stroke-width="16" stroke-linecap="round" stroke-linejoin="round"/>
<path d="M286.913 252.355C290.552 260.304 289.944 267.812 296.356 273.94" stroke="#000000" stroke-opacity="0.9" stroke-width="16" stroke-linecap="round" stroke-linejoin="round"/>
<path d="M284.215 251.007C280.333 258.795 275.952 266.712 274.771 275.29" stroke="#000000" stroke-opacity="0.9" stroke-width="16" stroke-linecap="round" stroke-linejoin="round"/>
<path d="M286.913 253.705C284.786 268.853 278.997 284.278 280.378 299.572" stroke="#000000" stroke-opacity="0.9" stroke-width="16" stroke-linecap="round" stroke-linejoin="round"/>
</svg>