<?xml version="1.0" encoding="utf-8"?><!-- Uploaded to: SVG Repo, www.svgrepo.com, Generator: SVG Repo Mixer Tools -->
<svg width="800px" height="800px" viewBox="0 0 400 400" fill="none" xmlns="http://www.w3.org/2000/svg">
<path d="M297.667 118.377C211.567 116.343 125.991 123.206 40.0003 123.206" stroke="#000000" stroke-opacity="0.9" stroke-width="16" stroke-linecap="round" stroke-linejoin="round"/>
<path d="M41.5271 121.952C42.5685 165.972 40.8364 210.063 40.8364 254.158" stroke="#000000" stroke-opacity="0.9" stroke-width="16" stroke-linecap="round" stroke-linejoin="round"/>
<path d="M279.122 119.254C278.663 136.939 281.188 164.455 281.188 177.263" stroke="#000000" stroke-opacity="0.9" stroke-width="16" stroke-linecap="round" stroke-linejoin="round"/>
<path d="M355.676 191.272C255.221 191.882 148.953 191.272 48.0946 191.272" stroke="#000000" stroke-opacity="0.9" stroke-width="16" stroke-linecap="round" stroke-linejoin="round"/>
<path d="M351.253 194.801C353.444 216.828 354.701 238.748 354.701 260.904" stroke="#000000" stroke-opacity="0.9" stroke-width="16" stroke-linecap="round" stroke-linejoin="round"/>
<path d="M347.581 260.44C247.18 263.37 143.736 251.211 42.698 257.179" stroke="#000000" stroke-opacity="0.9" stroke-width="16" stroke-linecap="round" stroke-linejoin="round"/>
<path opacity="0.503384" d="M221.081 128.698C221.572 143.379 219.975 159.237 223.153 173.216" stroke="#000000" stroke-opacity="0.9" stroke-width="16" stroke-linecap="round" stroke-linejoin="round"/>
<path opacity="0.503384" d="M167.783 127.348C170.406 142.081 169.769 157.123 171.231 171.867" stroke="#000000" stroke-opacity="0.9" stroke-width="16" stroke-linecap="round" stroke-linejoin="round"/>
<path opacity="0.503384" d="M117.868 131.396C118.921 144.919 119.287 158.524 121.316 171.867" stroke="#000000" stroke-opacity="0.9" stroke-width="16" stroke-linecap="round" stroke-linejoin="round"/>
<path opacity="0.503384" d="M67.6386 131.396C68.7179 146.195 68.2484 161.163 69.0146 175.914" stroke="#000000" stroke-opacity="0.9" stroke-width="16" stroke-linecap="round" stroke-linejoin="round"/>
<path fill-rule="evenodd" clip-rule="evenodd" d="M79.1224 170.611C79.1224 185.144 108.211 178.335 98.8511 162.55C89.4912 146.765 79.1224 156.078 79.1224 170.611Z" stroke="#000000" stroke-opacity="0.9" stroke-width="16" stroke-linecap="round" stroke-linejoin="round"/>
<path d="M140.392 151.631C98.867 155.228 154.783 207.809 151.859 167.574C151.195 158.392 146.395 156.629 139.352 153.756" stroke="#000000" stroke-opacity="0.9" stroke-width="16" stroke-linecap="round" stroke-linejoin="round"/>
<path fill-rule="evenodd" clip-rule="evenodd" d="M188.054 155.577C172.218 180.11 212.859 196.181 203.029 166.904C200.809 162.019 199.053 158.975 197.762 157.771C193.818 154.095 190.582 153.364 188.054 155.577Z" stroke="#000000" stroke-opacity="0.9" stroke-width="16" stroke-linecap="round" stroke-linejoin="round"/>
<path d="M255.072 150.983C249.332 148.869 242.136 151.771 240.849 156.572C233.259 172.846 264.639 196.734 259.272 156.572" stroke="#000000" stroke-opacity="0.9" stroke-width="16" stroke-linecap="round" stroke-linejoin="round"/>
<path d="M324.647 254.158C311.189 220.113 265.509 207.456 255.846 250.671" stroke="#000000" stroke-opacity="0.9" stroke-width="16" stroke-linecap="round" stroke-linejoin="round"/>
<path d="M304.524 241.556C300.021 235.444 293.937 231.896 286.091 232.682C276.241 233.665 267.978 239.05 266.974 249.069C260.676 312.074 345.931 273.192 300.427 236.774" stroke="#000000" stroke-opacity="0.9" stroke-width="16" stroke-linecap="round" stroke-linejoin="round"/>
<path d="M83.1383 236.176C70.9675 228.84 60.6971 232.668 57.1775 248.037C45.5933 298.595 140.627 285.245 89.5693 232.92" stroke="#000000" stroke-opacity="0.9" stroke-width="16" stroke-linecap="round" stroke-linejoin="round"/>
<path opacity="0.503384" d="M76.4243 208.491C128.032 212.67 179.075 209.87 230.215 209.87" stroke="#000000" stroke-opacity="0.9" stroke-width="16" stroke-linecap="round" stroke-linejoin="round"/>
<path d="M360.299 233.923C360.299 270.12 361.33 226.444 358.923 243.952" stroke="#000000" stroke-opacity="0.9" stroke-width="16" stroke-linecap="round" stroke-linejoin="round"/>
</svg>