<?xml version="1.0" encoding="utf-8"?><!-- Uploaded to: SVG Repo, www.svgrepo.com, Generator: SVG Repo Mixer Tools -->
<svg width="800px" height="800px" viewBox="0 0 400 400" fill="none" xmlns="http://www.w3.org/2000/svg">
<path d="M286.054 75.4432C290.812 137.552 302.908 200.722 298.652 263.809C297.693 278.012 292.773 292.004 292.773 306.129" stroke="#000000" stroke-opacity="0.9" stroke-width="16" stroke-linecap="round" stroke-linejoin="round"/>
<path d="M253.677 66C287.936 71.1754 298.87 94.8348 260.384 101.075" stroke="#000000" stroke-opacity="0.9" stroke-width="16" stroke-linecap="round" stroke-linejoin="round"/>
<path d="M281 303C226.62 299.439 169.887 296 115 296" stroke="#000000" stroke-opacity="0.9" stroke-width="16" stroke-linecap="round" stroke-linejoin="round"/>
<path d="M119.52 273.85C110.684 271.74 101.19 270.483 93.1788 275.496C70.4274 289.733 81.4661 337.201 110.465 332.362C139.733 327.48 146.05 277.968 111.289 277.968" stroke="#000000" stroke-opacity="0.9" stroke-width="16" stroke-linecap="round" stroke-linejoin="round"/>
<path d="M314.022 275.882C269.283 237.795 241.972 321.31 289.09 332.396C324.139 340.643 328.836 298.337 304.881 283.363" stroke="#000000" stroke-opacity="0.9" stroke-width="16" stroke-linecap="round" stroke-linejoin="round"/>
</svg>