<?xml version="1.0" encoding="utf-8"?><!-- Uploaded to: SVG Repo, www.svgrepo.com, Generator: SVG Repo Mixer Tools -->
<svg width="800px" height="800px" viewBox="0 0 400 400" fill="none" xmlns="http://www.w3.org/2000/svg">
<path d="M167.595 59.4625C172.855 49.3277 178.687 46.5557 188.962 45.2754C225.384 40.7445 237.065 93.3726 206.06 110.523C173.956 128.28 143.251 87.8645 162.607 60.8784" stroke="#000000" stroke-opacity="0.9" stroke-width="16" stroke-linecap="round" stroke-linejoin="round"/>
<path d="M195.636 141.572C217.262 213.081 168.317 265.318 151.5 323.279" stroke="#000000" stroke-opacity="0.9" stroke-width="16" stroke-linecap="round" stroke-linejoin="round"/>
<path d="M194.5 219.5C200.256 257.241 198.6 288.324 203.597 325.82" stroke="#000000" stroke-opacity="0.9" stroke-width="16" stroke-linecap="round" stroke-linejoin="round"/>
<path d="M202.326 151.737C210.746 162.442 216.689 164.385 229.01 162.577" stroke="#000000" stroke-opacity="0.9" stroke-width="16" stroke-linecap="round" stroke-linejoin="round"/>
<path d="M230.282 154.278C242.201 200.636 243.524 251.185 256.966 296.594" stroke="#000000" stroke-opacity="0.9" stroke-width="16" stroke-linecap="round" stroke-linejoin="round"/>
<path d="M253.151 301.677C247.754 311.986 240.189 321.158 232.82 329.632" stroke="#000000" stroke-opacity="0.9" stroke-width="16" stroke-linecap="round" stroke-linejoin="round"/>
<path d="M225.198 332.724C202.406 334.992 179.405 332.343 156.581 335.435" stroke="#000000" stroke-opacity="0.9" stroke-width="16" stroke-linecap="round" stroke-linejoin="round"/>
<path d="M116.539 316.76C145.258 303.306 158.957 351.217 125.788 354.949C108.523 356.89 104.77 329.079 115.827 321.083" stroke="#000000" stroke-opacity="0.9" stroke-width="16" stroke-linecap="round" stroke-linejoin="round"/>
<path d="M259.237 311.511C267.4 303.579 276.877 306.305 283.688 314.336C313.859 349.906 224.528 368.182 254.201 317.166" stroke="#000000" stroke-opacity="0.9" stroke-width="16" stroke-linecap="round" stroke-linejoin="round"/>
</svg>