<?xml version="1.0" encoding="utf-8"?><!-- Uploaded to: SVG Repo, www.svgrepo.com, Generator: SVG Repo Mixer Tools -->
<svg width="800px" height="800px" viewBox="0 0 400 400" fill="none" xmlns="http://www.w3.org/2000/svg">
<path d="M247.487 116.135C211.209 88.8512 191.959 146.071 229.175 164.374C255.103 177.124 268.716 138.218 257.952 121.281" stroke="#000000" stroke-opacity="0.9" stroke-width="16" stroke-linecap="round" stroke-linejoin="round"/>
<path d="M61.9999 105.07C67.4863 91.3785 81.3572 87.4499 95.023 91.5327C118.914 98.6687 293.996 219.526 304.827 241.092" stroke="#000000" stroke-opacity="0.9" stroke-width="16" stroke-linecap="round" stroke-linejoin="round"/>
<path d="M156.433 130.471C163.538 216.161 201.717 297.554 288.639 221.951" stroke="#000000" stroke-opacity="0.9" stroke-width="16" stroke-linecap="round" stroke-linejoin="round"/>
<path d="M137.029 250.052C217.627 210.517 172.71 339.67 135.719 303.391C124.676 292.564 127.774 275.383 131.786 262.263" stroke="#000000" stroke-opacity="0.9" stroke-width="16" stroke-linecap="round" stroke-linejoin="round"/>
<path d="M299.727 258.06C341.112 238.93 335.378 304.744 303.648 309.612C280.828 313.116 268.14 283.055 282.724 268.503" stroke="#000000" stroke-opacity="0.9" stroke-width="16" stroke-linecap="round" stroke-linejoin="round"/>
<path d="M275.148 202.587C304.441 199.061 323.036 210.793 338.553 234.347" stroke="#000000" stroke-opacity="0.9" stroke-width="16" stroke-linecap="round" stroke-linejoin="round"/>
</svg>