<?xml version="1.0" encoding="utf-8"?><!-- Uploaded to: SVG Repo, www.svgrepo.com, Generator: SVG Repo Mixer Tools -->
<svg width="800px" height="800px" viewBox="0 0 400 400" fill="none" xmlns="http://www.w3.org/2000/svg">
<path d="M55.5166 247.224C127.172 205.014 143.913 338.234 67.7512 327.332C33.1333 322.372 28.288 274.263 55.5166 258.666" stroke="#000000" stroke-opacity="0.9" stroke-width="16" stroke-linecap="round" stroke-linejoin="round"/>
<path d="M301.817 249.972C310.238 243.179 323.68 236.049 335.02 240.126C349.207 245.223 360.613 258.485 361.584 272.94C367.186 355.946 243.701 319.554 296.835 256.533" stroke="#000000" stroke-opacity="0.9" stroke-width="16" stroke-linecap="round" stroke-linejoin="round"/>
<path d="M91.9619 277.125C106.653 261.384 116.928 239.716 133.718 226.253C138.177 222.679 281.328 209.557 283.541 210.669C300.58 219.203 318.869 269.274 329.393 286.148" stroke="#000000" stroke-opacity="0.9" stroke-width="16" stroke-linecap="round" stroke-linejoin="round"/>
<path d="M279.478 222.743C264.532 241.759 251.457 262.439 237.658 282.101" stroke="#000000" stroke-opacity="0.9" stroke-width="16" stroke-linecap="round" stroke-linejoin="round"/>
<path d="M125.688 215.998C135.594 251.377 131.385 271.085 143.082 280.078C154.388 288.769 180.952 287.431 226.866 281.615" stroke="#000000" stroke-opacity="0.9" stroke-width="16" stroke-linecap="round" stroke-linejoin="round"/>
<path d="M228.905 268.781C278.051 265.402 217.754 313.906 228.08 275.01" stroke="#000000" stroke-opacity="0.9" stroke-width="16" stroke-linecap="round" stroke-linejoin="round"/>
<path d="M119.314 156.641C111.595 192.72 109.634 201.663 111.242 208.575C116.858 232.716 174.23 172.829 147.835 272.658" stroke="#000000" stroke-opacity="0.9" stroke-width="16" stroke-linecap="round" stroke-linejoin="round"/>
<path d="M105.6 104.609C149.099 45.5241 175.571 139.289 119.304 144.454C102.063 146.034 100.455 105.818 109.632 98.1006" stroke="#000000" stroke-opacity="0.9" stroke-width="16" stroke-linecap="round" stroke-linejoin="round"/>
<path d="M117.594 168.91C137.639 174.252 157.731 169.299 176.952 159.719" stroke="#000000" stroke-opacity="0.9" stroke-width="16" stroke-linecap="round" stroke-linejoin="round"/>
<path d="M198.708 84.8014C225.156 47.825 273.393 107.363 239.497 131.733C213.157 150.672 182.233 121.153 194.6 95.4677" stroke="#000000" stroke-opacity="0.9" stroke-width="16" stroke-linecap="round" stroke-linejoin="round"/>
<path d="M205.281 160.688C200.775 173.911 195.159 198.744 193.14 207.904" stroke="#000000" stroke-opacity="0.9" stroke-width="16" stroke-linecap="round" stroke-linejoin="round"/>
<path d="M193.14 208.258C265.701 198.034 255.011 193.079 246.21 268.611" stroke="#000000" stroke-opacity="0.9" stroke-width="16" stroke-linecap="round" stroke-linejoin="round"/>
<path d="M205.281 160.688C226.151 169.554 258.217 173.073 268.686 167.331" stroke="#000000" stroke-opacity="0.9" stroke-width="16" stroke-linecap="round" stroke-linejoin="round"/>
<path d="M272.733 156.641C291.896 179.002 287.113 195.388 279.868 222.743" stroke="#000000" stroke-opacity="0.9" stroke-width="16" stroke-linecap="round" stroke-linejoin="round"/>
<path d="M193.14 210.602C199.646 230.714 210.778 249.32 218.771 268.611" stroke="#000000" stroke-opacity="0.9" stroke-width="16" stroke-linecap="round" stroke-linejoin="round"/>
</svg>