<?xml version="1.0" encoding="utf-8"?><!-- Uploaded to: SVG Repo, www.svgrepo.com, Generator: SVG Repo Mixer Tools -->
<svg width="800px" height="800px" viewBox="0 0 400 400" fill="none" xmlns="http://www.w3.org/2000/svg">
<path d="M52.4172 129.945C154.767 124.431 299.051 80.9206 362.913 182.602C369.254 192.695 372.11 221.082 363.911 231.283C340.825 260.002 85.1022 258.994 38.4434 258.994" stroke="#000000" stroke-opacity="0.9" stroke-width="16" stroke-linecap="round" stroke-linejoin="round"/>
<path d="M371.656 279.262C260.686 278.71 142.19 286.441 33.0469 281.78" stroke="#000000" stroke-opacity="0.9" stroke-width="16" stroke-linecap="round" stroke-linejoin="round"/>
<path d="M264.29 133.538C247.656 199.764 297.805 187.344 346.025 180.575" stroke="#000000" stroke-opacity="0.9" stroke-width="16" stroke-linecap="round" stroke-linejoin="round"/>
<path d="M240.21 132.188C251.965 213.876 84.6787 176.294 29 190.197" stroke="#000000" stroke-opacity="0.9" stroke-width="16" stroke-linecap="round" stroke-linejoin="round"/>
<path d="M171.274 140.283C166.221 155.378 170.086 170.931 170.086 186.15" stroke="#000000" stroke-opacity="0.9" stroke-width="16" stroke-linecap="round" stroke-linejoin="round"/>
<path d="M96.7925 144.33C93.1231 154.511 95.5446 187.149 95.6053 187.499" stroke="#000000" stroke-opacity="0.9" stroke-width="16" stroke-linecap="round" stroke-linejoin="round"/>
<path d="M297.88 272.488C290.047 268.283 293.611 264.537 300.157 258.998" stroke="#000000" stroke-opacity="0.9" stroke-width="16" stroke-linecap="round" stroke-linejoin="round"/>
<path d="M248.894 268.441C244.734 279.232 238.102 278.893 238.102 269.452" stroke="#000000" stroke-opacity="0.9" stroke-width="16" stroke-linecap="round" stroke-linejoin="round"/>
<path d="M170.649 270.484C164.611 275.988 165.404 270.342 162.555 268.109" stroke="#000000" stroke-opacity="0.9" stroke-width="16" stroke-linecap="round" stroke-linejoin="round"/>
<path d="M192.849 147.435C235.814 141.339 175.758 206.507 180.345 156.09" stroke="#000000" stroke-opacity="0.9" stroke-width="16" stroke-linecap="round" stroke-linejoin="round"/>
<path d="M122.845 145.727C168.24 143.673 97.5794 208.069 111.894 156.911" stroke="#000000" stroke-opacity="0.9" stroke-width="16" stroke-linecap="round" stroke-linejoin="round"/>
<path d="M54.5297 152.424C64.7101 161.561 44.2946 177.272 38.4434 158.364" stroke="#000000" stroke-opacity="0.9" stroke-width="16" stroke-linecap="round" stroke-linejoin="round"/>
</svg>