<?xml version="1.0" encoding="utf-8"?><!-- Uploaded to: SVG Repo, www.svgrepo.com, Generator: SVG Repo Mixer Tools -->
<svg width="800px" height="800px" viewBox="0 0 400 400" fill="none" xmlns="http://www.w3.org/2000/svg">
<path d="M55.9095 245.639C60.8475 212.77 42.7156 156.71 55.9095 123.803C57.6295 119.512 78.333 118.355 118.02 120.329C177.061 118.776 222.403 118 254.047 118" stroke="#000000" stroke-opacity="0.9" stroke-width="16" stroke-linecap="round" stroke-linejoin="round"/>
<path d="M253.536 125.42C252.935 164.97 254.689 204.641 254.689 244.154" stroke="#000000" stroke-opacity="0.9" stroke-width="16" stroke-linecap="round" stroke-linejoin="round"/>
<path d="M66.2988 250.312C154.611 244.34 246.43 243.403 334.935 251.576" stroke="#000000" stroke-opacity="0.9" stroke-width="16" stroke-linecap="round" stroke-linejoin="round"/>
<path d="M248.838 140.495C286.173 139.312 324.915 131.339 321.332 181.819" stroke="#000000" stroke-opacity="0.9" stroke-width="16" stroke-linecap="round" stroke-linejoin="round"/>
<path d="M331.965 189.24C350.307 197.096 346.988 229.789 345.764 250.092" stroke="#000000" stroke-opacity="0.9" stroke-width="16" stroke-linecap="round" stroke-linejoin="round"/>
<path d="M330.185 188.811C302.342 189.176 274.973 189.193 247.071 189.553" stroke="#000000" stroke-opacity="0.9" stroke-width="16" stroke-linecap="round" stroke-linejoin="round"/>
<path d="M285.902 238.081C294.602 230.903 295.93 230.396 305.126 230.725C316.357 231.127 321.883 239.758 322.591 244.987C329.951 299.274 248.404 273.656 282.426 244.987" stroke="#000000" stroke-opacity="0.9" stroke-width="16" stroke-linecap="round" stroke-linejoin="round"/>
<path d="M93.9837 236.551C134.555 212.813 138.178 280.345 103.353 282.665C71.0518 284.812 72.9576 241.697 91.4893 227.828" stroke="#000000" stroke-opacity="0.9" stroke-width="16" stroke-linecap="round" stroke-linejoin="round"/>
</svg>