<?xml version="1.0" encoding="utf-8"?><!-- Uploaded to: SVG Repo, www.svgrepo.com, Generator: SVG Repo Mixer Tools -->
<svg width="800px" height="800px" viewBox="0 0 400 400" fill="none" xmlns="http://www.w3.org/2000/svg">
<path d="M89.17 240.426C78.5108 240.862 67.8209 241.55 57.6357 242.244" stroke="#000000" stroke-opacity="0.9" stroke-width="16" stroke-linecap="round" stroke-linejoin="round"/>
<path d="M57.6339 229.181C51.2036 230.494 45.4677 232.793 39 233.423" stroke="#000000" stroke-opacity="0.9" stroke-width="16" stroke-linecap="round" stroke-linejoin="round"/>
<path d="M44.0574 229.869C41.457 201.876 45.6776 176.384 54.7668 151.034" stroke="#000000" stroke-opacity="0.9" stroke-width="16" stroke-linecap="round" stroke-linejoin="round"/>
<path d="M56.1992 146.734C110.188 141.552 171.152 139.411 226.771 142.289" stroke="#000000" stroke-opacity="0.9" stroke-width="16" stroke-linecap="round" stroke-linejoin="round"/>
<path d="M231.07 149.6C245.582 159.983 258.38 172.711 271.205 185.434" stroke="#000000" stroke-opacity="0.9" stroke-width="16" stroke-linecap="round" stroke-linejoin="round"/>
<path d="M46.168 191.8C146.096 183.28 249.974 190.59 351.477 190.59" stroke="#000000" stroke-opacity="0.9" stroke-width="16" stroke-linecap="round" stroke-linejoin="round"/>
<path d="M354.344 192.603C355.971 204.123 358.114 216.141 360.077 227.004" stroke="#000000" stroke-opacity="0.9" stroke-width="16" stroke-linecap="round" stroke-linejoin="round"/>
<path d="M361.509 236.125C355.226 236.314 348.861 236.904 342.875 237.948" stroke="#000000" stroke-opacity="0.9" stroke-width="16" stroke-linecap="round" stroke-linejoin="round"/>
<path d="M147.938 238.366C187.197 232.363 229.331 238.644 269.775 236.85" stroke="#000000" stroke-opacity="0.9" stroke-width="16" stroke-linecap="round" stroke-linejoin="round"/>
<path d="M272.642 232.562C285.423 208.188 330.622 206.708 335.71 235.603" stroke="#000000" stroke-opacity="0.9" stroke-width="16" stroke-linecap="round" stroke-linejoin="round"/>
<path d="M146.504 235.604C139.791 216.449 103.399 217.854 90.6025 231.78" stroke="#000000" stroke-opacity="0.9" stroke-width="16" stroke-linecap="round" stroke-linejoin="round"/>
<path opacity="0.503384" d="M147.94 146.734C139.799 176.459 142.364 204.377 146.507 234.17" stroke="#000000" stroke-opacity="0.9" stroke-width="16" stroke-linecap="round" stroke-linejoin="round"/>
<path opacity="0.503384" d="M185.204 149.6C199.157 173.837 192.392 215.385 190.482 227.002" stroke="#000000" stroke-opacity="0.9" stroke-width="16" stroke-linecap="round" stroke-linejoin="round"/>
<path d="M205.571 151.109C263.553 138.032 190.673 215.745 200.458 161.911" stroke="#000000" stroke-opacity="0.9" stroke-width="16" stroke-linecap="round" stroke-linejoin="round"/>
<path d="M283.205 220.588C294.198 213.223 307.88 207.993 318.685 218.953C347.901 248.588 275.852 283.345 279.981 233.131" stroke="#000000" stroke-opacity="0.9" stroke-width="16" stroke-linecap="round" stroke-linejoin="round"/>
<path d="M92.0342 232.225C100.055 220.289 110.203 217.292 123.447 218.737C159.656 222.696 119.369 286.971 94.8913 246.833C90.2842 239.276 94.8697 230.811 98.3156 225.481" stroke="#000000" stroke-opacity="0.9" stroke-width="16" stroke-linecap="round" stroke-linejoin="round"/>
<path opacity="0.503384" d="M53.3359 205.501C115.382 205.509 303.317 199.436 348.612 204.945" stroke="#000000" stroke-opacity="0.9" stroke-width="16" stroke-linecap="round" stroke-linejoin="round"/>
</svg>