<?xml version="1.0" encoding="utf-8"?><!-- Uploaded to: SVG Repo, www.svgrepo.com, Generator: SVG Repo Mixer Tools -->
<svg width="800px" height="800px" viewBox="0 0 400 400" fill="none" xmlns="http://www.w3.org/2000/svg">
<path d="M40.3477 191.68C108.025 116.754 229.221 112.937 317.747 145.319C325.154 148.027 361.419 162.904 361.419 172.97C361.419 178.646 352.475 187.69 349.288 192.491C301.224 265.006 103.778 235.024 45.2013 195.745" stroke="#000000" stroke-opacity="0.9" stroke-width="16" stroke-linecap="round" stroke-linejoin="round"/>
<path d="M75.4241 151.631C67.2205 137.271 47.1821 135.004 39 141.86" stroke="#000000" stroke-opacity="0.9" stroke-width="16" stroke-linecap="round" stroke-linejoin="round"/>
<path d="M42.3672 150.283C44.1911 158.864 44.5203 167.446 46.4251 175.915" stroke="#000000" stroke-opacity="0.9" stroke-width="16" stroke-linecap="round" stroke-linejoin="round"/>
<path d="M76.7738 229.877C69.8017 239.058 60.156 239.5 49.793 240.669" stroke="#000000" stroke-opacity="0.9" stroke-width="16" stroke-linecap="round" stroke-linejoin="round"/>
<path d="M47.51 213.688C46.4955 222.597 46.7006 231.633 46.7006 240.668" stroke="#000000" stroke-opacity="0.9" stroke-width="16" stroke-linecap="round" stroke-linejoin="round"/>
<path d="M171.328 246.44C167.988 273.007 235.1 277.405 239.634 272.805C248.217 264.108 255.599 251.293 261.593 240.668" stroke="#000000" stroke-opacity="0.9" stroke-width="16" stroke-linecap="round" stroke-linejoin="round"/>
<path d="M78.1211 182.659C157.541 150.006 249.375 142.255 331.741 169.702" stroke="#000000" stroke-opacity="0.9" stroke-width="16" stroke-linecap="round" stroke-linejoin="round"/>
<path d="M306.109 186.707C243.61 215.839 182.784 211.398 115.895 204.654" stroke="#000000" stroke-opacity="0.9" stroke-width="16" stroke-linecap="round" stroke-linejoin="round"/>
<path d="M157.715 191.822C181.712 152.067 180.263 193.453 192.442 193.453C206.864 193.453 212.204 178.048 224.743 175.518C228.768 174.705 256.426 183.012 276.43 177.967" stroke="#000000" stroke-opacity="0.9" stroke-width="16" stroke-linecap="round" stroke-linejoin="round"/>
</svg>