<?xml version="1.0" encoding="utf-8"?><!-- Uploaded to: SVG Repo, www.svgrepo.com, Generator: SVG Repo Mixer Tools -->
<svg width="800px" height="800px" viewBox="0 0 400 400" fill="none" xmlns="http://www.w3.org/2000/svg">
<path d="M153.649 233.715C153.161 234.206 152.584 234.544 151.923 234.733C65 213 82.5 5.99997 190.678 78.8976" stroke="#000000" stroke-opacity="0.9" stroke-width="16" stroke-linecap="round" stroke-linejoin="round"/>
<path d="M226.109 83.5596C226.954 84.3296 227.767 85.1292 228.554 85.9555C255.929 114.731 255.067 200.207 211.836 214.81C209.65 215.547 207.464 216.414 205.167 216.765" stroke="#000000" stroke-opacity="0.9" stroke-width="16" stroke-linecap="round" stroke-linejoin="round"/>
<path d="M299.991 183.464C303.372 189.335 307.143 194.941 311.181 200.359C312.418 201.93 313.681 203.481 314.898 205.07C315.679 206.091 316.47 207.096 317.147 208.195C317.384 208.585 317.574 209.004 317.758 209.422C318.286 210.626 318.854 211.974 318.852 213.318C318.849 214.08 318.757 214.793 318.54 215.523C318.275 216.423 317.715 217.21 317.046 217.849C315.926 218.914 314.44 219.537 312.943 219.784C311.552 220.016 310.213 220.032 308.813 219.898C307.69 219.787 306.575 219.592 305.463 219.415C304.081 219.195 302.717 218.876 301.347 218.588C301.315 218.753 301.285 218.918 301.257 219.084C300.905 222.411 300.902 225.756 300.884 229.103C300.751 253.353 270.965 263.973 251.948 250.882C248.792 248.715 246.152 245.868 243.216 243.417C243.08 243.316 242.944 243.216 242.806 243.116C241.899 242.466 241.214 241.731 240.911 240.611" stroke="#000000" stroke-opacity="0.9" stroke-width="16" stroke-linecap="round" stroke-linejoin="round"/>
<path d="M173.598 247.771C173.67 247.771 173.74 247.773 173.81 247.778C216.876 251.073 256.11 298.623 257.99 340.785" stroke="#000000" stroke-opacity="0.9" stroke-width="16" stroke-linecap="round" stroke-linejoin="round"/>
<path d="M171 249C153 251.293 144 282.626 144 343" stroke="#000000" stroke-opacity="0.9" stroke-width="16" stroke-linecap="round" stroke-linejoin="round"/>
<path d="M170 221L171 244" stroke="#000000" stroke-opacity="0.9" stroke-width="16" stroke-linecap="round" stroke-linejoin="round"/>
<path d="M189 221C189 230.254 189 235.849 189 237.786C189 239.723 189 243.794 189 250" stroke="#000000" stroke-opacity="0.9" stroke-width="16" stroke-linecap="round" stroke-linejoin="round"/>
<path d="M208.038 223.655C208.038 228.322 208.038 231.7 208.038 233.788C208.038 235.877 208.038 243.983 208.038 258.105" stroke="#000000" stroke-opacity="0.9" stroke-width="16" stroke-linecap="round" stroke-linejoin="round"/>
<path d="M291.292 153.607C289.761 159.014 287.884 169.547 287.501 171.5C287.118 173.453 286.698 175.551 284.402 191.502" stroke="#000000" stroke-opacity="0.9" stroke-width="16" stroke-linecap="round" stroke-linejoin="round"/>
<path d="M226.986 225.952C226.22 230.945 225.837 234.898 225.837 237.81C225.837 240.723 225.837 251.315 225.837 269.589" stroke="#000000" stroke-opacity="0.9" stroke-width="16" stroke-linecap="round" stroke-linejoin="round"/>
<path d="M188.5 79.5001C201.833 67.5001 240.5 46.1002 272.5 54.5002C312.5 65.0002 343 97.5 306 136.5" stroke="#000000" stroke-opacity="0.9" stroke-width="16" stroke-linecap="round" stroke-linejoin="round"/>
</svg>