<?xml version="1.0" encoding="utf-8"?><!-- Uploaded to: SVG Repo, www.svgrepo.com, Generator: SVG Repo Mixer Tools -->
<svg width="800px" height="800px" viewBox="0 0 400 400" fill="none" xmlns="http://www.w3.org/2000/svg">
<path d="M146.447 259.964C150.411 261.916 155.207 260.286 157.159 256.323C159.112 252.36 157.482 247.564 153.519 245.611L146.447 259.964ZM109.001 187.309L116.942 186.342C116.602 183.547 114.818 181.138 112.245 179.996L109.001 187.309ZM278.878 187.309L276.442 179.689C273.441 180.648 271.282 183.281 270.929 186.412L278.878 187.309ZM231.859 251.063C228.028 253.264 226.706 258.154 228.907 261.985C231.108 265.816 235.998 267.138 239.829 264.937L231.859 251.063ZM287.187 155.662C283.134 153.902 278.422 155.761 276.663 159.814C274.903 163.867 276.762 168.579 280.815 170.338L287.187 155.662ZM107.223 170.323C111.267 168.543 113.103 163.822 111.323 159.778C109.544 155.734 104.823 153.898 100.779 155.677L107.223 170.323ZM153.519 245.611C129.124 233.592 119.553 207.777 116.942 186.342L101.06 188.276C103.93 211.841 114.876 244.408 146.447 259.964L153.519 245.611ZM270.929 186.412C269.617 198.037 269.198 208.215 264.509 218.781C260.007 228.923 251.207 239.948 231.859 251.063L239.829 264.937C261.51 252.481 272.992 239.108 279.133 225.272C285.086 211.859 285.669 198.477 286.828 188.206L270.929 186.412ZM281.315 194.929C289.166 192.419 295.613 185.793 297.941 178.356C299.152 174.49 299.379 169.941 297.518 165.554C295.616 161.07 291.946 157.728 287.187 155.662L280.815 170.338C282.505 171.072 282.762 171.739 282.788 171.801C282.856 171.96 283.011 172.494 282.673 173.575C281.902 176.034 279.339 178.763 276.442 179.689L281.315 194.929ZM112.245 179.996C110.148 179.066 107.834 177.803 105.862 176.384C103.781 174.886 102.647 173.618 102.215 172.854C102.038 172.54 102.119 172.555 102.139 172.85C102.164 173.216 102.062 173.53 101.998 173.65C101.971 173.701 102.144 173.35 102.972 172.706C103.804 172.06 105.146 171.236 107.223 170.323L100.779 155.677C95.1488 158.155 90.3765 161.438 87.8788 166.124C85.0425 171.444 86.0365 176.747 88.2865 180.728C90.3545 184.386 93.596 187.269 96.5149 189.37C99.5429 191.549 102.854 193.334 105.757 194.622L112.245 179.996Z" fill="#000000" fill-opacity="0.9"/>
<path d="M154.501 253.877C144 190 239 187 233.28 257.885C238.321 333.844 172.459 361.643 160 274" stroke="#000000" stroke-opacity="0.9" stroke-width="16" stroke-linecap="round" stroke-linejoin="round"/>
<path d="M223 73C223.619 69.8182 231 61 240 67" stroke="#000000" stroke-opacity="0.9" stroke-width="16" stroke-linecap="round" stroke-linejoin="round"/>
<path d="M188 67C188.667 63.1818 192.4 55.4364 202 55" stroke="#000000" stroke-opacity="0.9" stroke-width="16" stroke-linecap="round" stroke-linejoin="round"/>
<path d="M150 73C150.333 70.1364 152.5 66.0455 157 64" stroke="#000000" stroke-opacity="0.9" stroke-width="16" stroke-linecap="round" stroke-linejoin="round"/>
<path d="M201.5 233.072C195 233.072 191.936 233.072 187 233.072" stroke="#000000" stroke-opacity="0.9" stroke-width="16" stroke-linecap="round" stroke-linejoin="round"/>
<path d="M177 175.015C177 171.343 177 167.672 177 164" stroke="#000000" stroke-opacity="0.9" stroke-width="16" stroke-linecap="round" stroke-linejoin="round"/>
<path d="M209.142 175.015C209.142 171.5 209.142 167.5 209.142 164" stroke="#000000" stroke-opacity="0.9" stroke-width="16" stroke-linecap="round" stroke-linejoin="round"/>
<path d="M163.223 161.889C184.5 158 201 156 224 161.889" stroke="#000000" stroke-opacity="0.9" stroke-width="12" stroke-linecap="round" stroke-linejoin="round"/>
<path d="M71 340C81.0172 307.261 102.017 284.928 134 273" stroke="#000000" stroke-opacity="0.9" stroke-width="16" stroke-linecap="round" stroke-linejoin="round"/>
<path d="M254 273C299.475 284.374 307.5 293.394 329 345" stroke="#000000" stroke-opacity="0.9" stroke-width="16" stroke-linecap="round" stroke-linejoin="round"/>
<path d="M122 83C96.5297 101.72 102.643 120.44 102.643 135" stroke="#000000" stroke-opacity="0.9" stroke-width="16" stroke-linecap="round" stroke-linejoin="round"/>
<path d="M272 94C279.333 106.891 284.999 127.516 285 149" stroke="#000000" stroke-opacity="0.9" stroke-width="16" stroke-linecap="round" stroke-linejoin="round"/>
</svg>