<?xml version="1.0" encoding="utf-8"?><!-- Uploaded to: SVG Repo, www.svgrepo.com, Generator: SVG Repo Mixer Tools -->
<svg width="800px" height="800px" viewBox="0 0 400 400" fill="none" xmlns="http://www.w3.org/2000/svg">
<path d="M124.729 237.878C126.017 230.899 130.229 225.191 133.556 219.085C137.419 211.994 143.257 207.923 150.531 204.654C173.331 194.411 188.304 216.49 215.378 212.373C219.758 211.707 233.108 209.802 234.73 204.99" stroke="#000000" stroke-opacity="0.9" stroke-width="16" stroke-linecap="round" stroke-linejoin="round"/>
<path d="M235.506 185.463C245.846 183.371 257.998 188.393 263.355 197.234C266.298 202.091 270.254 207.655 271.166 213.378C276.414 246.286 245.283 264.164 216.147 264.164C210.919 264.164 205.293 264.811 200.184 263.491C189.778 260.803 176.311 254.312 168.599 246.674C161.711 239.854 155.748 230.195 144.824 230.195" stroke="#000000" stroke-opacity="0.9" stroke-width="16" stroke-linecap="round" stroke-linejoin="round"/>
<path d="M156.892 246.34C163.402 276.299 149.266 293.166 144.36 323.288C143.55 328.264 143.076 357.923 146.339 346.237" stroke="#000000" stroke-opacity="0.9" stroke-width="16" stroke-linecap="round" stroke-linejoin="round"/>
<path d="M192.149 263.264C195.579 274.719 197.656 287.949 196.159 299.908C194.11 316.288 182.892 333.47 188.867 350" stroke="#000000" stroke-opacity="0.9" stroke-width="16" stroke-linecap="round" stroke-linejoin="round"/>
<path d="M178.763 341.538C178.707 344.228 178.316 346.48 179.729 348.942" stroke="#000000" stroke-opacity="0.9" stroke-width="12" stroke-linecap="round" stroke-linejoin="round"/>
<path d="M169.416 341.538C169.416 343.653 169.416 345.769 169.416 347.885" stroke="#000000" stroke-opacity="0.9" stroke-width="12" stroke-linecap="round" stroke-linejoin="round"/>
<path d="M157.274 343.653C157.62 345.429 157.021 347.193 156.599 348.942" stroke="#000000" stroke-opacity="0.9" stroke-width="12" stroke-linecap="round" stroke-linejoin="round"/>
<path d="M125.02 234.705C115.389 238.303 107.179 246.155 101.327 253.243C88.8642 268.342 88 312.096 88 333.076" stroke="#000000" stroke-opacity="0.9" stroke-width="16" stroke-linecap="round" stroke-linejoin="round"/>
<path d="M271.749 235.763C294.345 246.224 307.327 282.706 310.398 301.061C312.233 312.027 313 321.727 313 334.134" stroke="#000000" stroke-opacity="0.9" stroke-width="16" stroke-linecap="round" stroke-linejoin="round"/>
<path d="M136.794 134.295C130.506 135.109 128.227 139.022 128.227 145.232C128.227 149.372 132.381 152.793 140.687 155.494C150.067 220.163 247.117 220.163 252.955 150.284C260.614 145.411 264.443 141.891 264.443 139.724C264.443 135.742 263.05 132.935 255.832 130.503" stroke="#000000" stroke-opacity="0.9" stroke-width="16" stroke-linecap="round" stroke-linejoin="round"/>
<path d="M154.344 111.866C162.806 97.4223 165.917 82.9785 165.917 82.9785C165.917 82.9785 186.609 104.203 244.374 111.866" stroke="#000000" stroke-opacity="0.9" stroke-width="16" stroke-linecap="round" stroke-linejoin="round"/>
<path d="M207.033 169.713C201.526 171.05 196.123 174.463 191.892 169.713" stroke="#000000" stroke-opacity="0.9" stroke-width="16" stroke-linecap="round" stroke-linejoin="round"/>
<path d="M185.221 137.944C185.384 134.716 186.015 131.669 186.325 128.614" stroke="#000000" stroke-opacity="0.9" stroke-width="16" stroke-linecap="round" stroke-linejoin="round"/>
<path d="M210.476 137.166C210.811 133.816 210.326 130.418 210.063 127.06" stroke="#000000" stroke-opacity="0.9" stroke-width="16" stroke-linecap="round" stroke-linejoin="round"/>
<path d="M114.799 229.37C97.6903 161.754 122.613 70.4619 149.584 70.4619" stroke="#000000" stroke-opacity="0.9" stroke-width="16" stroke-linecap="round" stroke-linejoin="round"/>
<path d="M168.094 58.6085C293.758 4.49823 292.005 195.043 280.715 229.37" stroke="#000000" stroke-opacity="0.9" stroke-width="16" stroke-linecap="round" stroke-linejoin="round"/>
</svg>