<?xml version="1.0" encoding="utf-8"?><!-- Uploaded to: SVG Repo, www.svgrepo.com, Generator: SVG Repo Mixer Tools -->
<svg width="800px" height="800px" viewBox="0 0 400 400" fill="none" xmlns="http://www.w3.org/2000/svg">
<path d="M172.676 34.6956C170.899 38.7406 172.737 43.4606 176.782 45.2379C180.827 47.0152 185.547 45.1768 187.325 41.1318L172.676 34.6956ZM133.122 144.405L140.821 142.229L140.821 142.228L133.122 144.405ZM131.812 98.0556L139.312 100.839L139.312 100.838L131.812 98.0556ZM157.639 63.4141C160.45 60.005 159.964 54.963 156.555 52.1524C153.146 49.3418 148.104 49.8269 145.294 53.236L157.639 63.4141ZM284.975 110.175C285.969 149.472 256.481 181.552 222.724 191.555C206.029 196.502 188.951 195.815 174.577 188.431C160.334 181.114 147.741 166.708 140.821 142.229L125.424 146.581C133.333 174.56 148.412 192.977 167.266 202.663C185.988 212.28 207.434 212.774 227.27 206.896C266.575 195.248 302.182 157.654 300.97 109.77L284.975 110.175ZM140.821 142.228C139.389 137.166 138.095 128.985 137.681 120.67C137.255 112.103 137.844 104.793 139.312 100.839L124.312 95.2719C121.647 102.452 121.256 112.533 121.701 121.465C122.158 130.65 123.585 140.076 125.424 146.582L140.821 142.228ZM139.312 100.838C144.385 87.1664 149.71 73.0315 157.639 63.4141L145.294 53.236C135.312 65.3429 129.131 82.2811 124.311 95.2729L139.312 100.838ZM187.325 41.1318C187.315 41.1532 187.844 40.1178 190.618 38.871C193.239 37.6933 197.044 36.7181 201.869 36.2676C211.493 35.369 223.949 36.6711 236.311 41.1233C260.706 49.9091 283.971 70.5259 284.975 110.175L300.97 109.77C299.767 62.2401 271.03 36.6215 241.733 26.0699C227.249 20.8534 212.437 19.2112 200.382 20.3369C194.368 20.8985 188.731 22.1776 184.06 24.2769C179.542 26.3071 174.928 29.5713 172.676 34.6956L187.325 41.1318Z" fill="#000000" fill-opacity="0.9"/>
<path d="M123.5 124C122.557 136.54 124.23 133.44 127.666 132.281" stroke="#000000" stroke-opacity="0.9" stroke-width="16" stroke-linecap="round" stroke-linejoin="round"/>
<path d="M293 127.576C305.615 128.227 300.045 139.168 293 144.485" stroke="#000000" stroke-opacity="0.9" stroke-width="16" stroke-linecap="round" stroke-linejoin="round"/>
<path d="M191.546 123.424C191.546 121.32 191.546 118.991 191.546 115.424" stroke="#000000" stroke-opacity="0.9" stroke-width="16" stroke-linecap="round" stroke-linejoin="round"/>
<path d="M234.758 123.818C234.758 120.86 234.758 119.261 234.758 116.303" stroke="#000000" stroke-opacity="0.9" stroke-width="16" stroke-linecap="round" stroke-linejoin="round"/>
<path d="M185.945 360.546C185.043 355.146 201.512 230.909 202.712 230.909C203.304 230.909 201.233 260.768 201.233 263.318C201.233 294.358 198.121 329.381 198.121 360.546" stroke="#000000" stroke-opacity="0.9" stroke-width="16" stroke-linecap="round" stroke-linejoin="round"/>
<path d="M61.2301 353.584L56.3104 359.893C57.7161 360.989 59.4476 361.584 61.2301 361.584V353.584ZM117.363 359.921C117.019 364.326 120.31 368.176 124.715 368.521C129.119 368.866 132.97 365.575 133.315 361.17L117.363 359.921ZM45 345.584C40.5817 345.584 37 349.166 37 353.584C37 358.002 40.5817 361.584 45 361.584V345.584ZM61.2301 361.584C64.879 361.584 67.6875 359.618 69.1348 358.466C70.8685 357.086 72.5406 355.306 74.1001 353.435C77.2481 349.658 80.7614 344.5 84.4078 338.646C91.7402 326.875 100.205 311.317 108.217 295.944C116.247 280.535 123.911 265.136 129.635 253.644C132.508 247.876 134.872 243.133 136.565 239.829C137.418 238.164 138.057 236.951 138.485 236.181C138.713 235.773 138.805 235.627 138.799 235.636C138.791 235.649 138.758 235.699 138.705 235.773C138.657 235.84 138.55 235.986 138.393 236.171C138.273 236.313 137.923 236.718 137.382 237.155C137.21 237.294 135.343 238.909 132.401 238.909V222.909C129.435 222.909 127.538 224.539 127.329 224.708C126.751 225.175 126.358 225.624 126.188 225.825C125.815 226.265 125.539 226.679 125.404 226.886C125.094 227.36 124.782 227.902 124.509 228.393C123.936 229.42 123.191 230.842 122.325 232.532C120.581 235.937 118.169 240.777 115.313 246.511C109.581 258.019 101.98 273.29 94.028 288.55C86.0573 303.845 77.8223 318.956 70.827 330.186C67.3096 335.833 64.2523 340.26 61.8091 343.191C60.573 344.674 59.6944 345.53 59.1704 345.947C58.3602 346.592 59.2042 345.584 61.2301 345.584V361.584ZM132.401 238.909C130.614 238.909 129.011 238.161 127.925 237.103C127.46 236.649 127.177 236.226 127.021 235.957C126.866 235.687 126.798 235.503 126.784 235.463C126.764 235.409 126.843 235.625 126.933 236.262C127.019 236.87 127.093 237.702 127.138 238.801C127.321 243.352 126.936 250.638 126.07 261.249C124.398 281.736 120.865 315.195 117.363 359.921L133.315 361.17C136.875 315.69 140.239 284.331 142.017 262.551C142.875 252.029 143.352 243.819 143.125 238.158C143.015 235.437 142.727 232.54 141.857 230.097C141.043 227.81 138.452 222.909 132.401 222.909V238.909ZM66.1498 347.276C63.7281 345.387 61.0381 344.823 59.1026 344.641C57.1517 344.457 55.1976 344.596 53.6305 344.754C49.9356 345.127 47.7263 345.584 45 345.584V361.584C48.7658 361.584 53.1837 360.881 55.237 360.674C56.544 360.542 57.2441 360.536 57.601 360.57C57.9733 360.605 57.2444 360.621 56.3104 359.893L66.1498 347.276Z" fill="#000000" fill-opacity="0.9"/>
<path d="M267.97 367.206C269.28 356.495 260.828 240.464 265.091 240.464C282.804 240.464 335.052 351.952 339.97 370.906C343.727 370.906 349.364 370.906 355 372.785" stroke="#000000" stroke-opacity="0.9" stroke-width="16" stroke-linecap="round" stroke-linejoin="round"/>
<path d="M220.011 174.732C224.265 173.538 226.745 169.122 225.551 164.868C224.356 160.614 219.94 158.134 215.686 159.328L220.011 174.732ZM202.731 160.707C198.424 159.718 194.132 162.406 193.143 166.713C192.153 171.019 194.842 175.311 199.148 176.301L202.731 160.707ZM215.686 159.328C214.288 159.721 211.735 160.299 209.016 160.639C206.116 161.001 203.896 160.974 202.731 160.707L199.148 176.301C203.114 177.212 207.6 176.94 210.997 176.516C214.574 176.069 217.911 175.322 220.011 174.732L215.686 159.328Z" fill="#000000" fill-opacity="0.9"/>
<path d="M178.516 111.788C191.921 104.493 230.357 104.3 246.152 111.092" stroke="#000000" stroke-opacity="0.9" stroke-width="16" stroke-linecap="round" stroke-linejoin="round"/>
</svg>