<?xml version="1.0" encoding="utf-8"?><!-- Uploaded to: SVG Repo, www.svgrepo.com, Generator: SVG Repo Mixer Tools -->
<svg width="800px" height="800px" viewBox="0 0 400 400" fill="none" xmlns="http://www.w3.org/2000/svg">
<path d="M312.949 113.217C314.313 141.975 288.202 165.615 268.072 174.482" stroke="#000000" stroke-opacity="0.9" stroke-width="16" stroke-linecap="round" stroke-linejoin="round"/>
<path d="M288.494 96.8799C270.946 134.993 237.634 173.463 193.193 185.374" stroke="#000000" stroke-opacity="0.9" stroke-width="16" stroke-linecap="round" stroke-linejoin="round"/>
<path d="M244.928 98.2412C219.871 146.312 172.304 155.123 144.181 166.314" stroke="#000000" stroke-opacity="0.9" stroke-width="16" stroke-linecap="round" stroke-linejoin="round"/>
<path d="M258.893 254.807C261.009 245.066 257.255 227.692 256.197 223.494" stroke="#000000" stroke-opacity="0.9" stroke-width="16" stroke-linecap="round" stroke-linejoin="round"/>
<path d="M191.613 256.169C192.749 247.056 193.41 238.086 193.41 228.94" stroke="#000000" stroke-opacity="0.9" stroke-width="16" stroke-linecap="round" stroke-linejoin="round"/>
<path d="M195.485 298.799C215.232 295.651 248.139 295.651 258.213 295.651C288.709 295.651 230.109 383.157 193.193 310.135" stroke="#000000" stroke-opacity="0.9" stroke-width="16" stroke-linecap="round" stroke-linejoin="round"/>
<path opacity="0.503384" d="M92.6912 122.571C99.658 134.439 108.405 142.667 118.933 147.253C125.754 98.6256 131.914 69.6829 137.411 60.4253C140.311 55.5429 167.759 110.899 165.871 114.604C165.723 114.893 109.728 108.23 87 108.23" stroke="#000000" stroke-opacity="0.9" stroke-width="14" stroke-linecap="round" stroke-linejoin="round"/>
<path opacity="0.503384" d="M138.735 287.482C143.119 292.351 154.291 299.994 164.602 287.482" stroke="#000000" stroke-opacity="0.9" stroke-width="6" stroke-linecap="round" stroke-linejoin="round"/>
<path opacity="0.503384" d="M284.409 276.591C288.794 281.46 299.966 289.102 310.277 276.591" stroke="#000000" stroke-opacity="0.9" stroke-width="6" stroke-linecap="round" stroke-linejoin="round"/>
</svg>