<?xml version="1.0" encoding="utf-8"?><!-- Uploaded to: SVG Repo, www.svgrepo.com, Generator: SVG Repo Mixer Tools -->
<svg width="800px" height="800px" viewBox="0 0 400 400" fill="none" xmlns="http://www.w3.org/2000/svg">
<path d="M189 67C65.9891 92.0883 140.195 195.128 101 263" stroke="#000000" stroke-opacity="0.9" stroke-width="16" stroke-linecap="round" stroke-linejoin="round"/>
<path d="M172.509 66.7245C168.533 68.6526 166.874 73.4383 168.802 77.4137C170.73 81.3891 175.516 83.0487 179.491 81.1206L172.509 66.7245ZM246.648 77.1642L243.033 84.301L246.648 77.1642ZM284.93 265.743C286.997 269.648 291.839 271.138 295.743 269.07C299.648 267.003 301.138 262.161 299.07 258.257L284.93 265.743ZM179.491 81.1206C181.781 80.0099 185.969 79.0019 191.879 78.4505C197.597 77.917 204.253 77.8676 211.008 78.2479C217.754 78.6277 224.44 79.4271 230.203 80.5338C236.111 81.6684 240.519 83.0276 243.033 84.301L250.263 70.0274C245.76 67.7466 239.627 66.0511 233.221 64.8209C226.67 63.563 219.269 62.6876 211.907 62.2732C204.552 61.8591 197.077 61.896 190.393 62.5197C183.9 63.1255 177.414 64.3455 172.509 66.7245L179.491 81.1206ZM243.033 84.301C258.012 91.8876 266.016 102.407 270.377 114.922C274.876 127.836 275.593 143.153 275.105 160.304C274.633 176.86 272.965 195.895 273.385 213.49C273.813 231.406 276.358 249.554 284.93 265.743L299.07 258.257C292.18 245.243 289.783 229.969 289.381 213.108C288.97 195.925 290.584 178.827 291.098 160.759C291.595 143.285 291.001 125.487 285.486 109.657C279.831 93.4283 269.115 79.576 250.263 70.0274L243.033 84.301Z" fill="#000000" fill-opacity="0.9"/>
<path d="M227.253 247.062C226.445 251.406 229.312 255.582 233.655 256.39C237.999 257.198 242.175 254.332 242.984 249.988L227.253 247.062ZM202.661 189L202.661 181H202.661V189ZM193.131 273.487L191.082 281.22C191.398 281.304 191.719 281.368 192.044 281.413L193.131 273.487ZM235.316 266.423C237.247 262.449 235.591 257.662 231.617 255.731C227.643 253.8 222.856 255.456 220.925 259.43L235.316 266.423ZM242.984 249.988C247.594 225.208 244.007 207.686 235.078 196.216C226.156 184.756 213.195 181 202.661 181L202.661 197C209.714 197 217.355 199.497 222.452 206.044C227.542 212.582 231.391 224.822 227.253 247.062L242.984 249.988ZM202.661 181C197.308 181 191.185 181.521 184.997 184.393C178.723 187.305 173.113 192.284 168.082 199.986L181.477 208.736C185.21 203.022 188.685 200.32 191.733 198.906C194.866 197.451 198.302 197 202.661 197V181ZM168.082 199.986C164.849 204.935 163.141 212.028 162.423 219.065C161.678 226.364 161.891 234.68 163.269 242.778C164.64 250.832 167.234 259.084 171.546 265.98C175.897 272.937 182.26 278.883 191.082 281.22L195.18 265.754C191.318 264.731 187.95 262.034 185.112 257.496C182.236 252.897 180.184 246.804 179.042 240.093C177.908 233.427 177.741 226.56 178.34 220.69C178.966 214.558 180.327 210.497 181.477 208.736L168.082 199.986ZM192.044 281.413C197.356 282.142 205.624 282.427 213.576 280.855C221.178 279.353 230.827 275.659 235.316 266.423L220.925 259.43C219.814 261.715 216.634 263.941 210.474 265.159C204.664 266.307 198.236 266.113 194.218 265.561L192.044 281.413Z" fill="#000000" fill-opacity="0.9"/>
<path d="M212 216.885C206.962 217.403 202.022 216 197 216" stroke="#000000" stroke-opacity="0.9" stroke-width="16" stroke-linecap="round" stroke-linejoin="round"/>
<path d="M227 156.885C213 151 192.5 152.5 184 156" stroke="#000000" stroke-opacity="0.9" stroke-width="16" stroke-linecap="round" stroke-linejoin="round"/>
<path d="M220 110C206.56 130.693 178.367 139.279 154.175 132.978" stroke="#000000" stroke-opacity="0.9" stroke-width="16" stroke-linecap="round" stroke-linejoin="round"/>
<path d="M139.931 164.639C122.485 167.291 133.841 185.704 143.989 189.577C146.499 202.5 156.999 226.5 169.499 235M263.023 164C276 164 268.499 178 260.024 183.203C260.024 203 247 223.5 237.937 231" stroke="#000000" stroke-opacity="0.9" stroke-width="16" stroke-linecap="round" stroke-linejoin="round"/>
<path d="M220 110C220.124 115.665 239.859 133.007 250 137" stroke="#000000" stroke-opacity="0.9" stroke-width="16" stroke-linecap="round" stroke-linejoin="round"/>
<path d="M190.537 169.481C190.513 166.977 190.796 164.46 191.038 161.986" stroke="#000000" stroke-opacity="0.9" stroke-width="16" stroke-linecap="round" stroke-linejoin="round"/>
<path d="M220.13 169.481C219.732 168.41 220.759 164.149 220.13 161.986" stroke="#000000" stroke-opacity="0.9" stroke-width="16" stroke-linecap="round" stroke-linejoin="round"/>
<path d="M255.795 246L257.073 238.103C254.624 237.706 252.129 238.469 250.32 240.167C248.511 241.865 247.592 244.307 247.832 246.776L255.795 246ZM325.888 330.659C327.91 334.587 332.734 336.132 336.662 334.109C340.591 332.086 342.135 327.262 340.112 323.334L325.888 330.659ZM152.913 244.825C152.264 240.454 148.195 237.438 143.825 238.087C139.454 238.736 136.438 242.805 137.087 247.175L152.913 244.825ZM254.516 253.897C268.726 256.198 282.918 267.658 295.869 283.451C308.587 298.959 318.977 317.239 325.888 330.659L340.112 323.334C333.001 309.523 322.008 290.092 308.24 273.304C294.705 256.8 277.305 241.378 257.073 238.103L254.516 253.897ZM247.832 246.776C247.917 247.648 247.806 249.527 247.101 252.58C246.426 255.501 245.323 259.023 243.822 262.967C240.821 270.851 236.403 279.974 231.248 288.635C226.072 297.332 220.332 305.259 214.781 310.93C208.842 316.997 204.609 318.947 202.46 318.999L202.847 334.994C211.727 334.779 219.86 328.614 226.215 322.123C232.956 315.236 239.437 306.161 244.997 296.818C250.579 287.439 255.415 277.485 258.775 268.658C260.454 264.247 261.808 260.005 262.691 256.18C263.543 252.487 264.09 248.637 263.757 245.224L247.832 246.776ZM202.46 318.999C200.474 319.047 196.372 317.375 190.341 311.409C184.719 305.849 178.827 297.962 173.336 289.2C167.878 280.49 162.994 271.203 159.332 263.047C155.572 254.671 153.41 248.17 152.913 244.825L137.087 247.175C137.927 252.83 140.883 261.02 144.736 269.601C148.688 278.403 153.915 288.341 159.779 297.696C165.609 307.001 172.251 316.021 179.089 322.785C185.518 329.144 193.804 335.213 202.847 334.994L202.46 318.999Z" fill="#000000" fill-opacity="0.9"/>
<path d="M143 247C87.1387 268.673 76.3777 295.511 65 330" stroke="#000000" stroke-opacity="0.9" stroke-width="16" stroke-linecap="round" stroke-linejoin="round"/>
</svg>