<?xml version="1.0" encoding="utf-8"?><!-- Uploaded to: SVG Repo, www.svgrepo.com, Generator: SVG Repo Mixer Tools -->
<svg width="800px" height="800px" viewBox="0 0 400 400" fill="none" xmlns="http://www.w3.org/2000/svg">
<path d="M124.358 199.901C116.323 200.943 113.41 205.949 113.41 213.893C113.41 219.189 118.718 223.565 129.332 227.02C141.318 309.749 265.334 309.749 272.793 220.355C282.58 214.122 287.474 209.619 287.474 206.847C287.474 201.752 285.693 198.161 276.47 195.05" stroke="#000000" stroke-opacity="0.9" stroke-width="16" stroke-linecap="round" stroke-linejoin="round"/>
<path d="M146 171.209C156.813 152.731 160.789 134.254 160.789 134.254C160.789 134.254 187.231 161.405 261.046 171.209" stroke="#000000" stroke-opacity="0.9" stroke-width="16" stroke-linecap="round" stroke-linejoin="round"/>
<path d="M278.835 169.819C279.282 174.214 283.207 177.415 287.603 176.968C291.998 176.521 295.199 172.596 294.752 168.2L278.835 169.819ZM190.999 83.2539V91.2539V83.2539ZM93.8582 194.997C96.0606 198.827 100.951 200.147 104.781 197.945C108.611 195.742 109.931 190.852 107.729 187.022L93.8582 194.997ZM294.752 168.2C292.636 147.392 285.246 124.16 268.829 106.014C252.203 87.6387 227.01 75.2539 190.999 75.2539V91.2539C222.989 91.2539 243.692 102.08 256.964 116.749C270.444 131.648 276.951 151.294 278.835 169.819L294.752 168.2ZM190.999 75.2539C153.553 75.2539 124.971 97.5915 108.02 122.649C99.5195 135.216 93.6949 148.795 91.0335 161.251C88.4384 173.397 88.5837 185.824 93.8582 194.997L107.729 187.022C105.337 182.861 104.424 175.153 106.68 164.594C108.87 154.346 113.806 142.653 121.273 131.614C136.259 109.461 160.446 91.2539 190.999 91.2539V75.2539Z" fill="#000000" fill-opacity="0.9"/>
<path d="M148.054 68.2852C145.862 72.1214 147.195 77.0082 151.031 79.2003C154.867 81.3924 159.754 80.0596 161.946 76.2235L148.054 68.2852ZM211.03 81.3638C212.612 85.4893 217.238 87.5515 221.364 85.9698C225.489 84.3882 227.551 79.7617 225.97 75.6362L211.03 81.3638ZM161.946 76.2235C168.109 65.4389 171.663 60.1339 175.199 57.2617C177.969 55.0114 181.247 53.8603 188.832 54.2441L189.64 38.2646C179.989 37.7761 172.149 39.1249 165.11 44.8428C158.837 49.9386 153.891 58.0699 148.054 68.2852L161.946 76.2235ZM188.832 54.2441C190.72 54.3397 193.064 55.3111 195.854 57.7181C198.619 60.1031 201.263 63.427 203.621 67.0598C205.95 70.6476 207.822 74.2604 209.119 77.0035C209.763 78.3655 210.254 79.4898 210.578 80.2593C210.74 80.6435 210.86 80.9377 210.936 81.1271C210.974 81.2217 211.001 81.29 211.017 81.3301C211.025 81.3502 211.03 81.3632 211.032 81.3689C211.033 81.3717 211.034 81.3728 211.033 81.3719C211.033 81.3715 211.033 81.3706 211.032 81.3693C211.032 81.3686 211.031 81.3672 211.031 81.3669C211.031 81.3654 211.03 81.3638 218.5 78.5C225.97 75.6362 225.969 75.6343 225.968 75.6324C225.968 75.6316 225.967 75.6295 225.967 75.6279C225.965 75.6246 225.964 75.6209 225.962 75.6167C225.959 75.6082 225.955 75.5979 225.95 75.5857C225.941 75.5612 225.928 75.5292 225.913 75.4898C225.882 75.4112 225.839 75.3032 225.785 75.1678C225.677 74.8972 225.521 74.5165 225.321 74.0412C224.92 73.0915 224.337 71.758 223.584 70.1651C222.087 66.9984 219.875 62.7134 217.042 58.3489C214.238 54.0293 210.644 49.3462 206.306 45.6034C201.993 41.8826 196.37 38.6052 189.64 38.2646L188.832 54.2441Z" fill="#000000" fill-opacity="0.9"/>
<path d="M186.239 204.569C186.448 200.44 187.255 196.543 187.651 192.634" stroke="#000000" stroke-opacity="0.9" stroke-width="16" stroke-linecap="round" stroke-linejoin="round"/>
<path d="M218.512 203.574C218.94 199.288 218.321 194.941 217.985 190.645" stroke="#000000" stroke-opacity="0.9" stroke-width="16" stroke-linecap="round" stroke-linejoin="round"/>
<path d="M313.373 359.267C315.847 362.927 320.821 363.888 324.481 361.414C328.141 358.939 329.102 353.965 326.627 350.305L313.373 359.267ZM234 307.004L232.669 314.892L234 307.004ZM164 307.004L171.68 304.765C171.069 302.668 169.627 300.913 167.69 299.906C165.752 298.899 163.487 298.727 161.42 299.431L164 307.004ZM73.3518 338.815C70.2228 341.934 70.2151 346.999 73.3345 350.128C76.4539 353.257 81.5192 353.265 84.6482 350.146L73.3518 338.815ZM326.627 350.305C309.976 325.678 278.79 306.449 235.331 299.116L232.669 314.892C273.018 321.701 299.781 339.165 313.373 359.267L326.627 350.305ZM235.331 299.116C230.763 298.345 227.318 300.567 225.326 302.616C223.508 304.485 222.221 306.834 221.302 308.713C220.33 310.7 219.388 312.985 218.508 315.114C217.591 317.333 216.685 319.524 215.672 321.694C211.365 330.924 206.953 335.816 199.798 335.55L199.202 351.538C217.166 352.208 225.674 338.099 230.172 328.46C231.36 325.913 232.398 323.395 233.295 321.226C234.228 318.968 234.968 317.187 235.674 315.744C236.433 314.193 236.82 313.746 236.797 313.77C236.6 313.972 235.072 315.298 232.669 314.892L235.331 299.116ZM199.798 335.55C191.282 335.232 184.39 328.978 179.081 320.63C176.543 316.639 174.667 312.617 173.423 309.564C172.806 308.048 172.356 306.8 172.066 305.952C171.922 305.528 171.818 305.206 171.754 305.002C171.721 304.9 171.699 304.828 171.687 304.788C171.681 304.768 171.677 304.755 171.676 304.751C171.676 304.749 171.676 304.75 171.676 304.752C171.677 304.753 171.677 304.755 171.678 304.757C171.678 304.758 171.679 304.76 171.679 304.76C171.68 304.762 171.68 304.765 164 307.004C156.32 309.243 156.321 309.246 156.321 309.249C156.322 309.25 156.322 309.252 156.323 309.255C156.324 309.259 156.326 309.264 156.327 309.269C156.331 309.28 156.334 309.293 156.339 309.308C156.348 309.339 156.36 309.377 156.374 309.425C156.403 309.519 156.442 309.647 156.492 309.806C156.592 310.124 156.736 310.568 156.924 311.12C157.3 312.222 157.857 313.763 158.606 315.6C160.093 319.251 162.383 324.189 165.58 329.216C171.741 338.904 182.598 350.92 199.202 351.538L199.798 335.55ZM164 307.004C161.42 299.431 161.42 299.432 161.419 299.432C161.418 299.432 161.417 299.432 161.416 299.433C161.413 299.434 161.409 299.435 161.404 299.437C161.394 299.44 161.38 299.445 161.362 299.451C161.325 299.464 161.271 299.482 161.201 299.506C161.059 299.555 160.852 299.626 160.582 299.719C160.042 299.905 159.252 300.178 158.244 300.53C156.229 301.233 153.341 302.251 149.836 303.512C142.833 306.031 133.344 309.532 123.431 313.447C113.539 317.353 103.12 321.713 94.2951 325.952C85.863 330.003 77.6996 334.48 73.3518 338.815L84.6482 350.146C86.7926 348.008 92.5002 344.565 101.223 340.375C109.553 336.373 119.572 332.173 129.308 328.329C139.021 324.492 148.348 321.051 155.253 318.567C158.703 317.326 161.542 316.325 163.516 315.637C164.503 315.292 165.273 315.026 165.794 314.846C166.055 314.756 166.253 314.688 166.385 314.643C166.452 314.62 166.501 314.603 166.534 314.592C166.55 314.587 166.562 314.583 166.57 314.58C166.573 314.579 166.576 314.578 166.578 314.577C166.579 314.577 166.579 314.577 166.58 314.577C166.58 314.577 166.58 314.577 164 307.004Z" fill="#000000" fill-opacity="0.9"/>
</svg>