<?xml version="1.0" encoding="utf-8"?><!-- Uploaded to: SVG Repo, www.svgrepo.com, Generator: SVG Repo Mixer Tools -->
<svg width="800px" height="800px" viewBox="0 0 400 400" fill="none" xmlns="http://www.w3.org/2000/svg">
<path d="M147.621 76.4442C199.411 21.8283 339.697 88.3107 323.744 200.551C320.891 220.597 284.363 277.068 293.805 288.929" stroke="#000000" stroke-opacity="0.9" stroke-width="16" stroke-linecap="round" stroke-linejoin="round"/>
<path d="M111.444 91.8105C40.4906 143.267 115.34 236.137 91.5099 278.821" stroke="#000000" stroke-opacity="0.9" stroke-width="16" stroke-linecap="round" stroke-linejoin="round"/>
<path d="M260.944 142.354C291.001 293 110 285 133 161" stroke="#000000" stroke-opacity="0.9" stroke-width="16" stroke-linecap="round" stroke-linejoin="round"/>
<path d="M142 141.955C152.813 123.477 156.789 105 156.789 105C156.789 105 183.231 132.151 257.046 141.955" stroke="#000000" stroke-opacity="0.9" stroke-width="16" stroke-linecap="round" stroke-linejoin="round"/>
<path d="M75 342C80.7612 330.675 120.048 276.567 161.324 276.567C169.61 276.567 165.518 307.883 202.552 307.883C224.678 307.883 234.917 273.767 243.899 273.767C270.83 273.767 307.169 307.883 323.821 342" stroke="#000000" stroke-opacity="0.9" stroke-width="16" stroke-linecap="round" stroke-linejoin="round"/>
</svg>