<?xml version="1.0" encoding="utf-8"?><!-- Uploaded to: SVG Repo, www.svgrepo.com, Generator: SVG Repo Mixer Tools -->
<svg width="800px" height="800px" viewBox="0 0 400 400" fill="none" xmlns="http://www.w3.org/2000/svg">
<path d="M152.609 170.865C177.249 170.78 204.418 169.112 228.808 170.009" stroke="#000000" stroke-opacity="0.9" stroke-width="16" stroke-linecap="round" stroke-linejoin="round"/>
<path d="M210.259 182.071C212.287 178.517 211.496 173.06 210.259 170.865" stroke="#000000" stroke-opacity="0.9" stroke-width="16" stroke-linecap="round" stroke-linejoin="round"/>
<path d="M169.656 183.191C169.741 179.08 169.477 174.964 169.163 170.865" stroke="#000000" stroke-opacity="0.9" stroke-width="16" stroke-linecap="round" stroke-linejoin="round"/>
<path d="M260.184 290.766C297.702 295.228 331.193 331.729 346.468 353.518" stroke="#000000" stroke-opacity="0.9" stroke-width="16" stroke-linecap="round" stroke-linejoin="round"/>
<path d="M130 292C75.571 308.19 65.0859 328.237 54 354" stroke="#000000" stroke-opacity="0.9" stroke-width="16" stroke-linecap="round" stroke-linejoin="round"/>
<path d="M128.362 207.844C117.756 220.155 111.59 272.301 135.564 232.46C136.024 231.695 114.272 269.927 121.677 268.872C130.816 267.571 149.109 242.119 149.451 242.204C151.204 242.642 142.529 253.544 142.249 253.999C137.489 261.766 134.21 271.663 130.935 280.154C124.09 297.9 160.252 253.485 158.709 258.103C156.868 263.609 134.928 298.405 144.822 301.694C156.606 305.61 169.27 266.954 170.539 258.103" stroke="#000000" stroke-opacity="0.9" stroke-width="16" stroke-linecap="round" stroke-linejoin="round"/>
<path d="M263.691 206.724C264.6 211.399 279.75 235.837 276.549 240.633C274.058 244.367 251.944 222.525 253.404 224.193C272.071 245.501 289.71 300.551 244.661 237.55C239.097 229.771 259.448 291.669 258.035 293.554C255.498 296.932 234.494 256.742 232.831 257.075C230.822 257.476 248.55 292.734 240.546 294.067C232.223 295.453 228.673 272.784 227.688 267.864" stroke="#000000" stroke-opacity="0.9" stroke-width="16" stroke-linecap="round" stroke-linejoin="round"/>
<path d="M180.624 252.846C188.891 234.511 194.054 259.491 196.846 258.222C200.448 256.585 199.771 247.571 202.929 244.779C208.752 239.63 208.735 254.624 209.519 254.459C216.096 253.062 217.412 243.242 223.205 255.533" stroke="#000000" stroke-opacity="0.9" stroke-width="16" stroke-linecap="round" stroke-linejoin="round"/>
<path d="M173.9 294.128C181.83 308.083 210.046 309.22 217.603 296.323" stroke="#000000" stroke-opacity="0.9" stroke-width="16" stroke-linecap="round" stroke-linejoin="round"/>
<path d="M135.95 99.1489C134.235 57.8194 146.586 37.0066 212.804 43.0201C224.47 44.0797 237.023 44.868 244.496 51.6551" stroke="#000000" stroke-opacity="0.9" stroke-width="16" stroke-linecap="round" stroke-linejoin="round"/>
<path d="M160.454 114.837C218.457 34.9334 267.328 92.6915 276.993 106.24" stroke="#000000" stroke-opacity="0.9" stroke-width="16" stroke-linecap="round" stroke-linejoin="round"/>
<path d="M200.794 120.223C205.2 115.442 210.042 112.365 219.798 105.222C259.177 76.3923 272.594 157.894 262.624 188.794" stroke="#000000" stroke-opacity="0.9" stroke-width="16" stroke-linecap="round" stroke-linejoin="round"/>
<path d="M132.44 100.346C114.075 87.0829 100.889 134.503 109.22 147.333" stroke="#000000" stroke-opacity="0.9" stroke-width="16" stroke-linecap="round" stroke-linejoin="round"/>
<path d="M118.011 174.866C103.9 172.798 110.002 201.267 124.596 196.666" stroke="#000000" stroke-opacity="0.9" stroke-width="16" stroke-linecap="round" stroke-linejoin="round"/>
<path d="M264.667 181.165C289.003 156.235 287.246 196.474 267.34 203.362" stroke="#000000" stroke-opacity="0.9" stroke-width="16" stroke-linecap="round" stroke-linejoin="round"/>
</svg>