<?xml version="1.0" encoding="utf-8"?><!-- Uploaded to: SVG Repo, www.svgrepo.com, Generator: SVG Repo Mixer Tools -->
<svg width="800px" height="800px" viewBox="0 0 400 400" fill="none" xmlns="http://www.w3.org/2000/svg">
<path d="M110.32 101.714C92.2188 115.056 85.1645 134.704 81.7861 155.939C57.5181 308.637 18.8981 25.2516 120.967 87.9592" stroke="#000000" stroke-opacity="0.9" stroke-width="16" stroke-linecap="round" stroke-linejoin="round"/>
<path d="M110.061 132.965C146.001 13.9999 299.001 56.9999 287.008 164.333C286.638 170.543 294.158 175.756 292.525 182.026C290.019 191.648 285.143 194.84 279.303 204.239C224.159 293 145.397 286 124.086 194.315C121.675 183.94 103.715 172.102 121.086 160.756" stroke="#000000" stroke-opacity="0.9" stroke-width="16" stroke-linecap="round" stroke-linejoin="round"/>
<path d="M282.22 88.6706C347.587 73.8902 356.693 201.719 339.232 201.719C331.178 201.719 308.718 174.287 280.361 109.006" stroke="#000000" stroke-opacity="0.9" stroke-width="16" stroke-linecap="round" stroke-linejoin="round"/>
<path d="M124.869 158.03C147.178 176.05 184.127 106.449 178.437 116.666C169.716 132.344 217.914 148.493 219.114 145.905C221.321 141.149 214.008 126.444 217.13 130.929C231.283 151.278 252.983 159.328 285 167" stroke="#000000" stroke-opacity="0.9" stroke-width="16" stroke-linecap="round" stroke-linejoin="round"/>
<path d="M188.264 191.532C188.264 184.599 188.264 186.293 189.544 181.064" stroke="#000000" stroke-opacity="0.9" stroke-width="16" stroke-linecap="round" stroke-linejoin="round"/>
<path d="M217.588 194.65C217.92 190.775 218.317 187.299 217.588 181.566" stroke="#000000" stroke-opacity="0.9" stroke-width="16" stroke-linecap="round" stroke-linejoin="round"/>
<path d="M211.882 231.157C205.21 234.13 195.688 231.863 190.873 229.977" stroke="#000000" stroke-opacity="0.9" stroke-width="16" stroke-linecap="round" stroke-linejoin="round"/>
<path d="M95 334.271C122.991 293.093 163.329 279.537 176.546 286.719C184.022 290.78 201.126 302.885 206.5 310.642C215.803 324.069 230.26 281.495 239.027 279.537C264.725 273.794 305.206 315.484 318 338" stroke="#000000" stroke-opacity="0.9" stroke-width="16" stroke-linecap="round" stroke-linejoin="round"/>
</svg>