<?xml version="1.0" encoding="utf-8"?><!-- Uploaded to: SVG Repo, www.svgrepo.com, Generator: SVG Repo Mixer Tools -->
<svg width="800px" height="800px" viewBox="0 0 400 400" fill="none" xmlns="http://www.w3.org/2000/svg">
<path d="M199.519 73.7885C177.952 66.2124 104.276 98.1284 121.208 187.022" stroke="#000000" stroke-opacity="0.5" stroke-width="16" stroke-linecap="round" stroke-linejoin="round"/>
<path d="M302.169 125.642C348.733 107.653 375.999 174.471 372.014 203.954" stroke="#000000" stroke-opacity="0.5" stroke-width="16" stroke-linecap="round" stroke-linejoin="round"/>
<path d="M325.802 143.886C338.15 155.275 350.849 177.498 350.849 209.246" stroke="#000000" stroke-opacity="0.5" stroke-width="16" stroke-linecap="round" stroke-linejoin="round"/>
<path d="M225.888 76.9255C278.581 77.5281 321.832 171.307 282.062 194.43" stroke="#000000" stroke-opacity="0.5" stroke-width="16" stroke-linecap="round" stroke-linejoin="round"/>
<path d="M279.946 165.857C267.247 139.4 254.548 133.051 245.706 118.235" stroke="#000000" stroke-opacity="0.5" stroke-width="16" stroke-linecap="round" stroke-linejoin="round"/>
<path d="M147.288 157.05C155.072 146.808 164.307 133.051 180.47 111.886" stroke="#000000" stroke-opacity="0.5" stroke-width="16" stroke-linecap="round" stroke-linejoin="round"/>
<path d="M222.417 107.653C223.498 116.014 223.66 121.78 224.332 126" stroke="#000000" stroke-opacity="0.5" stroke-width="16" stroke-linecap="round" stroke-linejoin="round"/>
<path d="M203.22 107.653C201.724 113.676 199.02 120.871 196.652 125.646" stroke="#000000" stroke-opacity="0.5" stroke-width="16" stroke-linecap="round" stroke-linejoin="round"/>
<path d="M135 176C144.3 272.313 256.411 274.348 275 176" stroke="#000000" stroke-opacity="0.9" stroke-width="16" stroke-linecap="round" stroke-linejoin="round"/>
<path d="M120.15 137.284C68.2951 124.585 19.8623 166.497 24.9844 199.721" stroke="#000000" stroke-opacity="0.5" stroke-width="16" stroke-linecap="round" stroke-linejoin="round"/>
<path d="M93.1572 154.217C65.6051 156.062 45.1826 169.672 50.3047 202.896" stroke="#000000" stroke-opacity="0.5" stroke-width="16" stroke-linecap="round" stroke-linejoin="round"/>
<path d="M228 216.03C209.745 228.466 193.98 229.591 183 209C195.736 209 221.887 209 224.604 209" stroke="#000000" stroke-opacity="0.9" stroke-width="16" stroke-linecap="round" stroke-linejoin="round"/>
<path d="M224 178C224 175.237 224 172.665 224 170" stroke="#000000" stroke-opacity="0.9" stroke-width="16" stroke-linecap="round" stroke-linejoin="round"/>
<path d="M191.17 177.508C191.816 174.967 191.861 172.29 192.228 169.508" stroke="#000000" stroke-opacity="0.9" stroke-width="16" stroke-linecap="round" stroke-linejoin="round"/>
<path d="M73.9017 328.361C71.8577 332.278 73.3761 337.11 77.2932 339.154C81.2102 341.198 86.0426 339.68 88.0866 335.763L73.9017 328.361ZM168.839 265.333L173.461 258.803C172.109 257.847 170.495 257.333 168.839 257.333V265.333ZM242.115 265.333L242.115 257.333C241.359 257.333 240.606 257.44 239.88 257.651L242.115 265.333ZM313.886 340.493C315.652 344.543 320.367 346.394 324.417 344.627C328.467 342.861 330.318 338.146 328.551 334.096L313.886 340.493ZM88.0866 335.763C102.919 307.338 115.694 292.023 128.06 283.654C140.153 275.469 152.729 273.333 168.839 273.333V257.333C151.221 257.333 134.951 259.669 119.092 270.403C103.505 280.952 89.2222 299.001 73.9017 328.361L88.0866 335.763ZM164.217 271.863C165.62 272.856 167.16 274.328 169.499 276.597C171.673 278.707 174.369 281.328 177.545 283.782C184.124 288.864 192.842 293.294 205.067 293.294V277.294C197.193 277.294 191.823 274.593 187.326 271.12C184.964 269.295 182.875 267.283 180.642 265.115C178.574 263.108 176.084 260.66 173.461 258.803L164.217 271.863ZM205.067 293.294C217.758 293.294 226.431 287.727 232.712 282.486C234.25 281.203 235.671 279.917 236.93 278.769C238.233 277.582 239.312 276.591 240.359 275.698C242.562 273.82 243.716 273.199 244.349 273.015L239.88 257.651C235.792 258.841 232.466 261.402 229.978 263.523C228.679 264.631 227.359 265.844 226.154 266.943C224.905 268.081 223.708 269.161 222.461 270.201C217.605 274.254 212.477 277.294 205.067 277.294V293.294ZM242.115 273.333C245.534 273.333 250.899 275.016 257.863 279.054C264.614 282.969 272.053 288.619 279.388 295.357C294.17 308.935 307.585 326.049 313.886 340.493L328.551 334.096C321.069 316.944 306.001 298.077 290.212 283.573C282.262 276.271 273.893 269.854 265.89 265.213C258.1 260.696 249.765 257.333 242.115 257.333L242.115 273.333Z" fill="#000000" fill-opacity="0.9"/>
</svg>