<?xml version="1.0" encoding="utf-8"?><!-- Uploaded to: SVG Repo, www.svgrepo.com, Generator: SVG Repo Mixer Tools -->
<svg width="800px" height="800px" viewBox="0 0 400 400" fill="none" xmlns="http://www.w3.org/2000/svg">
<path d="M98.286 176.081C102.197 178.137 107.034 176.634 109.09 172.724C111.147 168.813 109.644 163.976 105.733 161.92L98.286 176.081ZM130.549 139.553L132.176 131.72L130.549 139.553ZM277.379 139.553L278.653 131.655C276.188 131.257 273.678 132.033 271.868 133.754L277.379 139.553ZM356 139.553L362.466 144.264C364.398 141.612 364.515 138.049 362.761 135.276L356 139.553ZM307.827 155.93C303.454 156.559 300.419 160.615 301.048 164.988C301.677 169.361 305.732 172.396 310.105 171.767L307.827 155.93ZM47 134L40.4692 129.38C39.3277 130.993 38.8239 132.972 39.0548 134.935L47 134ZM128.921 147.385C156.239 153.061 191.237 155.285 220.477 155.007C235.123 154.868 248.535 154.1 258.993 152.771C264.205 152.109 268.864 151.285 272.649 150.271C275.987 149.377 280.126 147.98 282.891 145.351L271.868 133.754C272.308 133.336 271.774 133.941 268.508 134.816C265.69 135.571 261.815 136.284 256.977 136.899C247.334 138.124 234.583 138.872 220.325 139.008C191.759 139.279 157.992 137.083 132.176 131.72L128.921 147.385ZM276.105 147.45C277.846 147.731 279.592 147.426 280.117 147.341C281.05 147.191 282.125 146.967 283.228 146.721C285.429 146.229 288.363 145.505 291.552 144.741C298.074 143.178 306.274 141.296 314.663 140.02C323.142 138.731 331.323 138.143 337.904 138.926C344.731 139.737 347.938 141.772 349.239 143.829L362.761 135.276C357.562 127.057 348.24 124.042 339.793 123.038C331.1 122.004 321.261 122.833 312.259 124.202C303.167 125.584 294.423 127.6 287.823 129.182C284.451 129.99 281.78 130.65 279.741 131.105C278.725 131.332 278.021 131.473 277.568 131.546C276.708 131.684 277.461 131.462 278.653 131.655L276.105 147.45ZM349.534 134.841C348.615 136.104 346.113 138.229 341.717 140.891C337.574 143.4 332.552 145.916 327.514 148.192C322.5 150.458 317.61 152.424 313.8 153.844C311.894 154.554 310.295 155.114 309.113 155.5C307.645 155.979 307.415 155.989 307.827 155.93L310.105 171.767C311.323 171.592 312.926 171.086 314.08 170.709C315.521 170.238 317.333 169.602 319.386 168.837C323.496 167.306 328.723 165.204 334.103 162.773C339.46 160.352 345.112 157.54 350.005 154.577C354.646 151.766 359.543 148.275 362.466 144.264L349.534 134.841ZM105.733 161.92C99.1438 158.455 92.4252 155.571 86.2189 152.988C79.8894 150.353 74.2767 148.102 69.3383 145.731C58.7958 140.67 55.3903 136.849 54.9452 133.065L39.0548 134.935C40.6097 148.151 52.2042 155.254 62.4141 160.155C67.8519 162.766 74.0535 165.255 80.0703 167.759C86.2105 170.315 92.3705 172.97 98.286 176.081L105.733 161.92ZM53.5308 138.621C54.2177 137.65 55.8614 136.36 60.2362 135.776C64.6027 135.193 70.4678 135.498 77.777 136.569C92.626 138.745 110.077 143.47 128.921 147.385L132.176 131.72C114.787 128.107 95.4639 122.99 80.0969 120.738C72.298 119.595 64.6946 119.039 58.1197 119.917C51.5531 120.793 44.7823 123.283 40.4692 129.38L53.5308 138.621Z" fill="#000000" fill-opacity="0.9"/>
<path d="M125 140C126.155 113.518 144.177 46.9893 175.914 53.2305C185.823 55.1782 193.484 59.3547 203.572 59.3547C213.609 59.3547 220.468 54.4023 230.601 51.7479C263.372 43.1538 276.395 110.956 279 135.55" stroke="#000000" stroke-opacity="0.9" stroke-width="16" stroke-linecap="round" stroke-linejoin="round"/>
<path d="M187.789 195.843C187.789 188.829 187.452 192.001 188.471 186.302" stroke="#000000" stroke-opacity="0.9" stroke-width="16" stroke-linecap="round" stroke-linejoin="round"/>
<path d="M221.533 195.843C221.533 192.663 221.533 189.482 221.533 186.302" stroke="#000000" stroke-opacity="0.9" stroke-width="16" stroke-linecap="round" stroke-linejoin="round"/>
<path d="M127.349 177.004C119.363 178.191 116.468 183.901 116.468 192.961C116.468 199 121.743 203.991 132.294 207.932C144.207 302.28 267.472 302.28 274.886 200.331C284.614 193.222 289.478 188.087 289.478 184.925C289.478 179.115 287.708 175.019 278.541 171.472" stroke="#000000" stroke-opacity="0.9" stroke-width="16" stroke-linecap="round" stroke-linejoin="round"/>
<path d="M73 348C72.9996 331 72.1957 297.942 81.973 288.154C88.6851 281.442 101.506 280.996 112.232 278.641C124.775 275.886 141.16 274.046 159.16 272.927" stroke="#000000" stroke-opacity="0.9" stroke-width="16" stroke-linecap="round" stroke-linejoin="round"/>
<path d="M232.344 271.73C274.278 272.616 309.96 276.013 312.526 279.506C319.854 289.479 320.999 298.112 320.999 337.285" stroke="#000000" stroke-opacity="0.9" stroke-width="16" stroke-linecap="round" stroke-linejoin="round"/>
<path d="M195.755 299C195.755 308 195.755 333 195.755 344" stroke="#000000" stroke-opacity="0.9" stroke-width="16" stroke-linecap="round" stroke-linejoin="round"/>
<path d="M271 329C264.8 329 247.578 329 240 329" stroke="#000000" stroke-opacity="0.9" stroke-width="16" stroke-linecap="round" stroke-linejoin="round"/>
</svg>