<?xml version="1.0" encoding="utf-8"?><!-- Uploaded to: SVG Repo, www.svgrepo.com, Generator: SVG Repo Mixer Tools -->
<svg width="800px" height="800px" viewBox="0 0 400 400" fill="none" xmlns="http://www.w3.org/2000/svg">
<path opacity="0.503384" d="M206.359 65.5592C198.945 104.358 170.139 144.529 137.216 166.418C130.495 170.888 108.185 189.537 99.2491 189.537C91.1186 189.537 92.2681 145.475 92.8551 140.507C98.5391 92.3113 131.608 51.3467 187.975 52.0079C222.548 52.4135 249.722 52.4143 282.645 73.6652C323.955 100.326 329.283 137.741 307.074 173.991C306.269 175.306 301.749 188.521 301.078 188.741C272.06 198.39 199.676 120.189 208.355 59.5812" stroke="#000000" stroke-opacity="0.9" stroke-width="14" stroke-linecap="round" stroke-linejoin="round"/>
<path d="M312.373 351.481C314.847 355.141 319.821 356.102 323.481 353.627C327.141 351.153 328.102 346.179 325.627 342.519L312.373 351.481ZM238 290.04L236.669 297.929L238 290.04ZM168 290.04L175.94 289.065C175.664 286.816 174.447 284.789 172.591 283.489C170.735 282.188 168.415 281.736 166.207 282.244L168 290.04ZM74.6852 342.089C71.9726 345.576 72.6009 350.602 76.0885 353.315C79.5761 356.027 84.6023 355.399 87.3148 351.912L74.6852 342.089ZM325.627 342.519C310.053 319.485 284.452 289.765 239.331 282.152L236.669 297.929C275.356 304.456 297.704 329.786 312.373 351.481L325.627 342.519ZM239.331 282.152C233.061 281.094 229.406 285.951 228.266 287.651C226.721 289.956 225.482 292.898 224.451 295.644C223.377 298.507 222.288 301.832 221.192 305.175C220.075 308.581 218.922 312.095 217.652 315.594C215.064 322.723 212.236 329.071 208.92 333.485C205.655 337.833 202.889 339.102 200.298 339.006L199.702 354.995C209.671 355.366 216.852 349.567 221.714 343.094C226.525 336.688 230.002 328.463 232.692 321.053C234.061 317.282 235.289 313.534 236.396 310.16C237.523 306.722 238.5 303.748 239.431 301.267C240.406 298.668 241.114 297.22 241.555 296.562C242.402 295.299 240.774 298.621 236.669 297.929L239.331 282.152ZM200.298 339.006C197.291 338.894 194.117 337.175 190.723 332.801C187.319 328.413 184.448 322.26 182.145 315.566C179.873 308.963 178.311 302.311 177.317 297.262C176.822 294.751 176.474 292.668 176.251 291.227C176.139 290.506 176.06 289.948 176.009 289.578C175.983 289.394 175.965 289.256 175.954 289.17C175.948 289.126 175.944 289.095 175.942 289.078C175.941 289.069 175.94 289.064 175.94 289.061C175.94 289.06 175.94 289.06 175.94 289.061C175.94 289.061 175.94 289.062 175.94 289.062C175.94 289.064 175.94 289.065 168 290.04C160.06 291.015 160.06 291.017 160.06 291.019C160.06 291.02 160.061 291.023 160.061 291.025C160.061 291.029 160.062 291.034 160.063 291.039C160.064 291.051 160.066 291.066 160.068 291.084C160.073 291.12 160.079 291.17 160.087 291.232C160.104 291.358 160.127 291.535 160.158 291.761C160.22 292.212 160.313 292.859 160.439 293.672C160.69 295.298 161.076 297.599 161.618 300.355C162.699 305.839 164.428 313.252 167.016 320.772C169.572 328.201 173.132 336.229 178.082 342.609C183.043 349.003 190.149 354.639 199.702 354.995L200.298 339.006ZM168 290.04C166.207 282.244 166.204 282.244 166.201 282.245C166.2 282.245 166.197 282.246 166.194 282.247C166.189 282.248 166.183 282.249 166.177 282.251C166.163 282.254 166.147 282.258 166.128 282.262C166.088 282.271 166.037 282.284 165.973 282.299C165.845 282.33 165.668 282.373 165.444 282.43C164.996 282.544 164.359 282.71 163.551 282.935C161.936 283.385 159.632 284.069 156.777 285.03C151.071 286.95 143.135 289.984 134.071 294.478C115.986 303.445 93.1407 318.36 74.6852 342.089L87.3148 351.912C103.859 330.64 124.514 317.075 141.179 308.812C149.49 304.691 156.742 301.923 161.879 300.194C164.446 299.331 166.478 298.729 167.843 298.349C168.525 298.159 169.04 298.025 169.371 297.941C169.536 297.899 169.655 297.87 169.727 297.853C169.762 297.844 169.786 297.838 169.797 297.836C169.802 297.835 169.805 297.834 169.804 297.834C169.804 297.834 169.803 297.834 169.801 297.835C169.8 297.835 169.798 297.836 169.798 297.836C169.796 297.836 169.793 297.837 168 290.04Z" fill="#000000" fill-opacity="0.9"/>
<path d="M109.32 189.447C109.261 185.03 105.631 181.496 101.213 181.555C96.7954 181.615 93.2621 185.244 93.3213 189.662L109.32 189.447ZM217.944 272.118C222.151 270.768 224.467 266.264 223.118 262.057C221.769 257.849 217.264 255.533 213.057 256.882L217.944 272.118ZM93.3213 189.662C93.3977 195.358 93.3807 201.533 94.7932 208.31C96.2389 215.247 99.0944 222.52 104.501 231.157L118.063 222.666C113.508 215.391 111.462 209.869 110.457 205.046C109.418 200.064 109.401 195.516 109.32 189.447L93.3213 189.662ZM104.501 231.157C115.582 248.856 132.046 259.531 146.352 264.549L151.648 249.451C140.165 245.423 126.905 236.789 118.063 222.666L104.501 231.157ZM146.352 264.549C158.374 268.766 188.351 281.61 217.944 272.118L213.057 256.882C189.649 264.39 165.417 254.281 151.648 249.451L146.352 264.549Z" fill="#000000" fill-opacity="0.9"/>
<path d="M290.029 191.773C277.786 217.251 259.285 238.882 234.526 256.668" stroke="#000000" stroke-opacity="0.9" stroke-width="16" stroke-linecap="round" stroke-linejoin="round"/>
<path d="M166.297 204.299C165.703 274.736 230.365 212.183 218.684 200.218C214.266 195.698 174.119 201.244 165.703 200.627" stroke="#000000" stroke-opacity="0.9" stroke-width="16" stroke-linecap="round" stroke-linejoin="round"/>
<path d="M161.263 143.303C185.342 144.298 210.501 143.297 234.526 145.952" stroke="#000000" stroke-opacity="0.9" stroke-width="16" stroke-linecap="round" stroke-linejoin="round"/>
<path d="M141.282 164.662C156.797 198.819 188.865 180.128 191.234 148.51" stroke="#000000" stroke-opacity="0.9" stroke-width="16" stroke-linecap="round" stroke-linejoin="round"/>
<path d="M201.225 147.401C204.323 176.98 231.561 192.196 250.067 166.443" stroke="#000000" stroke-opacity="0.9" stroke-width="16" stroke-linecap="round" stroke-linejoin="round"/>
<path opacity="0.503384" d="M105.87 222.834C109.057 257.145 108.623 291.845 104.651 326" stroke="#000000" stroke-opacity="0.9" stroke-width="14" stroke-linecap="round" stroke-linejoin="round"/>
<path opacity="0.503384" d="M297.377 191.773C289.7 234.214 289.833 288.691 303.349 324.891" stroke="#000000" stroke-opacity="0.9" stroke-width="14" stroke-linecap="round" stroke-linejoin="round"/>
<path d="M90.4979 192.883C83.4053 203.567 93.057 203.096 99.1005 199.289" stroke="#000000" stroke-opacity="0.9" stroke-width="16" stroke-linecap="round" stroke-linejoin="round"/>
<path d="M90.7751 216.191C90.7751 215.812 90.7751 215.432 90.7751 215.056" stroke="#000000" stroke-opacity="0.9" stroke-width="6" stroke-linecap="round" stroke-linejoin="round"/>
<path d="M90.5967 232.101C90.4902 231.465 90.8465 230.839 90.973 230.207" stroke="#000000" stroke-opacity="0.9" stroke-width="6" stroke-linecap="round" stroke-linejoin="round"/>
<path d="M90.5739 252.785C91.2699 251.723 90.8236 250.569 90.9502 249.458" stroke="#000000" stroke-opacity="0.9" stroke-width="6" stroke-linecap="round" stroke-linejoin="round"/>
<path d="M298.909 190.553C313.384 187.106 307.27 193.774 300.835 192.781" stroke="#000000" stroke-opacity="0.9" stroke-width="16" stroke-linecap="round" stroke-linejoin="round"/>
<path d="M308.31 207.304C308.144 206.081 308.393 205.11 308.435 203.976" stroke="#000000" stroke-opacity="0.9" stroke-width="6" stroke-linecap="round" stroke-linejoin="round"/>
<path d="M307.226 228.381C307.263 227.275 307.226 226.162 307.226 225.053" stroke="#000000" stroke-opacity="0.9" stroke-width="6" stroke-linecap="round" stroke-linejoin="round"/>
<path d="M307.045 245.221C307.171 244.718 307.298 244.212 307.424 243.71" stroke="#000000" stroke-opacity="0.9" stroke-width="6" stroke-linecap="round" stroke-linejoin="round"/>
<path opacity="0.503384" d="M203.445 61.9839C161.584 101.091 125.741 122.437 111.311 184.008" stroke="#000000" stroke-opacity="0.9" stroke-width="14" stroke-linecap="round" stroke-linejoin="round"/>
<path opacity="0.503384" d="M211.215 63.0933C239.604 103.606 314.122 127.845 294.573 190.664" stroke="#000000" stroke-opacity="0.9" stroke-width="14" stroke-linecap="round" stroke-linejoin="round"/>
<path opacity="0.503384" d="M137.666 252.786C138.568 275.349 137.146 298.166 134.635 320.454" stroke="#000000" stroke-opacity="0.9" stroke-width="14" stroke-linecap="round" stroke-linejoin="round"/>
<path opacity="0.503384" d="M261.167 230.599C262.007 254.798 259.175 306.636 265.608 321.563" stroke="#000000" stroke-opacity="0.9" stroke-width="14" stroke-linecap="round" stroke-linejoin="round"/>
</svg>