<?xml version="1.0" encoding="utf-8"?><!-- Uploaded to: SVG Repo, www.svgrepo.com, Generator: SVG Repo Mixer Tools -->
<svg width="800px" height="800px" viewBox="0 0 400 400" fill="none" xmlns="http://www.w3.org/2000/svg">
<path d="M157.206 239.889C131.805 275.65 192.503 238.022 193.778 250.744" stroke="#000000" stroke-opacity="0.9" stroke-width="16" stroke-linecap="round" stroke-linejoin="round"/>
<path d="M207.223 248.16C210.56 246.063 214.065 245.807 217.364 248.16C250.078 271.493 252.387 240.936 237.649 243.739" stroke="#000000" stroke-opacity="0.9" stroke-width="16" stroke-linecap="round" stroke-linejoin="round"/>
<path d="M145.5 272.5C145.086 275.127 147.755 297.831 152.08 297.831C158.009 297.831 169.818 266.909 169.818 277.804C169.818 284.293 166.898 316.409 177.843 319.113C185.113 320.908 191.413 275.828 193.469 279.891C197.365 287.587 193.559 300.28 196.849 309.098C198.216 312.769 206.131 321.801 211.63 318.694C223.275 312.12 211.902 287.179 218.388 278.638C221.814 274.124 220.787 304.601 231.479 302.84C244.251 300.737 245.153 279.464 244.039 273.955" stroke="#000000" stroke-opacity="0.9" stroke-width="16" stroke-linecap="round" stroke-linejoin="round"/>
<path d="M118.4 175.111C95.3573 176.011 104.036 213.765 122.889 200.338" stroke="#000000" stroke-opacity="0.9" stroke-width="16" stroke-linecap="round" stroke-linejoin="round"/>
<path d="M279.085 175.193C297.451 173.312 294.525 204.491 276.889 198.879" stroke="#000000" stroke-opacity="0.9" stroke-width="16" stroke-linecap="round" stroke-linejoin="round"/>
<path d="M136.553 93.2222C130.596 32.8823 247.88 32.8823 256.112 40.4269" stroke="#000000" stroke-opacity="0.9" stroke-width="16" stroke-linecap="round" stroke-linejoin="round"/>
<path d="M163.223 107.889C226.488 23.0924 279.792 84.3875 290.334 98.7658" stroke="#000000" stroke-opacity="0.9" stroke-width="16" stroke-linecap="round" stroke-linejoin="round"/>
<path d="M208.445 115.633C213.25 110.549 218.532 107.276 229.172 99.6801C272.123 69.0217 286.758 155.694 275.883 188.556" stroke="#000000" stroke-opacity="0.9" stroke-width="16" stroke-linecap="round" stroke-linejoin="round"/>
<path d="M135.112 94.4708C114.209 80.333 99.2028 130.88 108.684 144.556" stroke="#000000" stroke-opacity="0.9" stroke-width="16" stroke-linecap="round" stroke-linejoin="round"/>
<path d="M265.889 290C306.81 294.78 343.34 333.881 360 357.222" stroke="#000000" stroke-opacity="0.9" stroke-width="16" stroke-linecap="round" stroke-linejoin="round"/>
<path d="M124.111 291.222C64.5893 310.052 53.1232 333.369 41 363.333" stroke="#000000" stroke-opacity="0.9" stroke-width="16" stroke-linecap="round" stroke-linejoin="round"/>
<path d="M152.222 173.889C179.097 173.796 208.731 171.976 235.333 172.955" stroke="#000000" stroke-opacity="0.9" stroke-width="16" stroke-linecap="round" stroke-linejoin="round"/>
<path d="M215.101 186.111C217.313 182.235 216.45 176.283 215.101 173.889" stroke="#000000" stroke-opacity="0.9" stroke-width="16" stroke-linecap="round" stroke-linejoin="round"/>
<path d="M170.815 187.334C170.908 182.849 170.619 178.36 170.277 173.889" stroke="#000000" stroke-opacity="0.9" stroke-width="16" stroke-linecap="round" stroke-linejoin="round"/>
</svg>