<?xml version="1.0" encoding="utf-8"?><!-- Uploaded to: SVG Repo, www.svgrepo.com, Generator: SVG Repo Mixer Tools -->
<svg width="800px" height="800px" viewBox="0 0 400 400" fill="none" xmlns="http://www.w3.org/2000/svg">
<path d="M137.992 372.805C148.634 346.955 179.945 238.68 164.36 226.95C155.406 233.636 100.571 323.208 88.4087 367.554C85.3701 367.554 77.8342 367.554 72 367.554" stroke="#000000" stroke-opacity="0.9" stroke-width="16" stroke-linecap="round" stroke-linejoin="round"/>
<path d="M243.267 372.805C244.216 336.662 238.982 235.187 243.267 228.773C299.031 273.438 302.295 334.5 309.12 372.805C312.69 372.805 321.314 372.805 327.247 372.805" stroke="#000000" stroke-opacity="0.9" stroke-width="16" stroke-linecap="round" stroke-linejoin="round"/>
<path d="M271.093 160.868C272.372 156.639 269.98 152.174 265.751 150.895C261.521 149.616 257.056 152.008 255.778 156.237L271.093 160.868ZM158.397 154.024C158.398 149.606 154.817 146.024 150.399 146.023C145.98 146.022 142.398 149.604 142.397 154.022L158.397 154.024ZM255.778 156.237C247.368 184.048 225.275 197.52 204.447 198.833L205.453 214.801C232.469 213.099 260.614 195.525 271.093 160.868L255.778 156.237ZM204.447 198.833C184.414 200.095 158.394 182.775 158.397 154.024L142.397 154.022C142.392 193.386 177.642 216.553 205.453 214.801L204.447 198.833Z" fill="#000000" fill-opacity="0.9"/>
<path d="M201.485 177.572C197.541 175.579 195.96 170.767 197.953 166.823C199.946 162.88 204.758 161.299 208.701 163.292L201.485 177.572ZM211.152 164.469C215.235 162.78 219.914 164.721 221.602 168.804C223.29 172.887 221.349 177.566 217.266 179.254L211.152 164.469ZM208.701 163.292C208.88 163.382 209.23 163.542 209.692 163.712C210.15 163.881 210.629 164.027 211.074 164.127C211.536 164.231 211.825 164.254 211.94 164.255C212.082 164.256 211.742 164.225 211.152 164.469L217.266 179.254C213.543 180.794 209.714 180.221 207.568 179.738C205.137 179.192 202.928 178.301 201.485 177.572L208.701 163.292Z" fill="#000000" fill-opacity="0.9"/>
<path d="M134.674 214.188C34.0576 32.075 351.391 -89.7995 293.443 207.874" stroke="#000000" stroke-opacity="0.9" stroke-width="16" stroke-linecap="round" stroke-linejoin="round"/>
<path d="M194 133C194.668 130.334 195 127 195 125" stroke="#000000" stroke-opacity="0.9" stroke-width="16" stroke-linecap="round" stroke-linejoin="round"/>
<path d="M231 133C231 130.334 231 127.669 231 125" stroke="#000000" stroke-opacity="0.9" stroke-width="16" stroke-linecap="round" stroke-linejoin="round"/>
<path d="M168 273C183 256.939 195.693 257.977 205 270.323" stroke="#000000" stroke-opacity="0.9" stroke-width="16" stroke-linecap="round" stroke-linejoin="round"/>
<path d="M205 270.214C220 256.281 230.433 258.907 242 273" stroke="#000000" stroke-opacity="0.9" stroke-width="16" stroke-linecap="round" stroke-linejoin="round"/>
<path d="M152.22 112.09C179.166 111.327 203.798 94.805 219.678 81.0957" stroke="#000000" stroke-opacity="0.9" stroke-width="16" stroke-linecap="round" stroke-linejoin="round"/>
<path d="M265.366 135.297C282.302 127.035 280.606 156.024 264.878 154.938" stroke="#000000" stroke-opacity="0.9" stroke-width="16" stroke-linecap="round" stroke-linejoin="round"/>
<path d="M148.365 134.517C142.058 132.792 137.575 151.217 150.106 152.913" stroke="#000000" stroke-opacity="0.9" stroke-width="16" stroke-linecap="round" stroke-linejoin="round"/>
</svg>