<?xml version="1.0" encoding="utf-8"?><!-- Uploaded to: SVG Repo, www.svgrepo.com, Generator: SVG Repo Mixer Tools -->
<svg width="800px" height="800px" viewBox="0 0 400 400" fill="none" xmlns="http://www.w3.org/2000/svg">
<path d="M86.2026 285.317C95.7078 273.785 104.521 274.665 116.485 280.55C157.298 300.623 76.686 360.034 80.752 296.04" stroke="#000000" stroke-opacity="0.9" stroke-width="16" stroke-linecap="round" stroke-linejoin="round"/>
<path opacity="0.503384" d="M137.064 204.565C127.407 219.233 115.042 231.881 104.257 245.805C92.1563 261.432 79.9402 270.298 73.1757 289.708C62.0402 321.66 95.8025 341.491 125.52 327.09C164.566 308.167 190.343 267.954 227.582 246.405" stroke="#000000" stroke-opacity="0.9" stroke-width="14" stroke-linecap="round" stroke-linejoin="round"/>
<path opacity="0.503384" d="M152.953 216.844C182.156 193.999 197.49 134.407 211.902 134.407C215.083 134.407 190.644 164.164 201.668 166.901C213.49 169.834 294.535 84.7844 309.751 68" stroke="#000000" stroke-opacity="0.9" stroke-width="14" stroke-linecap="round" stroke-linejoin="round"/>
<path opacity="0.503384" d="M329.428 93.4614C296.983 120.867 268.767 153.149 239.156 182.576" stroke="#000000" stroke-opacity="0.9" stroke-width="14" stroke-linecap="round" stroke-linejoin="round"/>
<path opacity="0.503384" d="M276.855 182.576C249.288 199.274 226.995 214.725 206.751 239.285" stroke="#000000" stroke-opacity="0.9" stroke-width="14" stroke-linecap="round" stroke-linejoin="round"/>
</svg>