<?xml version="1.0" encoding="utf-8"?><!-- Uploaded to: SVG Repo, www.svgrepo.com, Generator: SVG Repo Mixer Tools -->
<svg width="800px" height="800px" viewBox="0 0 400 400" fill="none" xmlns="http://www.w3.org/2000/svg">
<path opacity="0.503384" d="M163.374 124.556C146.946 135.22 66.0099 183.076 64.0217 187.396C62.0334 191.715 197.515 276.135 217.509 270.324C231.21 266.343 302.308 217.272 322.596 204.888C323.404 204.397 336.141 198.028 335.973 197.765C328.259 185.998 199.769 132.183 179.936 121.315" stroke="#000000" stroke-opacity="0.9" stroke-width="14" stroke-linecap="round" stroke-linejoin="round"/>
<path d="M102.462 195.384C71.4173 211.999 66.4861 205.871 69.3178 245.728" stroke="#000000" stroke-opacity="0.9" stroke-width="16" stroke-linecap="round" stroke-linejoin="round"/>
<path d="M136.912 213.901C96.2616 226.49 109.025 219.493 113.194 260.195" stroke="#000000" stroke-opacity="0.9" stroke-width="16" stroke-linecap="round" stroke-linejoin="round"/>
<path d="M168.62 225.888C160.406 229.45 152.036 233.667 150.468 235.237C144.148 241.561 148.166 277.311 148.166 273.177" stroke="#000000" stroke-opacity="0.9" stroke-width="16" stroke-linecap="round" stroke-linejoin="round"/>
<path d="M203.555 241.873C184.591 251.936 183.068 253.269 186.329 273.016C187.427 279.674 186.329 287.594 186.329 291.442" stroke="#000000" stroke-opacity="0.9" stroke-width="16" stroke-linecap="round" stroke-linejoin="round"/>
<path d="M235.275 238.619C264.413 246.307 261.865 248.818 261.865 278.712" stroke="#000000" stroke-opacity="0.9" stroke-width="16" stroke-linecap="round" stroke-linejoin="round"/>
<path d="M270.633 224.317C299.757 229.85 296.391 239.182 296.391 262.509" stroke="#000000" stroke-opacity="0.9" stroke-width="16" stroke-linecap="round" stroke-linejoin="round"/>
<path d="M296.691 206.45C300.159 208.326 322.844 215.302 328.458 220.999C332.349 224.947 328.458 256.823 328.458 252.92" stroke="#000000" stroke-opacity="0.9" stroke-width="16" stroke-linecap="round" stroke-linejoin="round"/>
<path d="M299.436 175.709C328.393 153.025 318.442 147.107 324.398 183.811" stroke="#000000" stroke-opacity="0.9" stroke-width="16" stroke-linecap="round" stroke-linejoin="round"/>
<path d="M266.533 152.526C283.669 131.837 282.727 145.212 282.727 165.294" stroke="#000000" stroke-opacity="0.9" stroke-width="16" stroke-linecap="round" stroke-linejoin="round"/>
<path d="M222.555 138.293C248.434 114.712 242.887 124.37 242.887 149.091" stroke="#000000" stroke-opacity="0.9" stroke-width="16" stroke-linecap="round" stroke-linejoin="round"/>
<path d="M190.149 121.618C200.614 105.755 210.212 99.2229 210.212 127.456" stroke="#000000" stroke-opacity="0.9" stroke-width="16" stroke-linecap="round" stroke-linejoin="round"/>
<path d="M82.5172 158.026C60.5619 143.95 64.0184 153.473 68.4407 175.709" stroke="#000000" stroke-opacity="0.9" stroke-width="16" stroke-linecap="round" stroke-linejoin="round"/>
<path d="M123.024 145.271C99.6368 140.27 90.1497 112.999 92.0019 148.578C92.3367 154.975 91.3497 162.443 95.1063 166.451" stroke="#000000" stroke-opacity="0.9" stroke-width="16" stroke-linecap="round" stroke-linejoin="round"/>
<path d="M143.855 122.135C116.096 95.6655 120.771 127.68 125.321 145.619" stroke="#000000" stroke-opacity="0.9" stroke-width="16" stroke-linecap="round" stroke-linejoin="round"/>
</svg>