<?xml version="1.0" encoding="utf-8"?><!-- Uploaded to: SVG Repo, www.svgrepo.com, Generator: SVG Repo Mixer Tools -->
<svg width="800px" height="800px" viewBox="0 0 400 400" fill="none" xmlns="http://www.w3.org/2000/svg">
<path d="M37 234.26C42.8964 224.806 48.0732 215.039 54.3394 205.847C63.4838 192.432 71.5688 178.623 83.5965 167.597C150.136 106.593 138.608 251.858 185.094 246.647C245.992 239.824 259.784 109.672 324.879 186.908C336.916 201.195 347.975 218.925 357.024 235.354" stroke="#000000" stroke-opacity="0.9" stroke-width="12" stroke-linecap="round" stroke-linejoin="round"/>
<path d="M37 172.479C41.7966 180.334 46.7023 188.05 52.0593 195.522C60.4819 207.267 67.208 219.506 77.1582 230.091C111.543 266.648 156.582 173.425 175.044 159.518C181.353 154.766 188.506 153.994 196.199 154.477C206.006 155.095 213.297 161.207 219.86 167.802C261.248 209.36 257.469 267.973 324.199 226.49C340.399 216.418 351.788 201.185 364 186.885" stroke="#000000" stroke-opacity="0.9" stroke-width="12" stroke-linecap="round" stroke-linejoin="round"/>
<path d="M70.8145 192.72C71.0891 189.225 71.6603 185.714 72.0745 182.256" stroke="#000000" stroke-opacity="0.9" stroke-width="16" stroke-linecap="round" stroke-linejoin="round"/>
<path opacity="0.503384" d="M88.1973 184.873C88.5809 177.614 88.6995 170.348 88.6995 163.073" stroke="#000000" stroke-opacity="0.9" stroke-width="14" stroke-linecap="round" stroke-linejoin="round"/>
<path d="M107.189 185.744C108.806 176.586 106.464 164.565 108.072 156.096" stroke="#000000" stroke-opacity="0.9" stroke-width="16" stroke-linecap="round" stroke-linejoin="round"/>
<path opacity="0.503384" d="M126.826 181.384C127.192 175.798 128.095 170.436 127.454 164.816" stroke="#000000" stroke-opacity="0.9" stroke-width="14" stroke-linecap="round" stroke-linejoin="round"/>
<path opacity="0.503384" d="M162.909 191.848C162.678 186.281 163.526 180.745 162.909 175.28" stroke="#000000" stroke-opacity="0.9" stroke-width="14" stroke-linecap="round" stroke-linejoin="round"/>
<path d="M180.213 188.361C180.222 179.027 181.325 169.652 182.419 160.457" stroke="#000000" stroke-opacity="0.9" stroke-width="16" stroke-linecap="round" stroke-linejoin="round"/>
<path opacity="0.503384" d="M198.996 191.849C200.487 180.403 198.333 168.032 200.256 156.969" stroke="#000000" stroke-opacity="0.9" stroke-width="14" stroke-linecap="round" stroke-linejoin="round"/>
<path d="M217.392 192.721C217.815 185.445 218.438 177.556 220.23 170.921" stroke="#000000" stroke-opacity="0.9" stroke-width="16" stroke-linecap="round" stroke-linejoin="round"/>
<path opacity="0.503384" d="M262.852 197.08C262.425 191.498 263.798 186.061 263.798 180.512" stroke="#000000" stroke-opacity="0.9" stroke-width="14" stroke-linecap="round" stroke-linejoin="round"/>
<path d="M282.71 197.952C283.129 187.691 282.296 177.566 283.97 167.432" stroke="#000000" stroke-opacity="0.9" stroke-width="16" stroke-linecap="round" stroke-linejoin="round"/>
<path opacity="0.503384" d="M301.509 195.336C301.566 188.071 301.274 180.728 301.823 173.536" stroke="#000000" stroke-opacity="0.9" stroke-width="14" stroke-linecap="round" stroke-linejoin="round"/>
<path d="M319.867 197.953C320.244 191.691 319.951 190.831 319.951 185.745" stroke="#000000" stroke-opacity="0.9" stroke-width="16" stroke-linecap="round" stroke-linejoin="round"/>
<path opacity="0.503384" d="M69.5781 222.368C70.533 217.691 71.9587 213.975 71.4704 209.288" stroke="#000000" stroke-opacity="0.9" stroke-width="14" stroke-linecap="round" stroke-linejoin="round"/>
<path d="M88.7538 231.088C88.9805 220.925 88.3221 210.688 89.0677 200.568" stroke="#000000" stroke-opacity="0.9" stroke-width="16" stroke-linecap="round" stroke-linejoin="round"/>
<path opacity="0.503384" d="M106.874 229.344C107.296 220.046 107.788 210.675 108.388 201.44" stroke="#000000" stroke-opacity="0.9" stroke-width="14" stroke-linecap="round" stroke-linejoin="round"/>
<path d="M127.684 216.264C127.724 210.942 128.129 205.075 126.738 200.568" stroke="#000000" stroke-opacity="0.9" stroke-width="16" stroke-linecap="round" stroke-linejoin="round"/>
<path d="M161.686 225.857C161.846 219.753 162.467 213.142 163.45 207.545" stroke="#000000" stroke-opacity="0.9" stroke-width="16" stroke-linecap="round" stroke-linejoin="round"/>
<path opacity="0.503384" d="M179.351 240.681C179.613 229.059 179.796 217.432 179.796 205.801" stroke="#000000" stroke-opacity="0.9" stroke-width="14" stroke-linecap="round" stroke-linejoin="round"/>
<path d="M196.351 236.32C197.571 227.745 197.297 210.954 197.675 206.672" stroke="#000000" stroke-opacity="0.9" stroke-width="16" stroke-linecap="round" stroke-linejoin="round"/>
<path opacity="0.503384" d="M214.381 224.113C214.407 219.366 214.656 214.976 216.269 211.033" stroke="#000000" stroke-opacity="0.9" stroke-width="14" stroke-linecap="round" stroke-linejoin="round"/>
<path d="M262.152 224.984C261.817 220.571 262.344 216.195 262.78 211.904" stroke="#000000" stroke-opacity="0.9" stroke-width="16" stroke-linecap="round" stroke-linejoin="round"/>
<path opacity="0.503384" d="M280.84 235.449C280.998 228.137 280.933 220.342 280.525 213.649" stroke="#000000" stroke-opacity="0.9" stroke-width="14" stroke-linecap="round" stroke-linejoin="round"/>
<path d="M298.152 231.96C298.897 225.577 299.916 219.188 299.916 212.776" stroke="#000000" stroke-opacity="0.9" stroke-width="16" stroke-linecap="round" stroke-linejoin="round"/>
<path opacity="0.503384" d="M318.195 224.113C317.888 220.401 318.429 217.097 319.203 213.649" stroke="#000000" stroke-opacity="0.9" stroke-width="14" stroke-linecap="round" stroke-linejoin="round"/>
</svg>