<?xml version="1.0" encoding="utf-8"?><!-- Uploaded to: SVG Repo, www.svgrepo.com, Generator: SVG Repo Mixer Tools -->
<svg width="800px" height="800px" viewBox="0 0 400 400" fill="none" xmlns="http://www.w3.org/2000/svg">
<path d="M191.768 74C193.711 100.987 198.712 128.007 198.712 155.013" stroke="#000000" stroke-opacity="0.9" stroke-width="16" stroke-linecap="round" stroke-linejoin="round"/>
<path opacity="0.503384" d="M198.712 149.226C194.667 169.862 158.932 188.576 133.901 188.576" stroke="#000000" stroke-opacity="0.9" stroke-width="14" stroke-linecap="round" stroke-linejoin="round"/>
<path opacity="0.503384" d="M198.711 158.485C216.991 181.91 238.236 183.946 263.521 183.946" stroke="#000000" stroke-opacity="0.9" stroke-width="14" stroke-linecap="round" stroke-linejoin="round"/>
<path opacity="0.503384" d="M138.846 188.249C140.667 229.532 123.819 258.744 99.8232 287.779" stroke="#000000" stroke-opacity="0.9" stroke-width="14" stroke-linecap="round" stroke-linejoin="round"/>
<path opacity="0.503384" d="M238.061 183.946C245.659 221.352 260.952 252.267 285.511 275.376" stroke="#000000" stroke-opacity="0.9" stroke-width="14" stroke-linecap="round" stroke-linejoin="round"/>
<path opacity="0.503384" d="M147.434 242.97L136.433 225.935C126.279 225.802 115.968 225.802 109.597 229.082" stroke="#000000" stroke-opacity="0.9" stroke-width="14" stroke-linecap="round" stroke-linejoin="round"/>
<path opacity="0.503384" d="M121.74 284.634L113.069 266.177C105.916 265.625 99.6873 268.991 93.3945 271.904" stroke="#000000" stroke-opacity="0.9" stroke-width="14" stroke-linecap="round" stroke-linejoin="round"/>
<path opacity="0.503384" d="M266.994 220.034C247.83 218.446 243.336 225.824 240.375 242.97" stroke="#000000" stroke-opacity="0.9" stroke-width="14" stroke-linecap="round" stroke-linejoin="round"/>
<path opacity="0.503384" d="M280.881 245.285C264.21 249.597 264.907 256.816 263.521 271.904" stroke="#000000" stroke-opacity="0.9" stroke-width="14" stroke-linecap="round" stroke-linejoin="round"/>
<path d="M172.229 159.506C167.004 147.333 153.527 143.878 141.171 142.931C134.205 142.399 128.76 145.347 122.188 148.069C76.4748 166.998 35.3035 385.591 137.72 309.258C146.469 302.734 154.506 294.024 160.149 284.68C168.786 270.378 175.84 252.442 179.13 236.098C182.879 217.47 188.151 191.551 182.007 173.223" stroke="#000000" stroke-opacity="0.9" stroke-width="16" stroke-linecap="round" stroke-linejoin="round"/>
<path d="M217.04 156.878C234.859 127.253 270.662 143.737 292.125 177.482C321.136 223.092 332.852 297.869 322.145 310.71C309.864 325.44 296.882 323.691 279.642 321.042C214.992 311.1 198.799 252.194 206.126 193.613" stroke="#000000" stroke-opacity="0.9" stroke-width="16" stroke-linecap="round" stroke-linejoin="round"/>
</svg>