<?xml version="1.0" encoding="utf-8"?><!-- Uploaded to: SVG Repo, www.svgrepo.com, Generator: SVG Repo Mixer Tools -->
<svg width="800px" height="800px" viewBox="0 0 400 400" fill="none" xmlns="http://www.w3.org/2000/svg">
<path d="M297.746 338.338C246.07 340.07 144.409 335.706 101 338.656" stroke="#000000" stroke-opacity="0.9" stroke-width="16" stroke-linecap="round" stroke-linejoin="round"/>
<path d="M158.293 332.973C161.38 311.972 148.047 314.82 135.353 302.07C99.604 266.149 115.195 206.047 132.225 166.935C135.639 159.099 146.165 130.696 156.207 128.174C172.653 124.045 194.366 131.843 210.946 131.843" stroke="#000000" stroke-opacity="0.9" stroke-width="16" stroke-linecap="round" stroke-linejoin="round"/>
<path d="M258.397 62.5434C242.111 58.313 226.514 63.9389 210.946 65.6293" stroke="#000000" stroke-opacity="0.9" stroke-width="16" stroke-linecap="round" stroke-linejoin="round"/>
<path d="M221.572 71.416C221.313 85.7429 221.938 100.225 223.521 114.237" stroke="#000000" stroke-opacity="0.9" stroke-width="16" stroke-linecap="round" stroke-linejoin="round"/>
<path d="M245.219 67.944C245.367 82.931 241.942 98.4194 245.219 113.08" stroke="#000000" stroke-opacity="0.9" stroke-width="16" stroke-linecap="round" stroke-linejoin="round"/>
<path d="M215.576 125.811C208.567 144.93 205.343 178.763 213.253 198.722" stroke="#000000" stroke-opacity="0.9" stroke-width="16" stroke-linecap="round" stroke-linejoin="round"/>
<path d="M245.268 123.496C254.303 131.076 259.908 198.108 252.982 200.907C243.089 204.906 225.621 198.312 214.418 198.312" stroke="#000000" stroke-opacity="0.9" stroke-width="16" stroke-linecap="round" stroke-linejoin="round"/>
<path d="M206.317 189.436C174.166 180.065 114.959 231.169 139.007 262.122C143.792 268.285 171.824 274.162 172.227 276.243C175.963 295.481 174.179 317.887 175.917 337.602" stroke="#000000" stroke-opacity="0.9" stroke-width="16" stroke-linecap="round" stroke-linejoin="round"/>
<path d="M164.653 253.689C208.592 256.798 255.182 246.165 298.904 253.345" stroke="#000000" stroke-opacity="0.9" stroke-width="16" stroke-linecap="round" stroke-linejoin="round"/>
<path d="M197.475 253.117C199.877 278.89 198.002 305.081 195.53 330.658" stroke="#000000" stroke-opacity="0.9" stroke-width="16" stroke-linecap="round" stroke-linejoin="round"/>
<path d="M222.435 204.509C221.13 206.463 215.705 226.295 214.494 225.305C212.499 223.674 250.443 225.993 249.103 223.802C245.094 217.248 246.541 213.632 244.344 204.509" stroke="#000000" stroke-opacity="0.9" stroke-width="16" stroke-linecap="round" stroke-linejoin="round"/>
<path d="M187.615 149.79L185.666 150.438" stroke="#000000" stroke-opacity="0.9" stroke-width="16" stroke-linecap="round" stroke-linejoin="round"/>
</svg>