<?xml version="1.0" encoding="utf-8"?><!-- Uploaded to: SVG Repo, www.svgrepo.com, Generator: SVG Repo Mixer Tools -->
<svg width="800px" height="800px" viewBox="0 0 400 400" fill="none" xmlns="http://www.w3.org/2000/svg">
<path d="M113.325 185.089C118.206 177.515 124.854 169.131 134.171 167.041C160.176 161.201 164.388 203.508 147.072 215.168C123.823 230.827 104.674 202.853 122.258 185.089" stroke="#000000" stroke-opacity="0.9" stroke-width="16" stroke-linecap="round" stroke-linejoin="round"/>
<path d="M205.794 167.349C217.838 151.833 244.924 169.115 236.44 185.689C231.971 194.418 205.746 214.8 200.853 197.274C197.737 186.122 198.723 179.233 203.816 169.278" stroke="#000000" stroke-opacity="0.9" stroke-width="16" stroke-linecap="round" stroke-linejoin="round"/>
<path d="M172.122 104.252C177.745 99.3544 187.336 95.7063 192.807 103.235C215.177 134.033 153.919 158.257 169.021 106.287" stroke="#000000" stroke-opacity="0.9" stroke-width="16" stroke-linecap="round" stroke-linejoin="round"/>
<path d="M64.2807 130.238C69.9041 125.34 79.4955 121.692 84.9664 129.22C107.337 160.019 46.0782 184.242 61.1804 132.272" stroke="#000000" stroke-opacity="0.9" stroke-width="16" stroke-linecap="round" stroke-linejoin="round"/>
<path d="M62.9809 231.582C68.6043 226.684 78.1957 223.036 83.6666 230.565C106.037 261.363 44.7784 285.587 59.8806 233.617" stroke="#000000" stroke-opacity="0.9" stroke-width="16" stroke-linecap="round" stroke-linejoin="round"/>
<path d="M263.88 103.562C274.042 107.268 277.74 118.29 276.927 129.015C273.749 170.9 193.32 123.354 257.86 101.525" stroke="#000000" stroke-opacity="0.9" stroke-width="16" stroke-linecap="round" stroke-linejoin="round"/>
<path d="M331.935 142.561C335.526 142.561 337.932 141.35 339.744 145.653C342.787 152.874 343.023 163.964 338.768 170.376C311.182 211.964 283.983 140.504 326.08 140.504" stroke="#000000" stroke-opacity="0.9" stroke-width="16" stroke-linecap="round" stroke-linejoin="round"/>
<path d="M258.878 234.582C293.219 207.406 304.82 267.657 271.34 270.323C247.204 272.243 237.714 248.706 258.878 236.568" stroke="#000000" stroke-opacity="0.9" stroke-width="16" stroke-linecap="round" stroke-linejoin="round"/>
<path d="M191.182 259.029C196.738 253.323 207.336 245.575 215.211 252.175C246.652 278.54 163.856 314.395 194.186 260.988" stroke="#000000" stroke-opacity="0.9" stroke-width="16" stroke-linecap="round" stroke-linejoin="round"/>
<path d="M126.66 267.69C131.293 266.711 139.188 263.05 141.415 269.628C144.049 277.41 144.09 285.043 139.447 291.904C115.775 326.87 102.194 255.461 130.596 264.784" stroke="#000000" stroke-opacity="0.9" stroke-width="16" stroke-linecap="round" stroke-linejoin="round"/>
<path opacity="0.503384" d="M251.05 175.584C268.592 171.442 286.066 165.19 304.321 165.19" stroke="#000000" stroke-opacity="0.9" stroke-width="6" stroke-linecap="round" stroke-linejoin="round"/>
<path opacity="0.503384" d="M227.662 161.293C234.143 152.208 241.543 143.943 248.451 135.307" stroke="#000000" stroke-opacity="0.9" stroke-width="6" stroke-linecap="round" stroke-linejoin="round"/>
<path opacity="0.503384" d="M222.465 205.469C236.024 214.349 249.271 226.758 257.546 240.55" stroke="#000000" stroke-opacity="0.9" stroke-width="6" stroke-linecap="round" stroke-linejoin="round"/>
<path opacity="0.503384" d="M207.289 219.761C207.663 232.377 206.857 245 205.067 257.44" stroke="#000000" stroke-opacity="0.9" stroke-width="6" stroke-linecap="round" stroke-linejoin="round"/>
<path opacity="0.503384" d="M201.677 166.489C192.306 154.323 191.644 141.855 188.684 127.511" stroke="#000000" stroke-opacity="0.9" stroke-width="6" stroke-linecap="round" stroke-linejoin="round"/>
<path opacity="0.503384" d="M195.18 184.951C182.843 184.304 170.718 185.715 158.8 187.17" stroke="#000000" stroke-opacity="0.9" stroke-width="6" stroke-linecap="round" stroke-linejoin="round"/>
<path opacity="0.503384" d="M133.276 227.557C132.205 236.192 131.721 244.898 131.059 253.543" stroke="#000000" stroke-opacity="0.9" stroke-width="6" stroke-linecap="round" stroke-linejoin="round"/>
<path opacity="0.503384" d="M106.828 217.163C100.205 221.48 95.1062 227.188 89.9375 232.754" stroke="#000000" stroke-opacity="0.9" stroke-width="6" stroke-linecap="round" stroke-linejoin="round"/>
<path opacity="0.503384" d="M110.727 174.286C103.128 167.787 98.1971 157.699 88.6387 156.096" stroke="#000000" stroke-opacity="0.9" stroke-width="6" stroke-linecap="round" stroke-linejoin="round"/>
</svg>