<?xml version="1.0" encoding="utf-8"?><!-- Uploaded to: SVG Repo, www.svgrepo.com, Generator: SVG Repo Mixer Tools -->
<svg width="800px" height="800px" viewBox="0 0 400 400" fill="none" xmlns="http://www.w3.org/2000/svg">
<path d="M136.282 116.076C202.642 110.153 298.096 117.658 362 111.763" stroke="#000000" stroke-opacity="0.9" stroke-width="16" stroke-linecap="round" stroke-linejoin="round"/>
<path d="M172.224 141.954C155.185 170.719 142.651 203.378 121.904 229.653" stroke="#000000" stroke-opacity="0.9" stroke-width="16" stroke-linecap="round" stroke-linejoin="round"/>
<path d="M216.79 141.954C217.682 175.962 219.665 209.772 219.665 244.03" stroke="#000000" stroke-opacity="0.9" stroke-width="16" stroke-linecap="round" stroke-linejoin="round"/>
<path d="M277.457 140.516C275.835 174.825 280.135 218.397 278.19 248.344" stroke="#000000" stroke-opacity="0.9" stroke-width="16" stroke-linecap="round" stroke-linejoin="round"/>
<path d="M333.272 141.954C332.944 178.302 335.476 215.06 334.421 251.219" stroke="#000000" stroke-opacity="0.9" stroke-width="16" stroke-linecap="round" stroke-linejoin="round"/>
<path d="M208.812 259.319C215.304 251.483 227.167 252.474 232.042 261.664C250.188 295.853 178.696 298.165 202.588 264.403" stroke="#000000" stroke-opacity="0.9" stroke-width="16" stroke-linecap="round" stroke-linejoin="round"/>
<path d="M278.683 251.603C317.761 244.98 278.154 317.103 262.797 272.422C260.378 265.388 268.124 258.124 273.099 254.101" stroke="#000000" stroke-opacity="0.9" stroke-width="16" stroke-linecap="round" stroke-linejoin="round"/>
<path d="M326.946 258.138C366.254 228.317 354.79 305.971 322.918 282.764C315.184 277.133 320.384 267.133 323.32 260.483" stroke="#000000" stroke-opacity="0.9" stroke-width="16" stroke-linecap="round" stroke-linejoin="round"/>
<path d="M108.701 230.503C113.492 226.948 119.983 224.809 125.242 229.162C158.079 256.359 91.6116 284.028 95.7563 249.265C96.6807 241.526 100.066 234.113 107.262 230.503" stroke="#000000" stroke-opacity="0.9" stroke-width="16" stroke-linecap="round" stroke-linejoin="round"/>
<path opacity="0.503384" d="M78.7711 222.465C74.2938 216.148 71.4049 208.539 67.2695 202.337" stroke="#000000" stroke-opacity="0.9" stroke-width="16" stroke-linecap="round" stroke-linejoin="round"/>
<path opacity="0.503384" d="M61.0646 250.934C51.1148 255.447 45.4386 250.055 38.0615 243.981" stroke="#000000" stroke-opacity="0.9" stroke-width="16" stroke-linecap="round" stroke-linejoin="round"/>
</svg>