<?xml version="1.0" encoding="utf-8"?><!-- Uploaded to: SVG Repo, www.svgrepo.com, Generator: SVG Repo Mixer Tools -->
<svg width="800px" height="800px" viewBox="0 0 400 400" fill="none" xmlns="http://www.w3.org/2000/svg">
<path d="M71.3086 289.528C115.374 230.049 122.811 127.832 133.316 106.753C135.469 102.438 197.671 100.972 204.022 102.721C210.817 104.591 209.469 126.395 210.122 132.287C215.921 184.636 226.97 245.733 264.004 297.457" stroke="#000000" stroke-opacity="0.9" stroke-width="16" stroke-linecap="round" stroke-linejoin="round"/>
<path d="M220.026 137.762C227.481 137.88 279.061 137.304 280.526 138.77C282.158 140.403 280.526 228.645 321.871 263.895" stroke="#000000" stroke-opacity="0.9" stroke-width="16" stroke-linecap="round" stroke-linejoin="round"/>
<path d="M165.083 200.82C167.28 200.888 179.677 199.726 183.452 201.673C183.677 201.789 174.394 214.311 155.602 239.239C148.997 227.219 146.464 220.558 148.002 219.255C149.54 217.953 187.596 217.302 187.596 217.953C187.596 218.604 177.892 241.328 176.392 240.736C172.768 239.303 163.191 208.248 161.288 201.673" stroke="#000000" stroke-opacity="0.9" stroke-width="4" stroke-linecap="round" stroke-linejoin="round"/>
<path opacity="0.522019" d="M185.952 127.33C167.289 128.646 150.983 128.215 132.069 129.644" stroke="#000000" stroke-opacity="0.9" stroke-width="16" stroke-linecap="round" stroke-linejoin="round"/>
<path opacity="0.522019" d="M260.533 160.178C247.556 161.41 229.899 159.494 220.026 160.178" stroke="#000000" stroke-opacity="0.9" stroke-width="16" stroke-linecap="round" stroke-linejoin="round"/>
<path d="M226.97 297.617C171.14 297.898 113.318 297.04 58 297.97" stroke="#000000" stroke-opacity="0.9" stroke-width="16" stroke-linecap="round" stroke-linejoin="round"/>
<path d="M342.703 282.412C302.776 280.676 289.671 280.676 262.848 280.676" stroke="#000000" stroke-opacity="0.9" stroke-width="16" stroke-linecap="round" stroke-linejoin="round"/>
</svg>