<?xml version="1.0" encoding="utf-8"?><!-- Uploaded to: SVG Repo, www.svgrepo.com, Generator: SVG Repo Mixer Tools -->
<svg width="800px" height="800px" viewBox="0 0 400 400" fill="none" xmlns="http://www.w3.org/2000/svg">
<path d="M154.868 306.224C138.405 286.097 117.283 272.409 101.355 250.858" stroke="#000000" stroke-opacity="0.9" stroke-width="16" stroke-linecap="round" stroke-linejoin="round"/>
<path d="M112.675 257.237C139.516 234.572 213.795 142.588 232.383 126.859C233.754 125.7 272.932 156.375 274.189 159.544C276.033 164.202 183.459 266.243 155.105 294.887" stroke="#000000" stroke-opacity="0.9" stroke-width="16" stroke-linecap="round" stroke-linejoin="round"/>
<path d="M253.567 130.805C270.074 111.077 290.294 119.688 266.753 146.446" stroke="#000000" stroke-opacity="0.9" stroke-width="16" stroke-linecap="round" stroke-linejoin="round"/>
<path opacity="0.503384" d="M176.831 198.023C188.186 206.047 196.833 218.456 209.538 224.44" stroke="#000000" stroke-opacity="0.9" stroke-width="14" stroke-linecap="round" stroke-linejoin="round"/>
<path d="M126.511 282.307C119.18 290.082 112.143 298.367 105.126 306.209" stroke="#000000" stroke-opacity="0.9" stroke-width="16" stroke-linecap="round" stroke-linejoin="round"/>
<path d="M116.449 323.82C104.275 315.114 97.0896 302.658 85 293.629" stroke="#000000" stroke-opacity="0.9" stroke-width="16" stroke-linecap="round" stroke-linejoin="round"/>
<path opacity="0.503384" d="M277.468 117.513C289.596 103.378 301.431 89.2901 315.207 76" stroke="#000000" stroke-opacity="0.9" stroke-width="12" stroke-linecap="round" stroke-linejoin="round"/>
</svg>