<?xml version="1.0" encoding="utf-8"?><!-- Uploaded to: SVG Repo, www.svgrepo.com, Generator: SVG Repo Mixer Tools -->
<svg width="800px" height="800px" viewBox="0 0 400 400" fill="none" xmlns="http://www.w3.org/2000/svg">
<path d="M138.451 271.209C109.078 267.742 91.6851 210.949 105.951 187.618C110.733 179.797 120.66 175.676 129.37 175.676C132.366 175.676 132.005 175.322 134.627 176.632C135.141 176.889 135.716 178.047 136.061 177.587C137.476 175.701 141.121 151.403 147.532 141.285C161.63 119.037 189.402 112.339 213.487 122.656C217.128 124.215 223.529 131.613 225.914 132.209C226.224 132.286 242.772 125.78 250.767 126.955C271.381 129.984 296.267 150.255 303.818 169.467C309.099 182.9 302.753 200.625 292.826 210.546C291.419 211.952 279.497 219.037 279.443 219.144C278.474 221.081 281.228 223.192 281.355 225.354C281.838 233.547 279.348 241.553 274.664 248.281C265.481 261.474 246.812 269.361 231.649 260.701C228.745 259.042 223.542 253.554 221.135 251.147C220.986 250.999 216.239 246.502 215.877 245.415C215.837 245.295 219.601 250.038 217.789 255.924C215.083 264.715 205.54 271.733 197.715 275.508C185.768 281.273 165.966 286.89 153.267 280.763C150.193 279.279 133.67 263.089 140.84 263.089" stroke="#000000" stroke-opacity="0.9" stroke-width="16" stroke-linecap="round" stroke-linejoin="round"/>
<path d="M177.259 291.522C176.162 294.999 174.213 327.336 172.195 328.007C168.119 329.363 157.548 329.714 147.311 329.714" stroke="#000000" stroke-opacity="0.9" stroke-width="16" stroke-linecap="round" stroke-linejoin="round"/>
<path d="M229.35 269.533C226.506 287.064 225.012 330.651 226.216 331.548C228.376 333.157 246.447 331.548 250.173 331.548" stroke="#000000" stroke-opacity="0.9" stroke-width="16" stroke-linecap="round" stroke-linejoin="round"/>
<path d="M298.781 157.272C305.721 147.851 317.416 143.281 325.4 135.283" stroke="#000000" stroke-opacity="0.9" stroke-width="16" stroke-linecap="round" stroke-linejoin="round"/>
<path d="M334.657 142.226C329.651 137.029 323.163 131.848 320.77 124.867" stroke="#000000" stroke-opacity="0.9" stroke-width="16" stroke-linecap="round" stroke-linejoin="round"/>
<path d="M247.858 126.024C248.003 123.319 248.128 120.613 248.292 117.909C248.549 113.669 249.897 71.5857 250.462 70.653C251.047 69.6888 251.33 72.8363 251.33 73.9943" stroke="#000000" stroke-opacity="0.9" stroke-width="16" stroke-linecap="round" stroke-linejoin="round"/>
<path d="M259.431 70.3591C253.116 70.4084 246.409 71.3198 240.914 67" stroke="#000000" stroke-opacity="0.9" stroke-width="16" stroke-linecap="round" stroke-linejoin="round"/>
<path d="M168.002 116.765C162.967 105.1 154.638 95.6216 148.18 84.8788C147.813 84.2681 141.027 73.9031 144.876 75.2162" stroke="#000000" stroke-opacity="0.9" stroke-width="16" stroke-linecap="round" stroke-linejoin="round"/>
<path d="M147.17 71.7174C142.825 70.522 130.319 81.9349 133.928 79.3477" stroke="#000000" stroke-opacity="0.9" stroke-width="16" stroke-linecap="round" stroke-linejoin="round"/>
<path d="M103.192 183.89C99.6763 176.672 81.1519 169.827 78.8877 163.058" stroke="#000000" stroke-opacity="0.9" stroke-width="16" stroke-linecap="round" stroke-linejoin="round"/>
<path d="M81.2031 156.114C77.5004 160.772 73.892 164.902 70.7871 170.002" stroke="#000000" stroke-opacity="0.9" stroke-width="16" stroke-linecap="round" stroke-linejoin="round"/>
<path d="M297.623 215.138C306.595 222.737 314.462 231.69 324.242 238.285" stroke="#000000" stroke-opacity="0.9" stroke-width="16" stroke-linecap="round" stroke-linejoin="round"/>
<path d="M331.185 235.97C327.41 236.675 318.453 254.715 321.329 246.613" stroke="#000000" stroke-opacity="0.9" stroke-width="16" stroke-linecap="round" stroke-linejoin="round"/>
<path d="M223.657 179.261C223.322 175.479 223.846 172.346 224.712 168.845" stroke="#000000" stroke-opacity="0.9" stroke-width="16" stroke-linecap="round" stroke-linejoin="round"/>
<path d="M194.627 179.261C194.522 175.014 195.778 170.749 195.778 166.53" stroke="#000000" stroke-opacity="0.9" stroke-width="16" stroke-linecap="round" stroke-linejoin="round"/>
<path d="M103.191 238.285C94.6495 243.301 85.2491 246.888 77.1083 252.532C75.1791 253.87 66.3336 262.373 70.9432 257.756C71.5758 257.123 72.2075 256.49 72.8401 255.857" stroke="#000000" stroke-opacity="0.9" stroke-width="16" stroke-linecap="round" stroke-linejoin="round"/>
<path d="M65 254.488C67.5651 257.761 69.3484 261.19 70.7867 264.904" stroke="#000000" stroke-opacity="0.9" stroke-width="16" stroke-linecap="round" stroke-linejoin="round"/>
</svg>