<?xml version="1.0" encoding="utf-8"?><!-- Uploaded to: SVG Repo, www.svgrepo.com, Generator: SVG Repo Mixer Tools -->
<svg width="800px" height="800px" viewBox="0 0 400 400" fill="none" xmlns="http://www.w3.org/2000/svg">
<path d="M174.16 130.535C179.083 88.9103 244.691 107.984 223.022 144.589C209.505 167.422 172.14 179.086 176.143 142.58" stroke="#000000" stroke-opacity="0.9" stroke-width="16" stroke-linecap="round" stroke-linejoin="round"/>
<path d="M86.2021 168.478C119.976 184.491 152.17 189.19 186.173 187.354C199.454 186.637 205.227 186.729 214.666 184.491C249.377 176.261 283.738 165.982 314.196 161.352" stroke="#000000" stroke-opacity="0.9" stroke-width="16" stroke-linecap="round" stroke-linejoin="round"/>
<path d="M162.587 325.693C180.528 281.351 181.129 232.537 190.363 186.814" stroke="#000000" stroke-opacity="0.9" stroke-width="16" stroke-linecap="round" stroke-linejoin="round"/>
<path d="M215.575 186.814C211.934 234.092 219.678 281.542 230.869 326.851" stroke="#000000" stroke-opacity="0.9" stroke-width="16" stroke-linecap="round" stroke-linejoin="round"/>
<path opacity="0.503384" d="M80.1157 158.502C89.3193 130.92 110.851 112.553 133.461 95.5118C224.284 27.0651 371.96 150.027 317.508 251.641C250.518 376.653 51.1243 345.813 71.4467 192.675" stroke="#000000" stroke-opacity="0.9" stroke-width="6" stroke-linecap="round" stroke-linejoin="round"/>
<path opacity="0.503384" d="M86.7795 126.206C86.7795 113.432 83.0852 73.6934 89.4601 70.6765C95.835 67.6595 289.375 65.0615 302.378 75.427C308.139 80.0208 310.66 302.434 302.012 323.978C301.267 325.833 230.416 328.282 89.4601 331.327C92.2665 241.465 91.373 186.232 86.7795 165.627" stroke="#000000" stroke-opacity="0.9" stroke-width="6" stroke-linecap="round" stroke-linejoin="round"/>
<path opacity="0.503384" d="M105.511 121.964C130.823 141.731 162.277 170.263 180.737 189.089" stroke="#000000" stroke-opacity="0.9" stroke-width="14" stroke-linecap="round" stroke-linejoin="round"/>
<path opacity="0.503384" d="M283.74 130.065C263.401 147.117 243.908 164.54 222.401 179.83" stroke="#000000" stroke-opacity="0.9" stroke-width="14" stroke-linecap="round" stroke-linejoin="round"/>
<path opacity="0.503384" d="M125.552 312.197C146.176 297.971 166.312 280.347 178.789 258.96" stroke="#000000" stroke-opacity="0.9" stroke-width="14" stroke-linecap="round" stroke-linejoin="round"/>
<path opacity="0.503384" d="M218.93 260.843C232.592 277.57 241.043 297.924 259.436 309.451" stroke="#000000" stroke-opacity="0.9" stroke-width="14" stroke-linecap="round" stroke-linejoin="round"/>
</svg>