<?xml version="1.0" encoding="utf-8"?><!-- Uploaded to: SVG Repo, www.svgrepo.com, Generator: SVG Repo Mixer Tools -->
<svg width="800px" height="800px" viewBox="0 0 400 400" fill="none" xmlns="http://www.w3.org/2000/svg">
<path d="M107.881 316.511C133.319 298.881 131.595 256.951 148.474 233.962C151.923 229.265 179.215 234.569 184.043 234.75C211.945 235.807 233.241 237.436 247.933 239.64C251.495 262.8 262.467 288.038 280.848 315.354" stroke="#000000" stroke-opacity="0.9" stroke-width="16" stroke-linecap="round" stroke-linejoin="round"/>
<path d="M150.702 241.285C157.174 263.649 160.148 294.132 161.118 314.197" stroke="#000000" stroke-opacity="0.9" stroke-width="16" stroke-linecap="round" stroke-linejoin="round"/>
<path d="M249.075 248.229C246.451 270.759 241.413 293.289 238.659 315.354" stroke="#000000" stroke-opacity="0.9" stroke-width="16" stroke-linecap="round" stroke-linejoin="round"/>
<path d="M106.77 304.719C148.455 358.151 47.4288 314.604 100.601 295.679" stroke="#000000" stroke-opacity="0.9" stroke-width="16" stroke-linecap="round" stroke-linejoin="round"/>
<path d="M242.853 128.387C230.661 126.555 168.242 123.99 154.426 128.008C143.436 131.203 136.478 138.714 138.245 155.914C138.735 160.656 138.464 191.704 181.131 177.032C192.785 173.024 188.599 162.247 194.681 161.26C204.271 159.704 203.029 173.187 205.659 177.032C210.142 183.577 264.887 193.581 254.862 136.306" stroke="#000000" stroke-opacity="0.9" stroke-width="16" stroke-linecap="round" stroke-linejoin="round"/>
<path d="M159.961 192.3C178.194 228.669 220.696 223.14 234.03 186.89" stroke="#000000" stroke-opacity="0.9" stroke-width="16" stroke-linecap="round" stroke-linejoin="round"/>
<path d="M155.332 122.08C172.075 88.8423 215.769 86.2205 235.188 117.098" stroke="#000000" stroke-opacity="0.9" stroke-width="16" stroke-linecap="round" stroke-linejoin="round"/>
<path opacity="0.58045" d="M195.688 119.765C196.693 112.777 197.249 105.723 198.304 98.9333" stroke="#000000" stroke-opacity="0.9" stroke-width="16" stroke-linecap="round" stroke-linejoin="round"/>
<path opacity="0.503384" d="M46.543 83.1134C135.117 157.56 264.489 136.511 353.236 70" stroke="#000000" stroke-opacity="0.9" stroke-width="16" stroke-linecap="round" stroke-linejoin="round"/>
<path opacity="0.503384" d="M234.619 193.581C272.332 196.99 310.638 210.055 352.078 233.014M51.1719 248.229C89.6056 224.171 125.208 207.834 159.907 199.4L51.1719 248.229Z" stroke="#000000" stroke-opacity="0.9" stroke-width="16" stroke-linecap="round" stroke-linejoin="round"/>
<path opacity="0.503384" d="M47.8232 98.973C43.9254 132.945 47.4899 191.693 47.4899 234.381" stroke="#000000" stroke-opacity="0.9" stroke-width="16" stroke-linecap="round" stroke-linejoin="round"/>
<path opacity="0.503384" d="M109.707 132.496C109.592 155.263 109.8 178.211 108.374 200.778" stroke="#000000" stroke-opacity="0.9" stroke-width="16" stroke-linecap="round" stroke-linejoin="round"/>
<path opacity="0.503384" d="M275.261 122.12C276.277 145.483 274.261 168.252 274.261 191.559" stroke="#000000" stroke-opacity="0.9" stroke-width="16" stroke-linecap="round" stroke-linejoin="round"/>
<path opacity="0.503384" d="M350.307 82.7702C349.946 129.137 352.312 175.325 352.312 221.65" stroke="#000000" stroke-opacity="0.9" stroke-width="16" stroke-linecap="round" stroke-linejoin="round"/>
</svg>