<?xml version="1.0" encoding="utf-8"?><!-- Uploaded to: SVG Repo, www.svgrepo.com, Generator: SVG Repo Mixer Tools -->
<svg width="800px" height="800px" viewBox="0 0 400 400" fill="none" xmlns="http://www.w3.org/2000/svg">
<path d="M108 282.718C126.663 252.257 107.349 205.235 120.481 188.047C142.704 158.959 152.116 228.134 152.614 227.646C172.14 208.48 192.124 163.892 212.449 184.058C222.442 193.972 198.481 217.136 199.827 221.09C201.173 225.044 236.379 207.254 241.28 213.651C251.183 226.579 223.235 242.959 219.648 249.995C217.191 254.822 243.322 254.49 241.28 259.503C233.909 277.587 173.166 294.736 158.314 309.314" stroke="#000000" stroke-opacity="0.9" stroke-width="16" stroke-linecap="round" stroke-linejoin="round"/>
<path d="M146.334 177.37C150.952 166.661 167.198 142.858 204.283 145.427C241.368 147.995 308.273 198.186 224.338 230.861" stroke="#000000" stroke-opacity="0.9" stroke-width="16" stroke-linecap="round" stroke-linejoin="round"/>
<path d="M177.538 90C159.611 105.045 135.752 114.857 120.48 101.606" stroke="#000000" stroke-opacity="0.9" stroke-width="16" stroke-linecap="round" stroke-linejoin="round"/>
<path d="M236.381 95.3496C252.065 118.874 272.013 108.825 291.655 97.0259" stroke="#000000" stroke-opacity="0.9" stroke-width="16" stroke-linecap="round" stroke-linejoin="round"/>
</svg>