<?xml version="1.0" encoding="utf-8"?><!-- Uploaded to: SVG Repo, www.svgrepo.com, Generator: SVG Repo Mixer Tools -->
<svg width="800px" height="800px" viewBox="0 0 400 400" fill="none" xmlns="http://www.w3.org/2000/svg">
<path d="M151.856 244.712C157.142 238.518 163.516 230.818 172.188 227.63C222.539 209.123 271.458 269.703 222.195 285.339C191.96 294.935 139.608 285.366 152.954 244.25" stroke="#000000" stroke-opacity="0.9" stroke-width="16" stroke-linecap="round" stroke-linejoin="round"/>
<path d="M131.03 191.497C102.484 189.705 90.9062 113.358 144.845 111.048C200.489 108.666 181.763 195.058 140.287 166.758C125.566 156.709 138.727 130.949 153.033 137.186" stroke="#000000" stroke-opacity="0.9" stroke-width="16" stroke-linecap="round" stroke-linejoin="round"/>
<path d="M231.722 115.862C270.273 98.942 309.383 144.843 287.118 177.253C276.697 192.419 256.98 196.373 240.043 191.675C229.704 188.81 223.939 180.086 223.939 170.042C223.939 125.018 288.185 149.846 253.498 164.272" stroke="#000000" stroke-opacity="0.9" stroke-width="16" stroke-linecap="round" stroke-linejoin="round"/>
</svg>