<?xml version="1.0" encoding="utf-8"?><!-- Uploaded to: SVG Repo, www.svgrepo.com, Generator: SVG Repo Mixer Tools -->
<svg width="800px" height="800px" viewBox="0 0 400 400" fill="none" xmlns="http://www.w3.org/2000/svg">
<path opacity="0.503384" d="M102.065 184.635C116.215 215.124 158.831 203.953 174.598 183" stroke="#000000" stroke-opacity="0.9" stroke-width="12" stroke-linecap="round" stroke-linejoin="round"/>
<path opacity="0.503384" d="M231.267 189.607C253.836 213.256 274.534 202.387 299.267 187.533" stroke="#000000" stroke-opacity="0.9" stroke-width="12" stroke-linecap="round" stroke-linejoin="round"/>
<path d="M104.333 192.066C99.6803 194.254 95.7856 196.217 93 198.866" stroke="#000000" stroke-opacity="0.9" stroke-width="4" stroke-linecap="round" stroke-linejoin="round"/>
<path d="M113.402 203.4C112.446 205.616 111.801 207.869 111.135 210.2" stroke="#000000" stroke-opacity="0.9" stroke-width="4" stroke-linecap="round" stroke-linejoin="round"/>
<path d="M130.983 205.667C129.863 209.392 129.994 213.196 129.82 217" stroke="#000000" stroke-opacity="0.9" stroke-width="4" stroke-linecap="round" stroke-linejoin="round"/>
<path d="M148.232 203.4C147.914 206.503 149.864 209.483 151.138 212.467" stroke="#000000" stroke-opacity="0.9" stroke-width="4" stroke-linecap="round" stroke-linejoin="round"/>
<path d="M163.266 194.333C165.468 197.38 167.875 200.346 170.066 203.4" stroke="#000000" stroke-opacity="0.9" stroke-width="4" stroke-linecap="round" stroke-linejoin="round"/>
<path d="M176.869 183C179.222 186.43 181.616 186.615 183.669 189.8" stroke="#000000" stroke-opacity="0.9" stroke-width="4" stroke-linecap="round" stroke-linejoin="round"/>
<path d="M228.999 189.8C226.04 192.042 223.853 193.661 222.199 196.6" stroke="#000000" stroke-opacity="0.9" stroke-width="4" stroke-linecap="round" stroke-linejoin="round"/>
<path d="M240.332 201.134C238.343 204.294 235.967 207.274 233.532 210.2" stroke="#000000" stroke-opacity="0.9" stroke-width="4" stroke-linecap="round" stroke-linejoin="round"/>
<path d="M254.609 205.667C255.366 208.759 254.627 211.76 252.964 214.734" stroke="#000000" stroke-opacity="0.9" stroke-width="4" stroke-linecap="round" stroke-linejoin="round"/>
<path d="M267.532 203.4C269.072 207.921 270.57 212.511 272.066 217" stroke="#000000" stroke-opacity="0.9" stroke-width="4" stroke-linecap="round" stroke-linejoin="round"/>
<path d="M285.668 198.866C286.89 202.765 291.055 206.583 294.734 210.2" stroke="#000000" stroke-opacity="0.9" stroke-width="4" stroke-linecap="round" stroke-linejoin="round"/>
<path d="M297 189.8C299.45 192.549 304.602 197.554 306.067 198.866" stroke="#000000" stroke-opacity="0.9" stroke-width="4" stroke-linecap="round" stroke-linejoin="round"/>
</svg>