<?xml version="1.0" encoding="utf-8"?><!-- Uploaded to: SVG Repo, www.svgrepo.com, Generator: SVG Repo Mixer Tools -->
<svg width="800px" height="800px" viewBox="0 0 400 400" fill="none" xmlns="http://www.w3.org/2000/svg">
<path d="M131.362 223.821C141.125 209.823 165.114 214.545 196.183 214.596C241.87 214.672 298.948 218.248 259.374 253.362C229.232 280.108 147.603 280.108 129.904 245.59" stroke="#000000" stroke-opacity="0.9" stroke-width="12" stroke-linecap="round" stroke-linejoin="round"/>
<path d="M228.035 221.527C228.355 234.938 227.932 247.698 227.224 260.639" stroke="#000000" stroke-opacity="0.9" stroke-width="12" stroke-linecap="round" stroke-linejoin="round"/>
<path d="M196.181 223.228C196.059 236.065 195.186 248.103 194.562 260.639" stroke="#000000" stroke-opacity="0.9" stroke-width="12" stroke-linecap="round" stroke-linejoin="round"/>
<path d="M163.469 221.527C163.397 234.575 163.049 247.689 162.658 260.639" stroke="#000000" stroke-opacity="0.9" stroke-width="12" stroke-linecap="round" stroke-linejoin="round"/>
<path d="M136.485 128C190.421 165.885 202.592 133.048 118 168.812" stroke="#000000" stroke-opacity="0.9" stroke-width="16" stroke-linecap="round" stroke-linejoin="round"/>
<path d="M282.948 128C264.107 138.758 248.236 146.228 235.334 150.41C255.175 160.118 271.047 166.252 282.948 168.812" stroke="#000000" stroke-opacity="0.9" stroke-width="16" stroke-linecap="round" stroke-linejoin="round"/>
</svg>