<?xml version="1.0" encoding="utf-8"?><!-- Uploaded to: SVG Repo, www.svgrepo.com, Generator: SVG Repo Mixer Tools -->
<svg width="800px" height="800px" viewBox="0 0 400 400" fill="none" xmlns="http://www.w3.org/2000/svg">
<path d="M191.43 233.943C228.96 222.001 275.939 210.1 313.866 227.133" stroke="#000000" stroke-opacity="0.9" stroke-width="16" stroke-linecap="round" stroke-linejoin="round"/>
<path opacity="0.503384" d="M174.426 311.477C119.702 330.962 130.629 224.324 149.27 242.708C161.418 254.686 116.916 260.06 108.107 253.981C97.6356 246.751 92.1 218.551 92.1 206.632C92.1 193.573 114.766 146.266 135.552 162.662C151.549 175.28 120.911 184.082 112.681 184.082C58.5703 184.082 98.2283 93.1756 130.978 86" stroke="#000000" stroke-opacity="0.9" stroke-width="14" stroke-linecap="round" stroke-linejoin="round"/>
<path d="M216.421 155.721C215.805 144.857 214.061 134.249 214.061 123.411" stroke="#000000" stroke-opacity="0.9" stroke-width="16" stroke-linecap="round" stroke-linejoin="round"/>
<path d="M269.028 154.02C268.664 142.984 270.742 131.671 266.668 121.711" stroke="#000000" stroke-opacity="0.9" stroke-width="16" stroke-linecap="round" stroke-linejoin="round"/>
<path d="M223.742 228.842L233.945 295.161" stroke="#000000" stroke-opacity="0.9" stroke-width="16" stroke-linecap="round" stroke-linejoin="round"/>
</svg>