<?xml version="1.0" encoding="utf-8"?><!-- Uploaded to: SVG Repo, www.svgrepo.com, Generator: SVG Repo Mixer Tools -->
<svg width="800px" height="800px" viewBox="0 0 400 400" fill="none" xmlns="http://www.w3.org/2000/svg">
<path d="M289.456 216.127C279.607 214.834 271.267 216.514 262.248 218.398" stroke="#000000" stroke-opacity="0.9" stroke-width="16" stroke-linecap="round" stroke-linejoin="round"/>
<path d="M195.181 98C241.089 128.59 233.919 126.581 172.121 138.812" stroke="#000000" stroke-opacity="0.9" stroke-width="16" stroke-linecap="round" stroke-linejoin="round"/>
<path d="M290.136 106.503C249.342 121.122 263.982 126.025 301.359 137.112" stroke="#000000" stroke-opacity="0.9" stroke-width="16" stroke-linecap="round" stroke-linejoin="round"/>
<path opacity="0.503384" d="M221.749 166.02C202.796 175.956 50.3696 203.348 134.596 215.489C137.001 215.838 152.868 213.889 153.658 215.489C154.71 217.607 101.598 234.946 99.1894 247.096C96.5483 260.417 122.238 269.112 131.873 266.331C136.308 265.056 161.965 245.204 164.553 248.469C170.993 256.592 119.548 302.059 165.914 302.059C224.695 302.059 244.712 225.24 250.344 179.76" stroke="#000000" stroke-opacity="0.9" stroke-width="14" stroke-linecap="round" stroke-linejoin="round"/>
</svg>