<?xml version="1.0" encoding="utf-8"?><!-- Uploaded to: SVG Repo, www.svgrepo.com, Generator: SVG Repo Mixer Tools -->
<svg width="800px" height="800px" viewBox="0 0 400 400" fill="none" xmlns="http://www.w3.org/2000/svg">
<path fill-rule="evenodd" clip-rule="evenodd" d="M262.777 115.356C266.536 107.42 274.59 96.6862 274.38 99.6872C274.17 102.688 283.19 140.602 285.087 141.634C286.984 142.665 321.175 144.444 320.684 145.929C320.194 147.414 320.636 147.825 316.217 150.007C313.271 151.462 302.826 158 284.884 169.621C283.851 169.968 283.864 171.241 284.925 173.442C286.515 176.742 290.516 194.473 292.019 200.023C293.522 205.573 296.346 220.381 294.321 221.737C292.297 223.092 283.771 213.041 282.004 210.806C280.236 208.571 268.584 182.58 265.107 182.337C261.63 182.094 253.085 192.586 251.243 194.456C249.4 196.326 230.224 215.553 223.801 215.955C217.379 216.357 219.796 211.325 224.673 203.49C227.924 198.267 234.53 186.014 244.491 166.733C240.32 164.517 236.607 162.756 233.352 161.451C228.47 159.493 213.06 153.18 210.901 152.366C208.742 151.552 215.862 149.069 221.196 146.402C226.529 143.736 246.435 138.931 252.851 139.38C256.963 128.655 260.272 120.648 262.777 115.356Z" stroke="#000000" stroke-opacity="0.9" stroke-width="12" stroke-linecap="round" stroke-linejoin="round"/>
<path fill-rule="evenodd" clip-rule="evenodd" d="M125.447 125.813C127.324 117.234 134.941 104.748 135.412 107.719C135.882 110.69 153.2 145.603 155.28 146.182C157.361 146.76 191.076 140.802 190.931 142.359C190.787 143.916 191.311 144.218 187.496 147.338C184.953 149.418 176.247 158.138 161.378 173.498C160.449 174.068 160.749 175.306 162.277 177.211C164.569 180.069 172.456 196.446 175.169 201.515C177.882 206.585 183.965 220.379 182.297 222.155C180.629 223.931 170.061 216.055 167.836 214.275C165.612 212.495 148.411 189.791 144.968 190.336C141.526 190.882 135.56 203.028 134.186 205.264C132.811 207.5 118.451 230.548 112.284 232.384C106.116 234.221 107.339 228.774 110.329 220.043C112.322 214.222 116.003 200.798 121.371 179.77C116.808 178.549 112.794 177.668 109.329 177.129C104.132 176.32 87.6963 173.635 85.4096 173.327C83.1229 173.02 89.5022 168.999 94.0992 165.201C98.6961 161.402 109.201 155.304 115.554 154.298C120.898 141.027 124.196 131.532 125.447 125.813Z" stroke="#000000" stroke-opacity="0.9" stroke-width="12" stroke-linecap="round" stroke-linejoin="round"/>
<path d="M149.622 270.065C202.432 380.547 377.975 188.817 153.576 259.251" stroke="#000000" stroke-opacity="0.9" stroke-width="16" stroke-linecap="round" stroke-linejoin="round"/>
</svg>