<?xml version="1.0" encoding="utf-8"?><!-- Uploaded to: SVG Repo, www.svgrepo.com, Generator: SVG Repo Mixer Tools -->
<svg width="800px" height="800px" viewBox="0 0 400 400" fill="none" xmlns="http://www.w3.org/2000/svg">
<path d="M157.05 150.208C157.05 139.849 156.305 134.848 157.328 123" stroke="#000000" stroke-opacity="0.9" stroke-width="16" stroke-linecap="round" stroke-linejoin="round"/>
<path d="M234.172 150.208C233.931 140.933 234.342 131.979 234.742 123" stroke="#000000" stroke-opacity="0.9" stroke-width="16" stroke-linecap="round" stroke-linejoin="round"/>
<path d="M130.458 227.324C140.221 213.325 164.21 218.048 195.279 218.099C240.966 218.174 298.044 221.75 258.47 256.865C228.328 283.61 146.699 283.61 129 249.092" stroke="#000000" stroke-opacity="0.9" stroke-width="16" stroke-linecap="round" stroke-linejoin="round"/>
<path d="M227.131 225.03C227.451 238.441 227.027 251.2 226.32 264.141" stroke="#000000" stroke-opacity="0.9" stroke-width="12" stroke-linecap="round" stroke-linejoin="round"/>
<path d="M195.277 226.73C195.155 239.567 194.283 251.605 193.658 264.141" stroke="#000000" stroke-opacity="0.9" stroke-width="12" stroke-linecap="round" stroke-linejoin="round"/>
<path d="M162.565 248.837C162.493 253.375 162.145 257.937 161.754 262.441" stroke="#000000" stroke-opacity="0.9" stroke-width="12" stroke-linecap="round" stroke-linejoin="round"/>
</svg>