<?xml version="1.0" encoding="utf-8"?><!-- Uploaded to: SVG Repo, www.svgrepo.com, Generator: SVG Repo Mixer Tools -->
<svg width="800px" height="800px" viewBox="0 0 400 400" fill="none" xmlns="http://www.w3.org/2000/svg">
<path d="M110.052 245.645C152.985 244.458 196.199 243.217 239.29 243.217" stroke="#000000" stroke-opacity="0.9" stroke-width="16" stroke-linecap="round" stroke-linejoin="round"/>
<path d="M235.443 230.827C235.434 240.154 235.053 248.91 234.633 258.035" stroke="#000000" stroke-opacity="0.9" stroke-width="12" stroke-linecap="round" stroke-linejoin="round"/>
<path d="M210.343 229.126C209.922 239.205 209.212 249.573 208.722 259.735" stroke="#000000" stroke-opacity="0.9" stroke-width="12" stroke-linecap="round" stroke-linejoin="round"/>
<path d="M184.376 227.426C184.696 239.087 184.273 250.183 183.565 261.436" stroke="#000000" stroke-opacity="0.9" stroke-width="12" stroke-linecap="round" stroke-linejoin="round"/>
<path d="M161.026 227.426C160.904 238.512 160.032 248.908 159.408 259.735" stroke="#000000" stroke-opacity="0.9" stroke-width="12" stroke-linecap="round" stroke-linejoin="round"/>
<path d="M135.115 227.426C135.044 238.771 134.695 250.175 134.304 261.436" stroke="#000000" stroke-opacity="0.9" stroke-width="12" stroke-linecap="round" stroke-linejoin="round"/>
<path d="M109.405 228.225C109.27 239.04 109.136 249.821 109 260.636" stroke="#000000" stroke-opacity="0.9" stroke-width="12" stroke-linecap="round" stroke-linejoin="round"/>
<path d="M275.207 231.307C306.725 228.972 282.282 275.818 261.807 250.513C255.046 242.157 266.168 235.874 272.295 230.827" stroke="#000000" stroke-opacity="0.9" stroke-width="12" stroke-linecap="round" stroke-linejoin="round"/>
<path d="M131.31 162.807C131.31 155.437 131.31 148.07 131.31 140.7" stroke="#000000" stroke-opacity="0.9" stroke-width="16" stroke-linecap="round" stroke-linejoin="round"/>
<path d="M206.279 159.612C205.738 153.233 206.547 145.234 206.279 139" stroke="#000000" stroke-opacity="0.9" stroke-width="16" stroke-linecap="round" stroke-linejoin="round"/>
</svg>