<?xml version="1.0" encoding="utf-8"?><!-- Uploaded to: SVG Repo, www.svgrepo.com, Generator: SVG Repo Mixer Tools -->
<svg width="800px" height="800px" viewBox="0 0 400 400" fill="none" xmlns="http://www.w3.org/2000/svg">
<path d="M192.29 84.7476C196.404 80.9631 203.16 79.4868 208.544 79.0788C220.496 78.1737 234.72 85.1085 238.148 97.7886C244.131 119.912 224.338 149.489 200.718 137.092C189.53 131.219 185.57 121.059 185.845 108.493" stroke="#000000" stroke-opacity="0.9" stroke-width="16" stroke-linecap="round" stroke-linejoin="round"/>
<path d="M201.09 172.71C214 171.113 232.968 169.16 242.498 167.261" stroke="#000000" stroke-opacity="0.9" stroke-width="16" stroke-linecap="round" stroke-linejoin="round"/>
<path d="M242.497 166.172C241.768 190.198 239.231 214.203 238.139 238.091" stroke="#000000" stroke-opacity="0.9" stroke-width="16" stroke-linecap="round" stroke-linejoin="round"/>
<path d="M232.691 237.001C201.498 244.969 169.669 253.203 137.889 258.795" stroke="#000000" stroke-opacity="0.9" stroke-width="16" stroke-linecap="round" stroke-linejoin="round"/>
<path d="M137.887 255.526C133.921 242.809 129.711 230.358 126.99 217.387" stroke="#000000" stroke-opacity="0.9" stroke-width="16" stroke-linecap="round" stroke-linejoin="round"/>
<path d="M130.26 216.297C152.411 210.22 177.327 197.706 200 195.203" stroke="#000000" stroke-opacity="0.9" stroke-width="16" stroke-linecap="round" stroke-linejoin="round"/>
<path d="M198.91 180.338C199.679 184.286 200.473 191.1 201.09 195.203" stroke="#000000" stroke-opacity="0.9" stroke-width="16" stroke-linecap="round" stroke-linejoin="round"/>
<path d="M230.914 157.454C114.024 169.986 190.468 183.848 201.09 173.091" stroke="#000000" stroke-opacity="0.9" stroke-width="16" stroke-linecap="round" stroke-linejoin="round"/>
<path d="M238.139 157.454C268.236 152.651 299.349 143.836 329.672 135.661" stroke="#000000" stroke-opacity="0.9" stroke-width="12" stroke-linecap="round" stroke-linejoin="round"/>
<path d="M324.225 126.943C338.439 130.376 340.049 135.917 328.854 146.557" stroke="#000000" stroke-opacity="0.9" stroke-width="12" stroke-linecap="round" stroke-linejoin="round"/>
<path d="M259.983 84.4453C259.699 91.2761 260.554 98.3314 264.846 103.811C273.097 114.342 293.054 107.705 293.054 126.652C293.054 133.776 284.287 140.482 285.273 146.514C289.747 173.923 320.222 140.922 283.327 202.132" stroke="#000000" stroke-opacity="0.9" stroke-width="16" stroke-linecap="round" stroke-linejoin="round"/>
<path d="M234.869 236.885C280.145 204.414 272.767 202.189 278.457 259.885" stroke="#000000" stroke-opacity="0.9" stroke-width="16" stroke-linecap="round" stroke-linejoin="round"/>
<path d="M238.139 243.54C241.442 264.456 245.496 285.589 244.532 306.741" stroke="#000000" stroke-opacity="0.9" stroke-width="16" stroke-linecap="round" stroke-linejoin="round"/>
<path d="M117.184 217.387C67.9887 220.669 112.085 288.894 63.7891 295.845" stroke="#000000" stroke-opacity="0.9" stroke-width="16" stroke-linecap="round" stroke-linejoin="round"/>
<path d="M136.798 258.795C86.3178 298.903 103.46 275.188 127.311 321.997" stroke="#000000" stroke-opacity="0.9" stroke-width="16" stroke-linecap="round" stroke-linejoin="round"/>
<path d="M139.398 265.333C131.854 293.458 134.772 304.243 158.592 320.907" stroke="#000000" stroke-opacity="0.9" stroke-width="16" stroke-linecap="round" stroke-linejoin="round"/>
</svg>