<?xml version="1.0" encoding="utf-8"?><!-- Uploaded to: SVG Repo, www.svgrepo.com, Generator: SVG Repo Mixer Tools -->
<svg width="800px" height="800px" viewBox="0 0 400 400" fill="none" xmlns="http://www.w3.org/2000/svg">
<path d="M182.997 81.7368C170.632 54.8689 155.851 84.7281 171.819 100.653" stroke="#000000" stroke-opacity="0.9" stroke-width="16" stroke-linecap="round" stroke-linejoin="round"/>
<path d="M172.513 107.252C153.959 171.915 236.623 200.396 232.338 115.602" stroke="#000000" stroke-opacity="0.9" stroke-width="16" stroke-linecap="round" stroke-linejoin="round"/>
<path d="M217.648 78.4776C226.976 51.2018 247.785 74.2961 231.282 94.0521" stroke="#000000" stroke-opacity="0.9" stroke-width="16" stroke-linecap="round" stroke-linejoin="round"/>
<path d="M191.248 85.6689C199.236 81.7136 207.862 79.0651 216 82.7234" stroke="#000000" stroke-opacity="0.9" stroke-width="16" stroke-linecap="round" stroke-linejoin="round"/>
<path d="M201.876 137.969C201.631 138.137 201.391 137.766 201.148 137.548" stroke="#000000" stroke-opacity="0.9" stroke-width="16" stroke-linecap="round" stroke-linejoin="round"/>
<path d="M164.845 127.977C146.543 112.896 122.563 111.811 104.255 115.906C92.0577 118.634 75.3191 127.498 75.7463 131.565C78.1648 154.591 73.5123 162.834 85.437 164.816C92.6322 166.012 109.702 161.206 134.967 161.206" stroke="#000000" stroke-opacity="0.9" stroke-width="16" stroke-linecap="round" stroke-linejoin="round"/>
<path d="M105.806 128.068C105.561 128.237 105.321 127.865 105.078 127.647" stroke="#000000" stroke-opacity="0.9" stroke-width="16" stroke-linecap="round" stroke-linejoin="round"/>
<path d="M293.923 128.068C293.678 128.237 293.438 127.865 293.195 127.647" stroke="#000000" stroke-opacity="0.9" stroke-width="16" stroke-linecap="round" stroke-linejoin="round"/>
<path d="M138.441 161.708C150.202 169.389 160.328 179.438 169.794 189.76" stroke="#000000" stroke-opacity="0.9" stroke-width="16" stroke-linecap="round" stroke-linejoin="round"/>
<path d="M237.451 124.875C266.134 109.189 271.247 103.388 298.151 123.038C318.893 138.192 324.208 138.263 311.379 165.101C309.529 168.965 302.735 178.569 298.151 179.827C276.805 185.675 286.318 127.393 246.69 193.059" stroke="#000000" stroke-opacity="0.9" stroke-width="16" stroke-linecap="round" stroke-linejoin="round"/>
<path d="M244.049 193.059C258.468 219.001 265.926 256.225 255.799 284.604L267.151 290.416" stroke="#000000" stroke-opacity="0.9" stroke-width="16" stroke-linecap="round" stroke-linejoin="round"/>
<path d="M171.447 193.059C148.931 204.262 169.031 279.153 161.686 284.932C157.584 288.158 151.047 287.303 146.695 290.416" stroke="#000000" stroke-opacity="0.9" stroke-width="16" stroke-linecap="round" stroke-linejoin="round"/>
<path d="M120.037 112.204C105.145 90.7603 131.076 78.9973 123.988 108.142" stroke="#000000" stroke-opacity="0.9" stroke-width="16" stroke-linecap="round" stroke-linejoin="round"/>
<path d="M140.092 99.3808C147.927 92.5085 149.263 96.3018 141.511 102.303" stroke="#000000" stroke-opacity="0.9" stroke-width="16" stroke-linecap="round" stroke-linejoin="round"/>
<path d="M277.055 105.603C283.951 74.5096 304.797 76.1422 280.319 102.481" stroke="#000000" stroke-opacity="0.9" stroke-width="16" stroke-linecap="round" stroke-linejoin="round"/>
<path d="M273.752 100.423C270.276 74.277 254.839 88.0956 266.474 103.953" stroke="#000000" stroke-opacity="0.9" stroke-width="16" stroke-linecap="round" stroke-linejoin="round"/>
<path d="M265.065 268.493C283.367 264.379 313.302 270.986 320.998 289.128C336.276 325.144 269.832 327.025 249.002 333.32" stroke="#000000" stroke-opacity="0.9" stroke-width="16" stroke-linecap="round" stroke-linejoin="round"/>
</svg>