<?xml version="1.0" encoding="utf-8"?><!-- Uploaded to: SVG Repo, www.svgrepo.com, Generator: SVG Repo Mixer Tools -->
<svg width="800px" height="800px" viewBox="0 0 400 400" fill="none" xmlns="http://www.w3.org/2000/svg">
<path d="M184.579 72.3182C189.966 63.5129 202.85 56.7443 214.163 59.706C246.404 68.1476 238.472 116.522 210.782 125.285C172.813 137.302 149.389 90.5662 176.128 66.0138" stroke="#000000" stroke-opacity="0.9" stroke-width="16" stroke-linecap="round" stroke-linejoin="round"/>
<path d="M205.012 87.4275C205.012 84.7729 205.012 82.1223 205.012 79.4678" stroke="#000000" stroke-opacity="0.9" stroke-width="16" stroke-linecap="round" stroke-linejoin="round"/>
<path d="M169.193 341C171.491 338.994 178.039 342.478 179.933 340.155C183.31 336.011 185.232 263.88 185.947 254.075C187.228 236.436 189.282 219.026 189.812 201.328C190.517 177.865 177.671 146.471 205.706 146.471C207.518 146.471 218.4 144.855 219.454 145.63C226.414 150.755 205.444 314.742 216.017 335.513C216.637 336.734 225.766 337.301 227.185 337.624" stroke="#000000" stroke-opacity="0.9" stroke-width="16" stroke-linecap="round" stroke-linejoin="round"/>
<path d="M184.758 239.798C186.685 220.295 151 202.45 151 186.16C151 184.255 154.425 184.55 156.063 183.606C169.145 176.064 178.165 160.324 191.935 153.379" stroke="#000000" stroke-opacity="0.9" stroke-width="16" stroke-linecap="round" stroke-linejoin="round"/>
<path d="M223.813 151.105C285.305 207.352 213.078 211.831 219.655 231.893C220.701 235.092 226.003 230.798 222.565 238.661" stroke="#000000" stroke-opacity="0.9" stroke-width="16" stroke-linecap="round" stroke-linejoin="round"/>
</svg>