<?xml version="1.0" encoding="utf-8"?><!-- Uploaded to: SVG Repo, www.svgrepo.com, Generator: SVG Repo Mixer Tools -->
<svg width="800px" height="800px" viewBox="0 0 400 400" fill="none" xmlns="http://www.w3.org/2000/svg">
<path d="M192.636 58.4335C135.111 45.8053 152.726 131.609 198.284 121.54C221.337 116.446 229.225 74.3807 205.639 66.4909" stroke="#000000" stroke-opacity="0.9" stroke-width="16" stroke-linecap="round" stroke-linejoin="round"/>
<path d="M153.423 143C144 212 155 309.143 155 344" stroke="#000000" stroke-opacity="0.9" stroke-width="16" stroke-linecap="round" stroke-linejoin="round"/>
<path d="M209 144C182.08 209.088 193.767 273.621 199.575 341" stroke="#000000" stroke-opacity="0.9" stroke-width="16" stroke-linecap="round" stroke-linejoin="round"/>
<path d="M209 146C216.329 174.778 230.357 199.978 242 226" stroke="#000000" stroke-opacity="0.9" stroke-width="16" stroke-linecap="round" stroke-linejoin="round"/>
<path d="M188 255C236.829 233.366 287.829 217.489 338 199" stroke="#000000" stroke-opacity="0.9" stroke-width="16" stroke-linecap="round" stroke-linejoin="round"/>
<path d="M317.621 173C315.787 187.118 298.23 189.806 291.015 202.435C271.243 237.03 330.541 226.373 338 233" stroke="#000000" stroke-opacity="0.9" stroke-width="16" stroke-linecap="round" stroke-linejoin="round"/>
<path d="M212.92 42.874C208.788 47.0524 206.259 53.1496 205.814 59.2192" stroke="#000000" stroke-opacity="0.9" stroke-width="16" stroke-linecap="round" stroke-linejoin="round"/>
<path d="M164.362 42.3229C163.634 48.3986 166.097 52.0081 168.02 56.665" stroke="#000000" stroke-opacity="0.9" stroke-width="16" stroke-linecap="round" stroke-linejoin="round"/>
<path d="M146 223C98.8983 242.584 131.495 355.264 65 339.492" stroke="#000000" stroke-opacity="0.9" stroke-width="16" stroke-linecap="round" stroke-linejoin="round"/>
<path d="M71.1414 328C61.9695 346.438 54.7448 344.752 75 358" stroke="#000000" stroke-opacity="0.9" stroke-width="16" stroke-linecap="round" stroke-linejoin="round"/>
</svg>