<?xml version="1.0" encoding="utf-8"?><!-- Uploaded to: SVG Repo, www.svgrepo.com, Generator: SVG Repo Mixer Tools -->
<svg width="800px" height="800px" viewBox="0 0 400 400" fill="none" xmlns="http://www.w3.org/2000/svg">
<path d="M128.317 74.5798C133.442 66.6202 142.209 60.6837 151.558 58.3397C225.756 39.7439 213.413 148.638 145.219 138.119C123.441 134.762 120.572 111.498 120.572 92.9369" stroke="#000000" stroke-opacity="0.9" stroke-width="16" stroke-linecap="round" stroke-linejoin="round"/>
<path d="M152.909 158.669C196.025 149.616 190.037 178.36 180.456 220.247" stroke="#000000" stroke-opacity="0.9" stroke-width="16" stroke-linecap="round" stroke-linejoin="round"/>
<path d="M146.936 171.174C146.679 188.54 149.761 206.913 155.305 220.279" stroke="#000000" stroke-opacity="0.9" stroke-width="16" stroke-linecap="round" stroke-linejoin="round"/>
<path d="M155.299 222.674C150.104 230.935 145.992 253.535 146.915 256.209C148.712 261.41 166.29 253.241 179.252 256.209" stroke="#000000" stroke-opacity="0.9" stroke-width="16" stroke-linecap="round" stroke-linejoin="round"/>
<path d="M180.89 225.069C184.478 235.885 191.436 246.387 186.943 256.209" stroke="#000000" stroke-opacity="0.9" stroke-width="16" stroke-linecap="round" stroke-linejoin="round"/>
<path d="M155.305 262.197C154.827 267.855 154.707 282.746 150.131 294.924C141.18 318.741 118.978 344.935 133.148 344.836" stroke="#000000" stroke-opacity="0.9" stroke-width="16" stroke-linecap="round" stroke-linejoin="round"/>
<path d="M176.539 262.197C177.745 268.895 191.229 283.395 191.232 299.747C191.236 322.981 178.706 348.149 191.232 344.477" stroke="#000000" stroke-opacity="0.9" stroke-width="16" stroke-linecap="round" stroke-linejoin="round"/>
<path d="M152.344 158C75.912 220.699 146.913 196.924 204.402 173.828" stroke="#000000" stroke-opacity="0.9" stroke-width="16" stroke-linecap="round" stroke-linejoin="round"/>
<path d="M179.258 158.009C239.151 190.97 239.413 166.7 287.048 130.453" stroke="#000000" stroke-opacity="0.9" stroke-width="16" stroke-linecap="round" stroke-linejoin="round"/>
<path d="M229.562 58.5928C281.33 94.9375 297.813 154.896 291.893 215.488" stroke="#000000" stroke-opacity="0.9" stroke-width="16" stroke-linecap="round" stroke-linejoin="round"/>
<path d="M161.291 60.7936C146.16 51.5066 135.285 53.7208 122.691 65.0302C70.0498 112.279 156.406 121.37 108.396 168.779" stroke="#000000" stroke-opacity="0.9" stroke-width="16" stroke-linecap="round" stroke-linejoin="round"/>
<path d="M295.43 119.674C256.232 141.57 242.733 151.874 190.035 179.558" stroke="#000000" stroke-opacity="0.9" stroke-width="16" stroke-linecap="round" stroke-linejoin="round"/>
<path d="M170.875 68.1743C159.083 78.0226 146.308 84.4101 132.55 87.3371" stroke="#000000" stroke-opacity="0.9" stroke-width="16" stroke-linecap="round" stroke-linejoin="round"/>
</svg>