<?xml version="1.0" encoding="utf-8"?><!-- Uploaded to: SVG Repo, www.svgrepo.com, Generator: SVG Repo Mixer Tools -->
<svg width="800px" height="800px" viewBox="0 0 400 400" fill="none" xmlns="http://www.w3.org/2000/svg">
<path d="M185.118 92.7164C190.672 49.1669 239.21 57.0266 228.438 103.617C222.388 129.787 191.108 131.6 184.734 99.7875" stroke="#000000" stroke-opacity="0.9" stroke-width="16" stroke-linecap="round" stroke-linejoin="round"/>
<path d="M181.5 137.406C156.296 138.484 137.028 130.602 114.689 119.128" stroke="#000000" stroke-opacity="0.9" stroke-width="16" stroke-linecap="round" stroke-linejoin="round"/>
<path d="M229.992 140.628C250.712 141.816 267.347 134.159 283.871 120.21" stroke="#000000" stroke-opacity="0.9" stroke-width="16" stroke-linecap="round" stroke-linejoin="round"/>
<path d="M229.104 140.747C232.849 170.666 223.779 305.511 219.213 334.238H229.104" stroke="#000000" stroke-opacity="0.9" stroke-width="16" stroke-linecap="round" stroke-linejoin="round"/>
<path d="M181.499 136.423C174.488 175.204 173.819 297.345 169.779 334.153L159.947 336.4" stroke="#000000" stroke-opacity="0.9" stroke-width="16" stroke-linecap="round" stroke-linejoin="round"/>
<path d="M112.534 120.145C111.982 113.693 93.339 114.843 99.937 121.764C102.017 123.946 104.386 125.21 105.984 127.776" stroke="#000000" stroke-opacity="0.9" stroke-width="16" stroke-linecap="round" stroke-linejoin="round"/>
<path d="M283.922 122.371C282.681 116.181 303.644 107.668 299.486 116.326C297.944 119.536 294.71 118.704 292.982 121.405" stroke="#000000" stroke-opacity="0.9" stroke-width="16" stroke-linecap="round" stroke-linejoin="round"/>
<path d="M100.578 117.374C69.9333 111.189 80.2827 177.305 79.2542 193.794C78.1709 211.146 74.5953 227.748 70.4875 244.581C70.2606 245.51 68.3719 258.002 64.0906 254.786C63.3734 254.248 70.9732 255.585 72.6198 256.685C76.6697 259.388 80.358 263.659 81.3865 268.551C84.7498 284.555 78.6186 299.624 90.6268 313.88C98.9147 323.719 115.739 331.759 129.01 329.544" stroke="#000000" stroke-opacity="0.9" stroke-width="16" stroke-linecap="round" stroke-linejoin="round"/>
<path d="M300.515 111.354C301.895 111.538 306.232 108.455 307.162 109.694C309.165 112.363 309.411 118.911 310.96 122.263C317.525 136.475 324.616 150.217 330.187 164.952C332.934 172.215 336.906 183.311 335.172 191.277C332.834 202.02 314.949 195.649 315.707 201.711C318.068 220.577 331.439 234.099 329.238 255.546C327.213 275.274 314.03 295.622 293.394 299.421C285.664 300.843 277.941 299.371 270.369 302.029C260.554 305.475 255.559 315.973 246.156 319.104" stroke="#000000" stroke-opacity="0.9" stroke-width="16" stroke-linecap="round" stroke-linejoin="round"/>
<path fill-rule="evenodd" clip-rule="evenodd" d="M199.818 140.747C207.291 144.875 211.027 147.032 211.027 147.22C211.027 147.501 212.478 143.28 211.027 142.154C210.06 141.404 206.324 142.628 199.818 145.825V140.747Z" stroke="#000000" stroke-opacity="0.9" stroke-width="12" stroke-linecap="round" stroke-linejoin="round"/>
<path d="M193.025 80.1576C204.041 70.6473 210.863 68.3243 213.491 73.1885C217.433 80.485 223.695 65.8921 225.681 73.1885" stroke="#000000" stroke-opacity="0.9" stroke-width="16" stroke-linecap="round" stroke-linejoin="round"/>
</svg>