<?xml version="1.0" encoding="utf-8"?><!-- Uploaded to: SVG Repo, www.svgrepo.com, Generator: SVG Repo Mixer Tools -->
<svg width="800px" height="800px" viewBox="0 0 400 400" fill="none" xmlns="http://www.w3.org/2000/svg">
<path d="M282.237 154.218C288.278 148.606 291.751 138.72 299.985 135.626C311.223 131.399 322.325 134.949 332.256 140.477C387.21 171.068 287.894 240.789 279.814 176.046" stroke="#000000" stroke-opacity="0.9" stroke-width="16" stroke-linecap="round" stroke-linejoin="round"/>
<path d="M301.262 127.637C303.216 122.882 305.217 118.246 307.389 113.851" stroke="#000000" stroke-opacity="0.9" stroke-width="16" stroke-linecap="round" stroke-linejoin="round"/>
<path d="M293.604 302.268C287.446 292.317 274.482 293.453 264.499 297.865" stroke="#000000" stroke-opacity="0.9" stroke-width="16" stroke-linecap="round" stroke-linejoin="round"/>
<path d="M276.753 286.95C263.746 192.297 198.045 84.6241 90.0378 98.1579C83.1064 99.0259 53.9052 109.629 51.573 116.634C51.2564 117.591 79.387 127.578 81.2257 128.684C94.3949 136.608 98.2261 166.532 104.464 169.658C105.711 170.284 113.527 160.567 114.882 159.214C119.826 154.253 130.132 154.174 136.519 153.59C151.68 152.209 152.518 166.83 161.358 171.264C167.102 174.143 180.304 165.948 191.807 172.869" stroke="#000000" stroke-opacity="0.9" stroke-width="16" stroke-linecap="round" stroke-linejoin="round"/>
<path d="M236.925 184.316C212.624 189.906 134.209 279.507 154.442 299.352C169.611 314.233 203.05 287.614 213.474 280.314C220.976 275.055 226.332 250.8 230.457 258.893C241.722 280.991 192.597 299.352 228.032 299.352" stroke="#000000" stroke-opacity="0.9" stroke-width="16" stroke-linecap="round" stroke-linejoin="round"/>
</svg>