<?xml version="1.0" encoding="utf-8"?><!-- Uploaded to: SVG Repo, www.svgrepo.com, Generator: SVG Repo Mixer Tools -->
<svg width="800px" height="800px" viewBox="0 0 400 400" fill="none" xmlns="http://www.w3.org/2000/svg">
<path d="M296.866 173.197C308.257 135.546 348.262 117.46 352 165.157" stroke="#000000" stroke-opacity="0.9" stroke-width="16" stroke-linecap="round" stroke-linejoin="round"/>
<path d="M305.288 173.197C319.016 168.686 332.901 164.278 346.638 160.179" stroke="#000000" stroke-opacity="0.9" stroke-width="16" stroke-linecap="round" stroke-linejoin="round"/>
<path d="M313.711 134.637C308.172 122.768 295.301 122.094 283.378 121.253C253.998 119.176 250.438 145.242 243.666 170.343" stroke="#000000" stroke-opacity="0.9" stroke-width="16" stroke-linecap="round" stroke-linejoin="round"/>
<path d="M316.43 179.322C320.348 208.648 312.82 252.127 310.65 274.274" stroke="#000000" stroke-opacity="0.9" stroke-width="16" stroke-linecap="round" stroke-linejoin="round"/>
<path d="M244.825 195.649C257.412 99.7965 104.324 95.9345 83.3993 149.737C76.5702 167.284 108.695 174.295 119.57 173.761C131.035 173.19 138.725 166.755 149.264 164.149C151.424 163.615 157.318 164.103 155.744 162.547C151.764 158.612 123.731 178.405 133.069 187.639C152.225 206.582 193.535 176.062 193.535 178.562C193.535 185.863 174.518 214.158 212.97 198.314" stroke="#000000" stroke-opacity="0.9" stroke-width="16" stroke-linecap="round" stroke-linejoin="round"/>
<path d="M171.284 217.609C160.61 231.82 149.19 256.508 157.039 272.743" stroke="#000000" stroke-opacity="0.9" stroke-width="16" stroke-linecap="round" stroke-linejoin="round"/>
<path d="M252.451 230.627C252.123 247.26 230.583 258.903 217.089 264.453C211.274 266.842 168.345 283.795 162.982 273.041C158.266 263.597 291.485 277.337 219.769 277.337" stroke="#000000" stroke-opacity="0.9" stroke-width="16" stroke-linecap="round" stroke-linejoin="round"/>
<path d="M304.802 139.113C301.284 138.051 298.139 139.809 294.848 140.356" stroke="#000000" stroke-opacity="0.9" stroke-width="16" stroke-linecap="round" stroke-linejoin="round"/>
<path d="M144.483 279.911C132.915 281.761 121.618 284.576 109.754 284.193C92.5876 283.64 77.1303 274.303 64.336 263.319C10.5695 217.155 104.732 182.805 128.455 216.753C140.245 233.621 108.851 245.727 96.3931 237.092" stroke="#000000" stroke-opacity="0.9" stroke-width="16" stroke-linecap="round" stroke-linejoin="round"/>
<path d="M97.7745 227.564C88.2049 232.395 90.5425 237.831 93.3244 245.942" stroke="#000000" stroke-opacity="0.9" stroke-width="16" stroke-linecap="round" stroke-linejoin="round"/>
</svg>