<?xml version="1.0" encoding="utf-8"?><!-- Uploaded to: SVG Repo, www.svgrepo.com, Generator: SVG Repo Mixer Tools -->
<svg width="800px" height="800px" viewBox="0 0 400 400" fill="none" xmlns="http://www.w3.org/2000/svg">
<path d="M168.102 75.9999C158.753 67.5077 164.734 68.9278 176.315 68.7557C191.201 68.5344 214.503 68.3047 217.544 68.7557C218.808 68.9426 233.441 68.2873 233.133 70.4772C232.922 71.9818 228.589 72.9344 227.662 73.0566" stroke="#000000" stroke-opacity="0.9" stroke-width="16" stroke-linecap="round" stroke-linejoin="round"/>
<path d="M177.328 65.6709C177.639 58.6276 182.494 40.9333 191.042 42.5932C193.711 43.1112 195.775 45.5519 198.492 45.5519C201.196 45.5519 203.043 42.9049 205.773 42.1989C214.6 39.9132 218.108 57.9461 218.81 64.4873" stroke="#000000" stroke-opacity="0.9" stroke-width="16" stroke-linecap="round" stroke-linejoin="round"/>
<path d="M223 141C226.762 142.949 251.637 179.008 253.899 184.465C255.791 189.034 230.605 227.386 226.432 235M176.8 231C174.65 228.824 150.666 210.602 146.252 200.164C142.812 192.029 175.707 144.95 177 141L176.8 231Z" stroke="#000000" stroke-opacity="0.9" stroke-width="16" stroke-linecap="round" stroke-linejoin="round"/>
<path d="M181.89 92.8258C192.642 82.9454 205.015 101.731 191.994 107.047C181.804 111.207 175.626 100.764 181.89 94.626" stroke="#000000" stroke-opacity="0.9" stroke-width="16" stroke-linecap="round" stroke-linejoin="round"/>
<path d="M207.733 90.9048C216.341 86.8656 226.041 97.2004 218.761 105.098C216.73 107.301 214.054 108.555 210.91 107.76C205.975 106.51 200.027 100.393 205.381 94.3893" stroke="#000000" stroke-opacity="0.9" stroke-width="16" stroke-linecap="round" stroke-linejoin="round"/>
<path d="M197.609 99.0001C199.497 95.4049 201.384 95.4049 203.271 99.0001" stroke="#000000" stroke-opacity="0.9" stroke-width="16" stroke-linecap="round" stroke-linejoin="round"/>
<path d="M179.369 98.9999C177.245 95.7229 175.518 94.0845 174.187 94.0845C172.857 94.0845 171.961 95.2506 171.5 97.583" stroke="#000000" stroke-opacity="0.9" stroke-width="16" stroke-linecap="round" stroke-linejoin="round"/>
<path d="M221.49 98.9999C223.614 95.7229 225.342 94.0845 226.672 94.0845C228.002 94.0845 228.898 95.2506 229.359 97.583" stroke="#000000" stroke-opacity="0.9" stroke-width="16" stroke-linecap="round" stroke-linejoin="round"/>
<path d="M176.302 142C181.101 200.522 183.5 232.281 183.5 237.279C183.5 244.775 183.302 352.359 179.901 356.12C177.634 358.627 174.167 358.627 169.5 356.12" stroke="#000000" stroke-opacity="0.9" stroke-width="16" stroke-linecap="round" stroke-linejoin="round"/>
<path d="M225.5 142C225.5 202.261 225.5 235.494 225.5 241.7C225.5 247.905 227.045 286.005 230.136 356H239.5" stroke="#000000" stroke-opacity="0.9" stroke-width="16" stroke-linecap="round" stroke-linejoin="round"/>
<path d="M187.5 145.961V135C203.891 143.909 212.086 148.566 212.086 148.971C212.086 149.578 215.268 140.467 212.086 138.037C209.965 136.417 204.436 139.059 195.499 145.961" stroke="#000000" stroke-opacity="0.9" stroke-width="16" stroke-linecap="round" stroke-linejoin="round"/>
</svg>