<?xml version="1.0" encoding="utf-8"?><!-- Uploaded to: SVG Repo, www.svgrepo.com, Generator: SVG Repo Mixer Tools -->
<svg width="800px" height="800px" viewBox="0 0 400 400" fill="none" xmlns="http://www.w3.org/2000/svg">
<path d="M159.603 212.454C127.707 213.088 61.7448 146.196 75.985 110.592C77.8828 105.853 150.047 158.913 178.728 204.444C182.975 211.186 190.293 196.7 206.71 196.7C223.128 196.7 232.602 209.338 236.99 209.338C241.378 209.338 272.094 143.268 288.727 125.126C295.758 117.457 319.332 86.2799 321.496 87.9069C330.439 94.6106 323.582 129.956 321.943 138.17C308.011 207.819 254.78 208.73 254.78 220.013C254.78 223.54 266.35 232.924 269.015 240.921C280.624 275.758 237.511 293.02 211.196 296.966C168.4 303.386 138.81 282.232 156.045 239.144" stroke="#000000" stroke-opacity="0.9" stroke-width="16" stroke-linecap="round" stroke-linejoin="round"/>
<path d="M191.222 110.215C185.539 138.03 190.016 170.292 203.729 195.209" stroke="#000000" stroke-opacity="0.9" stroke-width="16" stroke-linecap="round" stroke-linejoin="round"/>
<path d="M239.166 108.722C240.958 138.596 236.133 171.691 218.641 196.698" stroke="#000000" stroke-opacity="0.9" stroke-width="16" stroke-linecap="round" stroke-linejoin="round"/>
<path d="M276.714 71.4447C278.054 93.1679 262.09 131.355 241.006 140.036" stroke="#000000" stroke-opacity="0.9" stroke-width="16" stroke-linecap="round" stroke-linejoin="round"/>
<path d="M136.639 65.4801C136.104 103.092 157.549 136.588 188.818 154.948" stroke="#000000" stroke-opacity="0.9" stroke-width="16" stroke-linecap="round" stroke-linejoin="round"/>
<path d="M153.166 75.9182C144.595 89.2515 147.503 110.589 153.166 120.373" stroke="#000000" stroke-opacity="0.9" stroke-width="16" stroke-linecap="round" stroke-linejoin="round"/>
<path d="M267.158 84.8652C270.388 92.5635 270.911 99.76 268.59 107.232" stroke="#000000" stroke-opacity="0.9" stroke-width="16" stroke-linecap="round" stroke-linejoin="round"/>
<path d="M150.046 295.113C137.771 305.897 130.722 318.805 126.188 333.882" stroke="#000000" stroke-opacity="0.9" stroke-width="16" stroke-linecap="round" stroke-linejoin="round"/>
<path d="M261.882 284.675C278.856 295.904 288.207 316.026 293.195 333.882" stroke="#000000" stroke-opacity="0.9" stroke-width="16" stroke-linecap="round" stroke-linejoin="round"/>
<path d="M217.656 233.977C218.448 231.01 217.974 228.018 218.13 225.03" stroke="#000000" stroke-opacity="0.9" stroke-width="16" stroke-linecap="round" stroke-linejoin="round"/>
<path d="M197.018 232.486C197.018 229.504 197.018 226.521 197.018 223.539" stroke="#000000" stroke-opacity="0.9" stroke-width="16" stroke-linecap="round" stroke-linejoin="round"/>
<path d="M209.398 252.39C196.201 248.582 203.93 267.381 211.182 255.11" stroke="#000000" stroke-opacity="0.9" stroke-width="16" stroke-linecap="round" stroke-linejoin="round"/>
<path d="M206.709 268.274C203.378 274.884 198.928 276.252 193.289 277.221" stroke="#000000" stroke-opacity="0.9" stroke-width="16" stroke-linecap="round" stroke-linejoin="round"/>
<path d="M208.2 266.781C208.694 274.65 213.458 274.276 218.638 277.219" stroke="#000000" stroke-opacity="0.9" stroke-width="16" stroke-linecap="round" stroke-linejoin="round"/>
</svg>