<?xml version="1.0" encoding="utf-8"?><!-- Uploaded to: SVG Repo, www.svgrepo.com, Generator: SVG Repo Mixer Tools -->
<svg width="800px" height="800px" viewBox="0 0 400 400" fill="none" xmlns="http://www.w3.org/2000/svg">
<path d="M168.555 136.575C171.194 123.682 178.105 112.219 188.137 103.658C220.586 75.9737 244.86 116.52 222.49 143.926C209.257 160.136 161.364 165.395 171.443 135.296" stroke="#000000" stroke-opacity="0.9" stroke-width="16" stroke-linecap="round" stroke-linejoin="round"/>
<path d="M164.723 114.16C170.722 122.067 175.31 119.867 180.252 112.533C187.439 101.866 197.888 90.2466 211.627 92.012C254.915 97.5727 225.035 132.975 237.298 147.378C239.531 150.004 242.675 149.159 245.223 149.333" stroke="#000000" stroke-opacity="0.9" stroke-width="16" stroke-linecap="round" stroke-linejoin="round"/>
<path d="M199.223 94.6563C201.014 90.9123 202.453 65 210.661 65C213.915 65 212.242 92.632 219.158 94.6563C223.423 95.9033 243.346 68.2858 243.346 72.8911C243.346 80.2342 223.439 93.5136 227.331 100.636C233.299 111.555 278.648 73.941 255.11 96.3296C249.577 102.051 240.592 104.372 234.849 109.722" stroke="#000000" stroke-opacity="0.9" stroke-width="16" stroke-linecap="round" stroke-linejoin="round"/>
<path d="M176.731 172.333C227.184 187.352 225.469 166.876 206.308 217.272C205.026 220.648 197.576 232.201 198.274 235.698C199.416 241.457 227.453 261.027 223.024 267.704C219.991 272.283 179.99 274.69 173.839 275.466C173.316 275.529 147.478 278.375 148.121 276.434C152.924 261.941 178.556 252.603 180.91 236.023C183.464 218.06 173.195 196.188 173.195 177.504" stroke="#000000" stroke-opacity="0.9" stroke-width="16" stroke-linecap="round" stroke-linejoin="round"/>
<path d="M169.835 181.278C153.201 205.611 137.72 226.217 104.668 212.837" stroke="#000000" stroke-opacity="0.9" stroke-width="16" stroke-linecap="round" stroke-linejoin="round"/>
<path d="M220.945 185.111C239.013 218.814 237.166 219.881 266.409 210.482C271.138 208.959 274.742 216.817 279.723 217.056" stroke="#000000" stroke-opacity="0.9" stroke-width="16" stroke-linecap="round" stroke-linejoin="round"/>
<path d="M223.5 183.677C245.188 187.179 275.801 130.341 284.833 145.53" stroke="#000000" stroke-opacity="0.9" stroke-width="16" stroke-linecap="round" stroke-linejoin="round"/>
<path d="M169.834 169.778C113.289 168.991 140.148 158.374 117.445 121.222" stroke="#000000" stroke-opacity="0.9" stroke-width="16" stroke-linecap="round" stroke-linejoin="round"/>
<path d="M117.512 137.832C116.001 138.068 140.655 115.191 138.765 117.069C135.954 119.854 132.526 94.3044 149.39 93.1113" stroke="#000000" stroke-opacity="0.9" stroke-width="16" stroke-linecap="round" stroke-linejoin="round"/>
<path d="M280.533 148.531C299.971 117.999 340.455 152.147 322.53 180.801C303.695 210.911 264.867 194.61 269.956 160.469" stroke="#000000" stroke-opacity="0.9" stroke-width="16" stroke-linecap="round" stroke-linejoin="round"/>
<path d="M307.835 157.273C304.803 156.537 301.185 157.863 298.891 158.224" stroke="#000000" stroke-opacity="0.9" stroke-width="16" stroke-linecap="round" stroke-linejoin="round"/>
<path d="M301.77 154.444C301.973 156.163 302.191 157.85 302.402 159.555" stroke="#000000" stroke-opacity="0.9" stroke-width="16" stroke-linecap="round" stroke-linejoin="round"/>
<path d="M295.056 174.931C293.188 175.87 290.496 173.52 289.945 173.348" stroke="#000000" stroke-opacity="0.9" stroke-width="16" stroke-linecap="round" stroke-linejoin="round"/>
<path d="M291.963 171.056C292.319 173.194 291.752 175.364 291.648 177.445" stroke="#000000" stroke-opacity="0.9" stroke-width="16" stroke-linecap="round" stroke-linejoin="round"/>
<path d="M208.15 277.111C210.212 298.792 185.804 339.304 210.425 332.613" stroke="#000000" stroke-opacity="0.9" stroke-width="16" stroke-linecap="round" stroke-linejoin="round"/>
<path d="M161.199 282.222C164.036 296.717 169.695 309.942 174.574 323.528C180.171 339.113 172.67 334.611 165.873 334.611" stroke="#000000" stroke-opacity="0.9" stroke-width="16" stroke-linecap="round" stroke-linejoin="round"/>
<path d="M192.657 146.778C191.549 148.507 190.337 150.19 189.18 151.889" stroke="#000000" stroke-opacity="0.9" stroke-width="16" stroke-linecap="round" stroke-linejoin="round"/>
<path d="M91.8906 165.944C96.7986 220.843 118.724 282.762 118.724 334.611" stroke="#000000" stroke-opacity="0.9" stroke-width="16" stroke-linecap="round" stroke-linejoin="round"/>
<path d="M74 181.755C84.7614 175.478 94.705 206.394 105.029 185.31C108.28 178.665 105.459 173.349 109.778 168.5" stroke="#000000" stroke-opacity="0.9" stroke-width="16" stroke-linecap="round" stroke-linejoin="round"/>
</svg>