<?xml version="1.0" encoding="utf-8"?><!-- Uploaded to: SVG Repo, www.svgrepo.com, Generator: SVG Repo Mixer Tools -->
<svg width="800px" height="800px" viewBox="0 0 400 400" fill="none" xmlns="http://www.w3.org/2000/svg">
<path d="M174.6 144.093C156.983 139.175 147.258 98.5181 158.439 81.9583C170.401 64.2403 190.42 61.6854 203.785 65.5724C227.873 72.5775 242.04 104.494 231.444 134.593C228.597 142.687 226.444 147.03 219.742 151.919C218.991 152.465 210.752 156.516 210.827 156.947C215.404 184.502 238.545 199.301 226.43 235.741C219.059 257.914 184.583 261.986 166.799 255.302C163.475 254.049 162.066 244.959 159.553 247.475C157.389 249.649 161.404 253.371 161.784 256.419C164.457 277.856 159.67 310.449 158.439 324.035" stroke="#000000" stroke-opacity="0.9" stroke-width="16" stroke-linecap="round" stroke-linejoin="round"/>
<path d="M170.923 144.296C129.87 140.098 90.7668 206.249 127.881 234.07" stroke="#000000" stroke-opacity="0.9" stroke-width="16" stroke-linecap="round" stroke-linejoin="round"/>
<path d="M170.921 151.5C149.667 172.983 138.879 203.915 138.879 231.606" stroke="#000000" stroke-opacity="0.9" stroke-width="16" stroke-linecap="round" stroke-linejoin="round"/>
<path d="M127.789 256.254C132.455 248.774 138.355 228.702 145.043 245.566" stroke="#000000" stroke-opacity="0.9" stroke-width="16" stroke-linecap="round" stroke-linejoin="round"/>
<path d="M231.309 215.584C240.894 227.754 253.153 235.7 268.28 239" stroke="#000000" stroke-opacity="0.9" stroke-width="16" stroke-linecap="round" stroke-linejoin="round"/>
<path opacity="0.503384" d="M270.062 218.963C264.303 223.419 258.361 227.892 253.468 233.272C247.143 240.223 253.943 255.326 264.34 250.329C286.177 239.829 301.953 194.685 269.488 218.963" stroke="#000000" stroke-opacity="0.9" stroke-width="14" stroke-linecap="round" stroke-linejoin="round"/>
<path d="M216.844 256.253C210.837 301.306 175.773 301.54 220.218 328.965" stroke="#000000" stroke-opacity="0.9" stroke-width="16" stroke-linecap="round" stroke-linejoin="round"/>
<path d="M227.611 319.453C221.838 320.181 217.059 323.039 211.59 322.348" stroke="#000000" stroke-opacity="0.9" stroke-width="16" stroke-linecap="round" stroke-linejoin="round"/>
<path d="M153.668 336.359C160.7 331.615 160.632 326.152 165.992 334.62" stroke="#000000" stroke-opacity="0.9" stroke-width="16" stroke-linecap="round" stroke-linejoin="round"/>
<path d="M205.431 126.966C196.287 123.528 196.196 123.528 188.204 126.966C185.09 128.306 187.753 135.252 196.192 147.803C200.305 139.658 203.385 132.722 205.431 126.993" stroke="#000000" stroke-opacity="0.9" stroke-width="16" stroke-linecap="round" stroke-linejoin="round"/>
<path d="M154.902 84.781C160.786 70.4447 183.066 86.7635 188.133 84.781C201.416 79.5841 196.439 63.6809 217.754 75.917" stroke="#000000" stroke-opacity="0.9" stroke-width="16" stroke-linecap="round" stroke-linejoin="round"/>
<path d="M182.629 105.5C182.629 104.535 182.629 103.57 182.629 102.605" stroke="#000000" stroke-opacity="0.9" stroke-width="12" stroke-linecap="round" stroke-linejoin="round"/>
<path d="M205.43 103.324C205.43 102.167 205.43 101.01 205.43 99.8525" stroke="#000000" stroke-opacity="0.9" stroke-width="12" stroke-linecap="round" stroke-linejoin="round"/>
<path opacity="0.503384" d="M137.648 174.785C135.752 175.48 134.426 174.027 132.719 173.628" stroke="#000000" stroke-opacity="0.9" stroke-width="6" stroke-linecap="round" stroke-linejoin="round"/>
<path opacity="0.503384" d="M127.751 193.074C127.366 192.882 126.978 192.689 126.594 192.497" stroke="#000000" stroke-opacity="0.9" stroke-width="6" stroke-linecap="round" stroke-linejoin="round"/>
</svg>