<?xml version="1.0" encoding="utf-8"?><!-- Uploaded to: SVG Repo, www.svgrepo.com, Generator: SVG Repo Mixer Tools -->
<svg width="800px" height="800px" viewBox="0 0 400 400" fill="none" xmlns="http://www.w3.org/2000/svg">
<path d="M249.292 120.404C246.898 99.197 270.806 69.9902 283.561 90.8738C287.92 98.0108 283.424 125.074 289.272 138.04C291.741 143.513 300.487 146.116 304.002 141.321" stroke="#000000" stroke-opacity="0.9" stroke-width="16" stroke-linecap="round" stroke-linejoin="round"/>
<path d="M232.58 107.571C236.242 101.033 240.273 93.986 240.273 86.0537C240.273 78.3383 229.892 64.2405 221.36 70.001C209.421 78.0625 209.536 108.614 194.113 100.398C185.398 90.5295 182.643 89.142 180.971 84.6875" stroke="#000000" stroke-opacity="0.9" stroke-width="16" stroke-linecap="round" stroke-linejoin="round"/>
<path d="M226.111 122.598C208.613 114.528 205.335 113.34 201.599 113.871C193.695 114.994 185.849 122.47 185.137 129.144C183.776 141.897 194.93 154.893 190.99 167.481C188.162 176.515 176.97 178.551 171.234 171.221" stroke="#000000" stroke-opacity="0.9" stroke-width="16" stroke-linecap="round" stroke-linejoin="round"/>
<path d="M265.057 111.846C268.639 108.897 272.971 108.456 277.363 108.456C312.09 108.456 269.73 144.831 271.367 160.67C272.479 171.419 302.495 165.852 293.456 184.065C291.958 187.082 291.937 187.014 290.3 189.829" stroke="#000000" stroke-opacity="0.9" stroke-width="16" stroke-linecap="round" stroke-linejoin="round"/>
<path d="M217.262 99.4223C219.557 102.504 228.291 112.943 233.174 109.557C234.847 108.397 236.14 106.742 238.046 105.841C243.123 103.44 247.219 100.919 248.762 95.031C250.466 88.5333 247.448 77.4973 249.412 73.4115C251.432 69.2084 257.693 63.7276 262.402 66.9931" stroke="#000000" stroke-opacity="0.9" stroke-width="16" stroke-linecap="round" stroke-linejoin="round"/>
<path d="M205.137 140.297C202.808 167.986 215.868 175.681 237.032 175.676C255.4 175.673 262.401 153.623 262.401 142.065" stroke="#000000" stroke-opacity="0.9" stroke-width="16" stroke-linecap="round" stroke-linejoin="round"/>
<path d="M243.145 151.795C243.168 150.027 243.145 148.257 243.145 146.488" stroke="#000000" stroke-opacity="0.9" stroke-width="16" stroke-linecap="round" stroke-linejoin="round"/>
<path d="M228.029 151.795C228.234 149.5 228.621 148.779 228.621 146.488" stroke="#000000" stroke-opacity="0.9" stroke-width="16" stroke-linecap="round" stroke-linejoin="round"/>
<path d="M232.376 193.366C229.889 210.013 225.732 227.421 230.523 244.036C233.511 254.4 236.658 264.585 238.676 275.245C240.807 286.509 243.35 299.889 241.27 311.227C238.719 325.13 230.713 333.992 216.07 333.992C212.913 333.992 209.256 334.2 206.435 332.523C191.647 323.732 189.822 298.908 161.965 307.188C155.364 309.151 151.075 316.207 145.66 320.039C134.799 327.725 120.872 333.954 107.49 329.218C104.04 327.998 100.444 326.421 98.2254 323.344C95.882 320.093 96.001 315.388 96.001 311.594C96.001 302.257 99.4979 292.431 104.896 284.791C114.625 271.02 129.958 272.055 131.207 251.012C131.708 242.578 128.592 241.272 122.313 238.161" stroke="#000000" stroke-opacity="0.9" stroke-width="16" stroke-linecap="round" stroke-linejoin="round"/>
<path d="M232.309 193.366C269.265 193.366 266.176 238.274 278.334 268.548" stroke="#000000" stroke-opacity="0.9" stroke-width="16" stroke-linecap="round" stroke-linejoin="round"/>
<path d="M232.308 193.366C194.255 201.817 207.971 241.212 178.316 265.01" stroke="#000000" stroke-opacity="0.9" stroke-width="16" stroke-linecap="round" stroke-linejoin="round"/>
</svg>