<?xml version="1.0" encoding="utf-8"?><!-- Uploaded to: SVG Repo, www.svgrepo.com, Generator: SVG Repo Mixer Tools -->
<svg width="800px" height="800px" viewBox="0 0 400 400" fill="none" xmlns="http://www.w3.org/2000/svg">
<path d="M136.965 127.394C70.8952 68.0687 100.632 59.3027 153.431 102.446" stroke="#000000" stroke-opacity="0.9" stroke-width="16" stroke-linecap="round" stroke-linejoin="round"/>
<path d="M149.986 236.355C139.292 214.049 135.709 199.173 133.585 175.708C131.762 155.558 146.384 128.298 158.241 112.978C229.409 21.0355 340.1 189.736 252.852 248.181" stroke="#000000" stroke-opacity="0.9" stroke-width="16" stroke-linecap="round" stroke-linejoin="round"/>
<path d="M257.453 102.518C266.064 100.683 272.823 95.2741 279.12 89.347C295.58 73.8489 299.537 56.8961 300.787 74.4585C301.998 91.4854 298.286 114.369 281.97 122.562" stroke="#000000" stroke-opacity="0.9" stroke-width="16" stroke-linecap="round" stroke-linejoin="round"/>
<path d="M158.572 248.182C84.4025 290.393 139.819 276.355 177.625 259.158" stroke="#000000" stroke-opacity="0.9" stroke-width="16" stroke-linecap="round" stroke-linejoin="round"/>
<path d="M187.297 259.079C197.083 267.847 213.851 266.674 223.584 257.844" stroke="#000000" stroke-opacity="0.9" stroke-width="16" stroke-linecap="round" stroke-linejoin="round"/>
<path d="M223.586 257.844C232.736 265.091 264.839 279.123 276.808 276.859" stroke="#000000" stroke-opacity="0.9" stroke-width="16" stroke-linecap="round" stroke-linejoin="round"/>
<path d="M252.617 251.805C256.491 267.19 265.65 269.925 276.809 277.17" stroke="#000000" stroke-opacity="0.9" stroke-width="16" stroke-linecap="round" stroke-linejoin="round"/>
<path d="M164.32 276.488C172.775 297.557 192.281 357.766 220.721 321.2C231.491 307.354 238.195 292.289 240.524 275.962" stroke="#000000" stroke-opacity="0.9" stroke-width="16" stroke-linecap="round" stroke-linejoin="round"/>
<path d="M221.169 302.426C211.331 300.599 186.908 301.734 183.672 302.426" stroke="#000000" stroke-opacity="0.9" stroke-width="16" stroke-linecap="round" stroke-linejoin="round"/>
<path d="M216.331 267.507C213.698 278.32 215.566 289.66 211.492 300.12" stroke="#000000" stroke-opacity="0.9" stroke-width="16" stroke-linecap="round" stroke-linejoin="round"/>
<path d="M192.626 271.131C191.886 279.228 193.241 287.304 194.271 295.288" stroke="#000000" stroke-opacity="0.9" stroke-width="16" stroke-linecap="round" stroke-linejoin="round"/>
<path d="M199.398 214.361C196.905 229.535 192.47 244.386 184.883 257.844" stroke="#000000" stroke-opacity="0.9" stroke-width="16" stroke-linecap="round" stroke-linejoin="round"/>
<path d="M212.703 220.4C214.814 232.25 216.74 256.675 221.17 262.676" stroke="#000000" stroke-opacity="0.9" stroke-width="16" stroke-linecap="round" stroke-linejoin="round"/>
<path fill-rule="evenodd" clip-rule="evenodd" d="M204.233 212.376C204.366 212.421 184.069 228.226 175.256 226.272C155.648 221.918 158.659 192.365 154.641 176.317C162.401 199.908 185.395 206.106 204.233 212.376Z" stroke="#000000" stroke-opacity="0.9" stroke-width="16" stroke-linecap="round" stroke-linejoin="round"/>
<path d="M218.685 211.169C227.549 209.342 235.406 201.822 242.184 195.694C248.47 190.005 253.094 184.163 255.939 176.205C257.095 172.963 256.94 164.027 259.377 166.461C275.404 182.488 241.193 250.592 217.539 217.472" stroke="#000000" stroke-opacity="0.9" stroke-width="16" stroke-linecap="round" stroke-linejoin="round"/>
</svg>