<?xml version="1.0" encoding="utf-8"?><!-- Uploaded to: SVG Repo, www.svgrepo.com, Generator: SVG Repo Mixer Tools -->
<svg width="800px" height="800px" viewBox="0 0 400 400" fill="none" xmlns="http://www.w3.org/2000/svg">
<path d="M139.453 141.918C155.445 141.863 173.078 140.784 188.908 141.364" stroke="#000000" stroke-opacity="0.9" stroke-width="16" stroke-linecap="round" stroke-linejoin="round"/>
<path d="M176.871 149.166C178.187 146.867 177.674 143.338 176.871 141.918" stroke="#000000" stroke-opacity="0.9" stroke-width="16" stroke-linecap="round" stroke-linejoin="round"/>
<path d="M150.519 149.891C150.574 147.231 150.403 144.569 150.199 141.918" stroke="#000000" stroke-opacity="0.9" stroke-width="16" stroke-linecap="round" stroke-linejoin="round"/>
<path d="M323 249C310.587 249 293.27 277.333 280.34 311C267.408 242.233 250.576 217.181 227.678 210C227.678 210 215.035 261.234 212.151 295C209.562 325.313 212.151 343 212.151 343" stroke="#000000" stroke-opacity="0.9" stroke-width="16" stroke-linecap="round" stroke-linejoin="round"/>
<path d="M36 320.003C43.8503 302.234 63.2752 232.166 101.818 221C101.818 260.168 101.818 309.703 101.818 338.503" stroke="#000000" stroke-opacity="0.9" stroke-width="16" stroke-linecap="round" stroke-linejoin="round"/>
<path d="M119 95.1975C118.998 75.3619 119.001 64.3619 143.823 64.3619C150.458 65.2488 165.824 47.3623 182.324 64.3624" stroke="#000000" stroke-opacity="0.9" stroke-width="16" stroke-linecap="round" stroke-linejoin="round"/>
<path d="M142.363 95.5324C180.009 45.248 211.727 81.5959 218 90.1223" stroke="#000000" stroke-opacity="0.9" stroke-width="16" stroke-linecap="round" stroke-linejoin="round"/>
<path d="M175 106.006C178.352 102.456 193.024 97.0252 200.447 91.7205C230.411 70.3107 233.034 112.982 233.034 153.785C237.529 146.773 241.124 182.746 243 206" stroke="#000000" stroke-opacity="0.9" stroke-width="16" stroke-linecap="round" stroke-linejoin="round"/>
<path d="M120.002 89.6668C105.857 80.2055 106.797 97.8771 104 121C103.998 157 76.4278 178 91.0014 202" stroke="#000000" stroke-opacity="0.9" stroke-width="16" stroke-linecap="round" stroke-linejoin="round"/>
<path d="M118.395 137.569C108.71 137.569 112.199 158.439 120.547 155.383" stroke="#000000" stroke-opacity="0.9" stroke-width="16" stroke-linecap="round" stroke-linejoin="round"/>
<path d="M121.998 163.661C120.338 173.587 119.816 189.386 119.816 196.276" stroke="#000000" stroke-opacity="0.9" stroke-width="16" stroke-linecap="round" stroke-linejoin="round"/>
<path d="M212.91 140.952C230.679 124.827 229.396 150.854 214.862 155.308" stroke="#000000" stroke-opacity="0.9" stroke-width="16" stroke-linecap="round" stroke-linejoin="round"/>
<path d="M210.727 163.661C210.727 170.426 210.727 177.19 210.727 183.955" stroke="#000000" stroke-opacity="0.9" stroke-width="16" stroke-linecap="round" stroke-linejoin="round"/>
<path d="M122.727 196.573C127.653 191.64 132.665 186.258 139.036 183.429C151.238 178.01 171.764 177.706 184.795 181.082C192.304 183.027 203.434 195.029 205.636 198.451" stroke="#000000" stroke-opacity="0.9" stroke-width="16" stroke-linecap="round" stroke-linejoin="round"/>
<path d="M119.09 213.647C126.761 262.293 133.999 269 164.544 269C189.635 269 207.406 227.907 208.439 218.613C208.783 215.519 210.127 208.959 208.439 206.424" stroke="#000000" stroke-opacity="0.9" stroke-width="16" stroke-linecap="round" stroke-linejoin="round"/>
<path d="M158 198.451C170 198.658 159.91 198.451 172.304 198.451" stroke="#000000" stroke-opacity="0.9" stroke-width="16" stroke-linecap="round" stroke-linejoin="round"/>
<path d="M330.73 103C321.816 167.775 315.914 269.311 307 343" stroke="#000000" stroke-opacity="0.9" stroke-width="16" stroke-linecap="round" stroke-linejoin="round"/>
<path d="M364.008 120.901C356.901 122.231 354.171 128.828 352.292 135.697C348.59 149.228 326.106 200.302 307.774 163.737C301.247 150.72 305.742 101.119 281.999 110" stroke="#000000" stroke-opacity="0.9" stroke-width="16" stroke-linecap="round" stroke-linejoin="round"/>
</svg>