<?xml version="1.0" encoding="utf-8"?><!-- Uploaded to: SVG Repo, www.svgrepo.com, Generator: SVG Repo Mixer Tools -->
<svg width="800px" height="800px" viewBox="0 0 400 400" fill="none" xmlns="http://www.w3.org/2000/svg">
<path d="M176.485 157.597C208.054 163.932 229.25 139.508 229.25 176.129C229.25 196.051 228.004 217.003 222.655 236.238" stroke="#000000" stroke-opacity="0.9" stroke-width="16" stroke-linecap="round" stroke-linejoin="round"/>
<path d="M171.995 165.511C177.739 188.054 182.847 230.006 188.835 244.097" stroke="#000000" stroke-opacity="0.9" stroke-width="16" stroke-linecap="round" stroke-linejoin="round"/>
<path d="M187.713 245.344C224.981 227.236 275.271 266.751 221.41 289.003" stroke="#000000" stroke-opacity="0.9" stroke-width="16" stroke-linecap="round" stroke-linejoin="round"/>
<path d="M218.029 289.003C220.036 309.168 234.033 331.023 225.282 348.504" stroke="#000000" stroke-opacity="0.9" stroke-width="16" stroke-linecap="round" stroke-linejoin="round"/>
<path d="M189.958 250.833C196.864 283.167 194.401 315.406 191.806 347.381" stroke="#000000" stroke-opacity="0.9" stroke-width="16" stroke-linecap="round" stroke-linejoin="round"/>
<path d="M175.409 86.3391C180.983 74.8457 188.984 65.5942 202.154 65.5942C233.658 65.5942 249 121.812 217.756 137.966C183.777 155.537 151.402 110.809 171.399 81.265" stroke="#000000" stroke-opacity="0.9" stroke-width="16" stroke-linecap="round" stroke-linejoin="round"/>
<path d="M225.884 67.8397C230.087 63.5016 232.301 57.3118 233.742 52.1226" stroke="#000000" stroke-opacity="0.9" stroke-width="16" stroke-linecap="round" stroke-linejoin="round"/>
<path d="M175.363 68.9625C173.706 63.1728 173.133 56.924 171.995 51" stroke="#000000" stroke-opacity="0.9" stroke-width="16" stroke-linecap="round" stroke-linejoin="round"/>
<path d="M200.313 127.341C201.078 135.98 201.203 144.722 200.313 153.162" stroke="#000000" stroke-opacity="0.9" stroke-width="16" stroke-linecap="round" stroke-linejoin="round"/>
<path d="M170.466 166.634C162.483 175.25 153.646 182.945 145.126 190.97C140.351 195.466 129.001 202.7 126.011 208.877C124.928 211.11 145.041 210.259 145.126 210.255C158.801 209.614 189.459 207.823 196.696 197.856" stroke="#000000" stroke-opacity="0.9" stroke-width="16" stroke-linecap="round" stroke-linejoin="round"/>
<path d="M225.884 159.897C232.702 166.169 291.461 212.147 267.195 207.894C255.496 205.841 241.938 201.533 232.058 194.896" stroke="#000000" stroke-opacity="0.9" stroke-width="16" stroke-linecap="round" stroke-linejoin="round"/>
<path d="M211.061 184.596C211.583 185.831 210.515 186.858 210.249 187.964" stroke="#000000" stroke-opacity="0.9" stroke-width="16" stroke-linecap="round" stroke-linejoin="round"/>
<path d="M199.576 181.228C199.839 185.762 198.556 188.623 197.145 192.455" stroke="#000000" stroke-opacity="0.9" stroke-width="16" stroke-linecap="round" stroke-linejoin="round"/>
<path d="M186.47 182.351C186.032 189.087 186.47 189.087 185.595 195.822" stroke="#000000" stroke-opacity="0.9" stroke-width="16" stroke-linecap="round" stroke-linejoin="round"/>
<path d="M230.375 238.322C284.03 210.75 254.414 279.055 271.913 275.388" stroke="#000000" stroke-opacity="0.9" stroke-width="16" stroke-linecap="round" stroke-linejoin="round"/>
</svg>