<?xml version="1.0" encoding="utf-8"?><!-- Uploaded to: SVG Repo, www.svgrepo.com, Generator: SVG Repo Mixer Tools -->
<svg width="800px" height="800px" viewBox="0 0 400 400" fill="none" xmlns="http://www.w3.org/2000/svg">
<path d="M190.634 60.9363C200.595 56.4538 209.388 57.1035 217.013 62.8852C227.135 70.5613 232.124 84.7481 223.093 100.076C203.899 132.654 177.923 110.548 181.692 78.5542" stroke="#000000" stroke-opacity="0.9" stroke-width="16" stroke-linecap="round" stroke-linejoin="round"/>
<path d="M222 132.378C208.094 134.501 193.011 137.559 179 134.71" stroke="#000000" stroke-opacity="0.9" stroke-width="16" stroke-linecap="round" stroke-linejoin="round"/>
<path d="M222.087 135.865C218.169 159.977 213.271 187.954 223.162 211.405" stroke="#000000" stroke-opacity="0.9" stroke-width="16" stroke-linecap="round" stroke-linejoin="round"/>
<path d="M181.324 139.351C190.133 161.255 195.27 183.586 195.27 206.757" stroke="#000000" stroke-opacity="0.9" stroke-width="16" stroke-linecap="round" stroke-linejoin="round"/>
<path d="M223.162 217.05C213.873 215.312 201.191 234.597 192.569 229.775C187.642 227.02 169.463 214.254 168.446 214.917C149.573 227.23 114.755 277.649 109.046 277.649C104.025 277.649 98.877 277.521 93 274.646" stroke="#000000" stroke-opacity="0.9" stroke-width="16" stroke-linecap="round" stroke-linejoin="round"/>
<path d="M223.161 212.568C216.312 221.42 174.82 265.853 175.512 266.879C177.837 270.323 204.584 328.43 197.47 338.971C196.193 340.863 184.998 341.643 182.246 342.73" stroke="#000000" stroke-opacity="0.9" stroke-width="16" stroke-linecap="round" stroke-linejoin="round"/>
<path d="M224.324 138.891C238.627 138.567 255.143 155.622 267.124 155.622C268.973 155.622 270.607 150.969 271.452 149.926C280.926 138.238 302.962 127.295 308 116.108" stroke="#000000" stroke-opacity="0.9" stroke-width="16" stroke-linecap="round" stroke-linejoin="round"/>
<path d="M175.514 144.813C165.095 152.37 149.465 166.528 134.918 169.526C128.875 170.772 93 143.56 93 130.054" stroke="#000000" stroke-opacity="0.9" stroke-width="16" stroke-linecap="round" stroke-linejoin="round"/>
<path d="M218.513 133.541C198.338 153.859 180.766 168.421 159.699 181.373C157.309 182.842 154.381 184.506 153.432 187" stroke="#000000" stroke-opacity="0.9" stroke-width="16" stroke-linecap="round" stroke-linejoin="round"/>
<path d="M181.325 135.865C166.083 152.849 165.814 150.53 149.899 161.357C148.093 162.585 127.84 148.608 131.884 139.912" stroke="#000000" stroke-opacity="0.9" stroke-width="16" stroke-linecap="round" stroke-linejoin="round"/>
</svg>