<?xml version="1.0" encoding="utf-8"?><!-- Uploaded to: SVG Repo, www.svgrepo.com, Generator: SVG Repo Mixer Tools -->
<svg width="800px" height="800px" viewBox="0 0 400 400" fill="none" xmlns="http://www.w3.org/2000/svg">
<path d="M60.8594 255.453C87.3338 156.839 109.666 229.059 178.529 180.968C208.7 159.893 234.741 89.2566 284.394 114.305C293.815 119.055 295 133 304 150C301.35 165.406 285.389 173.217 277 175" stroke="#000000" stroke-opacity="0.9" stroke-width="16" stroke-linecap="round" stroke-linejoin="round"/>
<path d="M288.359 128.906C202.899 132.143 301.003 213.436 231.484 203.41" stroke="#000000" stroke-opacity="0.9" stroke-width="16" stroke-linecap="round" stroke-linejoin="round"/>
<path d="M262.766 202.844C277.982 210.052 283.531 230.543 280.416 242.656" stroke="#000000" stroke-opacity="0.9" stroke-width="16" stroke-linecap="round" stroke-linejoin="round"/>
<path d="M145.06 209.953C144.763 281.525 34.6373 246.348 141.95 266.586C150.55 268.208 162.695 269.943 168.922 269.636" stroke="#000000" stroke-opacity="0.9" stroke-width="16" stroke-linecap="round" stroke-linejoin="round"/>
<path d="M141.906 247.898C212.097 249.625 283.375 252.806 352.344 242.656" stroke="#000000" stroke-opacity="0.9" stroke-width="16" stroke-linecap="round" stroke-linejoin="round"/>
<path d="M60.1931 258.297C-11.1333 289.595 67.8027 286.752 90.7188 291" stroke="#000000" stroke-opacity="0.9" stroke-width="16" stroke-linecap="round" stroke-linejoin="round"/>
<path d="M240.016 177.091C236.357 177.807 231.768 177.091 228.641 177.091" stroke="#000000" stroke-opacity="0.9" stroke-width="16" stroke-linecap="round" stroke-linejoin="round"/>
<path d="M239.678 150.951C238.057 150.285 236.345 149.995 234.667 149.518" stroke="#000000" stroke-opacity="0.9" stroke-width="16" stroke-linecap="round" stroke-linejoin="round"/>
<path d="M252.819 131.053C251.653 129.768 250.908 128.187 249.958 126.759" stroke="#000000" stroke-opacity="0.9" stroke-width="16" stroke-linecap="round" stroke-linejoin="round"/>
<path d="M369.406 245.332C365.78 241.197 363.657 243.279 359.453 243.899" stroke="#000000" stroke-opacity="0.9" stroke-width="16" stroke-linecap="round" stroke-linejoin="round"/>
</svg>