<?xml version="1.0" encoding="utf-8"?><!-- Uploaded to: SVG Repo, www.svgrepo.com, Generator: SVG Repo Mixer Tools -->
<svg width="800px" height="800px" viewBox="0 0 400 400" fill="none" xmlns="http://www.w3.org/2000/svg">
<path opacity="0.503384" d="M246.713 154.012C265.778 185.628 307.311 247.449 305.968 248.812C292.357 262.621 262.26 218.482 262.667 220.142C276.668 276.96 255.081 238.26 252.185 236.789C248.435 234.886 247.238 246 243.07 245.576" stroke="#000000" stroke-opacity="0.9" stroke-width="16" stroke-linecap="round" stroke-linejoin="round"/>
<path opacity="0.503384" d="M191.249 154.012C171.506 182.294 126.744 220.895 134.292 239.952C136.355 245.163 146.01 241.971 148.464 239.493C148.525 239.431 156.55 228.576 156.697 228.869C157.241 229.977 133.289 266.163 158.982 249.649" stroke="#000000" stroke-opacity="0.9" stroke-width="16" stroke-linecap="round" stroke-linejoin="round"/>
<path d="M191.202 154.012C191.68 167.336 175.538 241.83 174.448 248.937C172.289 263.006 160.918 277.689 179.528 277.689C182.266 277.689 191.547 280.625 193.705 279.542C197.106 277.838 194.831 243.839 199.25 243.839C200.912 243.839 194.44 277.296 195.092 277.689C199.3 280.221 211.1 279.08 216.04 279.08C220.646 279.08 226.955 281.805 231.293 280.933C238.282 279.531 243.07 236.586 223.328 151.544C245.165 201.18 255.047 231.945 252.973 243.839" stroke="#000000" stroke-opacity="0.9" stroke-width="16" stroke-linecap="round" stroke-linejoin="round"/>
<path d="M191.245 156.503C166.656 188.774 143.475 191.46 119.678 188.774" stroke="#000000" stroke-opacity="0.9" stroke-width="16" stroke-linecap="round" stroke-linejoin="round"/>
<path d="M113.588 109.591C109.39 179.316 116.849 252.612 114.13 321.825" stroke="#000000" stroke-opacity="0.9" stroke-width="16" stroke-linecap="round" stroke-linejoin="round"/>
<path d="M99.7797 65.3924C120.17 43.0411 143.634 85.5376 118.942 97.5642C99.6177 106.974 87.901 83.3494 99.7797 69.4648" stroke="#000000" stroke-opacity="0.9" stroke-width="16" stroke-linecap="round" stroke-linejoin="round"/>
<path opacity="0.503384" d="M98.7012 125.89C105.72 106.364 125.617 108.262 130.783 126.866" stroke="#000000" stroke-opacity="0.9" stroke-width="16" stroke-linecap="round" stroke-linejoin="round"/>
<path d="M184.64 283.573C181.564 300.155 185.547 317.777 181.809 334.164" stroke="#000000" stroke-opacity="0.9" stroke-width="16" stroke-linecap="round" stroke-linejoin="round"/>
<path d="M212.671 283.573C212.204 299.685 213.145 329.692 213.145 340.334" stroke="#000000" stroke-opacity="0.9" stroke-width="16" stroke-linecap="round" stroke-linejoin="round"/>
<path d="M196.566 111.61C196.637 109.257 196.582 109.884 196.582 107.572" stroke="#000000" stroke-opacity="0.9" stroke-width="16" stroke-linecap="round" stroke-linejoin="round"/>
<path d="M180.959 111.61C180.959 110.264 180.959 108.918 180.959 107.572" stroke="#000000" stroke-opacity="0.9" stroke-width="16" stroke-linecap="round" stroke-linejoin="round"/>
<path d="M223.328 148.12C232.434 124.398 234.738 83.6787 202.504 83.6787C170.27 83.6787 174.124 104.655 174.124 117.795" stroke="#000000" stroke-opacity="0.9" stroke-width="16" stroke-linecap="round" stroke-linejoin="round"/>
<path d="M182.643 118.229L159.164 130.568H188.778" stroke="#000000" stroke-opacity="0.9" stroke-width="16" stroke-linecap="round" stroke-linejoin="round"/>
<path d="M208.522 72.9856L192.451 74.5759" stroke="#000000" stroke-opacity="0.9" stroke-width="16" stroke-linecap="round" stroke-linejoin="round"/>
</svg>