<?xml version="1.0" encoding="utf-8"?><!-- Uploaded to: SVG Repo, www.svgrepo.com, Generator: SVG Repo Mixer Tools -->
<svg width="800px" height="800px" viewBox="0 0 400 400" fill="none" xmlns="http://www.w3.org/2000/svg">
<path d="M175.327 170.815C173.124 153.206 154.002 122.336 166.337 105.881C202.485 57.6547 197.828 105.595 229.278 86.7145C240.078 80.2325 268.556 58.3219 270.279 59.0161C272.673 59.9707 281.307 74.8871 279.511 77.0568C276.309 80.9261 266.341 88.7311 249.607 100.472C275.963 101.591 288.935 102.195 288.523 102.282C278.281 104.457 237.141 129.67 231.235 139.522C228.553 143.993 229.15 156.423 231.305 171.67C231.763 174.913 239.837 177.266 243.081 185.399C253.881 212.473 237 246.927 238.95 254.737" stroke="#000000" stroke-opacity="0.9" stroke-width="16" stroke-linecap="round" stroke-linejoin="round"/>
<path d="M169.991 172.2C140.297 186.485 142.288 232.787 137.807 263.204" stroke="#000000" stroke-opacity="0.9" stroke-width="16" stroke-linecap="round" stroke-linejoin="round"/>
<path d="M165.739 257.655C167.184 235.291 170.451 217.164 175.54 203.275C169.446 221.845 186.353 311.538 174.981 339.105C173.898 341.731 165.625 341.305 163.332 342" stroke="#000000" stroke-opacity="0.9" stroke-width="16" stroke-linecap="round" stroke-linejoin="round"/>
<path d="M229.921 173.31C227.737 195.287 196.02 358.973 222.948 337.915" stroke="#000000" stroke-opacity="0.9" stroke-width="16" stroke-linecap="round" stroke-linejoin="round"/>
<path d="M175.54 266.533C163.34 295.609 143.659 324.238 112.281 333.122" stroke="#000000" stroke-opacity="0.9" stroke-width="16" stroke-linecap="round" stroke-linejoin="round"/>
<path d="M162.087 95.6235C151.697 70.2152 162.432 56.5903 169.991 89.5656" stroke="#000000" stroke-opacity="0.9" stroke-width="16" stroke-linecap="round" stroke-linejoin="round"/>
<path d="M155.564 124.457C140.196 125.458 127.714 91.0875 149.597 106.07" stroke="#000000" stroke-opacity="0.9" stroke-width="16" stroke-linecap="round" stroke-linejoin="round"/>
<path d="M198.867 115.6C197.713 120.039 196.713 122.096 197.713 124.478" stroke="#000000" stroke-opacity="0.9" stroke-width="16" stroke-linecap="round" stroke-linejoin="round"/>
</svg>