<?xml version="1.0" encoding="utf-8"?><!-- Uploaded to: SVG Repo, www.svgrepo.com, Generator: SVG Repo Mixer Tools -->
<svg width="800px" height="800px" viewBox="0 0 400 400" fill="none" xmlns="http://www.w3.org/2000/svg">
<path d="M164.28 125.248C176.65 119.258 161.825 98.4124 164.28 82.8194C165.497 75.0918 170.182 67.059 173.552 60.9243C184.486 41.0222 208.326 33.191 224.359 50.7516C227.77 54.4867 232.651 60.2109 235.655 66.2681C245.108 85.3293 222.014 114.901 235.655 127" stroke="#000000" stroke-opacity="0.9" stroke-width="16" stroke-linecap="round" stroke-linejoin="round"/>
<path d="M183.448 80.4766C177.785 123.275 227.715 116.396 224.884 80" stroke="#000000" stroke-opacity="0.9" stroke-width="16" stroke-linecap="round" stroke-linejoin="round"/>
<path d="M190 63.1266C195.779 62.599 199.726 63.6884 204 67" stroke="#000000" stroke-opacity="0.9" stroke-width="16" stroke-linecap="round" stroke-linejoin="round"/>
<path d="M205 67C209.536 62.8821 213.477 62.0029 219 64.0893" stroke="#000000" stroke-opacity="0.9" stroke-width="16" stroke-linecap="round" stroke-linejoin="round"/>
<path d="M163.528 200.232C180.718 175.376 204.565 218.115 185.412 228.428C164.333 239.779 150.415 216.962 163.949 201.495" stroke="#000000" stroke-opacity="0.9" stroke-width="12" stroke-linecap="round" stroke-linejoin="round"/>
<path d="M175.59 129.524C167.352 133.86 142 143.196 142 157.462C142 167.36 164.058 197.535 171.163 202.005" stroke="#000000" stroke-opacity="0.9" stroke-width="16" stroke-linecap="round" stroke-linejoin="round"/>
<path d="M229.149 132.715C243.689 144.205 268.141 158.727 254.602 172.773C246.734 180.937 228.068 194.853 224.59 197.382" stroke="#000000" stroke-opacity="0.9" stroke-width="16" stroke-linecap="round" stroke-linejoin="round"/>
<path d="M175.589 129.524C171.261 158.991 180.979 160.546 181.589 174.471C182.214 188.759 171.261 199.049 171.261 213.855C171.261 238.251 180.833 323.66 177.651 352.109L168.352 358.087" stroke="#000000" stroke-opacity="0.9" stroke-width="16" stroke-linecap="round" stroke-linejoin="round"/>
<path d="M221.416 207.753C215.181 256.215 219.73 307.305 225.204 355.267L232.679 357.753" stroke="#000000" stroke-opacity="0.9" stroke-width="16" stroke-linecap="round" stroke-linejoin="round"/>
<path opacity="0.503384" d="M180.59 144.97C185.53 130.917 201.527 148.815 202.206 148.441C206.888 145.857 209.28 134.804 218.014 142.033C221.601 145 222.893 147.581 222.531 150.577" stroke="#000000" stroke-opacity="0.9" stroke-width="14" stroke-linecap="round" stroke-linejoin="round"/>
<path d="M225.543 135.741C230.063 153.547 212 169.188 222.022 204.48" stroke="#000000" stroke-opacity="0.9" stroke-width="16" stroke-linecap="round" stroke-linejoin="round"/>
<path opacity="0.503384" d="M180.59 202.577C190.655 204.953 208.165 209.092 215.52 203.839" stroke="#000000" stroke-opacity="0.9" stroke-width="12" stroke-linecap="round" stroke-linejoin="round"/>
</svg>