<?xml version="1.0" encoding="utf-8"?><!-- Uploaded to: SVG Repo, www.svgrepo.com, Generator: SVG Repo Mixer Tools -->
<svg width="800px" height="800px" viewBox="0 0 400 400" fill="none" xmlns="http://www.w3.org/2000/svg">
<path d="M163.726 177.233C127.464 123.457 117.689 183.97 147.806 205.578" stroke="#000000" stroke-opacity="0.9" stroke-width="16" stroke-linecap="round" stroke-linejoin="round"/>
<path d="M295.064 179.633C321.217 152.605 324.534 183.722 305.287 202.838" stroke="#000000" stroke-opacity="0.9" stroke-width="16" stroke-linecap="round" stroke-linejoin="round"/>
<path d="M288.81 303.83C262.942 291.785 300.228 186.719 293.814 156.796C271.59 53.1476 147.648 50.9648 96.8558 127.118C64.3995 175.771 116.808 314.019 82.4219 326.91" stroke="#000000" stroke-opacity="0.9" stroke-width="16" stroke-linecap="round" stroke-linejoin="round"/>
<path d="M162.473 305.645C172.328 254.898 173.411 204.196 168.964 152.844C168.609 148.75 164.834 142.814 168.243 140.534C168.316 140.485 172.645 148.443 173.293 149.226C177.465 154.25 186.011 155.068 192.047 155.743C221.429 159.019 250.272 160.812 280.052 160.812" stroke="#000000" stroke-opacity="0.9" stroke-width="16" stroke-linecap="round" stroke-linejoin="round"/>
<path d="M233.729 211.338C233.098 207.357 233.973 203.871 235.282 200.08" stroke="#000000" stroke-opacity="0.9" stroke-width="16" stroke-linecap="round" stroke-linejoin="round"/>
<path d="M259.418 211.578C259.418 200.321 259.677 197.729 260.195 203.802" stroke="#000000" stroke-opacity="0.9" stroke-width="16" stroke-linecap="round" stroke-linejoin="round"/>
<path d="M263.793 268.121C243.89 286.307 211.474 286.383 193.746 268.835" stroke="#000000" stroke-opacity="0.9" stroke-width="16" stroke-linecap="round" stroke-linejoin="round"/>
<path d="M256 248.207C252.818 248.4 249.017 249.053 245.5 248.997C242.537 248.949 238.162 248.875 235 248" stroke="#000000" stroke-opacity="0.9" stroke-width="16" stroke-linecap="round" stroke-linejoin="round"/>
</svg>