<?xml version="1.0" encoding="utf-8"?><!-- Uploaded to: SVG Repo, www.svgrepo.com, Generator: SVG Repo Mixer Tools -->
<svg width="800px" height="800px" viewBox="0 0 400 400" fill="none" xmlns="http://www.w3.org/2000/svg">
<path d="M81.0564 330.436C80.3199 308.395 77.8503 284.329 82.1828 262.561" stroke="#000000" stroke-opacity="0.9" stroke-width="16" stroke-linecap="round" stroke-linejoin="round"/>
<path d="M85.9902 258.753C158.835 261.977 231.404 255.374 304.058 255.374" stroke="#000000" stroke-opacity="0.9" stroke-width="16" stroke-linecap="round" stroke-linejoin="round"/>
<path d="M304.562 256.784C303.964 279.881 307.941 303.255 307.941 326.104" stroke="#000000" stroke-opacity="0.9" stroke-width="16" stroke-linecap="round" stroke-linejoin="round"/>
<path d="M136.694 262.561C137.154 284.728 137.821 306.797 137.821 328.992" stroke="#000000" stroke-opacity="0.9" stroke-width="16" stroke-linecap="round" stroke-linejoin="round"/>
<path d="M187.398 265.449C188.837 285.777 185.865 311.761 189.651 328.992" stroke="#000000" stroke-opacity="0.9" stroke-width="16" stroke-linecap="round" stroke-linejoin="round"/>
<path d="M244.452 262.561C244.24 285.309 246.705 307.711 246.705 330.436" stroke="#000000" stroke-opacity="0.9" stroke-width="16" stroke-linecap="round" stroke-linejoin="round"/>
<path d="M93.8108 252.452C93.8108 247.504 89.7094 233.562 102.929 232.589C113.79 231.79 284.841 232.589 293.391 232.589C299.092 232.589 300.944 238.37 298.947 249.932" stroke="#000000" stroke-opacity="0.9" stroke-width="16" stroke-linecap="round" stroke-linejoin="round"/>
<path d="M244.47 227.902C247.516 202.708 241.325 176.169 246.723 151.361" stroke="#000000" stroke-opacity="0.9" stroke-width="16" stroke-linecap="round" stroke-linejoin="round"/>
<path d="M292.626 216.348C290.239 196.551 294.208 166.102 290.937 151.361" stroke="#000000" stroke-opacity="0.9" stroke-width="16" stroke-linecap="round" stroke-linejoin="round"/>
<path d="M233.293 150.788C255.454 148.535 287.629 151.361 305.501 151.361" stroke="#000000" stroke-opacity="0.9" stroke-width="16" stroke-linecap="round" stroke-linejoin="round"/>
<path d="M231.847 147.029C228.687 134.498 224.432 121.825 221.738 109.48" stroke="#000000" stroke-opacity="0.9" stroke-width="16" stroke-linecap="round" stroke-linejoin="round"/>
<path d="M224.626 107.056C253.189 109.291 296.162 99.0059 319.94 107.619" stroke="#000000" stroke-opacity="0.9" stroke-width="16" stroke-linecap="round" stroke-linejoin="round"/>
<path d="M319.943 108.036C315.691 122.021 310.463 135.289 305.501 148.473" stroke="#000000" stroke-opacity="0.9" stroke-width="16" stroke-linecap="round" stroke-linejoin="round"/>
<path d="M268.675 115.257C268.675 118.369 268.675 128.184 268.675 128.254" stroke="#000000" stroke-opacity="0.9" stroke-width="16" stroke-linecap="round" stroke-linejoin="round"/>
<path d="M283.84 93.5947C272.551 97.2225 260.557 95.2793 249.18 97.9272" stroke="#000000" stroke-opacity="0.9" stroke-width="16" stroke-linecap="round" stroke-linejoin="round"/>
<path d="M270.398 71.9316C270.498 79.1538 269.835 86.3719 269.835 93.594" stroke="#000000" stroke-opacity="0.9" stroke-width="16" stroke-linecap="round" stroke-linejoin="round"/>
<path d="M278.061 70.1673C273.352 69.5391 269.302 70.7652 265.063 72.4202" stroke="#000000" stroke-opacity="0.9" stroke-width="16" stroke-linecap="round" stroke-linejoin="round"/>
<path opacity="0.503384" d="M272.287 177.233C265.583 178.238 258.565 178.923 252.068 178.923" stroke="#000000" stroke-opacity="0.9" stroke-width="16" stroke-linecap="round" stroke-linejoin="round"/>
<path opacity="0.503384" d="M276.619 203.23C267.937 204.395 259.377 204.915 250.624 204.915" stroke="#000000" stroke-opacity="0.9" stroke-width="16" stroke-linecap="round" stroke-linejoin="round"/>
<path opacity="0.503384" d="M301.17 277.003C228.776 284.34 154.573 282.224 81.6582 288.556" stroke="#000000" stroke-opacity="0.9" stroke-width="16" stroke-linecap="round" stroke-linejoin="round"/>
</svg>