<?xml version="1.0" encoding="utf-8"?><!-- Uploaded to: SVG Repo, www.svgrepo.com, Generator: SVG Repo Mixer Tools -->
<svg width="800px" height="800px" viewBox="0 0 400 400" fill="none" xmlns="http://www.w3.org/2000/svg">
<path d="M75.9725 255.706C74.7509 236.796 66.4247 139.249 76.2069 129.644C81.718 124.232 217.11 121.65 272.671 121.65C278.479 121.65 306.48 120.835 309.671 127.102C322.398 152.095 315.219 226.371 315.219 262.246" stroke="#000000" stroke-opacity="0.9" stroke-width="16" stroke-linecap="round" stroke-linejoin="round"/>
<path d="M74.4761 130.226C89.1137 124.44 96.859 103.074 110.203 96.4201C111.474 95.7864 271.725 90.4901 275.197 91.6444C287.742 95.8181 299.59 115.26 309.817 123.612" stroke="#000000" stroke-opacity="0.9" stroke-width="16" stroke-linecap="round" stroke-linejoin="round"/>
<path d="M57.2558 319.541C55.7201 306.731 52.8501 289.404 57.6831 279.266C59.8511 274.713 279.682 265.116 332.649 272.344C351.787 274.955 343.231 311.591 344.257 319.646" stroke="#000000" stroke-opacity="0.9" stroke-width="16" stroke-linecap="round" stroke-linejoin="round"/>
<path opacity="0.503384" d="M87.3916 315.73C98.8635 282.908 104.989 289.219 111.787 319.646" stroke="#000000" stroke-opacity="0.9" stroke-width="6" stroke-linecap="round" stroke-linejoin="round"/>
<path opacity="0.503384" d="M130.442 314.802C140.266 288.666 152.274 283.847 154.837 318.211" stroke="#000000" stroke-opacity="0.9" stroke-width="6" stroke-linecap="round" stroke-linejoin="round"/>
<path opacity="0.503384" d="M170.618 309.156C178.352 286.536 192.467 290.019 193.578 312.471" stroke="#000000" stroke-opacity="0.9" stroke-width="6" stroke-linecap="round" stroke-linejoin="round"/>
<path opacity="0.503384" d="M207.929 310.384C217.046 283.713 228.426 292.097 229.454 315.341" stroke="#000000" stroke-opacity="0.9" stroke-width="6" stroke-linecap="round" stroke-linejoin="round"/>
<path opacity="0.503384" d="M243.803 306.463C251.081 284.405 267.98 294.64 264.974 311.036" stroke="#000000" stroke-opacity="0.9" stroke-width="6" stroke-linecap="round" stroke-linejoin="round"/>
<path opacity="0.503384" d="M283.983 308.511C293.822 281.704 312.186 295.276 309.559 319.646" stroke="#000000" stroke-opacity="0.9" stroke-width="6" stroke-linecap="round" stroke-linejoin="round"/>
<path opacity="0.503384" d="M95.8838 158.925C95.9297 156.517 96.0388 154.154 96.1191 151.75" stroke="#000000" stroke-opacity="0.9" stroke-width="6" stroke-linecap="round" stroke-linejoin="round"/>
<path opacity="0.503384" d="M121.652 153.032C121.29 152.153 121.962 151.315 122.117 150.469" stroke="#000000" stroke-opacity="0.9" stroke-width="6" stroke-linecap="round" stroke-linejoin="round"/>
<path opacity="0.503384" d="M218.715 157.49C218.612 155.048 219.651 152.665 220.11 150.315" stroke="#000000" stroke-opacity="0.9" stroke-width="6" stroke-linecap="round" stroke-linejoin="round"/>
<path opacity="0.503384" d="M243.085 157.49C243.085 155.1 243.085 152.706 243.085 150.315" stroke="#000000" stroke-opacity="0.9" stroke-width="6" stroke-linecap="round" stroke-linejoin="round"/>
<path opacity="0.503384" d="M270.352 153.185C270.352 152.229 270.352 151.272 270.352 150.315" stroke="#000000" stroke-opacity="0.9" stroke-width="6" stroke-linecap="round" stroke-linejoin="round"/>
<path opacity="0.503384" d="M292.746 191.93C293.811 188.987 292.453 186.84 292.046 184.755" stroke="#000000" stroke-opacity="0.9" stroke-width="6" stroke-linecap="round" stroke-linejoin="round"/>
<path opacity="0.503384" d="M247.435 184.755C247.142 182.262 248.256 179.963 248.835 177.58" stroke="#000000" stroke-opacity="0.9" stroke-width="6" stroke-linecap="round" stroke-linejoin="round"/>
<path opacity="0.503384" d="M219.151 184.755C219.926 182.411 219.616 179.971 219.616 177.58" stroke="#000000" stroke-opacity="0.9" stroke-width="6" stroke-linecap="round" stroke-linejoin="round"/>
<path opacity="0.503384" d="M196.818 213.455C197.486 211.597 197.309 209.448 197.52 207.715" stroke="#000000" stroke-opacity="0.9" stroke-width="6" stroke-linecap="round" stroke-linejoin="round"/>
<path opacity="0.503384" d="M173.045 214.89C172.839 211.99 173.487 209.118 173.975 206.28" stroke="#000000" stroke-opacity="0.9" stroke-width="6" stroke-linecap="round" stroke-linejoin="round"/>
<path opacity="0.503384" d="M148.167 216.325C148.236 213.344 149.453 210.414 150.027 207.715" stroke="#000000" stroke-opacity="0.9" stroke-width="6" stroke-linecap="round" stroke-linejoin="round"/>
<path d="M268.2 80.6822C260.202 78.6779 254.256 81.6048 250.98 82.87" stroke="#000000" stroke-opacity="0.9" stroke-width="16" stroke-linecap="round" stroke-linejoin="round"/>
</svg>