<?xml version="1.0" encoding="utf-8"?><!-- Uploaded to: SVG Repo, www.svgrepo.com, Generator: SVG Repo Mixer Tools -->
<svg width="800px" height="800px" viewBox="0 0 400 400" fill="none" xmlns="http://www.w3.org/2000/svg">
<path d="M162.206 158.462C168.222 122.101 210.892 120.972 220.507 155.583" stroke="#000000" stroke-opacity="0.9" stroke-width="16" stroke-linecap="round" stroke-linejoin="round"/>
<path d="M153.425 174.152C174.227 155.496 209.325 153.682 231.735 169.689" stroke="#000000" stroke-opacity="0.9" stroke-width="16" stroke-linecap="round" stroke-linejoin="round"/>
<path d="M147.379 199.056C163.11 181.189 222.663 173.52 238.645 195.313" stroke="#000000" stroke-opacity="0.9" stroke-width="16" stroke-linecap="round" stroke-linejoin="round"/>
<path d="M147.439 232.011C192.428 215.573 195.456 215.573 241.742 231.708" stroke="#000000" stroke-opacity="0.9" stroke-width="16" stroke-linecap="round" stroke-linejoin="round"/>
<path d="M245.203 236.352C219.31 236.203 193.282 237.193 167.397 238.581C160.146 238.969 151.034 237.042 143.979 238.932" stroke="#000000" stroke-opacity="0.9" stroke-width="16" stroke-linecap="round" stroke-linejoin="round"/>
<path d="M140.518 236.362C113.803 236.107 66.9794 236.362 39.2942 240.663" stroke="#000000" stroke-opacity="0.9" stroke-width="16" stroke-linecap="round" stroke-linejoin="round"/>
<path d="M361.135 233.782C333.735 233.63 285.711 233.782 257.315 236.336" stroke="#000000" stroke-opacity="0.9" stroke-width="16" stroke-linecap="round" stroke-linejoin="round"/>
<path d="M122.556 242.351C121.952 248.623 123.221 277.337 123.221 273.607" stroke="#000000" stroke-opacity="0.9" stroke-width="16" stroke-linecap="round" stroke-linejoin="round"/>
<path d="M155 247C155.647 256.175 156.33 265.389 156.33 274.599" stroke="#000000" stroke-opacity="0.9" stroke-width="16" stroke-linecap="round" stroke-linejoin="round"/>
<path d="M177.188 247.979C177.8 256.738 177.725 265.553 176.855 274.248" stroke="#000000" stroke-opacity="0.9" stroke-width="16" stroke-linecap="round" stroke-linejoin="round"/>
<path d="M195.385 243.64C195.309 253.728 196.071 264.069 195.046 273.916" stroke="#000000" stroke-opacity="0.9" stroke-width="16" stroke-linecap="round" stroke-linejoin="round"/>
<path d="M214.951 246.249C214.756 255.685 215.616 265.08 215.616 274.513" stroke="#000000" stroke-opacity="0.9" stroke-width="16" stroke-linecap="round" stroke-linejoin="round"/>
<path d="M234.847 241.058C234.63 252.265 235.845 263.449 235.845 274.642" stroke="#000000" stroke-opacity="0.9" stroke-width="16" stroke-linecap="round" stroke-linejoin="round"/>
<path d="M264.163 244.988C264.437 255.131 263.897 265.214 263.371 275.269" stroke="#000000" stroke-opacity="0.9" stroke-width="16" stroke-linecap="round" stroke-linejoin="round"/>
<path d="M200.036 107.292C194.988 104.123 188.314 105.012 184.086 108.742" stroke="#000000" stroke-opacity="0.9" stroke-width="16" stroke-linecap="round" stroke-linejoin="round"/>
<path d="M191.309 101.492C191.005 94.2049 192.025 86.9868 191.573 79.7422" stroke="#000000" stroke-opacity="0.9" stroke-width="16" stroke-linecap="round" stroke-linejoin="round"/>
<path d="M183.241 110.587C185.935 116.605 186.003 122.376 183.637 128.383" stroke="#000000" stroke-opacity="0.9" stroke-width="16" stroke-linecap="round" stroke-linejoin="round"/>
<path d="M198.032 110.852C195.831 116.209 197.241 121.774 198.427 127.197" stroke="#000000" stroke-opacity="0.9" stroke-width="16" stroke-linecap="round" stroke-linejoin="round"/>
<path d="M155.087 175.178C155.541 178.465 155.887 181.763 156.141 185.065" stroke="#000000" stroke-opacity="0.9" stroke-width="16" stroke-linecap="round" stroke-linejoin="round"/>
<path d="M173.936 173.068C174.229 174.525 173.757 176.028 173.673 177.418" stroke="#000000" stroke-opacity="0.9" stroke-width="16" stroke-linecap="round" stroke-linejoin="round"/>
<path d="M193.445 169.246C193.445 171.135 193.445 173.025 193.445 174.914" stroke="#000000" stroke-opacity="0.9" stroke-width="16" stroke-linecap="round" stroke-linejoin="round"/>
<path d="M211.636 171.091C211.636 172.629 211.636 174.167 211.636 175.705" stroke="#000000" stroke-opacity="0.9" stroke-width="16" stroke-linecap="round" stroke-linejoin="round"/>
<path d="M229.168 176.759C229.506 177.924 228.904 178.956 228.772 180.055" stroke="#000000" stroke-opacity="0.9" stroke-width="16" stroke-linecap="round" stroke-linejoin="round"/>
<path d="M151.437 202.581C151.57 206.548 151.817 210.511 151.978 214.475" stroke="#000000" stroke-opacity="0.9" stroke-width="16" stroke-linecap="round" stroke-linejoin="round"/>
<path d="M173.439 195C173.759 198.619 173.242 202.241 173 205.813" stroke="#000000" stroke-opacity="0.9" stroke-width="16" stroke-linecap="round" stroke-linejoin="round"/>
<path d="M195.541 191C195.537 195.343 195.319 199.66 195 203.975" stroke="#000000" stroke-opacity="0.9" stroke-width="16" stroke-linecap="round" stroke-linejoin="round"/>
<path d="M216.007 195C215.957 198.423 216.187 201.827 216.187 205.249" stroke="#000000" stroke-opacity="0.9" stroke-width="16" stroke-linecap="round" stroke-linejoin="round"/>
<path d="M234.696 198.255C234.77 202.961 235.092 207.636 235.237 212.312" stroke="#000000" stroke-opacity="0.9" stroke-width="16" stroke-linecap="round" stroke-linejoin="round"/>
<path d="M39.1659 242.963C39.0704 251.183 39.8425 276.144 39.8864 277.939" stroke="#000000" stroke-opacity="0.9" stroke-width="16" stroke-linecap="round" stroke-linejoin="round"/>
<path d="M361.135 235.472C361.471 249.608 362 263.707 362 277.865" stroke="#000000" stroke-opacity="0.9" stroke-width="16" stroke-linecap="round" stroke-linejoin="round"/>
<path d="M80 245C80 251.034 80 258.172 80 264" stroke="#000000" stroke-opacity="0.9" stroke-width="16" stroke-linecap="round" stroke-linejoin="round"/>
<path d="M60.0581 255.766C60.0581 273.597 60.0581 251.711 60.0581 262.381" stroke="#000000" stroke-opacity="0.9" stroke-width="16" stroke-linecap="round" stroke-linejoin="round"/>
<path d="M330.623 283.04C255.319 283.04 163.582 283.769 60.2888 283.769" stroke="#000000" stroke-opacity="0.9" stroke-width="16" stroke-linecap="round" stroke-linejoin="round"/>
<path d="M257.315 299.527C224.988 299.115 171.439 302.708 131.001 301.996" stroke="#000000" stroke-opacity="0.5" stroke-width="16" stroke-linecap="round" stroke-linejoin="round"/>
<path d="M276.349 317.695C235.608 317.283 168.121 320.876 117.159 320.164" stroke="#000000" stroke-opacity="0.5" stroke-width="16" stroke-linecap="round" stroke-linejoin="round"/>
<path d="M315.309 122.459C315.524 122.459 315.698 122.285 315.698 122.07C315.698 121.855 315.524 121.681 315.309 121.681C315.094 121.681 314.92 121.855 314.92 122.07C314.92 122.285 315.094 122.459 315.309 122.459Z" fill="#000000" fill-opacity="0.9"/>
<path d="M306 243C305.921 247.989 305.843 252.977 305.764 257.966" stroke="#000000" stroke-opacity="0.9" stroke-width="16" stroke-linecap="round" stroke-linejoin="round"/>
<path d="M328 253C328 254.666 328 256.334 328 258" stroke="#000000" stroke-opacity="0.9" stroke-width="16" stroke-linecap="round" stroke-linejoin="round"/>
</svg>