<?xml version="1.0" encoding="utf-8"?><!-- Uploaded to: SVG Repo, www.svgrepo.com, Generator: SVG Repo Mixer Tools -->
<svg width="800px" height="800px" viewBox="0 0 400 400" fill="none" xmlns="http://www.w3.org/2000/svg">
<path opacity="0.503384" d="M75.6875 267.127C89.1999 266.538 102.791 267.324 116.393 267.517" stroke="#000000" stroke-opacity="0.9" stroke-width="6" stroke-linecap="round" stroke-linejoin="round"/>
<path opacity="0.503384" d="M159.811 175.442C177.013 173.965 194.199 171.507 211.371 170.383" stroke="#000000" stroke-opacity="0.9" stroke-width="6" stroke-linecap="round" stroke-linejoin="round"/>
<path opacity="0.503384" d="M284.641 263.744C298.02 263.271 311.996 260.373 325.346 261.41" stroke="#000000" stroke-opacity="0.9" stroke-width="6" stroke-linecap="round" stroke-linejoin="round"/>
<path opacity="0.503384" d="M314.49 176.983C298.51 200.379 296.698 241.285 301.342 259.752" stroke="#000000" stroke-opacity="0.9" stroke-width="6" stroke-linecap="round" stroke-linejoin="round"/>
<path d="M252.076 149.846C256.805 165.585 262.973 181.068 269.715 195.979" stroke="#000000" stroke-opacity="0.9" stroke-width="12" stroke-linecap="round" stroke-linejoin="round"/>
<path d="M266.152 209.548C266.771 216.326 266.405 223.135 266.152 229.901" stroke="#000000" stroke-opacity="0.9" stroke-width="12" stroke-linecap="round" stroke-linejoin="round"/>
<path opacity="0.503384" d="M167.11 155.274C166.6 159.88 167.451 166.049 167.596 168.843" stroke="#000000" stroke-opacity="0.9" stroke-width="6" stroke-linecap="round" stroke-linejoin="round"/>
<path d="M213.272 153.917C213.17 157.994 213.394 162.066 213.561 166.128" stroke="#000000" stroke-opacity="0.9" stroke-width="12" stroke-linecap="round" stroke-linejoin="round"/>
<path opacity="0.503384" d="M222.226 246.212C201.81 245.868 177.687 248.695 159.811 250.254" stroke="#000000" stroke-opacity="0.9" stroke-width="6" stroke-linecap="round" stroke-linejoin="round"/>
<path opacity="0.503384" d="M168.763 335.214C159.789 256.767 228.433 244.523 223.311 337.093" stroke="#000000" stroke-opacity="0.9" stroke-width="6" stroke-linecap="round" stroke-linejoin="round"/>
<path opacity="0.503384" d="M195.279 273.32C196.43 291.368 196.555 327.182 197.613 335.736" stroke="#000000" stroke-opacity="0.9" stroke-width="6" stroke-linecap="round" stroke-linejoin="round"/>
<path opacity="0.503384" d="M201.872 321.588C198.208 321.485 194.597 322.245 191.018 322.755" stroke="#000000" stroke-opacity="0.9" stroke-width="6" stroke-linecap="round" stroke-linejoin="round"/>
<path opacity="0.503384" d="M150.313 228.255C146.231 228.214 142.128 228.39 138.102 228.838" stroke="#000000" stroke-opacity="0.9" stroke-width="6" stroke-linecap="round" stroke-linejoin="round"/>
<path d="M121.816 210.905C124.639 247.232 122.307 306.662 128.601 333.022" stroke="#000000" stroke-opacity="0.9" stroke-width="16" stroke-linecap="round" stroke-linejoin="round"/>
<path d="M155.742 176.983C160.443 228.74 157.565 281.229 159.813 333.022" stroke="#000000" stroke-opacity="0.9" stroke-width="16" stroke-linecap="round" stroke-linejoin="round"/>
<path d="M224.938 176.983C227.791 230.188 226.672 284.129 230.365 337.093" stroke="#000000" stroke-opacity="0.9" stroke-width="16" stroke-linecap="round" stroke-linejoin="round"/>
<path d="M277.484 229.901C276.633 265.496 281.119 301.686 279.234 337.093" stroke="#000000" stroke-opacity="0.9" stroke-width="16" stroke-linecap="round" stroke-linejoin="round"/>
<path d="M325.633 269.25C327.315 291.786 328.569 314.53 327.191 337.093" stroke="#000000" stroke-opacity="0.9" stroke-width="16" stroke-linecap="round" stroke-linejoin="round"/>
<path d="M72 273.32C73.1506 294.544 72.5536 315.915 73.943 337.093" stroke="#000000" stroke-opacity="0.9" stroke-width="16" stroke-linecap="round" stroke-linejoin="round"/>
<path d="M127.25 206.645C134.96 205.988 142.63 205.087 150.317 204.309" stroke="#000000" stroke-opacity="0.9" stroke-width="16" stroke-linecap="round" stroke-linejoin="round"/>
<path d="M237.148 235.328C247.573 235.028 257.878 234.145 268.356 233.971" stroke="#000000" stroke-opacity="0.9" stroke-width="16" stroke-linecap="round" stroke-linejoin="round"/>
<path d="M314.492 181.054C327.087 208.499 326.727 242.281 323.298 269.25" stroke="#000000" stroke-opacity="0.9" stroke-width="16" stroke-linecap="round" stroke-linejoin="round"/>
<path d="M249.666 138.991C247.136 193.998 215.716 202.192 271.072 197.607" stroke="#000000" stroke-opacity="0.9" stroke-width="16" stroke-linecap="round" stroke-linejoin="round"/>
<path d="M217.541 149.104C208.687 148.832 162.573 156.835 165.364 149.104C175.265 121.67 186.553 80.646 189.31 80.646C199.096 80.646 209.6 136.805 218.16 152.56" stroke="#000000" stroke-opacity="0.9" stroke-width="16" stroke-linecap="round" stroke-linejoin="round"/>
<path d="M85.1836 220.403C85.1836 228.238 86.0147 242.899 87.8973 262.465" stroke="#000000" stroke-opacity="0.9" stroke-width="16" stroke-linecap="round" stroke-linejoin="round"/>
<path d="M120.465 204.121C151.034 129.743 122.735 123.811 151.673 201.763" stroke="#000000" stroke-opacity="0.9" stroke-width="16" stroke-linecap="round" stroke-linejoin="round"/>
<path d="M79.7578 217.689C93.5438 152.145 81.5314 156.845 104.181 217.027" stroke="#000000" stroke-opacity="0.9" stroke-width="16" stroke-linecap="round" stroke-linejoin="round"/>
<path opacity="0.503384" d="M90.6133 156.438C93.0558 156.541 95.2039 154.902 97.3976 154.104" stroke="#000000" stroke-opacity="0.9" stroke-width="6" stroke-linecap="round" stroke-linejoin="round"/>
<path opacity="0.503384" d="M192.375 63.9026C201.781 64.847 213.098 59.3381 200.018 63.7072" stroke="#000000" stroke-opacity="0.9" stroke-width="6" stroke-linecap="round" stroke-linejoin="round"/>
<path opacity="0.503384" d="M140.814 248.897C140.814 251.158 140.814 253.421 140.814 255.681" stroke="#000000" stroke-opacity="0.9" stroke-width="6" stroke-linecap="round" stroke-linejoin="round"/>
<path opacity="0.503384" d="M252.076 265.179C252.076 266.991 252.076 268.798 252.076 270.606" stroke="#000000" stroke-opacity="0.9" stroke-width="6" stroke-linecap="round" stroke-linejoin="round"/>
<path opacity="0.503384" d="M321.276 228.019C313.792 226.723 312.925 227.461 307.707 228.408" stroke="#000000" stroke-opacity="0.9" stroke-width="6" stroke-linecap="round" stroke-linejoin="round"/>
<path opacity="0.503384" d="M181.916 198.693C181.782 197.297 182.307 195.988 182.502 194.623" stroke="#000000" stroke-opacity="0.9" stroke-width="6" stroke-linecap="round" stroke-linejoin="round"/>
<path opacity="0.503384" d="M199.84 198.408C199.84 197.24 199.84 196.071 199.84 194.907" stroke="#000000" stroke-opacity="0.9" stroke-width="6" stroke-linecap="round" stroke-linejoin="round"/>
</svg>