<?xml version="1.0" encoding="utf-8"?><!-- Uploaded to: SVG Repo, www.svgrepo.com, Generator: SVG Repo Mixer Tools -->
<svg width="800px" height="800px" viewBox="0 0 400 400" fill="none" xmlns="http://www.w3.org/2000/svg">
<path d="M71.2019 236.448C147.674 194.787 104.839 172.852 174.618 220.294C175.956 221.201 195.616 230.906 194.879 232.337C193.771 234.488 84.1835 239.667 77.5519 239.384" stroke="#000000" stroke-opacity="0.9" stroke-width="16" stroke-linecap="round" stroke-linejoin="round"/>
<path d="M215.303 229.193C235.321 222.941 261.861 182.01 267.582 182.01C278.388 182.01 296.324 205.602 322.587 220.234C323.265 220.612 331.349 225.458 331.349 225.907C331.349 228.558 292.212 223.974 289.946 223.817C267.413 222.227 246.156 225.152 224.064 227.997" stroke="#000000" stroke-opacity="0.9" stroke-width="16" stroke-linecap="round" stroke-linejoin="round"/>
<path d="M160.468 201.982C243.773 132.632 170.923 118.199 244.633 206.239" stroke="#000000" stroke-opacity="0.9" stroke-width="16" stroke-linecap="round" stroke-linejoin="round"/>
<path d="M91.73 245.771C92.2273 259.809 93.2348 274.016 94.0305 287.854" stroke="#000000" stroke-opacity="0.9" stroke-width="16" stroke-linecap="round" stroke-linejoin="round"/>
<path d="M183.808 239.395C183.392 254.136 185.864 277.405 185.616 287.854" stroke="#000000" stroke-opacity="0.9" stroke-width="16" stroke-linecap="round" stroke-linejoin="round"/>
<path d="M230.462 235.569C229 252.867 230.959 270.663 229.475 287.854" stroke="#000000" stroke-opacity="0.9" stroke-width="16" stroke-linecap="round" stroke-linejoin="round"/>
<path d="M320.273 239.395C319.332 253.869 322.17 268.465 320.273 282.753" stroke="#000000" stroke-opacity="0.9" stroke-width="16" stroke-linecap="round" stroke-linejoin="round"/>
<path opacity="0.503384" d="M159.379 241.945C159.283 258.069 160.777 274.445 160.119 290.404" stroke="#000000" stroke-opacity="0.9" stroke-width="16" stroke-linecap="round" stroke-linejoin="round"/>
<path opacity="0.503384" d="M137.599 245.771C137.945 260.635 136.905 275.653 137.599 290.404" stroke="#000000" stroke-opacity="0.9" stroke-width="16" stroke-linecap="round" stroke-linejoin="round"/>
<path opacity="0.503384" d="M120.484 245.771C120.566 260.169 119.872 275.198 121.469 289.129" stroke="#000000" stroke-opacity="0.9" stroke-width="16" stroke-linecap="round" stroke-linejoin="round"/>
<path opacity="0.503384" d="M254.174 234.294C253.598 251.107 254.915 271.685 254.092 286.578" stroke="#000000" stroke-opacity="0.9" stroke-width="16" stroke-linecap="round" stroke-linejoin="round"/>
<path opacity="0.503384" d="M278.18 236.844C278.291 252.149 278.26 267.462 278.673 282.752" stroke="#000000" stroke-opacity="0.9" stroke-width="16" stroke-linecap="round" stroke-linejoin="round"/>
<path opacity="0.503384" d="M300.123 235.569C299.699 250.41 301.214 270.584 301.436 282.753" stroke="#000000" stroke-opacity="0.9" stroke-width="16" stroke-linecap="round" stroke-linejoin="round"/>
<path d="M191.073 239.395C203.454 238.435 215.507 235.935 228.055 235.569" stroke="#000000" stroke-opacity="0.9" stroke-width="16" stroke-linecap="round" stroke-linejoin="round"/>
<path opacity="0.503384" d="M75.349 199.863C53.0054 215.585 59.4553 208.194 76.3028 215.166" stroke="#000000" stroke-opacity="0.9" stroke-width="16" stroke-linecap="round" stroke-linejoin="round"/>
<path opacity="0.503384" d="M78.6068 202.413C77.0663 214.404 77.8059 226.421 79.9177 238.12" stroke="#000000" stroke-opacity="0.9" stroke-width="16" stroke-linecap="round" stroke-linejoin="round"/>
<path opacity="0.503384" d="M131.139 180.668C131.014 190.541 139.54 142.382 134.695 151.217C132.288 155.601 153.076 161.36 148.266 159.166C142.358 156.474 137.408 162.233 134.695 165.058" stroke="#000000" stroke-opacity="0.9" stroke-width="16" stroke-linecap="round" stroke-linejoin="round"/>
<path opacity="0.503384" d="M207.634 139.927C207.653 135.291 206.546 130.884 206.392 126.256C206.218 121.041 200.706 110.597 206.392 110.597C212.939 110.597 229.323 112.895 224.692 117.147C222.424 119.229 212.448 115.768 207.013 122.84" stroke="#000000" stroke-opacity="0.9" stroke-width="16" stroke-linecap="round" stroke-linejoin="round"/>
<path opacity="0.503384" d="M274.293 176.908C274.17 170.943 273.635 165.032 273.635 159.055" stroke="#000000" stroke-opacity="0.9" stroke-width="16" stroke-linecap="round" stroke-linejoin="round"/>
<path opacity="0.503384" d="M275.076 157.78C296.185 164.928 292.001 157.665 273.963 164.156" stroke="#000000" stroke-opacity="0.9" stroke-width="16" stroke-linecap="round" stroke-linejoin="round"/>
<path opacity="0.503384" d="M333.111 202.413C332.58 208.843 333.276 215.197 333.605 221.542" stroke="#000000" stroke-opacity="0.9" stroke-width="16" stroke-linecap="round" stroke-linejoin="round"/>
<path opacity="0.503384" d="M334.277 201.554C342.297 203.523 338.988 204.38 332.624 205.823" stroke="#000000" stroke-opacity="0.9" stroke-width="16" stroke-linecap="round" stroke-linejoin="round"/>
</svg>