<?xml version="1.0" encoding="utf-8"?><!-- Uploaded to: SVG Repo, www.svgrepo.com, Generator: SVG Repo Mixer Tools -->
<svg width="800px" height="800px" viewBox="0 0 400 400" fill="none" xmlns="http://www.w3.org/2000/svg">
<path d="M234.513 121.495C179.756 120.417 121.169 123.562 76.5483 161.151" stroke="#000000" stroke-opacity="0.9" stroke-width="16" stroke-linecap="round" stroke-linejoin="round"/>
<path d="M69.5254 162.478C74.0188 195.773 69.9037 231.326 69.9037 263.363" stroke="#000000" stroke-opacity="0.9" stroke-width="16" stroke-linecap="round" stroke-linejoin="round"/>
<path d="M235.84 120C254.335 137.362 261.032 178.793 263.716 200.973" stroke="#000000" stroke-opacity="0.9" stroke-width="16" stroke-linecap="round" stroke-linejoin="round"/>
<path d="M350 271.683C250.815 268.591 148.905 286.916 50 278.287" stroke="#000000" stroke-opacity="0.9" stroke-width="16" stroke-linecap="round" stroke-linejoin="round"/>
<path d="M275.665 191.682C334.285 221.098 327.163 187.774 327.163 266.018" stroke="#000000" stroke-opacity="0.9" stroke-width="16" stroke-linecap="round" stroke-linejoin="round"/>
<path d="M257.079 163.94C198.031 155.232 137.727 168.707 80.5308 179.734" stroke="#000000" stroke-opacity="0.9" stroke-width="16" stroke-linecap="round" stroke-linejoin="round"/>
<path d="M262.389 208.487C202.499 206.373 141.401 207.843 81.8579 215.575" stroke="#000000" stroke-opacity="0.9" stroke-width="16" stroke-linecap="round" stroke-linejoin="round"/>
<path d="M307.522 248.761C232.38 239.645 155.466 235.395 80.5308 244.639" stroke="#000000" stroke-opacity="0.9" stroke-width="16" stroke-linecap="round" stroke-linejoin="round"/>
<path opacity="0.503384" d="M81.8579 271.422C97.3178 230.052 113.465 275.574 114.365 275.308C124.143 272.425 126.438 255.356 145.114 257.42C149.706 257.928 155.31 274.549 156.241 274.274C167.844 270.85 168.376 252.788 187.869 255.09C196.789 256.143 197.388 276.801 205.439 273.235C215.454 268.804 216.462 253.918 233.551 252.756C241.891 252.188 250.241 271.289 250.536 271.161C268.08 263.393 290.272 249.213 303.539 275.052" stroke="#000000" stroke-opacity="0.9" stroke-width="6" stroke-linecap="round" stroke-linejoin="round"/>
<path opacity="0.503384" d="M88.4951 231.089C91.8417 222.769 96.7368 218.032 105.228 215.541C118.828 211.551 119.755 233.656 124.844 232.528C135.709 230.119 137.96 209.112 154.561 213.529C165.105 216.334 161.789 231.959 168.12 235.115C169.297 235.704 173.336 226.937 174.177 225.905C180.05 218.693 188.022 213.122 197.832 214.103C205.167 214.835 203.67 233.732 210.816 231.948C219.903 229.681 222.725 213.483 237.069 214.103C245.596 214.474 252.783 222.195 254.953 229.936C255.891 233.275 252.712 241.849 255.819 240.299C272.786 231.837 284.227 190.367 304.867 250.089" stroke="#000000" stroke-opacity="0.9" stroke-width="6" stroke-linecap="round" stroke-linejoin="round"/>
<path opacity="0.503384" d="M87.1675 202.012C87.9685 195.69 97.1348 176.243 106.119 182.964C112.537 187.77 105.931 208.345 113.582 206.115C120.786 204.015 121.196 182.265 132.533 178.861C147.418 174.396 147.017 204.356 152.635 204.356C155.829 204.356 157.989 174.293 173.883 179.156C183.191 182.006 181.792 200.724 187.09 202.892C195.465 206.306 195.607 185.442 203.46 180.915C211.714 176.15 225.469 210.166 224.419 200.543C222.092 179.192 243.842 188.422 249.114 199.669" stroke="#000000" stroke-opacity="0.9" stroke-width="6" stroke-linecap="round" stroke-linejoin="round"/>
<path opacity="0.503384" d="M95.1323 165.133C114.039 126.157 111.425 156.3 122.315 160.583C125.077 161.67 137.688 129.074 151.811 135.423C160.194 139.186 161.282 163.163 168.869 157.858C172.765 155.133 172.034 145.631 177.258 142.088C186.341 135.932 191.63 147.152 197.788 151.188C198.431 151.606 201.903 142.859 202.995 141.788C218.251 126.788 233.216 147.735 234.513 161.798" stroke="#000000" stroke-opacity="0.9" stroke-width="6" stroke-linecap="round" stroke-linejoin="round"/>
</svg>