<?xml version="1.0" encoding="utf-8"?><!-- Uploaded to: SVG Repo, www.svgrepo.com, Generator: SVG Repo Mixer Tools -->
<svg width="800px" height="800px" viewBox="0 0 400 400" fill="none" xmlns="http://www.w3.org/2000/svg">
<path d="M186.07 301.916C177.837 300.742 169.18 299.337 169.18 303.954C169.18 315.469 169.606 345.72 169.943 354.105" stroke="#000000" stroke-opacity="0.9" stroke-width="16" stroke-linecap="round" stroke-linejoin="round"/>
<path d="M189.115 354.105C191.08 337.38 186.664 308.765 189.115 296.56C190.47 289.812 195.53 292.344 203.946 291.645C204.658 291.586 211.172 291.012 211.172 291.645C211.172 311.508 210.782 336.907 210.782 354.105" stroke="#000000" stroke-opacity="0.9" stroke-width="16" stroke-linecap="round" stroke-linejoin="round"/>
<path d="M219.386 300.757C226.161 300.262 230.999 297.087 230.999 304.924C230.999 321.85 230.644 344.696 230.999 354.105" stroke="#000000" stroke-opacity="0.9" stroke-width="16" stroke-linecap="round" stroke-linejoin="round"/>
<path d="M173.675 299.249C173.675 268.892 169.871 163.565 173.459 140.179C174.068 136.208 185.793 139.719 187.211 139.593" stroke="#000000" stroke-opacity="0.9" stroke-width="14" stroke-linecap="round" stroke-linejoin="round"/>
<path d="M189.493 288.979C188.726 253.439 188.152 142.994 188.352 129.548C188.423 124.822 205.207 127.904 205.928 128.426C207.689 129.711 205.432 153.4 205.564 156.247C207.536 199.369 206.109 249.512 206.109 288.979" stroke="#000000" stroke-opacity="0.9" stroke-width="14" stroke-linecap="round" stroke-linejoin="round"/>
<path d="M206.608 138.279C209.207 138.694 223.882 131.61 223.882 142.529C223.882 166.295 223.882 265.727 223.882 298.195" stroke="#000000" stroke-opacity="0.9" stroke-width="16" stroke-linecap="round" stroke-linejoin="round"/>
<path d="M181.506 173.323C180.018 173.082 178.412 173.237 176.942 173.265" stroke="#000000" stroke-opacity="0.9" stroke-width="4" stroke-linecap="round" stroke-linejoin="round"/>
<path d="M223.723 173.475C217.917 173.783 212.307 173.181 206.608 172.952" stroke="#000000" stroke-opacity="0.9" stroke-width="4" stroke-linecap="round" stroke-linejoin="round"/>
<path d="M182.27 131.486C181.858 127.963 180.959 112.122 183.127 110.675C183.504 110.424 191.189 109.934 196.279 109.934C201.369 109.934 210.825 109.892 210.825 110.151C210.825 112.487 210.971 115.938 211.112 119.359C211.296 123.861 211.455 128.417 211.112 131.351" stroke="#000000" stroke-opacity="0.9" stroke-width="16" stroke-linecap="round" stroke-linejoin="round"/>
<path d="M193.265 102.961C193.17 99.4383 192.963 83.597 193.463 82.1505C193.55 81.8987 195.323 81.4094 196.498 81.4094C197.672 81.4094 199.855 81.3666 199.855 81.6265C199.855 83.9617 199.888 87.4127 199.921 90.8345C199.963 95.3366 200 99.8921 199.921 102.826" stroke="#000000" stroke-opacity="0.9" stroke-width="16" stroke-linecap="round" stroke-linejoin="round"/>
<path d="M196.711 74.5609C196.398 64.5772 197.084 54.7967 197.189 44.895" stroke="#000000" stroke-opacity="0.9" stroke-width="4" stroke-linecap="round" stroke-linejoin="round"/>
</svg>