<?xml version="1.0" encoding="utf-8"?><!-- Uploaded to: SVG Repo, www.svgrepo.com, Generator: SVG Repo Mixer Tools -->
<svg width="800px" height="800px" viewBox="0 0 400 400" fill="none" xmlns="http://www.w3.org/2000/svg">
<path d="M169.307 211.437C168.874 239.557 168.072 267.569 170.76 295.273" stroke="#000000" stroke-opacity="0.9" stroke-width="16" stroke-linecap="round" stroke-linejoin="round"/>
<path d="M278.987 195.537C278.888 219.339 281.779 268.342 281.779 290.937" stroke="#000000" stroke-opacity="0.9" stroke-width="16" stroke-linecap="round" stroke-linejoin="round"/>
<path d="M296.196 211.437C281.88 190.619 258.54 166.046 226.177 137.719C223.215 137.719 168.924 190.448 156.561 209.867C156.43 210.073 156.262 210.278 156.072 210.543" stroke="#000000" stroke-opacity="0.9" stroke-width="16" stroke-linecap="round" stroke-linejoin="round"/>
<path d="M269.463 174.578C269.463 163.706 266.519 154.506 273.154 141.363C293.794 100.476 346.872 109.368 346.872 156.51C347.733 181.978 343.981 272.054 343.981 298.164" stroke="#000000" stroke-opacity="0.9" stroke-width="16" stroke-linecap="round" stroke-linejoin="round"/>
<path d="M339.644 156.642C320.834 156.057 302.994 157.582 284.717 157.955" stroke="#000000" stroke-opacity="0.9" stroke-width="16" stroke-linecap="round" stroke-linejoin="round"/>
<path d="M52 273.925C84.2605 270.084 103.286 269.255 151.736 269.255" stroke="#000000" stroke-opacity="0.9" stroke-width="16" stroke-linecap="round" stroke-linejoin="round"/>
<path d="M134.44 262.028C134.342 271.404 137.232 290.709 137.232 299.609" stroke="#000000" stroke-opacity="0.9" stroke-width="16" stroke-linecap="round" stroke-linejoin="round"/>
<path d="M101.169 260.582C101.12 270.68 102.565 291.469 102.565 301.055" stroke="#000000" stroke-opacity="0.9" stroke-width="16" stroke-linecap="round" stroke-linejoin="round"/>
<path d="M67.9497 259.137C67.8513 269.956 70.7422 292.23 70.7422 302.5" stroke="#000000" stroke-opacity="0.9" stroke-width="16" stroke-linecap="round" stroke-linejoin="round"/>
<path d="M197.517 293.529C196.774 285.073 195.153 247.049 199.061 243.577C199.742 242.972 213.596 241.798 222.772 241.798C231.948 241.798 248.996 241.695 248.996 242.319C248.996 247.924 249.26 256.208 249.513 264.421C249.845 275.227 250.132 286.162 249.513 293.204" stroke="#000000" stroke-opacity="0.9" stroke-width="16" stroke-linecap="round" stroke-linejoin="round"/>
<path opacity="0.503384" d="M208.109 254.021C236.561 321.132 220.198 288.199 239.909 246.128" stroke="#000000" stroke-opacity="0.9" stroke-width="16" stroke-linecap="round" stroke-linejoin="round"/>
<path d="M213.528 185.125C222.906 173.579 245.881 189.077 235.987 202.672C224.7 218.18 203.353 205.875 211.278 190.371" stroke="#000000" stroke-opacity="0.9" stroke-width="16" stroke-linecap="round" stroke-linejoin="round"/>
</svg>