<?xml version="1.0" encoding="utf-8"?><!-- Uploaded to: SVG Repo, www.svgrepo.com, Generator: SVG Repo Mixer Tools -->
<svg width="800px" height="800px" viewBox="0 0 400 400" fill="none" xmlns="http://www.w3.org/2000/svg">
<path d="M36.2974 191.445C34.752 219.451 35.5355 242.289 34.1357 270.282" stroke="#000000" stroke-opacity="0.9" stroke-width="16" stroke-linecap="round" stroke-linejoin="round"/>
<path d="M28.8784 205.351C34.3469 210.783 36.1418 208.069 41.2395 203.651" stroke="#000000" stroke-opacity="0.9" stroke-width="16" stroke-linecap="round" stroke-linejoin="round"/>
<path d="M27.3354 214.466C33.4983 221.348 36.4245 217.837 42.9417 214.003" stroke="#000000" stroke-opacity="0.9" stroke-width="16" stroke-linecap="round" stroke-linejoin="round"/>
<path d="M24.7041 226.674C31.8729 229.619 37.2023 228.133 44.0181 225.747" stroke="#000000" stroke-opacity="0.9" stroke-width="16" stroke-linecap="round" stroke-linejoin="round"/>
<path d="M21.1548 241.045C31.2564 243.109 38.8183 241.361 47.7315 236.409" stroke="#000000" stroke-opacity="0.9" stroke-width="16" stroke-linecap="round" stroke-linejoin="round"/>
<path d="M21 250.16C31.5931 259.458 37.3143 252.698 48.3491 249.388" stroke="#000000" stroke-opacity="0.9" stroke-width="16" stroke-linecap="round" stroke-linejoin="round"/>
<path d="M342.192 108.071C343.048 157.42 344.354 206.794 344.354 256.25" stroke="#000000" stroke-opacity="0.9" stroke-width="16" stroke-linecap="round" stroke-linejoin="round"/>
<path d="M312.729 231.085C350.121 207.643 337.313 204.111 373.534 234.464" stroke="#000000" stroke-opacity="0.9" stroke-width="16" stroke-linecap="round" stroke-linejoin="round"/>
<path d="M318.381 206.988C346.483 185.717 339.013 180.935 365.613 204.21" stroke="#000000" stroke-opacity="0.9" stroke-width="16" stroke-linecap="round" stroke-linejoin="round"/>
<path d="M327.53 174.058C342.047 161.261 344.259 163.312 357.474 176.527" stroke="#000000" stroke-opacity="0.9" stroke-width="16" stroke-linecap="round" stroke-linejoin="round"/>
<path d="M330.77 149.329C341.177 139.652 344.238 142.878 354.232 150.872" stroke="#000000" stroke-opacity="0.9" stroke-width="16" stroke-linecap="round" stroke-linejoin="round"/>
<path d="M328.923 131.878C337.785 122.675 343.486 121.982 351.459 130.952" stroke="#000000" stroke-opacity="0.9" stroke-width="16" stroke-linecap="round" stroke-linejoin="round"/>
<path d="M336.481 115.638C341.868 109.672 343.437 108.341 348.52 115.33" stroke="#000000" stroke-opacity="0.9" stroke-width="16" stroke-linecap="round" stroke-linejoin="round"/>
<path d="M235.441 111.608C208.792 161.704 178.363 209.958 149.301 258.395" stroke="#000000" stroke-opacity="0.9" stroke-width="16" stroke-linecap="round" stroke-linejoin="round"/>
<path d="M128.638 129.319C102.053 169.711 79.1363 212.427 52.4277 252.491" stroke="#000000" stroke-opacity="0.9" stroke-width="16" stroke-linecap="round" stroke-linejoin="round"/>
<path d="M132.126 124.22C160.572 119.391 192.92 115.033 231.952 111.071" stroke="#000000" stroke-opacity="0.9" stroke-width="16" stroke-linecap="round" stroke-linejoin="round"/>
<path d="M238.661 110.803C264.435 160.459 296.795 206.873 319.97 257.859" stroke="#000000" stroke-opacity="0.9" stroke-width="16" stroke-linecap="round" stroke-linejoin="round"/>
<path d="M270.863 206.335C242.324 206.342 213.482 203.92 184.991 203.92" stroke="#000000" stroke-opacity="0.9" stroke-width="16" stroke-linecap="round" stroke-linejoin="round"/>
<path d="M228.195 127.977C249.11 171.353 282.512 210.422 302.796 254.369" stroke="#000000" stroke-opacity="0.5" stroke-width="16" stroke-linecap="round" stroke-linejoin="round"/>
<path d="M198.14 180.842C218.452 181.701 238.296 186.307 258.787 184.599" stroke="#000000" stroke-opacity="0.5" stroke-width="16" stroke-linecap="round" stroke-linejoin="round"/>
<path d="M211.558 161.521C222.723 161.961 233.338 164.205 244.564 164.205" stroke="#000000" stroke-opacity="0.5" stroke-width="16" stroke-linecap="round" stroke-linejoin="round"/>
<path d="M186.333 218.143C213.982 220.107 241.645 220.558 269.521 220.558" stroke="#000000" stroke-opacity="0.5" stroke-width="16" stroke-linecap="round" stroke-linejoin="round"/>
<path d="M183.381 219.752C182.969 231.94 182.446 244.147 180.429 256.247" stroke="#000000" stroke-opacity="0.5" stroke-width="16" stroke-linecap="round" stroke-linejoin="round"/>
<path d="M268.984 222.167C269.291 232.915 268.984 243.6 268.984 254.369" stroke="#000000" stroke-opacity="0.5" stroke-width="16" stroke-linecap="round" stroke-linejoin="round"/>
<path d="M225.243 222.167C225.072 234.288 224.76 246.38 223.901 258.394" stroke="#000000" stroke-opacity="0.5" stroke-width="16" stroke-linecap="round" stroke-linejoin="round"/>
<path d="M226.049 130.393C226.2 153.901 226.708 177.537 225.243 200.968" stroke="#000000" stroke-opacity="0.5" stroke-width="16" stroke-linecap="round" stroke-linejoin="round"/>
<path d="M203.775 169.571C204.073 177.842 202.702 186.063 202.702 194.258" stroke="#000000" stroke-opacity="0.5" stroke-width="16" stroke-linecap="round" stroke-linejoin="round"/>
<path d="M247.785 171.986C247.722 181.045 247.007 190.064 246.443 199.089" stroke="#000000" stroke-opacity="0.5" stroke-width="16" stroke-linecap="round" stroke-linejoin="round"/>
<path d="M139.195 260.586C108.741 260.886 77.9937 261.677 47.645 260.426" stroke="#000000" stroke-opacity="0.9" stroke-width="16" stroke-linecap="round" stroke-linejoin="round"/>
<path d="M379 260.005C312.82 256.022 214.039 266.254 148.076 260.874" stroke="#000000" stroke-opacity="0.9" stroke-width="16" stroke-linecap="round" stroke-linejoin="round"/>
<path d="M167.01 271.336C161.719 270.801 152.491 271.073 149.299 271.605" stroke="#000000" stroke-opacity="0.9" stroke-width="16" stroke-linecap="round" stroke-linejoin="round"/>
<path d="M173.816 281.191C169.735 281.484 165.773 280.923 161.74 280.923" stroke="#000000" stroke-opacity="0.9" stroke-width="16" stroke-linecap="round" stroke-linejoin="round"/>
<path d="M192.155 291.169C185.874 291.178 179.597 291.189 173.355 291.225" stroke="#000000" stroke-opacity="0.9" stroke-width="16" stroke-linecap="round" stroke-linejoin="round"/>
<path d="M165.302 131.611C152.005 153.056 140.135 175.44 126.719 196.905" stroke="#000000" stroke-opacity="0.9" stroke-width="16" stroke-linecap="round" stroke-linejoin="round"/>
<path d="M185.173 130.837C172.654 153.854 159.189 176.394 144.655 198.195" stroke="#000000" stroke-opacity="0.9" stroke-width="16" stroke-linecap="round" stroke-linejoin="round"/>
<path d="M166.463 130.449C171.517 129.94 176.566 129.136 181.69 129.546" stroke="#000000" stroke-opacity="0.9" stroke-width="16" stroke-linecap="round" stroke-linejoin="round"/>
<path d="M127.236 196.389C132.566 196.262 137.826 197.044 143.107 197.421" stroke="#000000" stroke-opacity="0.9" stroke-width="16" stroke-linecap="round" stroke-linejoin="round"/>
<path d="M209.764 251.65C206.927 251.846 204.062 251.631 201.232 251.553" stroke="#000000" stroke-opacity="0.9" stroke-width="16" stroke-linecap="round" stroke-linejoin="round"/>
<path d="M200.359 252.134C196.964 253.654 193.658 255.382 190.374 257.078" stroke="#000000" stroke-opacity="0.9" stroke-width="16" stroke-linecap="round" stroke-linejoin="round"/>
<path d="M191.343 239.047C193.455 243.5 195.143 248.123 196.773 252.717" stroke="#000000" stroke-opacity="0.9" stroke-width="16" stroke-linecap="round" stroke-linejoin="round"/>
<path d="M200.844 240.209C201.069 243.805 201.862 247.354 202.395 250.874" stroke="#000000" stroke-opacity="0.9" stroke-width="16" stroke-linecap="round" stroke-linejoin="round"/>
<path d="M191.924 237.882C195.216 236.241 197.842 237.444 200.844 239.045" stroke="#000000" stroke-opacity="0.9" stroke-width="16" stroke-linecap="round" stroke-linejoin="round"/>
<path d="M210.636 251.165C210.449 253.426 210.378 255.689 210.249 257.951" stroke="#000000" stroke-opacity="0.9" stroke-width="16" stroke-linecap="round" stroke-linejoin="round"/>
<path d="M201.523 250.972C201.75 253.223 201.586 255.511 201.523 257.758" stroke="#000000" stroke-opacity="0.9" stroke-width="16" stroke-linecap="round" stroke-linejoin="round"/>
<path d="M191.924 241.179C192.163 245.755 191.829 250.315 191.44 254.849" stroke="#000000" stroke-opacity="0.9" stroke-width="16" stroke-linecap="round" stroke-linejoin="round"/>
</svg>