<?xml version="1.0" encoding="utf-8"?><!-- Uploaded to: SVG Repo, www.svgrepo.com, Generator: SVG Repo Mixer Tools -->
<svg width="800px" height="800px" viewBox="0 0 400 400" fill="none" xmlns="http://www.w3.org/2000/svg">
<path d="M64.8367 272.236C64.8367 258.222 59.0046 184.599 69.6205 174.218C77.9644 166.052 323.308 167.512 336.336 176.008C338.091 177.152 335.828 183.901 335.631 185.618C332.772 210.79 334.931 247.463 334.931 272.837" stroke="#000000" stroke-opacity="0.9" stroke-width="16" stroke-linecap="round" stroke-linejoin="round"/>
<path opacity="0.503384" d="M69.9949 205.52C155.446 204.346 252.739 201.571 336.998 207.743" stroke="#000000" stroke-opacity="0.9" stroke-width="6" stroke-linecap="round" stroke-linejoin="round"/>
<path opacity="0.503384" d="M72.5747 242.569C146.158 245.17 266.716 240.468 334.418 246.439" stroke="#000000" stroke-opacity="0.9" stroke-width="6" stroke-linecap="round" stroke-linejoin="round"/>
<path d="M102.7 174.206C101.551 189.991 102.674 275.023 104.821 272.166" stroke="#000000" stroke-opacity="0.9" stroke-width="16" stroke-linecap="round" stroke-linejoin="round"/>
<path d="M136.687 179.366C135.712 200.374 135.805 221.661 133.584 242.569" stroke="#000000" stroke-opacity="0.9" stroke-width="16" stroke-linecap="round" stroke-linejoin="round"/>
<path d="M168.027 174.206C166.418 195.308 166.994 251.399 166.42 272.589" stroke="#000000" stroke-opacity="0.9" stroke-width="16" stroke-linecap="round" stroke-linejoin="round"/>
<path d="M200.743 176.786C200.743 185.189 200.743 193.595 200.743 201.998C200.743 210.324 202.399 265.105 202.399 271.877" stroke="#000000" stroke-opacity="0.9" stroke-width="16" stroke-linecap="round" stroke-linejoin="round"/>
<path d="M238.169 174.206C235.187 200.478 237.801 260.088 238.582 272.236" stroke="#000000" stroke-opacity="0.9" stroke-width="16" stroke-linecap="round" stroke-linejoin="round"/>
<path d="M269.448 176.786C268.974 198.876 270.563 222.633 267.792 243.859" stroke="#000000" stroke-opacity="0.9" stroke-width="16" stroke-linecap="round" stroke-linejoin="round"/>
<path d="M305.334 178.076C305.056 209.388 302.858 240.975 305.334 272.236" stroke="#000000" stroke-opacity="0.9" stroke-width="16" stroke-linecap="round" stroke-linejoin="round"/>
<path d="M163.028 157.986C162.234 145.93 162.785 129.788 164.902 129.061C168.661 127.77 239.458 126.766 241.783 129.061C244.476 131.719 241.783 160.975 241.783 166.467" stroke="#000000" stroke-opacity="0.9" stroke-width="16" stroke-linecap="round" stroke-linejoin="round"/>
<path d="M209.301 147.982C203.003 147.225 197.423 147.604 191.243 147.982" stroke="#000000" stroke-opacity="0.9" stroke-width="4" stroke-linecap="round" stroke-linejoin="round"/>
<path d="M200.249 140.669C200.214 145.432 199.421 150.127 199.007 154.858" stroke="#000000" stroke-opacity="0.9" stroke-width="4" stroke-linecap="round" stroke-linejoin="round"/>
</svg>