<?xml version="1.0" encoding="utf-8"?><!-- Uploaded to: SVG Repo, www.svgrepo.com, Generator: SVG Repo Mixer Tools -->
<svg width="800px" height="800px" viewBox="0 0 400 400" fill="none" xmlns="http://www.w3.org/2000/svg">
<path d="M91 288C92.6764 262.274 90.8307 235.586 93 210" stroke="#000000" stroke-opacity="0.9" stroke-width="16" stroke-linecap="round" stroke-linejoin="round"/>
<path d="M135 215C133.375 238.161 132.04 261.959 133.913 285" stroke="#000000" stroke-opacity="0.9" stroke-width="16" stroke-linecap="round" stroke-linejoin="round"/>
<path d="M155.765 217C156.741 237.562 154.301 271.84 155.204 286" stroke="#000000" stroke-opacity="0.9" stroke-width="16" stroke-linecap="round" stroke-linejoin="round"/>
<path d="M235 222C238.289 244.554 232.752 267.652 237 290" stroke="#000000" stroke-opacity="0.9" stroke-width="16" stroke-linecap="round" stroke-linejoin="round"/>
<path d="M258 227C259.372 246.575 257.426 266.576 259 286" stroke="#000000" stroke-opacity="0.9" stroke-width="16" stroke-linecap="round" stroke-linejoin="round"/>
<path d="M293.181 223C292.489 242.371 294 275.226 294 288" stroke="#000000" stroke-opacity="0.9" stroke-width="16" stroke-linecap="round" stroke-linejoin="round"/>
<path d="M96 235C156.81 233.355 192.673 233 284 233" stroke="#000000" stroke-opacity="0.9" stroke-width="16" stroke-linecap="round" stroke-linejoin="round"/>
<path d="M96 212C156.81 210.355 192.673 210 284 210" stroke="#000000" stroke-opacity="0.9" stroke-width="16" stroke-linecap="round" stroke-linejoin="round"/>
<path d="M96 263C108.106 261.52 122.07 261.822 134 263" stroke="#000000" stroke-opacity="0.9" stroke-width="16" stroke-linecap="round" stroke-linejoin="round"/>
<path d="M261 267.106C272.44 266.74 283.785 267.394 295 268" stroke="#000000" stroke-opacity="0.9" stroke-width="16" stroke-linecap="round" stroke-linejoin="round"/>
<path d="M86.0122 217C27.0349 196.003 74.6742 222.788 133 157" stroke="#000000" stroke-opacity="0.9" stroke-width="16" stroke-linecap="round" stroke-linejoin="round"/>
<path d="M134 152.208C171.703 155.982 261.342 150.947 262.193 152.208C272.193 167.002 287.573 179.069 302.535 188.911C308.397 192.765 340.236 200.553 341.978 205.713C343.145 209.167 297.952 214.214 293.57 215" stroke="#000000" stroke-opacity="0.9" stroke-width="16" stroke-linecap="round" stroke-linejoin="round"/>
<path d="M130.534 151C125.417 146.051 111 147.391 111 138.076C111 133.677 119.954 137.37 123.874 135.403C136.098 129.267 141.735 120.276 150.653 111.323C151.782 110.189 158.402 115.347 159.832 115.347C180.093 115.347 201.775 117.377 221.976 115.347C226.375 114.907 230.747 110 233.97 110C237.172 110 255.399 128.289 264.603 129.61C267.534 130.029 286.278 132.886 286.859 134.052C288.863 138.077 268.922 146.972 266.378 147.436" stroke="#000000" stroke-opacity="0.9" stroke-width="16" stroke-linecap="round" stroke-linejoin="round"/>
</svg>