<?xml version="1.0" encoding="utf-8"?><!-- Uploaded to: SVG Repo, www.svgrepo.com, Generator: SVG Repo Mixer Tools -->
<svg width="800px" height="800px" viewBox="0 0 400 400" fill="none" xmlns="http://www.w3.org/2000/svg">
<path d="M368.259 164C283.164 169.802 110.061 160.588 39.2593 165.923" stroke="#000000" stroke-opacity="0.9" stroke-width="16" stroke-linecap="round" stroke-linejoin="round"/>
<path d="M364.259 197C288.404 198.697 211.954 195.942 136.152 198.314C103.103 199.347 61.9496 202.792 30.2593 199.815" stroke="#000000" stroke-opacity="0.9" stroke-width="16" stroke-linecap="round" stroke-linejoin="round"/>
<path d="M369.259 231C308.702 235.249 68.0896 228.427 35.2593 235" stroke="#000000" stroke-opacity="0.9" stroke-width="16" stroke-linecap="round" stroke-linejoin="round"/>
<path fill-rule="evenodd" clip-rule="evenodd" d="M32.3615 235C32.3615 225 29.2592 177 30.1661 161.702C30.3483 158.629 47.5725 160.407 50.3854 160.407C55.0315 160.407 65.7755 159.757 70.258 159.757C74.7405 159.757 69.5589 221.756 70.258 231L32.3615 235Z" stroke="#000000" stroke-opacity="0.9" stroke-width="16" stroke-linecap="round" stroke-linejoin="round"/>
<path d="M36.2593 161C39.2158 154.503 41.7108 149.474 45.2902 146.027C47.676 143.729 57.2662 141.466 67.3311 145.385C68.9739 146.025 70.6537 151.417 72.2593 155.101" stroke="#000000" stroke-opacity="0.9" stroke-width="16" stroke-linecap="round" stroke-linejoin="round"/>
<path d="M351.865 225C351.865 217.363 351.865 209.727 351.865 202.095C351.865 197.568 355.733 161.283 350.583 157.278C349.429 156.382 319.605 157.907 319.487 158.275C314.295 174.402 319.806 205.391 319.806 223.006" stroke="#000000" stroke-opacity="0.9" stroke-width="16" stroke-linecap="round" stroke-linejoin="round"/>
<path d="M370.397 166C371.366 186.936 367.892 209.477 369.278 230" stroke="#000000" stroke-opacity="0.9" stroke-width="16" stroke-linecap="round" stroke-linejoin="round"/>
<path d="M317.259 151.232C326.988 137.614 347.846 140.077 353.259 152" stroke="#000000" stroke-opacity="0.9" stroke-width="16" stroke-linecap="round" stroke-linejoin="round"/>
<path opacity="0.503627" d="M102.259 227C121.489 215.305 184.859 136.544 195.259 134.006C198.584 133.196 277.12 218.454 281.259 225.375" stroke="#000000" stroke-opacity="0.9" stroke-width="16" stroke-linecap="round" stroke-linejoin="round"/>
<path opacity="0.503627" d="M140.259 226.466C161.385 215.856 174.115 187.176 194.567 177.008C195.57 176.509 217.217 199.992 218.304 201.254C226.651 210.933 242.657 219.284 248.221 230.345C248.863 231.622 241.263 233.964 240.092 234.551C234.555 237.298 230.345 242.268 225.131 245.539C195.449 264.177 202.82 266.945 171.806 248.447C163.735 243.639 151.156 238.939 147.416 234.551" stroke="#000000" stroke-opacity="0.9" stroke-width="16" stroke-linecap="round" stroke-linejoin="round"/>
<path opacity="0.503627" d="M193.259 138C194.009 180.046 193.981 223.752 197.259 265" stroke="#000000" stroke-opacity="0.9" stroke-width="9" stroke-linecap="round" stroke-linejoin="round"/>
<path opacity="0.503384" d="M123.549 184.704C124.119 188.059 123.045 191.161 122.805 194.296" stroke="#000000" stroke-opacity="0.9" stroke-width="6" stroke-linecap="round" stroke-linejoin="round"/>
<path opacity="0.503384" d="M106.383 186C106.287 188.059 106.219 189.953 106.135 192" stroke="#000000" stroke-opacity="0.9" stroke-width="6" stroke-linecap="round" stroke-linejoin="round"/>
<path opacity="0.503384" d="M90.3172 185.581C89.2732 188.119 89.5702 190.819 89.2012 193.42" stroke="#000000" stroke-opacity="0.9" stroke-width="6" stroke-linecap="round" stroke-linejoin="round"/>
<path opacity="0.503384" d="M57.0688 189.573C58.1338 191.001 56.1638 194.271 56.1338 194.427" stroke="#000000" stroke-opacity="0.9" stroke-width="6" stroke-linecap="round" stroke-linejoin="round"/>
<path opacity="0.503384" d="M46.6312 189.384C46.3492 191.118 46.1332 192.894 45.8872 194.616" stroke="#000000" stroke-opacity="0.9" stroke-width="6" stroke-linecap="round" stroke-linejoin="round"/>
<path opacity="0.503384" d="M267.391 183.387C266.943 185.097 267.223 186.873 267.139 188.613" stroke="#000000" stroke-opacity="0.9" stroke-width="6" stroke-linecap="round" stroke-linejoin="round"/>
<path opacity="0.503384" d="M281.259 183C281.259 185.002 281.259 186.998 281.259 189" stroke="#000000" stroke-opacity="0.9" stroke-width="6" stroke-linecap="round" stroke-linejoin="round"/>
<path opacity="0.503384" d="M306.259 215C306.259 218.667 306.259 222.333 306.259 226" stroke="#000000" stroke-opacity="0.9" stroke-width="6" stroke-linecap="round" stroke-linejoin="round"/>
<path opacity="0.503384" d="M292.44 214C292.494 217.671 292.308 221.342 292.068 225" stroke="#000000" stroke-opacity="0.9" stroke-width="6" stroke-linecap="round" stroke-linejoin="round"/>
<path opacity="0.503384" d="M340.815 216C340.875 220.357 340.179 224.679 339.699 229" stroke="#000000" stroke-opacity="0.9" stroke-width="6" stroke-linecap="round" stroke-linejoin="round"/>
<path opacity="0.503384" d="M330.392 216C330.028 220.32 330.144 224.667 330.144 229" stroke="#000000" stroke-opacity="0.9" stroke-width="6" stroke-linecap="round" stroke-linejoin="round"/>
<path opacity="0.503384" d="M339.974 184C341.258 187.067 339.974 190.034 339.974 193" stroke="#000000" stroke-opacity="0.9" stroke-width="6" stroke-linecap="round" stroke-linejoin="round"/>
<path opacity="0.503384" d="M98.5093 217C97.4013 243.917 98.8373 211.021 98.0093 226.069" stroke="#000000" stroke-opacity="0.9" stroke-width="6" stroke-linecap="round" stroke-linejoin="round"/>
<path opacity="0.503384" d="M83.5072 218.012C83.4752 220.044 83.1752 221.996 83.0112 223.988" stroke="#000000" stroke-opacity="0.9" stroke-width="6" stroke-linecap="round" stroke-linejoin="round"/>
<path opacity="0.503384" d="M58.5072 219.26C58.5072 221.092 58.1712 222.908 58.0112 224.74" stroke="#000000" stroke-opacity="0.9" stroke-width="6" stroke-linecap="round" stroke-linejoin="round"/>
<path opacity="0.503384" d="M46.1327 219C46.0877 221.717 45.6797 224.385 45.3857 227" stroke="#000000" stroke-opacity="0.9" stroke-width="6" stroke-linecap="round" stroke-linejoin="round"/>
<path opacity="0.503384" d="M304.062 183.198C304.746 185.04 304.308 186.936 304.434 188.802" stroke="#000000" stroke-opacity="0.9" stroke-width="6" stroke-linecap="round" stroke-linejoin="round"/>
</svg>