<?xml version="1.0" encoding="utf-8"?><!-- Uploaded to: SVG Repo, www.svgrepo.com, Generator: SVG Repo Mixer Tools -->
<svg width="800px" height="800px" viewBox="0 0 400 400" fill="none" xmlns="http://www.w3.org/2000/svg">
<path d="M64.7972 222.719C66.2194 234.237 61.7684 257.128 64.4513 263.719" stroke="#000000" stroke-opacity="0.9" stroke-width="16" stroke-linecap="round" stroke-linejoin="round"/>
<path d="M56 222.719C80.4564 213.614 196.681 190.373 217.437 184.281" stroke="#000000" stroke-opacity="0.9" stroke-width="16" stroke-linecap="round" stroke-linejoin="round"/>
<path d="M164.337 261.156C164.11 210.767 166.77 160.363 166.77 109.969" stroke="#000000" stroke-opacity="0.9" stroke-width="16" stroke-linecap="round" stroke-linejoin="round"/>
<path d="M166.188 105.609C170.824 107.321 204.976 100.692 205.648 101.011C206.424 101.377 205.207 105.336 205.207 106.03C205.207 111.174 205.158 116.743 204.765 121.914C202.484 152.037 205.207 183.195 205.207 213.483C205.207 222.726 205.648 232.305 204.765 241.501C204.559 243.619 203.735 262.654 204.765 257.806" stroke="#000000" stroke-opacity="0.9" stroke-width="16" stroke-linecap="round" stroke-linejoin="round"/>
<path d="M162.344 108.687C203.214 122.36 247.642 127.981 289.536 140.391C300.82 143.73 312.321 147.312 323.781 149.687" stroke="#000000" stroke-opacity="0.9" stroke-width="16" stroke-linecap="round" stroke-linejoin="round"/>
<path d="M312.266 148.406C314.905 183.572 317.36 225.222 317.36 257.312" stroke="#000000" stroke-opacity="0.9" stroke-width="16" stroke-linecap="round" stroke-linejoin="round"/>
<path d="M307.125 201.197C300.048 200.569 290.947 201.153 284.043 202.191C249.35 207.394 261.948 193.072 261.948 230.223C261.948 233.425 259.914 269.05 262.378 263.037" stroke="#000000" stroke-opacity="0.9" stroke-width="16" stroke-linecap="round" stroke-linejoin="round"/>
<path d="M312.249 256.031C229.57 266.32 145.417 261.127 62.4058 261.127" stroke="#000000" stroke-opacity="0.9" stroke-width="16" stroke-linecap="round" stroke-linejoin="round"/>
<path d="M113.128 258.594C112.622 244.851 113.128 231.28 113.128 217.594" stroke="#000000" stroke-opacity="0.9" stroke-width="16" stroke-linecap="round" stroke-linejoin="round"/>
<path d="M92.2786 221.438C91.2523 232.028 91.6328 243 90.1914 253.469" stroke="#000000" stroke-opacity="0.9" stroke-width="16" stroke-linecap="round" stroke-linejoin="round"/>
<path d="M93.1553 278.515C88.544 279.196 83.6067 279.181 79.0615 279.673" stroke="#000000" stroke-opacity="0.9" stroke-width="16" stroke-linecap="round" stroke-linejoin="round"/>
<path d="M86.7495 297.42C81.8124 297.043 73.0801 297.212 71.3745 298.112" stroke="#000000" stroke-opacity="0.9" stroke-width="16" stroke-linecap="round" stroke-linejoin="round"/>
<path d="M266.652 144.575C255.243 144.329 243.833 147.653 232.227 147.653C231.975 147.653 225.637 147.151 225.414 147.653C224.585 149.519 225.731 172.234 226.436 172.63C227.635 173.306 272.919 170.946 273.808 169.939C273.895 169.845 272.447 149.621 272.447 146.884" stroke="#000000" stroke-opacity="0.9" stroke-width="16" stroke-linecap="round" stroke-linejoin="round"/>
<path d="M321.218 265C327.071 275.655 338.995 281.961 342.999 293.187" stroke="#000000" stroke-opacity="0.9" stroke-width="16" stroke-linecap="round" stroke-linejoin="round"/>
<path d="M264.844 268.844C266.426 276.936 269.125 300.269 269.669 298.181C269.832 297.557 269.869 296.891 269.969 296.251" stroke="#000000" stroke-opacity="0.9" stroke-width="16" stroke-linecap="round" stroke-linejoin="round"/>
</svg>