<?xml version="1.0" encoding="utf-8"?><!-- Uploaded to: SVG Repo, www.svgrepo.com, Generator: SVG Repo Mixer Tools -->
<svg width="800px" height="800px" viewBox="0 0 400 400" fill="none" xmlns="http://www.w3.org/2000/svg">
<path d="M136.057 93.4793C168.755 95.27 201.029 90.4766 233.881 90.4766" stroke="#000000" stroke-opacity="0.9" stroke-width="16" stroke-linecap="round" stroke-linejoin="round"/>
<path d="M147.398 105.647C171.783 102.887 198.744 100.338 223.957 101.839" stroke="#000000" stroke-opacity="0.9" stroke-width="16" stroke-linecap="round" stroke-linejoin="round"/>
<path d="M161.576 73.7881C177.677 72.8637 193.579 72.2881 209.779 72.2881" stroke="#000000" stroke-opacity="0.9" stroke-width="16" stroke-linecap="round" stroke-linejoin="round"/>
<path d="M175.753 58.3197C181.63 57.0267 187.895 56.5674 194.184 56.5674" stroke="#000000" stroke-opacity="0.9" stroke-width="16" stroke-linecap="round" stroke-linejoin="round"/>
<path d="M161.576 115.57C169.371 175.901 197.02 238.703 208.362 365.093" stroke="#000000" stroke-opacity="0.9" stroke-width="16" stroke-linecap="round" stroke-linejoin="round"/>
<path d="M208.362 102.812C191.349 142.741 177.171 263.016 167.247 353.752" stroke="#000000" stroke-opacity="0.9" stroke-width="16" stroke-linecap="round" stroke-linejoin="round"/>
<path d="M181.691 109.899C169.537 193.859 197.02 276.478 197.02 359.422" stroke="#000000" stroke-opacity="0.9" stroke-width="16" stroke-linecap="round" stroke-linejoin="round"/>
<path opacity="0.494861" d="M253.039 363.877C250.571 343.776 251.264 263.017 253.039 263.017C261.131 263.017 312.276 309.379 314.555 314.459C318.615 323.497 317.528 338.908 317.528 365.094" stroke="#000000" stroke-opacity="0.9" stroke-width="16" stroke-linecap="round" stroke-linejoin="round"/>
<path opacity="0.494861" d="M72.2583 347.892C79.109 343.287 92.6169 334.606 101.513 339.719C104.148 341.232 105.821 349.344 107.613 349.057C117.513 347.478 125.41 341.148 136.462 345.555C139.595 346.807 142.663 348.237 144.589 351.002C146.022 353.058 146.519 359.542 148.652 359.953C166.348 363.34 176.645 356.357 193.355 370.067C196.497 372.648 199.164 373.865 199.855 377.853" stroke="#000000" stroke-opacity="0.9" stroke-width="16" stroke-linecap="round" stroke-linejoin="round"/>
<path opacity="0.494861" d="M48 234.676C49.7021 234.572 63.4069 234.883 89.1145 235.608C89.1145 284.286 89.1145 311.851 89.1145 318.303" stroke="#000000" stroke-opacity="0.9" stroke-width="16" stroke-linecap="round" stroke-linejoin="round"/>
<path opacity="0.494861" d="M119.982 324.729C118.16 297.964 119.982 276.028 119.982 249.203C119.982 244.201 117.615 230.544 120.399 226.397C123.182 222.251 164.819 224.738 170.082 224.738" stroke="#000000" stroke-opacity="0.9" stroke-width="16" stroke-linecap="round" stroke-linejoin="round"/>
<path opacity="0.494861" d="M235.299 283.768C233.098 283.315 221.21 281.012 219.736 286.167C219.367 287.45 222.253 345.319 222.253 353.751" stroke="#000000" stroke-opacity="0.9" stroke-width="16" stroke-linecap="round" stroke-linejoin="round"/>
<path opacity="0.494861" d="M233.881 263.016C233.706 255.339 234.382 152.112 238.549 151.364C240.475 151.011 253.096 151.011 276.413 151.364C274.559 220.532 274.559 256.804 276.413 260.181" stroke="#000000" stroke-opacity="0.9" stroke-width="16" stroke-linecap="round" stroke-linejoin="round"/>
<path opacity="0.494861" d="M302.97 280.738C304.44 272.82 299.684 240.358 303.363 235.269C304.834 233.229 346.808 231.357 350.494 233.65C354.5 240.5 352.049 338.501 352.049 363.183" stroke="#000000" stroke-opacity="0.9" stroke-width="16" stroke-linecap="round" stroke-linejoin="round"/>
<path d="M185.58 47.5194C186.11 39.1399 184.738 30.1734 185.929 22" stroke="#000000" stroke-opacity="0.9" stroke-width="16" stroke-linecap="round" stroke-linejoin="round"/>
</svg>