<?xml version="1.0" encoding="utf-8"?><!-- Uploaded to: SVG Repo, www.svgrepo.com, Generator: SVG Repo Mixer Tools -->
<svg width="800px" height="800px" viewBox="0 0 400 400" fill="none" xmlns="http://www.w3.org/2000/svg">
<path d="M182.949 61.8813C185.829 131.436 184.841 203.87 157.606 269.231C150.221 286.957 107.253 350.776 106 359.543" stroke="#000000" stroke-opacity="0.9" stroke-width="16" stroke-linecap="round" stroke-linejoin="round"/>
<path d="M205.989 63.7251C199.001 141.778 225.341 316.383 293.537 361.847" stroke="#000000" stroke-opacity="0.9" stroke-width="16" stroke-linecap="round" stroke-linejoin="round"/>
<path d="M153.922 363.23C149.827 273.743 249.402 314.038 235.479 362.769" stroke="#000000" stroke-opacity="0.9" stroke-width="16" stroke-linecap="round" stroke-linejoin="round"/>
<path d="M137.278 209.217C138.581 216.403 145.916 240.062 146.088 240.663" stroke="#000000" stroke-opacity="0.9" stroke-width="16" stroke-linecap="round" stroke-linejoin="round"/>
<path d="M250.683 212.094C247.217 219.362 246.996 238.728 243.771 240.662" stroke="#000000" stroke-opacity="0.9" stroke-width="16" stroke-linecap="round" stroke-linejoin="round"/>
<path d="M157.145 241.124C185.409 241.036 213.366 240.664 241.467 240.664" stroke="#000000" stroke-opacity="0.9" stroke-width="16" stroke-linecap="round" stroke-linejoin="round"/>
<path d="M161.292 179.379C167.938 179.605 174.374 179.84 181.106 179.84C219.326 179.84 225.878 178.816 229.488 178.577" stroke="#000000" stroke-opacity="0.9" stroke-width="16" stroke-linecap="round" stroke-linejoin="round"/>
<path d="M170.508 140.213C189.378 142.145 208.326 142.978 227.184 142.978" stroke="#000000" stroke-opacity="0.9" stroke-width="16" stroke-linecap="round" stroke-linejoin="round"/>
<path d="M164.978 104.273C179.72 103.664 209.943 106.562 216.124 107.038" stroke="#000000" stroke-opacity="0.9" stroke-width="16" stroke-linecap="round" stroke-linejoin="round"/>
<path d="M187.557 60.9603C190.402 60.067 193.352 59.4873 196.311 59.1172" stroke="#000000" stroke-opacity="0.9" stroke-width="16" stroke-linecap="round" stroke-linejoin="round"/>
<path d="M196.772 59.1174C197.931 51.7615 196.311 44.3583 196.311 37" stroke="#000000" stroke-opacity="0.9" stroke-width="16" stroke-linecap="round" stroke-linejoin="round"/>
<path d="M161.293 177.537C161.173 175.332 161.596 171.828 161.293 169.704" stroke="#000000" stroke-opacity="0.9" stroke-width="16" stroke-linecap="round" stroke-linejoin="round"/>
<path d="M229.493 177.537C229.948 175.226 229.819 171.695 229.487 169.704" stroke="#000000" stroke-opacity="0.9" stroke-width="16" stroke-linecap="round" stroke-linejoin="round"/>
<path d="M169.022 140.213C168.433 138.529 169.125 132.729 169.125 130.998" stroke="#000000" stroke-opacity="0.9" stroke-width="16" stroke-linecap="round" stroke-linejoin="round"/>
<path d="M228.566 140.213C229.629 137.52 229.488 135.565 229.488 132.842" stroke="#000000" stroke-opacity="0.9" stroke-width="16" stroke-linecap="round" stroke-linejoin="round"/>
<path d="M164.978 104.275C165.34 99.5646 164.978 87.1885 164.978 82.4976" stroke="#000000" stroke-opacity="0.9" stroke-width="16" stroke-linecap="round" stroke-linejoin="round"/>
<path d="M216.125 104.275C217.128 97.9162 218.767 89.7502 218.581 82.4976" stroke="#000000" stroke-opacity="0.9" stroke-width="16" stroke-linecap="round" stroke-linejoin="round"/>
<path d="M166.698 82.4956C177.112 79.5205 208.355 84.1109 214.743 79.8516" stroke="#000000" stroke-opacity="0.9" stroke-width="16" stroke-linecap="round" stroke-linejoin="round"/>
<path d="M139.177 208.824C165.44 203.097 216.126 213.477 247.44 207.01" stroke="#000000" stroke-opacity="0.9" stroke-width="16" stroke-linecap="round" stroke-linejoin="round"/>
<path d="M151.616 362.307C155.593 359.325 129.497 333.835 125.813 328.67C120.102 320.666 156.684 334.606 157.145 321.759C157.292 317.672 144.364 285.568 148.391 284.897C164.379 282.232 176.676 308.396 190.782 308.396C225.009 291.262 233.268 281.719 235.016 282.593C238.869 284.52 227.681 310.838 226.262 314.386C223.119 322.243 256.748 313.872 262.663 321.759C249.548 350.292 245.965 353.869 242.389 358.16" stroke="#000000" stroke-opacity="0.5" stroke-width="16" stroke-linecap="round" stroke-linejoin="round"/>
<path d="M194.007 245.732C194.323 265.231 195.85 284.741 195.85 304.25" stroke="#000000" stroke-opacity="0.5" stroke-width="16" stroke-linecap="round" stroke-linejoin="round"/>
<path d="M166.821 246.191C191.545 279.819 199.642 265.101 156.685 281.211" stroke="#000000" stroke-opacity="0.5" stroke-width="16" stroke-linecap="round" stroke-linejoin="round"/>
<path d="M223.497 248.497C186.396 291.784 185.307 264.95 229.948 279.83" stroke="#000000" stroke-opacity="0.5" stroke-width="16" stroke-linecap="round" stroke-linejoin="round"/>
<path d="M194.776 225.333C195.311 222.783 195.274 220.203 195.274 217.617" stroke="#000000" stroke-opacity="0.9" stroke-width="16" stroke-linecap="round" stroke-linejoin="round"/>
</svg>