<?xml version="1.0" encoding="utf-8"?><!-- Uploaded to: SVG Repo, www.svgrepo.com, Generator: SVG Repo Mixer Tools -->
<svg width="800px" height="800px" viewBox="0 0 400 400" fill="none" xmlns="http://www.w3.org/2000/svg">
<path d="M142.037 182.2C142.135 202.036 143.745 222.101 143.745 241.845" stroke="#000000" stroke-opacity="0.9" stroke-width="16" stroke-linecap="round" stroke-linejoin="round"/>
<path d="M178.808 182.2C179.241 201.14 180.174 220.474 180.174 239.134" stroke="#000000" stroke-opacity="0.9" stroke-width="16" stroke-linecap="round" stroke-linejoin="round"/>
<path d="M214.315 180.845C213.896 198.381 211.948 225.419 214.827 239.134" stroke="#000000" stroke-opacity="0.9" stroke-width="16" stroke-linecap="round" stroke-linejoin="round"/>
<path d="M249.816 182.2C249.328 202.532 248.788 222.839 248.788 243.2" stroke="#000000" stroke-opacity="0.9" stroke-width="16" stroke-linecap="round" stroke-linejoin="round"/>
<path d="M137.467 171.382C174.536 176.703 213.624 176.154 251.334 173.09" stroke="#000000" stroke-opacity="0.9" stroke-width="12" stroke-linecap="round" stroke-linejoin="round"/>
<path d="M41.2241 181.834C72.2788 180.122 103.631 178.5 134.757 178.5" stroke="#000000" stroke-opacity="0.9" stroke-width="16" stroke-linecap="round" stroke-linejoin="round"/>
<path d="M256.756 178.044C288.897 178.905 327.372 173.161 358.423 176.447" stroke="#000000" stroke-opacity="0.9" stroke-width="16" stroke-linecap="round" stroke-linejoin="round"/>
<path d="M38.5554 182.2C38.4741 199.343 36.8948 231.616 40.2634 241.845" stroke="#000000" stroke-opacity="0.9" stroke-width="16" stroke-linecap="round" stroke-linejoin="round"/>
<path d="M357.924 176.778C357.789 198.885 357.897 221.135 356.216 243.2" stroke="#000000" stroke-opacity="0.9" stroke-width="16" stroke-linecap="round" stroke-linejoin="round"/>
<path opacity="0.503384" d="M161.449 231C161.307 232.379 161.103 233.723 160.937 235.067" stroke="#000000" stroke-opacity="0.9" stroke-width="6" stroke-linecap="round" stroke-linejoin="round"/>
<path d="M137.467 168.644C221.697 127.916 179.49 127.916 251.334 168.644" stroke="#000000" stroke-opacity="0.9" stroke-width="16" stroke-linecap="round" stroke-linejoin="round"/>
<path d="M140.18 164.578C140.571 159.714 140.18 156.412 140.18 154.411C140.18 152.378 152.456 152.956 161.869 152.956" stroke="#000000" stroke-opacity="0.9" stroke-width="16" stroke-linecap="round" stroke-linejoin="round"/>
<path d="M231 153.091C246.479 152.111 251.333 149.968 251.333 164.578" stroke="#000000" stroke-opacity="0.9" stroke-width="16" stroke-linecap="round" stroke-linejoin="round"/>
<path opacity="0.503384" d="M30.3789 266.245C62.2345 225.373 67.0445 255.499 75.2674 257.669C76.546 258.001 91.7546 241.61 102.591 244.971C105.638 245.917 107.257 251.35 109.098 251.834C111.789 252.541 121.723 242.345 128.616 243.258C133.457 243.894 137.618 256.804 140.324 252.519C143.84 246.961 159.647 244.83 166.998 245.314C169.803 245.499 181.238 252.198 181.31 252.177C186.78 250.735 190.033 245.053 196.926 244.286C199.854 243.96 206.142 246.704 215.79 252.519C306.34 243.974 357.951 242.488 370.623 248.06" stroke="#000000" stroke-opacity="0.9" stroke-width="6" stroke-linecap="round" stroke-linejoin="round"/>
<path opacity="0.503384" d="M301.491 280.564C256.758 264.889 174.115 269.617 141.847 271.477C121.327 272.661 97.1667 283.582 98.1891 284.515C113.391 298.343 246.767 288.367 272.492 290.446" stroke="#000000" stroke-opacity="0.9" stroke-width="6" stroke-linecap="round" stroke-linejoin="round"/>
<path opacity="0.503384" d="M124.753 202.534C125.062 200.273 125.442 198.017 125.784 195.756" stroke="#000000" stroke-opacity="0.9" stroke-width="6" stroke-linecap="round" stroke-linejoin="round"/>
<path opacity="0.503384" d="M100.348 203.889C100.722 201.624 101.096 199.371 101.381 197.111" stroke="#000000" stroke-opacity="0.9" stroke-width="6" stroke-linecap="round" stroke-linejoin="round"/>
<path opacity="0.503384" d="M77.4839 207.956C77.8363 205.208 77.9394 202.376 78.1671 199.822" stroke="#000000" stroke-opacity="0.9" stroke-width="6" stroke-linecap="round" stroke-linejoin="round"/>
<path opacity="0.503384" d="M56.3828 207.956C57.0267 204.855 56.986 201.632 57.2368 198.467" stroke="#000000" stroke-opacity="0.9" stroke-width="6" stroke-linecap="round" stroke-linejoin="round"/>
<path opacity="0.503384" d="M57.2734 235.067C58.4216 232.78 58.6114 230.58 59.0668 228.289" stroke="#000000" stroke-opacity="0.9" stroke-width="6" stroke-linecap="round" stroke-linejoin="round"/>
<path opacity="0.503384" d="M78.2471 241.844C78.3216 238.141 78.567 234.581 78.7608 231" stroke="#000000" stroke-opacity="0.9" stroke-width="6" stroke-linecap="round" stroke-linejoin="round"/>
<path opacity="0.503384" d="M100.583 233.711C101.599 232.857 100.924 231.904 101.095 231" stroke="#000000" stroke-opacity="0.9" stroke-width="6" stroke-linecap="round" stroke-linejoin="round"/>
<path opacity="0.503384" d="M127.912 237.778C127.798 234.6 127.964 231.387 128.083 228.289" stroke="#000000" stroke-opacity="0.9" stroke-width="6" stroke-linecap="round" stroke-linejoin="round"/>
<path opacity="0.503384" d="M163.328 202.368C162.474 201.343 160.339 201.652 159.051 201.343" stroke="#000000" stroke-opacity="0.9" stroke-width="6" stroke-linecap="round" stroke-linejoin="round"/>
<path opacity="0.503384" d="M198.786 200.72C197.295 199.974 195.655 200.435 194.083 200.293" stroke="#000000" stroke-opacity="0.9" stroke-width="6" stroke-linecap="round" stroke-linejoin="round"/>
<path opacity="0.503384" d="M230.247 198.866C229.561 196.764 229.292 199.882 229.048 200.147" stroke="#000000" stroke-opacity="0.9" stroke-width="6" stroke-linecap="round" stroke-linejoin="round"/>
<path opacity="0.503384" d="M231.538 240.489C230.847 237.619 231.88 235.039 232.051 232.355" stroke="#000000" stroke-opacity="0.9" stroke-width="6" stroke-linecap="round" stroke-linejoin="round"/>
<path d="M183.557 224.843C191.217 224.341 199.116 225.575 206.602 224.843" stroke="#000000" stroke-opacity="0.9" stroke-width="4" stroke-linecap="round" stroke-linejoin="round"/>
<path opacity="0.503384" d="M265.907 205.244C266.406 202.543 266.384 199.822 266.59 197.111" stroke="#000000" stroke-opacity="0.9" stroke-width="6" stroke-linecap="round" stroke-linejoin="round"/>
<path opacity="0.503384" d="M289.205 203.889C289.211 201.752 289.37 195.982 289.376 195.756" stroke="#000000" stroke-opacity="0.9" stroke-width="6" stroke-linecap="round" stroke-linejoin="round"/>
<path opacity="0.503384" d="M311.657 203.889C311.657 201.846 311.657 196.201 311.657 195.756" stroke="#000000" stroke-opacity="0.9" stroke-width="6" stroke-linecap="round" stroke-linejoin="round"/>
<path opacity="0.503384" d="M336.705 203.889C336.388 201.256 336.825 198.237 336.876 195.756" stroke="#000000" stroke-opacity="0.9" stroke-width="6" stroke-linecap="round" stroke-linejoin="round"/>
<path opacity="0.503384" d="M262.729 239.133C262.986 235.985 262.986 232.831 262.986 229.645" stroke="#000000" stroke-opacity="0.9" stroke-width="6" stroke-linecap="round" stroke-linejoin="round"/>
<path opacity="0.503384" d="M289.345 236.422C289.524 234.585 289.266 232.774 289.174 231" stroke="#000000" stroke-opacity="0.9" stroke-width="6" stroke-linecap="round" stroke-linejoin="round"/>
<path opacity="0.503384" d="M314.367 236.422C314.367 234.162 314.367 231.901 314.367 229.645" stroke="#000000" stroke-opacity="0.9" stroke-width="6" stroke-linecap="round" stroke-linejoin="round"/>
<path opacity="0.503384" d="M339.391 235.067C339.21 231.92 339.478 232.668 339.562 229.645" stroke="#000000" stroke-opacity="0.9" stroke-width="6" stroke-linecap="round" stroke-linejoin="round"/>
<path opacity="0.503883" d="M197.114 110.701C197.415 109.891 197.444 113.191 197.473 113.613C197.737 117.533 198.07 121.456 198.07 125.387C198.07 126.567 198.079 127.759 198.19 128.932C198.241 129.479 198.309 131.128 198.309 130.578C198.309 129.771 198.261 130.15 198.429 129.438" stroke="#000000" stroke-opacity="0.9" stroke-width="4" stroke-linecap="round" stroke-linejoin="round"/>
<path opacity="0.503883" d="M197.553 111.566C201.934 105.647 205.433 111.76 209.314 112.206C212.83 112.61 215.294 110.614 218.475 109.518" stroke="#000000" stroke-opacity="0.9" stroke-width="4" stroke-linecap="round" stroke-linejoin="round"/>
<path opacity="0.503883" d="M198.21 122.599C206.834 116.257 207.065 129.326 216.942 121.705" stroke="#000000" stroke-opacity="0.9" stroke-width="4" stroke-linecap="round" stroke-linejoin="round"/>
<path opacity="0.503883" d="M218.533 109.562C218.272 113.278 218.533 117.05 218.533 120.8" stroke="#000000" stroke-opacity="0.9" stroke-width="4" stroke-linecap="round" stroke-linejoin="round"/>
</svg>