<?xml version="1.0" encoding="utf-8"?><!-- Uploaded to: SVG Repo, www.svgrepo.com, Generator: SVG Repo Mixer Tools -->
<svg width="800px" height="800px" viewBox="0 0 400 400" fill="none" xmlns="http://www.w3.org/2000/svg">
<path d="M189.381 192.363C179.812 186.712 174.75 158.739 194.24 166.289C197.278 167.467 198.537 171.725 201.14 171.725C201.796 171.725 217.916 155.687 221.557 173.291C221.848 174.697 221.98 176.921 221.557 178.348C218.311 189.357 208.056 188.101 201.796 194.161C198.057 197.784 201.796 216.159 201.796 229.785" stroke="#000000" stroke-opacity="0.9" stroke-width="16" stroke-linecap="round" stroke-linejoin="round"/>
<path d="M140 215.01C175.591 240.993 222.933 241.801 260.467 219.846" stroke="#000000" stroke-opacity="0.9" stroke-width="16" stroke-linecap="round" stroke-linejoin="round"/>
<path d="M172.099 234.331C175.41 272.543 167.19 284.336 188.397 284.173C190.314 284.158 195.415 284.173 197.01 284.173C197.093 284.211 199.431 235.48 202.225 235.48C205.113 235.48 204.703 284.23 205.813 284.173C232.265 282.805 231.488 287.911 232.056 271.159C232.265 264.977 230.906 242.919 232.031 234.331" stroke="#000000" stroke-opacity="0.9" stroke-width="16" stroke-linecap="round" stroke-linejoin="round"/>
<path d="M169.353 132.047C169.446 127.103 169.742 122.224 169.742 117.273" stroke="#000000" stroke-opacity="0.9" stroke-width="16" stroke-linecap="round" stroke-linejoin="round"/>
<path d="M231.245 133.184C230.847 127.036 231.824 121.077 231.824 115" stroke="#000000" stroke-opacity="0.9" stroke-width="16" stroke-linecap="round" stroke-linejoin="round"/>
</svg>