<?xml version="1.0" encoding="utf-8"?><!-- Uploaded to: SVG Repo, www.svgrepo.com, Generator: SVG Repo Mixer Tools -->
<svg width="800px" height="800px" viewBox="0 0 400 400" fill="none" xmlns="http://www.w3.org/2000/svg">
<path d="M289.118 210.413C311.209 305.493 349.358 150.606 333.063 134.603C323.108 124.833 296.249 130.172 283.471 126.592" stroke="#000000" stroke-opacity="0.9" stroke-width="16" stroke-linecap="round" stroke-linejoin="round"/>
<path d="M280.794 165.034C272.297 68.3489 238.613 105.222 153.458 122.469C137.404 125.721 91.8558 128.778 80.5192 143.125C78.2931 145.945 84.8248 163.016 85.4661 166.912C90.5778 197.987 110.191 287.733 121.317 299" stroke="#000000" stroke-opacity="0.9" stroke-width="16" stroke-linecap="round" stroke-linejoin="round"/>
<path d="M89.4274 216.837C67.9331 240.648 68.0156 271.09 68.0156 299" stroke="#000000" stroke-opacity="0.9" stroke-width="16" stroke-linecap="round" stroke-linejoin="round"/>
<path d="M69.3529 158.918C68.0633 164.509 66.3848 170.042 64 175.082" stroke="#000000" stroke-opacity="0.9" stroke-width="16" stroke-linecap="round" stroke-linejoin="round"/>
<path d="M96.1172 223.157C101.894 229.632 126.035 229.632 168.541 223.157C189.782 255.326 206.135 272.383 217.6 274.327C246.927 279.299 281.482 239.77 291.5 216.837" stroke="#000000" stroke-opacity="0.9" stroke-width="16" stroke-linecap="round" stroke-linejoin="round"/>
<path d="M220.213 285.531C220.347 289.194 220.708 292.713 220.936 296.306" stroke="#000000" stroke-opacity="0.9" stroke-width="16" stroke-linecap="round" stroke-linejoin="round"/>
<path d="M310.234 115.816C305.048 124.4 301.264 133.152 302.411 142.755" stroke="#000000" stroke-opacity="0.9" stroke-width="16" stroke-linecap="round" stroke-linejoin="round"/>
</svg>