<?xml version="1.0" encoding="utf-8"?><!-- Uploaded to: SVG Repo, www.svgrepo.com, Generator: SVG Repo Mixer Tools -->
<svg width="800px" height="800px" viewBox="0 0 400 400" fill="none" xmlns="http://www.w3.org/2000/svg">
<path fill-rule="evenodd" clip-rule="evenodd" d="M300.736 121.416C289.046 117.088 272.523 107.949 251.165 94C252.179 142.139 254.939 169.927 259.445 177.365C266.205 188.522 294.29 176.763 334.697 183.889C342.381 159.703 318.27 127.907 300.736 121.416Z" stroke="#000000" stroke-opacity="0.9" stroke-width="16" stroke-linecap="round" stroke-linejoin="round"/>
<path d="M302.145 131.436C286.036 123.785 267.885 143.36 281.508 158.32C285.308 162.491 290.316 164.868 296.2 163.361C305.435 160.994 316.565 149.408 306.547 138.036" stroke="#000000" stroke-opacity="0.9" stroke-width="4" stroke-linecap="round" stroke-linejoin="round"/>
<path d="M251.166 122.625C202.16 80.9014 134.883 88.1889 92.7631 122.625C15.806 185.539 109.344 356.035 185.262 291.616C208.146 272.199 208.146 257.43 188.511 231.747C170.575 208.286 127.878 210.24 113.295 238.859C98.6232 267.648 165.197 302.897 176.015 260.448C180.645 242.286 144.638 220.465 146.537 248.377" stroke="#000000" stroke-opacity="0.9" stroke-width="16" stroke-linecap="round" stroke-linejoin="round"/>
<path d="M236.621 172.943C235.377 177.525 224.012 183.334 202.527 190.369C203.649 196.317 220.018 216.937 220.71 222.949" stroke="#000000" stroke-opacity="0.9" stroke-width="16" stroke-linecap="round" stroke-linejoin="round"/>
<path d="M293.715 149.98C293.715 147.652 293.715 145.336 293.715 143.019" stroke="#000000" stroke-opacity="0.9" stroke-width="12" stroke-linecap="round" stroke-linejoin="round"/>
<path d="M236.621 172.999C136.074 170.968 82.2808 191.758 75.2405 235.37" stroke="#000000" stroke-opacity="0.9" stroke-width="16" stroke-linecap="round" stroke-linejoin="round"/>
</svg>