<?xml version="1.0" encoding="utf-8"?><!-- Uploaded to: SVG Repo, www.svgrepo.com, Generator: SVG Repo Mixer Tools -->
<svg width="800px" height="800px" viewBox="0 0 400 400" fill="none" xmlns="http://www.w3.org/2000/svg">
<path d="M140.549 141.067C129.958 76.0581 229.858 44.0744 251.169 111.348C254.504 121.878 252.345 136.206 252.345 147.258" stroke="#000000" stroke-opacity="0.9" stroke-width="16" stroke-linecap="round" stroke-linejoin="round"/>
<path d="M116.674 159.415C98.6189 161.987 72.756 135.971 81.9007 167.831C91.08 199.812 122.95 199.295 123.713 200.829C129.494 212.419 116.674 239.724 141.856 270.008C188.99 326.69 281.591 288.502 267.575 194.133" stroke="#000000" stroke-opacity="0.9" stroke-width="16" stroke-linecap="round" stroke-linejoin="round"/>
<path d="M277.502 158.405C278.411 157.917 315.448 120.854 319.643 144.075C323.838 167.296 289.954 218.042 270.557 195.404" stroke="#000000" stroke-opacity="0.9" stroke-width="16" stroke-linecap="round" stroke-linejoin="round"/>
<path d="M173.086 300.143C174.379 307.23 172.412 312.954 171.426 319.253" stroke="#000000" stroke-opacity="0.9" stroke-width="16" stroke-linecap="round" stroke-linejoin="round"/>
<path d="M203.576 309.698C203.576 312.883 203.576 316.068 203.576 319.254L218.587 326" stroke="#000000" stroke-opacity="0.9" stroke-width="16" stroke-linecap="round" stroke-linejoin="round"/>
<path d="M168.482 319.982C142.759 326.098 174.483 318.2 157.314 323.303" stroke="#000000" stroke-opacity="0.9" stroke-width="16" stroke-linecap="round" stroke-linejoin="round"/>
<path d="M197.994 155.221C197.994 156.379 197.994 158.788 197.994 159.424" stroke="#000000" stroke-opacity="0.9" stroke-width="16" stroke-linecap="round" stroke-linejoin="round"/>
<path d="M178.85 123.369C178.85 125.3 178.85 129.315 178.85 130.374" stroke="#000000" stroke-opacity="0.9" stroke-width="16" stroke-linecap="round" stroke-linejoin="round"/>
<path d="M217.137 123.369C217.137 125.3 217.137 129.315 217.137 130.374" stroke="#000000" stroke-opacity="0.9" stroke-width="16" stroke-linecap="round" stroke-linejoin="round"/>
</svg>