<?xml version="1.0" encoding="utf-8"?><!-- Uploaded to: SVG Repo, www.svgrepo.com, Generator: SVG Repo Mixer Tools -->
<svg width="800px" height="800px" viewBox="0 0 400 400" fill="none" xmlns="http://www.w3.org/2000/svg">
<path d="M93.643 269.64C81.4136 162.716 186.717 69.9478 283.708 137.62C317.182 160.976 302.346 185.805 307.1 204.593C308.293 209.31 327.187 225.901 332 229.928" stroke="#000000" stroke-opacity="0.9" stroke-width="16" stroke-linecap="round" stroke-linejoin="round"/>
<path d="M200.5 111.262C169.655 84.6084 127.877 69.9875 158.726 121.163" stroke="#000000" stroke-opacity="0.9" stroke-width="16" stroke-linecap="round" stroke-linejoin="round"/>
<path d="M324.11 239.887C279.053 186.506 136.648 139.938 128.594 242.533C128.06 249.332 132.408 313 145.21 313C146.721 313 126.138 298.401 120.779 296.824C101.267 291.085 84.7265 294.908 69 305.19" stroke="#000000" stroke-opacity="0.9" stroke-width="16" stroke-linecap="round" stroke-linejoin="round"/>
<path d="M253.1 200C241.194 213.144 226.804 224.425 208.39 222.009" stroke="#000000" stroke-opacity="0.9" stroke-width="16" stroke-linecap="round" stroke-linejoin="round"/>
</svg>