<?xml version="1.0" encoding="utf-8"?><!-- Uploaded to: SVG Repo, www.svgrepo.com, Generator: SVG Repo Mixer Tools -->
<svg width="800px" height="800px" viewBox="0 0 400 400" fill="none" xmlns="http://www.w3.org/2000/svg">
<path opacity="0.503384" d="M200.308 128.074C128.586 121.729 80.968 130.021 57.4552 152.95C22.186 187.344 65.9911 188.004 78.3806 187.344C90.7701 186.685 186.383 160.532 190.687 156.741C194.991 152.95 112.921 185.499 121.417 197.057C129.912 208.615 172.54 187.623 184.626 187.344" stroke="#000000" stroke-opacity="0.9" stroke-width="14" stroke-linecap="round" stroke-linejoin="round"/>
<path opacity="0.503384" d="M218.459 128.446C258.191 112.204 288.363 106.282 308.975 110.677C339.893 117.271 357 126.258 357 134.438C357 142.619 277.96 158.104 248.21 153.323C218.459 148.541 330.219 170.608 308.975 187.716C287.73 204.825 236.421 180.046 236.421 173.367" stroke="#000000" stroke-opacity="0.9" stroke-width="14" stroke-linecap="round" stroke-linejoin="round"/>
<path d="M218.452 109C202.397 145.43 210.767 276.265 213.329 292" stroke="#000000" stroke-opacity="0.9" stroke-width="16" stroke-linecap="round" stroke-linejoin="round"/>
</svg>