<?xml version="1.0" encoding="utf-8"?><!-- Uploaded to: SVG Repo, www.svgrepo.com, Generator: SVG Repo Mixer Tools -->
<svg width="800px" height="800px" viewBox="0 0 400 400" fill="none" xmlns="http://www.w3.org/2000/svg">
<path d="M320.234 161.298C323.299 159.405 332.221 156.617 347 152.935C327.507 144.005 317.76 138.408 317.76 136.144C319.134 119.22 303.967 116.787 290.499 118.436C260.718 122.083 266.327 160.201 272.733 176.177C278.222 208.453 279.067 252.421 256.617 252.421C255.495 252.421 166.457 137.181 118.67 245.927C115.691 252.704 107.694 274.881 111.444 282.462C112.045 283.683 212.783 280.838 255.012 280.838C258.847 280.838 299.068 284.301 299.972 282.462C301.781 278.803 298.585 208.998 306.209 183.928" stroke="#000000" stroke-opacity="0.9" stroke-width="16" stroke-linecap="round" stroke-linejoin="round"/>
<path d="M110.462 275.794C40.7545 178.483 33.6995 283 93.5101 283" stroke="#000000" stroke-opacity="0.9" stroke-width="16" stroke-linecap="round" stroke-linejoin="round"/>
</svg>