<?xml version="1.0" encoding="utf-8"?><!-- Uploaded to: SVG Repo, www.svgrepo.com, Generator: SVG Repo Mixer Tools -->
<svg width="800px" height="800px" viewBox="0 0 400 400" fill="none" xmlns="http://www.w3.org/2000/svg">
<path d="M80.8622 302C80.2369 264.095 63.3154 116.008 74.3592 108.923C90.8359 98.3503 204.185 100.993 230.239 98.9643C256.293 96.9361 270.622 97.9606 275.383 103.442C280.145 108.923 275.383 127.777 275.383 130.533" stroke="#000000" stroke-opacity="0.9" stroke-width="16" stroke-linecap="round" stroke-linejoin="round"/>
<path d="M173 192.501C204.29 168.016 341.466 102.881 348.93 185.272C350.817 206.093 313.808 261.391 307.779 249.288C301.664 237.013 314.199 207.975 305.722 196.63C302.431 192.227 179.175 193.581 179.175 196.113C179.175 196.975 192.905 200.766 194.092 201.278C203.04 205.125 261.481 242.23 264.053 240.511C277.538 231.488 286.129 213.6 300.576 204.374" stroke="#000000" stroke-opacity="0.9" stroke-width="16" stroke-linecap="round" stroke-linejoin="round"/>
<path d="M294 142.108C260.147 138.984 239.631 137.23 232.451 136.849C221.681 136.277 206.167 136.849 195 136.849" stroke="#000000" stroke-opacity="0.9" stroke-width="16" stroke-linecap="round" stroke-linejoin="round"/>
<path d="M262.855 244.108C264.494 263.27 264.643 282.658 264.643 302" stroke="#000000" stroke-opacity="0.9" stroke-width="16" stroke-linecap="round" stroke-linejoin="round"/>
<path d="M64.375 144.534C60.0257 144.449 56.1318 144.056 52 143.817" stroke="#000000" stroke-opacity="0.9" stroke-width="16" stroke-linecap="round" stroke-linejoin="round"/>
<path d="M69.875 171.743C63.4316 171.431 57.8937 172.559 52 173.176" stroke="#000000" stroke-opacity="0.9" stroke-width="16" stroke-linecap="round" stroke-linejoin="round"/>
<path d="M71.25 197.366C64.9683 197.948 59.2201 199.045 53.375 199.878" stroke="#000000" stroke-opacity="0.9" stroke-width="16" stroke-linecap="round" stroke-linejoin="round"/>
<path fill-rule="evenodd" clip-rule="evenodd" d="M240.965 150.378C240.965 146.932 241.399 144.724 240.965 143.486V150.378Z" stroke="#000000" stroke-opacity="0.9" stroke-width="16" stroke-linecap="round" stroke-linejoin="round"/>
</svg>