<?xml version="1.0" encoding="utf-8"?><!-- Uploaded to: SVG Repo, www.svgrepo.com, Generator: SVG Repo Mixer Tools -->
<svg width="800px" height="800px" viewBox="0 0 400 400" fill="none" xmlns="http://www.w3.org/2000/svg">
<path d="M250.995 72.6349L301 67.8425C274.609 66.8148 236.202 35.0781 208.199 59.3483C202.015 64.7082 200.873 72.8764 200.998 81.1896C201.399 107.78 245.709 111.211 220.598 136.601" stroke="#000000" stroke-opacity="0.9" stroke-width="16" stroke-linecap="round" stroke-linejoin="round"/>
<path d="M97.5694 255.932C105.188 217.647 156.035 93.8131 202.131 121.198C210.704 126.291 213.452 132.702 216.995 138.321C243.405 180.206 198.903 240.383 148.299 248.223" stroke="#000000" stroke-opacity="0.9" stroke-width="16" stroke-linecap="round" stroke-linejoin="round"/>
<path d="M164.067 245.703C158.496 280.944 168.404 316.975 166.693 352.533" stroke="#000000" stroke-opacity="0.9" stroke-width="16" stroke-linecap="round" stroke-linejoin="round"/>
<path d="M166.895 353.669C171.777 354.837 182.863 358.401 187.352 360.488" stroke="#000000" stroke-opacity="0.9" stroke-width="16" stroke-linecap="round" stroke-linejoin="round"/>
<path d="M164.621 354.806C163.038 355.326 161.543 356.198 160.075 357.079" stroke="#000000" stroke-opacity="0.9" stroke-width="16" stroke-linecap="round" stroke-linejoin="round"/>
<path d="M234.598 59.7798C234.883 50.5261 234.465 56.2994 234.339 52.9609" stroke="#000000" stroke-opacity="0.9" stroke-width="16" stroke-linecap="round" stroke-linejoin="round"/>
<path d="M223.719 49.0919C210.695 45.2927 197.108 40 182.805 40" stroke="#000000" stroke-opacity="0.5" stroke-width="4" stroke-linecap="round" stroke-linejoin="round"/>
<path d="M222.582 51.7266C207.472 45.4414 192.15 51.8538 177.123 55.9107" stroke="#000000" stroke-opacity="0.5" stroke-width="4" stroke-linecap="round" stroke-linejoin="round"/>
</svg>