<?xml version="1.0" encoding="utf-8"?><!-- Uploaded to: SVG Repo, www.svgrepo.com, Generator: SVG Repo Mixer Tools -->
<svg width="800px" height="800px" viewBox="0 0 400 400" fill="none" xmlns="http://www.w3.org/2000/svg">
<path d="M324.453 157.568C297.732 145.636 264.384 134.858 243.915 160.63C231.407 176.382 228.297 197.623 215.616 212.525C194.829 236.956 165.87 234.535 141.608 251.99C130.802 259.769 124.057 272.887 116.216 283.417C112.385 288.566 101.751 304.519 104.608 298.767C114.517 278.801 133.609 263.74 140.883 241.758C145.952 226.441 160.277 198.874 169.355 177.239M197.209 139.273C204.365 129.862 212.626 122.793 222.228 119.701C229.035 117.509 237 115.768 248.639 117.959C264.2 120.891 272.039 136.654 287.449 141.629" stroke="#000000" stroke-opacity="0.9" stroke-width="16" stroke-linecap="round" stroke-linejoin="round"/>
<path d="M207.053 171.214C213.942 134.413 45.2148 59.5986 80.9839 127.432C94.6934 153.427 126.275 143.765 141.247 159.54C141.401 159.702 130.437 165.618 129.47 166.837C118.397 180.837 151.816 180.058 158.562 180.702" stroke="#000000" stroke-opacity="0.9" stroke-width="16" stroke-linecap="round" stroke-linejoin="round"/>
</svg>