<?xml version="1.0" encoding="utf-8"?><!-- Uploaded to: SVG Repo, www.svgrepo.com, Generator: SVG Repo Mixer Tools -->
<svg width="800px" height="800px" viewBox="0 0 400 400" fill="none" xmlns="http://www.w3.org/2000/svg">
<path d="M343.94 181.251C316.586 122.043 110.716 185.661 109.286 184.644C108.285 183.934 106.59 178.701 105.667 177.324C97.4184 165.033 70.8279 149.566 59.3445 164.23C50.1824 175.933 68.0679 183.234 70.2019 190.807C73.4463 202.32 47.9205 216.065 53.9158 220.851C68.7122 232.661 99.0086 219.003 103.857 203.516" stroke="#000000" stroke-opacity="0.9" stroke-width="16" stroke-linecap="round" stroke-linejoin="round"/>
<path d="M108.688 202.504C126.304 218.403 155.5 212.775 178.388 216.536C241.089 226.833 301.89 263.764 347.349 191.22" stroke="#000000" stroke-opacity="0.9" stroke-width="16" stroke-linecap="round" stroke-linejoin="round"/>
<path d="M335.984 192.276C319.712 190.447 295.882 188.758 291.792 193.77C285.41 201.589 269.401 197.894 262.444 201.448C253.546 205.994 244.751 215.326 234.837 225.314" stroke="#000000" stroke-opacity="0.9" stroke-width="16" stroke-linecap="round" stroke-linejoin="round"/>
<path d="M207.707 204.858C189.07 228.926 178.758 261.974 224.041 233.224" stroke="#000000" stroke-opacity="0.9" stroke-width="16" stroke-linecap="round" stroke-linejoin="round"/>
<path opacity="0.503384" d="M312.588 197.471C310.503 208.528 292.92 214.056 259.839 214.056" stroke="#000000" stroke-opacity="0.9" stroke-width="6" stroke-linecap="round" stroke-linejoin="round"/>
<path opacity="0.503384" d="M328.131 197.471C322.001 215.574 295.828 224.626 249.611 224.626" stroke="#000000" stroke-opacity="0.9" stroke-width="6" stroke-linecap="round" stroke-linejoin="round"/>
</svg>