<?xml version="1.0" encoding="utf-8"?><!-- Uploaded to: SVG Repo, www.svgrepo.com, Generator: SVG Repo Mixer Tools -->
<svg width="800px" height="800px" viewBox="0 0 400 400" fill="none" xmlns="http://www.w3.org/2000/svg">
<path d="M254.087 154.625C255.334 145.002 257.061 135.403 260.641 126.389C286.736 60.6749 365.444 122.573 313.824 134.822C299.684 138.178 293.875 141.122 282.127 137.248" stroke="#000000" stroke-opacity="0.9" stroke-width="16" stroke-linecap="round" stroke-linejoin="round"/>
<path d="M291.474 154.625C310.233 214.306 236.918 279.974 154.479 259.046" stroke="#000000" stroke-opacity="0.9" stroke-width="16" stroke-linecap="round" stroke-linejoin="round"/>
<path d="M290.652 193.877C287.941 176.928 272.964 167.072 257.196 163.429C151.58 139.028 173.466 297.98 70 321" stroke="#000000" stroke-opacity="0.9" stroke-width="16" stroke-linecap="round" stroke-linejoin="round"/>
<path d="M223.93 218.906C240.019 247.078 246.785 265.123 210.327 291.892C173.869 318.662 173.177 309.13 181.56 314.676C193.104 322.315 234.93 310.166 248.742 311.635C259.689 312.8 268.543 314.676 280.565 314.676" stroke="#000000" stroke-opacity="0.9" stroke-width="16" stroke-linecap="round" stroke-linejoin="round"/>
<path d="M262.913 215.125C263.702 224.255 264.248 233.381 271.739 239.073" stroke="#000000" stroke-opacity="0.9" stroke-width="16" stroke-linecap="round" stroke-linejoin="round"/>
<path d="M261.446 99.1131C258.492 97.2761 250.626 82.0349 255.816 79.5557C266.37 74.5116 267.136 105.469 272.191 105.469C272.884 105.469 278.175 94.034 278.843 92.7574C281.956 86.8143 289.972 82.2295 293.174 79.5557" stroke="#000000" stroke-opacity="0.9" stroke-width="16" stroke-linecap="round" stroke-linejoin="round"/>
</svg>