<?xml version="1.0" encoding="utf-8"?><!-- Uploaded to: SVG Repo, www.svgrepo.com, Generator: SVG Repo Mixer Tools -->
<svg width="800px" height="800px" viewBox="0 0 400 400" fill="none" xmlns="http://www.w3.org/2000/svg">
<path d="M154.143 348C161.145 320.407 122.476 281.611 110.818 252.372C95.3977 213.698 103.51 180.813 128.809 144.207C133.596 137.278 145.443 122.759 162.955 125.293C183.985 128.336 181.792 144.815 182.782 153.981C187.025 193.274 93.3116 272.481 165.892 301.886C175.737 305.874 184.262 310.146 196 312.086" stroke="#000000" stroke-opacity="0.9" stroke-width="16" stroke-linecap="round" stroke-linejoin="round"/>
<path d="M195 312.242C185.167 315.297 167.371 314.257 159 310" stroke="#000000" stroke-opacity="0.9" stroke-width="16" stroke-linecap="round" stroke-linejoin="round"/>
<path d="M159.582 309C177.568 321.319 163.42 340.547 148 351" stroke="#000000" stroke-opacity="0.9" stroke-width="16" stroke-linecap="round" stroke-linejoin="round"/>
<path opacity="0.503384" d="M196 79.1053C274.75 103.12 275.741 166.698 245.449 209.277C236.851 221.363 197.862 257.005 221.64 275.423C240.54 290.063 269.79 265.922 276.918 259.045C312.13 225.079 313.328 175.141 296.364 137.831C282.061 106.373 225.567 83.3938 232.995 49C232.995 49 227.065 70.5512 223 70.5512C221.01 73.4393 196 79.1053 196 79.1053Z" stroke="#000000" stroke-opacity="0.9" stroke-width="16" stroke-linecap="round" stroke-linejoin="round"/>
<path d="M97.8298 183.697C94.1432 184.69 90.0406 185.16 86.3801 186.188C79.6985 188.065 66.9161 202.463 78.9938 198.222C90.6092 194.144 90.6066 184.481 103 181" stroke="#000000" stroke-opacity="0.9" stroke-width="16" stroke-linecap="round" stroke-linejoin="round"/>
<path d="M164 202C190.179 227.887 160.963 228.085 164.358 205.83" stroke="#000000" stroke-opacity="0.9" stroke-width="16" stroke-linecap="round" stroke-linejoin="round"/>
<path opacity="0.503384" d="M230.194 203C225.314 199.645 215.257 140.562 233.488 166.615C237.406 172.215 238.955 178.285 243 183.839" stroke="#000000" stroke-opacity="0.9" stroke-width="16" stroke-linecap="round" stroke-linejoin="round"/>
<path opacity="0.503384" d="M323.005 193.27C346.03 158.672 340.284 201.192 321 214" stroke="#000000" stroke-opacity="0.9" stroke-width="16" stroke-linecap="round" stroke-linejoin="round"/>
</svg>