<?xml version="1.0" encoding="utf-8"?><!-- Uploaded to: SVG Repo, www.svgrepo.com, Generator: SVG Repo Mixer Tools -->
<svg width="800px" height="800px" viewBox="0 0 400 400" fill="none" xmlns="http://www.w3.org/2000/svg">
<path d="M273.731 110.859C252.006 133.626 230.01 162.416 208.763 186.88C176.054 224.544 144.845 257.692 136.286 270.055C122.308 290.244 92.8141 214.836 106.565 164.699C125.008 97.4547 226.142 50.4395 277.688 116.768C341.555 198.949 234.521 362.507 141.589 278.801" stroke="#000000" stroke-opacity="0.9" stroke-width="16" stroke-linecap="round" stroke-linejoin="round"/>
<path d="M281.775 67C287.268 91.131 286.44 116.68 291.121 140.683" stroke="#000000" stroke-opacity="0.9" stroke-width="16" stroke-linecap="round" stroke-linejoin="round"/>
<path d="M325 104.426C308.18 95.8358 288.229 94.4681 270.094 98.1786" stroke="#000000" stroke-opacity="0.9" stroke-width="16" stroke-linecap="round" stroke-linejoin="round"/>
<path opacity="0.503384" d="M204.232 93.9004C209.602 134.271 164.762 138.494 147.434 107.152" stroke="#000000" stroke-opacity="0.9" stroke-width="16" stroke-linecap="round" stroke-linejoin="round"/>
<path opacity="0.503384" d="M225.997 161.928C169.473 129.781 156.32 236.6 213.87 232.99C236.796 231.547 251.742 182.842 231.049 173.599" stroke="#000000" stroke-opacity="0.9" stroke-width="16" stroke-linecap="round" stroke-linejoin="round"/>
<path opacity="0.503384" d="M245.561 266.517C216.162 231.701 194.435 271.998 207.278 297.406" stroke="#000000" stroke-opacity="0.9" stroke-width="16" stroke-linecap="round" stroke-linejoin="round"/>
<path opacity="0.503384" d="M110.751 153.548C146.887 154.297 145.335 204.577 107.713 210.857" stroke="#000000" stroke-opacity="0.9" stroke-width="16" stroke-linecap="round" stroke-linejoin="round"/>
<path opacity="0.503384" d="M291.121 194.532C261.137 193.07 257.632 224.421 273.756 242.435" stroke="#000000" stroke-opacity="0.9" stroke-width="16" stroke-linecap="round" stroke-linejoin="round"/>
</svg>