<?xml version="1.0" encoding="utf-8"?><!-- Uploaded to: SVG Repo, www.svgrepo.com, Generator: SVG Repo Mixer Tools -->
<svg width="800px" height="800px" viewBox="0 0 400 400" fill="none" xmlns="http://www.w3.org/2000/svg">
<path d="M183.196 184.749C180.366 197.598 178.383 210.475 176.954 223.613C174.872 242.739 170.185 287.736 203.172 273.309C242.176 256.247 199.858 181.797 230.016 178.375" stroke="#000000" stroke-opacity="0.9" stroke-width="16" stroke-linecap="round" stroke-linejoin="round"/>
<path d="M182.284 181.163C178.63 179.001 173.991 179.444 169.782 178.998" stroke="#000000" stroke-opacity="0.9" stroke-width="16" stroke-linecap="round" stroke-linejoin="round"/>
<path d="M206.15 236.336C193.25 256.111 200.467 245.742 187.966 234.063" stroke="#000000" stroke-opacity="0.9" stroke-width="16" stroke-linecap="round" stroke-linejoin="round"/>
<path d="M230.016 127.965C267.892 102.184 252.684 141.937 253.121 142.587C272.144 170.86 280.895 198.541 246.061 222.698" stroke="#000000" stroke-opacity="0.9" stroke-width="16" stroke-linecap="round" stroke-linejoin="round"/>
<path d="M158.417 126.05C129.215 119.476 151.179 144.733 150.184 146.4C148.36 149.451 141.021 149.996 138.15 154.028C118.475 181.681 128.907 203.843 150.819 222.698" stroke="#000000" stroke-opacity="0.9" stroke-width="16" stroke-linecap="round" stroke-linejoin="round"/>
<path d="M183.449 124.961C183.81 127.231 184.172 129.505 184.53 131.78" stroke="#000000" stroke-opacity="0.9" stroke-width="16" stroke-linecap="round" stroke-linejoin="round"/>
<path d="M207.258 124.961C207.619 127.231 206.9 129.505 207.258 131.78" stroke="#000000" stroke-opacity="0.9" stroke-width="16" stroke-linecap="round" stroke-linejoin="round"/>
<path d="M220.591 77.5398C281.241 53.7117 312.473 107.752 320.935 146.69" stroke="#000000" stroke-opacity="0.5" stroke-width="16" stroke-linecap="round" stroke-linejoin="round"/>
<path d="M310.515 154.509C324.753 186.6 309.318 217.233 303.887 248.837" stroke="#000000" stroke-opacity="0.5" stroke-width="16" stroke-linecap="round" stroke-linejoin="round"/>
<path d="M292.522 256.793C278.22 281.994 223.798 316.984 200.467 332.937" stroke="#000000" stroke-opacity="0.5" stroke-width="16" stroke-linecap="round" stroke-linejoin="round"/>
<path d="M201.604 83.8226C163.136 44.009 115.135 81.8405 94.7742 124.961" stroke="#000000" stroke-opacity="0.5" stroke-width="16" stroke-linecap="round" stroke-linejoin="round"/>
<path d="M109.549 128.37C89.6803 154.296 73.0514 195.254 82.9377 228.381" stroke="#000000" stroke-opacity="0.5" stroke-width="16" stroke-linecap="round" stroke-linejoin="round"/>
<path d="M101.593 236.336C106.443 270.409 157.958 299.896 175.465 326.118" stroke="#000000" stroke-opacity="0.5" stroke-width="16" stroke-linecap="round" stroke-linejoin="round"/>
<path d="M169.214 188.604C169.214 185.953 169.214 183.299 169.214 180.648" stroke="#000000" stroke-opacity="0.5" stroke-width="16" stroke-linecap="round" stroke-linejoin="round"/>
<path d="M230.401 187.467C229.855 184.721 230.766 182.095 230.94 179.512" stroke="#000000" stroke-opacity="0.5" stroke-width="16" stroke-linecap="round" stroke-linejoin="round"/>
</svg>