<?xml version="1.0" encoding="utf-8"?><!-- Uploaded to: SVG Repo, www.svgrepo.com, Generator: SVG Repo Mixer Tools -->
<svg width="800px" height="800px" viewBox="0 0 400 400" fill="none" xmlns="http://www.w3.org/2000/svg">
<path d="M280.992 103C250.508 168.951 352.619 170.253 323.241 254.119C319.922 263.596 309.699 276.891 301.687 282.789C301.307 283.069 298.421 287.498 297.447 286.954C296.635 286.501 299.698 278.676 299.844 277.321C300.503 271.18 298.629 264.529 296.52 258.49C285.958 228.254 227 213 205 233" stroke="#000000" stroke-opacity="0.9" stroke-width="16" stroke-linecap="round" stroke-linejoin="round"/>
<path d="M284.082 102.132C278.743 122.086 239.578 105.213 237.254 94.3889C236.127 89.1433 238.211 83.0529 239.36 78" stroke="#000000" stroke-opacity="0.9" stroke-width="16" stroke-linecap="round" stroke-linejoin="round"/>
<path d="M241.842 80.9473C237.083 93.6676 224.614 114.102 209.152 112.864C195.468 111.768 179.444 94.9346 166.393 89.6007C140.024 78.824 80 93.6007 70 150" stroke="#000000" stroke-opacity="0.9" stroke-width="16" stroke-linecap="round" stroke-linejoin="round"/>
<path d="M69.9993 155.65C94.9993 145.999 119.055 145.086 139.999 155.65C160.944 166.215 179.842 182.766 185.649 209.812C189.595 228.189 185.499 239.596 180.211 257.632C174.923 275.668 161.789 282 139.999 322" stroke="#000000" stroke-opacity="0.9" stroke-width="16" stroke-linecap="round" stroke-linejoin="round"/>
</svg>