<?xml version="1.0" encoding="utf-8"?><!-- Uploaded to: SVG Repo, www.svgrepo.com, Generator: SVG Repo Mixer Tools -->
<svg width="800px" height="800px" viewBox="0 0 400 400" fill="none" xmlns="http://www.w3.org/2000/svg">
<path d="M176.593 132.65C159.206 111.05 155.525 82.5877 172.09 63.5631C186.496 47.0178 229.499 43.1515 239.52 74.7811C250.955 110.875 222.659 135.764 224.079 138.704C236.375 164.215 238.235 179.024 240.656 219.48C243.078 259.936 222.956 340.032 224.079 342.953C226.699 349.737 232.526 348.977 239.52 348.074" stroke="#000000" stroke-opacity="0.9" stroke-width="16" stroke-linecap="round" stroke-linejoin="round"/>
<path d="M176.024 138.333C139.236 187.016 172.895 323.83 174.485 345.813C174.746 349.419 168.09 349.645 161.25 348.805" stroke="#000000" stroke-opacity="0.9" stroke-width="16" stroke-linecap="round" stroke-linejoin="round"/>
<path d="M184.549 172.427C183.11 187.339 180.553 243.061 176.594 253.117" stroke="#000000" stroke-opacity="0.9" stroke-width="16" stroke-linecap="round" stroke-linejoin="round"/>
<path d="M217.506 172.427C219.158 183.619 221.1 248.571 225.461 248.571" stroke="#000000" stroke-opacity="0.9" stroke-width="16" stroke-linecap="round" stroke-linejoin="round"/>
<path d="M206.711 111.057C206.267 109.845 206.814 108.377 205.574 105.375" stroke="#000000" stroke-opacity="0.9" stroke-width="12" stroke-linecap="round" stroke-linejoin="round"/>
<path d="M201.596 109.364C205.581 113.62 206.265 110.785 209.551 109.364" stroke="#000000" stroke-opacity="0.9" stroke-width="12" stroke-linecap="round" stroke-linejoin="round"/>
<path d="M190.799 90.6252C190.799 89.091 190.799 87.5635 190.799 86.0293" stroke="#000000" stroke-opacity="0.9" stroke-width="12" stroke-linecap="round" stroke-linejoin="round"/>
<path d="M218.074 89.816C218.074 88.0703 218.074 86.3179 218.074 84.5654" stroke="#000000" stroke-opacity="0.9" stroke-width="12" stroke-linecap="round" stroke-linejoin="round"/>
<path d="M161.819 62.7002C155.637 58.9185 153.784 62.0637 155.751 67.8707" stroke="#000000" stroke-opacity="0.9" stroke-width="16" stroke-linecap="round" stroke-linejoin="round"/>
<path d="M244.613 63.3247C247.14 69.0493 246.163 68.9116 240.236 71.2801" stroke="#000000" stroke-opacity="0.9" stroke-width="16" stroke-linecap="round" stroke-linejoin="round"/>
</svg>