<?xml version="1.0" encoding="utf-8"?><!-- Uploaded to: SVG Repo, www.svgrepo.com, Generator: SVG Repo Mixer Tools -->
<svg width="800px" height="800px" viewBox="0 0 400 400" fill="none" xmlns="http://www.w3.org/2000/svg">
<path d="M187.139 121.271C182.412 120.929 180.97 115.726 177.916 112.656C176.512 111.248 171.309 98.7472 175.942 98.7472C177.431 98.7472 157.638 124.744 141.686 106.035C137.817 101.491 135.173 93.0844 133.783 87.4879C133.137 84.8816 137.77 79.541 135.102 79.541C132.755 79.541 116.077 96.2117 111.388 98.0838C106.699 99.9559 90.9781 96.7475 90.3089 97.4251C80.1674 107.618 131.104 132.731 156.837 137.164C182.57 141.598 267.899 142.505 352.476 104.709" stroke="#000000" stroke-opacity="0.9" stroke-width="16" stroke-linecap="round" stroke-linejoin="round"/>
<path d="M257.185 141.664C279.91 138.808 281.297 103.065 296.229 93.8109C302 90.2307 306.768 105.735 313.434 104.752C334.421 101.651 325.095 80.1356 341.888 99.9638" stroke="#000000" stroke-opacity="0.9" stroke-width="16" stroke-linecap="round" stroke-linejoin="round"/>
<path d="M208.128 160.618C201.391 190.528 205.017 236.548 231.06 214.772C234.949 211.52 239.946 221.372 244.15 219.016C258.101 211.195 249.529 159.289 248.678 150.756" stroke="#000000" stroke-opacity="0.9" stroke-width="16" stroke-linecap="round" stroke-linejoin="round"/>
<path d="M183.721 201.26C164.98 211.212 70.5349 195.461 62.2946 203.248C60.3462 205.09 68.677 227.139 69.3147 230.447C70.4044 236.123 70.6956 261.603 74.2258 264.939C76.5106 267.098 99.2769 260.5 111.182 260.5C167.644 260.5 199.258 260.962 203.421 260.962C203.421 260.962 213.536 287.349 210.395 320" stroke="#000000" stroke-opacity="0.9" stroke-width="16" stroke-linecap="round" stroke-linejoin="round"/>
<path d="M73.7031 270.458C66.7392 284.938 66.4109 301.011 63.1152 315.914" stroke="#000000" stroke-opacity="0.9" stroke-width="16" stroke-linecap="round" stroke-linejoin="round"/>
<path fill-rule="evenodd" clip-rule="evenodd" d="M61.603 207.005C60.4301 210.387 46.9123 220.377 44.9648 221.605L61.603 207.005Z" stroke="#000000" stroke-opacity="0.9" stroke-width="16" stroke-linecap="round" stroke-linejoin="round"/>
</svg>