<?xml version="1.0" encoding="utf-8"?><!-- Uploaded to: SVG Repo, www.svgrepo.com, Generator: SVG Repo Mixer Tools -->
<svg width="800px" height="800px" viewBox="0 0 400 400" fill="none" xmlns="http://www.w3.org/2000/svg">
<path d="M82.1392 210.651C114.404 196.815 149.903 192.795 184.937 195.715C200.722 197.03 222.295 205.939 238.092 201.426C243.576 199.859 250.36 199.306 255.664 197.033C281.102 186.131 307.872 156.108 335.618 183.854" stroke="#000000" stroke-opacity="0.9" stroke-width="16" stroke-linecap="round" stroke-linejoin="round"/>
<path d="M339.571 193.078C330.665 210.773 313.132 220.836 299.594 234.373C266.513 267.455 225.164 280.698 180.104 263.367C149.95 251.769 126.743 222.112 94.8789 216.801" stroke="#000000" stroke-opacity="0.9" stroke-width="16" stroke-linecap="round" stroke-linejoin="round"/>
<path d="M82.1392 207.137C77.2658 201.923 44.3291 178.612 35.134 187.807C30.3825 192.558 42.5893 202.706 43.92 206.697C46.9479 215.781 35.7769 220.175 34.2551 227.784C30.2488 247.815 74.7001 224.692 79.0644 222.073" stroke="#000000" stroke-opacity="0.9" stroke-width="16" stroke-linecap="round" stroke-linejoin="round"/>
<path d="M323.317 171.114C333.039 168.775 364.477 113 366.246 113C366.377 113 358.178 125.594 354.742 131.014C344.689 146.87 337.297 159.089 327.71 175.068" stroke="#000000" stroke-opacity="0.9" stroke-width="16" stroke-linecap="round" stroke-linejoin="round"/>
<path d="M338.193 191.804C326.694 203.134 317.808 184.549 307.941 187.368C299.338 189.826 294.713 206.363 288.173 211.969C258.69 237.24 226.231 253.503 186.694 242.72C178.275 240.424 166.904 240.063 161.653 234.812" stroke="#000000" stroke-opacity="0.9" stroke-width="16" stroke-linecap="round" stroke-linejoin="round"/>
<path d="M273.396 231C280.212 261.485 226.796 318.486 241.608 264.979" stroke="#000000" stroke-opacity="0.9" stroke-width="16" stroke-linecap="round" stroke-linejoin="round"/>
<path d="M327.536 186.561C327.536 186.268 327.536 185.975 327.536 185.682" stroke="#000000" stroke-opacity="0.9" stroke-width="16" stroke-linecap="round" stroke-linejoin="round"/>
<path d="M273.237 201.865L270.586 204.567" stroke="#000000" stroke-opacity="0.5" stroke-width="16" stroke-linecap="round" stroke-linejoin="round"/>
<path d="M256.104 220.316C255.664 220.316 255.225 220.316 254.786 220.316" stroke="#000000" stroke-opacity="0.5" stroke-width="16" stroke-linecap="round" stroke-linejoin="round"/>
<path d="M235.457 215.044C233.761 215.729 231.959 215.483 230.185 215.483" stroke="#000000" stroke-opacity="0.5" stroke-width="16" stroke-linecap="round" stroke-linejoin="round"/>
<path d="M220.08 232.177C219.449 232.941 218.616 232.47 217.884 232.616" stroke="#000000" stroke-opacity="0.5" stroke-width="16" stroke-linecap="round" stroke-linejoin="round"/>
<path d="M197.237 222.512C194.592 222.929 193.808 222.626 191.389 221.819" stroke="#000000" stroke-opacity="0.5" stroke-width="16" stroke-linecap="round" stroke-linejoin="round"/>
<path d="M161.653 204.94C160.506 203.947 159.897 205.233 159.018 205.379" stroke="#000000" stroke-opacity="0.5" stroke-width="16" stroke-linecap="round" stroke-linejoin="round"/>
<path d="M156.382 219.876C155.942 219.876 155.503 219.876 155.063 219.876" stroke="#000000" stroke-opacity="0.5" stroke-width="16" stroke-linecap="round" stroke-linejoin="round"/>
<path d="M126.948 211.969C126.216 211.969 125.484 211.969 124.752 211.969" stroke="#000000" stroke-opacity="0.5" stroke-width="16" stroke-linecap="round" stroke-linejoin="round"/>
<path d="M219.806 259.724C219.205 259.724 218.605 259.724 218.004 259.724" stroke="#000000" stroke-opacity="0.5" stroke-width="16" stroke-linecap="round" stroke-linejoin="round"/>
</svg>