<?xml version="1.0" encoding="utf-8"?><!-- Uploaded to: SVG Repo, www.svgrepo.com, Generator: SVG Repo Mixer Tools -->
<svg width="800px" height="800px" viewBox="0 0 400 400" fill="none" xmlns="http://www.w3.org/2000/svg">
<path d="M70 163.27C79.8358 154.211 95.7054 144.701 108.17 155.275C123.659 168.419 124.043 195.685 121.379 214.14C121.161 215.655 121.296 219.183 119.912 218.497C111.016 214.093 138.549 185.822 141.935 182.89C178.701 151.04 264.685 118.313 276.79 200.487" stroke="#000000" stroke-opacity="0.9" stroke-width="16" stroke-linecap="round" stroke-linejoin="round"/>
<path d="M296.971 89.0185C284.803 81.871 336.098 69.4193 330.584 70.201C323.38 71.2221 281.989 27.0279 262.009 69.4193C237.29 121.871 346.17 175.466 290.431 234.602C259.292 267.639 224.788 229.392 210.061 234.602" stroke="#000000" stroke-opacity="0.9" stroke-width="16" stroke-linecap="round" stroke-linejoin="round"/>
<path d="M208.066 245.145C212.439 252.929 189.253 267.494 190.304 271.682C190.68 273.191 227.287 282.23 231.752 285.69C239.292 291.531 242.87 303.448 245.076 312.227" stroke="#000000" stroke-opacity="0.9" stroke-width="16" stroke-linecap="round" stroke-linejoin="round"/>
<path d="M156.106 228.553C196.515 170.837 208.605 246.488 162.762 246.488C152.556 246.488 153.81 239.837 154.629 231.543" stroke="#000000" stroke-opacity="0.9" stroke-width="16" stroke-linecap="round" stroke-linejoin="round"/>
<path d="M152.754 249.351C149.8 258.141 130.944 267.042 126.752 272.978C125.636 274.552 140.359 290.032 141.614 292.169C151.085 308.242 152.572 330.706 152.572 349" stroke="#000000" stroke-opacity="0.9" stroke-width="16" stroke-linecap="round" stroke-linejoin="round"/>
</svg>