<?xml version="1.0" encoding="utf-8"?><!-- Uploaded to: SVG Repo, www.svgrepo.com, Generator: SVG Repo Mixer Tools -->
<svg width="800px" height="800px" viewBox="0 0 400 400" fill="none" xmlns="http://www.w3.org/2000/svg">
<path d="M169.312 212.754C185.33 161.536 273.275 188.737 247.569 240.426C227.065 281.66 165.872 271.6 165.872 221.403" stroke="#000000" stroke-opacity="0.9" stroke-width="16" stroke-linecap="round" stroke-linejoin="round"/>
<path d="M229.366 154.688C229.268 151.097 228.124 147.825 227.393 144.459" stroke="#000000" stroke-opacity="0.9" stroke-width="16" stroke-linecap="round" stroke-linejoin="round"/>
<path d="M183.772 156.961C184.307 153.265 183.448 150.187 183.032 146.732" stroke="#000000" stroke-opacity="0.9" stroke-width="16" stroke-linecap="round" stroke-linejoin="round"/>
<path d="M270.428 108.03C295.26 78.7905 328.903 129.076 290.638 138.777" stroke="#000000" stroke-opacity="0.9" stroke-width="16" stroke-linecap="round" stroke-linejoin="round"/>
<path d="M134.05 117.339C103.013 92.2069 69.7758 111.343 111.832 144.459" stroke="#000000" stroke-opacity="0.9" stroke-width="16" stroke-linecap="round" stroke-linejoin="round"/>
<path d="M227.241 296.709C212.897 306.854 204.041 297.611 190.874 293.339" stroke="#000000" stroke-opacity="0.9" stroke-width="16" stroke-linecap="round" stroke-linejoin="round"/>
<path d="M220.991 225.15C220.991 222.874 220.991 220.602 220.991 218.331" stroke="#000000" stroke-opacity="0.9" stroke-width="16" stroke-linecap="round" stroke-linejoin="round"/>
<path d="M198.317 225.15C199.988 213.286 197.823 223.789 197.578 223.113" stroke="#000000" stroke-opacity="0.9" stroke-width="16" stroke-linecap="round" stroke-linejoin="round"/>
</svg>