<?xml version="1.0" encoding="utf-8"?><!-- Uploaded to: SVG Repo, www.svgrepo.com, Generator: SVG Repo Mixer Tools -->
<svg width="800px" height="800px" viewBox="0 0 400 400" fill="none" xmlns="http://www.w3.org/2000/svg">
<path d="M296.454 196.105C294.277 176.35 288.832 153.426 275.065 137.974C226.874 83.884 118.278 92.5997 110.591 176.974C107.899 206.501 118.573 233.443 126.816 260.862C130.273 272.365 131.917 291.384 144.699 292.978" stroke="#000000" stroke-opacity="0.9" stroke-width="16" stroke-linecap="round" stroke-linejoin="round"/>
<path d="M299.309 196.58C347.664 202.51 312.082 260.617 276.934 252.769" stroke="#000000" stroke-opacity="0.9" stroke-width="16" stroke-linecap="round" stroke-linejoin="round"/>
<path d="M275.009 253.681C230.251 272.588 167.846 274.376 126.248 244.728" stroke="#000000" stroke-opacity="0.9" stroke-width="16" stroke-linecap="round" stroke-linejoin="round"/>
<path d="M254.403 271.588C260.244 286.515 254.885 295.11 248.143 295.095C242.69 295.083 236.333 289.438 234.266 276.954" stroke="#000000" stroke-opacity="0.9" stroke-width="16" stroke-linecap="round" stroke-linejoin="round"/>
<path d="M158.131 267.512C152.095 285.52 145.493 297.357 147.139 291.296" stroke="#000000" stroke-opacity="0.9" stroke-width="16" stroke-linecap="round" stroke-linejoin="round"/>
<path d="M280.54 157.611C300.442 104.236 278.951 81.4663 256.59 151.21" stroke="#000000" stroke-opacity="0.9" stroke-width="16" stroke-linecap="round" stroke-linejoin="round"/>
<path d="M296.453 151.994C314.905 135.83 357.724 147.239 320.717 164.312" stroke="#000000" stroke-opacity="0.9" stroke-width="16" stroke-linecap="round" stroke-linejoin="round"/>
<path d="M106.885 181.508C97.4619 180.223 86.9728 179.028 79.0473 173.179C66.5627 163.966 69.6287 127.224 86.569 142.139C102.223 155.921 83.5876 188.033 63.9991 176.207" stroke="#000000" stroke-opacity="0.9" stroke-width="16" stroke-linecap="round" stroke-linejoin="round"/>
<path d="M272.677 203.476C272.894 202.833 273.107 202.19 273.32 201.542" stroke="#000000" stroke-opacity="0.9" stroke-width="16" stroke-linecap="round" stroke-linejoin="round"/>
</svg>