<?xml version="1.0" encoding="utf-8"?><!-- Uploaded to: SVG Repo, www.svgrepo.com, Generator: SVG Repo Mixer Tools -->
<svg width="800px" height="800px" viewBox="0 0 400 400" fill="none" xmlns="http://www.w3.org/2000/svg">
<path opacity="0.503384" d="M287.337 101.846C293.427 98.2869 299.252 92.9999 299.252 85.1916C299.252 32.8714 258.097 71.9174 251.603 73.2217C239.627 75.6297 227.542 60.1962 212.757 70.0984C191.834 84.1185 208.434 108.46 201.883 121.625C191.01 143.479 155.115 140.452 184.273 189.287C189.794 198.535 168.003 224.917 188.418 241.332C205.556 255.108 238.173 233.201 238.654 233.524C242.848 236.333 242.188 245.616 249.012 247.579C278.607 256.072 303.728 222.583 279.571 200.737" stroke="#000000" stroke-opacity="0.9" stroke-width="14" stroke-linecap="round" stroke-linejoin="round"/>
<path opacity="0.503384" d="M266.294 103.316C249.309 85.3508 235.139 128.173 242.123 128.173C243.136 128.173 226.711 116.157 217.947 128.173C200.393 152.237 225.664 163.23 225.664 165.189C225.664 171.151 217.883 177.427 218.977 185.286C223.594 218.548 266.165 174.936 266.294 174.71" stroke="#000000" stroke-opacity="0.9" stroke-width="14" stroke-linecap="round" stroke-linejoin="round"/>
<path d="M296.186 106.869C370.786 126.321 323.656 129.346 284.478 137.554" stroke="#000000" stroke-opacity="0.9" stroke-width="16" stroke-linecap="round" stroke-linejoin="round"/>
<path opacity="0.503384" d="M109.057 213.634C102.047 212.663 98.6779 201.021 104.418 193.888C137.741 152.485 186.444 221.774 134.307 225.374C123.15 226.144 119.699 231.793 112.149 219.502" stroke="#000000" stroke-opacity="0.9" stroke-width="14" stroke-linecap="round" stroke-linejoin="round"/>
<path opacity="0.503384" d="M109.135 292.636C115.703 291.365 126.557 288.286 130.464 296.268C135.116 305.781 123.79 306.877 121.832 312.876C120.547 316.817 138.96 324.438 129.451 334.156C117.269 346.605 74.1896 346.131 79.1739 320.662C80.4806 313.972 83.8602 306.93 89.3297 303.015" stroke="#000000" stroke-opacity="0.9" stroke-width="14" stroke-linecap="round" stroke-linejoin="round"/>
<path opacity="0.503384" d="M224.443 295.945C232.03 285.569 239.357 299.565 242.099 299.565C248.28 299.565 252.616 289.271 262.876 293.358C275.63 298.438 263.912 330.815 257.16 333.693C245.002 338.885 202.709 331.474 218.728 311.974" stroke="#000000" stroke-opacity="0.9" stroke-width="14" stroke-linecap="round" stroke-linejoin="round"/>
<path opacity="0.503384" d="M116.041 160.9C135.195 154.707 116.041 137.284 116.041 130.902C116.041 129.64 135.609 124.863 131.663 110.903C129.346 102.716 106.542 89.6026 110.309 97.2202C114.43 105.552 118.76 75.5143 111.872 69.3303C102.705 61.0952 79.8583 69.5773 72.2892 77.2213C66.082 83.4936 61.0229 96.6688 66.0427 105.116C68.6923 109.579 82.7043 109.853 79.0595 113.536C61.5554 131.224 68.3388 142.026 89.9984 149.321C92.3032 150.098 87.7941 167.057 106.145 164.583" stroke="#000000" stroke-opacity="0.9" stroke-width="14" stroke-linecap="round" stroke-linejoin="round"/>
<path d="M120.824 236.428C118.847 252.544 115.612 268.777 110.596 284.16" stroke="#000000" stroke-opacity="0.9" stroke-width="16" stroke-linecap="round" stroke-linejoin="round"/>
<path d="M146.963 250.066C140.997 263.303 131.252 279.785 117.415 281.887" stroke="#000000" stroke-opacity="0.9" stroke-width="16" stroke-linecap="round" stroke-linejoin="round"/>
<path d="M154.918 253.013C179.247 260.49 204.514 251.101 227.653 243.247" stroke="#000000" stroke-opacity="0.9" stroke-width="16" stroke-linecap="round" stroke-linejoin="round"/>
<path d="M240.479 256.885C241.239 264.027 240.885 281.538 240.885 283.024" stroke="#000000" stroke-opacity="0.9" stroke-width="16" stroke-linecap="round" stroke-linejoin="round"/>
</svg>