<?xml version="1.0" encoding="utf-8"?><!-- Uploaded to: SVG Repo, www.svgrepo.com, Generator: SVG Repo Mixer Tools -->
<svg width="800px" height="800px" viewBox="0 0 400 400" fill="none" xmlns="http://www.w3.org/2000/svg">
<path d="M261.657 136.783C264.359 136.525 289.354 130.872 288.996 136.452C288.576 143 279.946 155 278.704 155C272.125 155 264.698 147.548 259 138.142" stroke="#000000" stroke-opacity="0.9" stroke-width="16" stroke-linecap="round" stroke-linejoin="round"/>
<path d="M264 151C156.995 253.079 134.09 285 113 285" stroke="#000000" stroke-opacity="0.9" stroke-width="16" stroke-linecap="round" stroke-linejoin="round"/>
<path d="M258 157C242.088 193.934 213.317 269.861 175.157 285.04C151.417 294.482 123.49 291.414 111 284.76" stroke="#000000" stroke-opacity="0.9" stroke-width="16" stroke-linecap="round" stroke-linejoin="round"/>
<path d="M256 168C265.297 183.591 267.697 205.823 261.764 223" stroke="#000000" stroke-opacity="0.9" stroke-width="16" stroke-linecap="round" stroke-linejoin="round"/>
<path d="M295 200C284.036 206.225 270.159 211.857 262 222" stroke="#000000" stroke-opacity="0.9" stroke-width="16" stroke-linecap="round" stroke-linejoin="round"/>
<path d="M295 200C295 207.272 292.093 218.136 287 224" stroke="#000000" stroke-opacity="0.9" stroke-width="16" stroke-linecap="round" stroke-linejoin="round"/>
<path d="M295 202C302.308 199.501 316.499 196.117 324 199.284" stroke="#000000" stroke-opacity="0.9" stroke-width="16" stroke-linecap="round" stroke-linejoin="round"/>
<path d="M324.355 199C327.879 214.325 316.293 232.288 306 239" stroke="#000000" stroke-opacity="0.9" stroke-width="16" stroke-linecap="round" stroke-linejoin="round"/>
<path d="M215 249C223.667 276 223.667 302.829 223.667 327.7C223.667 333.1 221.33 338.028 230 336.814" stroke="#000000" stroke-opacity="0.9" stroke-width="16" stroke-linecap="round" stroke-linejoin="round"/>
<path d="M215 249.166C268.513 244.675 274.72 240.258 275.574 241.105C279.698 245.2 274.507 312.016 279.321 315.203C282.07 317.023 286.314 315.249 289 314.583" stroke="#000000" stroke-opacity="0.9" stroke-width="16" stroke-linecap="round" stroke-linejoin="round"/>
<path d="M161 245C160.204 244.014 137.703 211.247 134.929 212.042C94.9308 291.886 81.4308 324.482 76.3913 328.526C74.6902 329.89 68.9577 327.911 67 327.583" stroke="#000000" stroke-opacity="0.9" stroke-width="16" stroke-linecap="round" stroke-linejoin="round"/>
<path d="M237 80C253.973 89.322 265.959 112.438 268 134" stroke="#000000" stroke-opacity="0.9" stroke-width="16" stroke-linecap="round" stroke-linejoin="round"/>
<path d="M332 64C312.49 71.3907 282.749 109.381 276 134" stroke="#000000" stroke-opacity="0.9" stroke-width="16" stroke-linecap="round" stroke-linejoin="round"/>
</svg>