<?xml version="1.0" encoding="utf-8"?><!-- Uploaded to: SVG Repo, www.svgrepo.com, Generator: SVG Repo Mixer Tools -->
<svg width="800px" height="800px" viewBox="0 0 400 400" fill="none" xmlns="http://www.w3.org/2000/svg">
<path d="M146.37 109.394C115.105 102.893 95.0323 123.074 88.6593 136.181C85.6731 142.322 80.149 209.037 93.8785 204.518C107.34 200.091 118.539 155.205 125.999 143.425" stroke="#000000" stroke-opacity="0.9" stroke-width="16" stroke-linecap="round" stroke-linejoin="round"/>
<path d="M242.971 108.322C286.995 99.9493 314.039 133.835 314.391 139.943C315.278 155.331 312.898 206.059 306.604 203.508C296.61 199.456 278.28 154.209 271.756 143.63" stroke="#000000" stroke-opacity="0.9" stroke-width="16" stroke-linecap="round" stroke-linejoin="round"/>
<path d="M172.509 136.585C188.774 135.547 190.693 157.138 190.693 170.643" stroke="#000000" stroke-opacity="0.9" stroke-width="16" stroke-linecap="round" stroke-linejoin="round"/>
<path d="M227.06 138.892C213.269 137.442 213.422 158.752 213.422 170.643" stroke="#000000" stroke-opacity="0.9" stroke-width="16" stroke-linecap="round" stroke-linejoin="round"/>
<path d="M139.551 183.144C149.198 174.055 160.054 171.78 172.509 171.78" stroke="#000000" stroke-opacity="0.9" stroke-width="16" stroke-linecap="round" stroke-linejoin="round"/>
<path d="M236.152 171.78C252.403 172.704 256.364 180.156 263.428 186.554" stroke="#000000" stroke-opacity="0.9" stroke-width="16" stroke-linecap="round" stroke-linejoin="round"/>
<path d="M161.844 194.509C162.21 191.927 162.523 189.204 162.719 186.554" stroke="#000000" stroke-opacity="0.9" stroke-width="21" stroke-linecap="round" stroke-linejoin="round"/>
<path d="M245.484 195.995C246.551 194.876 245.944 192.306 246.139 190.751" stroke="#000000" stroke-opacity="0.9" stroke-width="21" stroke-linecap="round" stroke-linejoin="round"/>
<path d="M151.347 278.05C141.833 150.649 293.448 230.549 246.392 277.286C227.591 295.96 210.213 253.205 198.104 255.212C187.956 256.891 177.92 272.975 171.276 279.57" stroke="#000000" stroke-opacity="0.9" stroke-width="20" stroke-linecap="round" stroke-linejoin="round"/>
<path d="M178.191 284.192C187.806 301.453 208.033 290.677 219.105 282.018" stroke="#000000" stroke-opacity="0.9" stroke-width="16" stroke-linecap="round" stroke-linejoin="round"/>
<path d="M201.228 229.74C201.835 236.617 201.17 242.813 199.261 249.06" stroke="#000000" stroke-opacity="0.9" stroke-width="16" stroke-linecap="round" stroke-linejoin="round"/>
</svg>