<?xml version="1.0" encoding="utf-8"?><!-- Uploaded to: SVG Repo, www.svgrepo.com, Generator: SVG Repo Mixer Tools -->
<svg width="800px" height="800px" viewBox="0 0 400 400" fill="none" xmlns="http://www.w3.org/2000/svg">
<path d="M137 230.575C166.901 213.985 231.844 213.491 260 231" stroke="#000000" stroke-opacity="0.9" stroke-width="16" stroke-linecap="round" stroke-linejoin="round"/>
<path d="M120.348 175.755C48.6922 249.3 45.9317 191.026 62.0815 148.067C66.0006 137.642 107.875 119.701 120.338 119.701C132.508 119.701 158.753 138.303 170.325 161.447" stroke="#000000" stroke-opacity="0.9" stroke-width="16" stroke-linecap="round" stroke-linejoin="round"/>
<path d="M268.43 144.926C400.484 126.398 303.028 62.4267 275.91 66.384C242.742 71.2239 221.285 129.563 230.802 166.807" stroke="#000000" stroke-opacity="0.9" stroke-width="16" stroke-linecap="round" stroke-linejoin="round"/>
<path d="M157.846 284.671C136.191 303.479 119.263 346.722 169.673 346.722C184.839 346.722 197.903 332.212 199.763 335.159C204.9 343.301 255.046 351.082 261.32 333.775C270.261 309.102 257 299.075 248.592 280.858" stroke="#000000" stroke-opacity="0.9" stroke-width="16" stroke-linecap="round" stroke-linejoin="round"/>
<path d="M196.515 306.637C191.884 294.944 189.306 290.667 202.461 290.667C216.424 290.667 206.301 299.056 201.758 307.483" stroke="#000000" stroke-opacity="0.9" stroke-width="16" stroke-linecap="round" stroke-linejoin="round"/>
<path d="M155.139 243.021C155.139 239.497 155.139 235.547 155.139 231.81" stroke="#000000" stroke-opacity="0.9" stroke-width="16" stroke-linecap="round" stroke-linejoin="round"/>
<path d="M243.206 243.021C243.206 239.497 243.206 235.547 243.206 231.81" stroke="#000000" stroke-opacity="0.9" stroke-width="16" stroke-linecap="round" stroke-linejoin="round"/>
</svg>