<?xml version="1.0" encoding="utf-8"?><!-- Uploaded to: SVG Repo, www.svgrepo.com, Generator: SVG Repo Mixer Tools -->
<svg width="800px" height="800px" viewBox="0 0 400 400" fill="none" xmlns="http://www.w3.org/2000/svg">
<path d="M263.703 134.316C267.503 136.568 268.758 141.476 266.505 145.277C264.253 149.077 259.345 150.332 255.544 148.079L263.703 134.316ZM263.371 112.522L259.731 105.398C260.261 105.127 260.819 104.916 261.396 104.77L263.371 112.522ZM268.685 157.733L265.044 150.609L268.685 157.733ZM233.728 89.5982L239.446 95.1932L239.445 95.1943L233.728 89.5982ZM311 125.318C311 129.736 307.418 133.318 303 133.318C298.582 133.318 295 129.736 295 125.318H311ZM255.544 148.079C247.574 143.355 243.863 134.806 244.659 126.418C245.462 117.967 250.723 110 259.731 105.398L267.011 119.646C262.55 121.925 260.84 125.274 260.588 127.931C260.329 130.65 261.479 132.997 263.703 134.316L255.544 148.079ZM261.396 104.77C269.399 102.73 276.754 104.595 282.294 109.204C287.602 113.62 290.737 120.096 291.867 126.747C294.138 140.118 288.656 156.511 272.326 164.857L265.044 150.609C274.382 145.837 277.345 136.795 276.093 129.426C275.461 125.706 273.842 122.986 272.062 121.504C270.513 120.216 268.445 119.484 265.347 120.274L261.396 104.77ZM272.326 164.857C261.99 170.139 251.833 168.309 243.67 162.785C235.89 157.518 229.844 148.952 225.749 139.91C221.614 130.781 219.105 120.377 219.003 110.671C218.904 101.157 221.135 91.026 228.011 84.002L239.445 95.1943C236.768 97.929 234.924 103.069 235.002 110.504C235.078 117.746 236.999 125.969 240.324 133.309C243.687 140.736 248.128 146.481 252.639 149.534C256.768 152.329 260.706 152.827 265.044 150.609L272.326 164.857ZM228.01 84.0031C237.1 74.7133 247.06 69.5488 257.19 68.2981C267.31 67.0486 276.821 69.8044 284.813 74.9719C300.545 85.1434 311 104.949 311 125.318H295C295 109.963 286.96 95.413 276.126 88.4081C270.835 84.9875 265.045 83.4498 259.151 84.1775C253.265 84.9042 246.496 87.9879 239.446 95.1932L228.01 84.0031Z" fill="#000000" fill-opacity="0.9"/>
<path d="M315.941 130C364.363 156.164 335.022 182 292 182" stroke="#000000" stroke-opacity="0.9" stroke-width="16" stroke-linecap="round" stroke-linejoin="round"/>
<path d="M278 197.623C260.233 312.319 240.333 237.295 225.231 244.918C218.413 248.361 220.622 281.999 198.849 272.226C190.746 268.587 182.713 252.302 174.444 250.913C170.926 250.319 161.836 262.946 158.617 264.9C151.742 269.066 139.477 272.351 126.679 269.856C113.882 267.362 112.183 249.366 107.83 250.247C98.2615 252.177 96.0614 272.648 82.1069 260.902C61.9695 243.955 75.5114 230.49 75.5114 209.613C75.5114 196.081 49.2333 188.265 62.9794 163.654C77.0915 138.388 88.1572 167.26 93.9798 164.32C104.098 159.21 109.793 147 124.321 147C137.555 147 135.322 158.775 144.108 162.323C147.721 163.783 163.757 147 181.529 147C190.115 147 198.849 159.656 202.808 159.656C206.767 159.656 211.746 149.705 224.572 150.998" stroke="#000000" stroke-opacity="0.5" stroke-width="16" stroke-linecap="round" stroke-linejoin="round"/>
<path d="M265 260C274.466 283.417 283.446 299.076 266.391 320" stroke="#000000" stroke-opacity="0.9" stroke-width="16" stroke-linecap="round" stroke-linejoin="round"/>
<path d="M224 252C225.597 275.4 228.517 299.619 234 322" stroke="#000000" stroke-opacity="0.9" stroke-width="16" stroke-linecap="round" stroke-linejoin="round"/>
<path d="M120.095 271C120.238 287.89 119.398 305.452 121 322" stroke="#000000" stroke-opacity="0.9" stroke-width="16" stroke-linecap="round" stroke-linejoin="round"/>
<path d="M93 265C67.0767 281.536 77.9258 319.398 80.1065 325" stroke="#000000" stroke-opacity="0.9" stroke-width="16" stroke-linecap="round" stroke-linejoin="round"/>
</svg>