<?xml version="1.0" encoding="utf-8"?><!-- Uploaded to: SVG Repo, www.svgrepo.com, Generator: SVG Repo Mixer Tools -->
<svg width="800px" height="800px" viewBox="0 0 400 400" fill="none" xmlns="http://www.w3.org/2000/svg">
<path d="M112.172 48C89.3227 95.1723 78.2443 189.966 148.906 198.818" stroke="#000000" stroke-opacity="0.9" stroke-width="16" stroke-linecap="round" stroke-linejoin="round"/>
<path d="M279.831 53.3137C311.618 95.6134 324.739 187.428 251.012 198.91" stroke="#000000" stroke-opacity="0.9" stroke-width="16" stroke-linecap="round" stroke-linejoin="round"/>
<path d="M162.102 306.212C142.416 188.687 184.59 186.157 223.38 197.847C248.094 206.486 248.886 254.704 235.003 310.037" stroke="#000000" stroke-opacity="0.9" stroke-width="16" stroke-linecap="round" stroke-linejoin="round"/>
<path d="M161.824 309.055C152.718 366.187 249.418 367.887 235.071 311.561" stroke="#000000" stroke-opacity="0.9" stroke-width="16" stroke-linecap="round" stroke-linejoin="round"/>
<path d="M114.467 61.4304C116.7 61.957 118.932 62.4799 121.16 63.0028C121.8 63.0028 122.436 63.0028 123.077 63.0028" stroke="#000000" stroke-opacity="0.9" stroke-width="16" stroke-linecap="round" stroke-linejoin="round"/>
<path d="M101.066 99.4331C107.167 93.306 120.825 94.2296 110.589 92.0159" stroke="#000000" stroke-opacity="0.9" stroke-width="16" stroke-linecap="round" stroke-linejoin="round"/>
<path d="M98.9736 137.832C103.349 133.971 108.318 133.897 113.733 132.887" stroke="#000000" stroke-opacity="0.9" stroke-width="16" stroke-linecap="round" stroke-linejoin="round"/>
<path d="M114.669 174.889C119.572 173.739 123.181 170.441 126.969 167.472" stroke="#000000" stroke-opacity="0.9" stroke-width="16" stroke-linecap="round" stroke-linejoin="round"/>
<path d="M279.74 63.7202C275.074 64.1459 270.849 67.2306 267.441 69.9013" stroke="#000000" stroke-opacity="0.9" stroke-width="16" stroke-linecap="round" stroke-linejoin="round"/>
<path d="M294.646 104.014C288.502 103.683 284.885 104.163 279.997 104.237" stroke="#000000" stroke-opacity="0.9" stroke-width="16" stroke-linecap="round" stroke-linejoin="round"/>
<path d="M294.647 144.256C290.883 143.305 286.28 143.07 282.09 142.479" stroke="#000000" stroke-opacity="0.9" stroke-width="16" stroke-linecap="round" stroke-linejoin="round"/>
<path d="M282.513 188.676C275.5 185.321 269.583 180.135 268.487 176.904" stroke="#000000" stroke-opacity="0.9" stroke-width="16" stroke-linecap="round" stroke-linejoin="round"/>
<path d="M187.099 249.445C187.099 247.81 187.099 246.168 187.099 244.533" stroke="#000000" stroke-opacity="0.9" stroke-width="16" stroke-linecap="round" stroke-linejoin="round"/>
<path d="M215.053 249.351C215.053 247.691 215.053 246.043 215.053 244.383" stroke="#000000" stroke-opacity="0.9" stroke-width="16" stroke-linecap="round" stroke-linejoin="round"/>
<path d="M196.54 313.993C210.467 298.069 200.9 337.259 198.216 315.898" stroke="#000000" stroke-opacity="0.9" stroke-width="16" stroke-linecap="round" stroke-linejoin="round"/>
</svg>