<?xml version="1.0" encoding="utf-8"?><!-- Uploaded to: SVG Repo, www.svgrepo.com, Generator: SVG Repo Mixer Tools -->
<svg width="800px" height="800px" viewBox="0 0 400 400" fill="none" xmlns="http://www.w3.org/2000/svg">
<path d="M61.0669 250.836C74.9609 220.471 52.6978 176.549 64.8188 146.411C67.7791 139.041 101.245 143.303 106.685 143.303C207.917 143.303 218.434 123.604 304.151 189.923C310.446 194.789 359.183 237.126 352.271 244.002C342.108 254.106 169.348 248.972 157.301 248.972C128.036 248.972 98.5485 251.87 69.8159 247.109" stroke="#000000" stroke-opacity="0.9" stroke-width="16" stroke-linecap="round" stroke-linejoin="round"/>
<path d="M53.27 275.484C60.2797 240.555 66.4564 245.171 76.621 274.152" stroke="#000000" stroke-opacity="0.9" stroke-width="16" stroke-linecap="round" stroke-linejoin="round"/>
<path d="M219.388 257.322C220.675 261.528 218.978 265.106 218.776 268.997" stroke="#000000" stroke-opacity="0.9" stroke-width="16" stroke-linecap="round" stroke-linejoin="round"/>
<path d="M245.701 254.728C246.827 259.191 244.99 264.119 244.471 267.7" stroke="#000000" stroke-opacity="0.9" stroke-width="16" stroke-linecap="round" stroke-linejoin="round"/>
<path d="M236.187 125C239.805 148.943 238.223 145.951 254.349 134.652" stroke="#000000" stroke-opacity="0.9" stroke-width="16" stroke-linecap="round" stroke-linejoin="round"/>
<path d="M325.697 193.819C332.924 184.378 338.969 174.068 344.182 163.329C349.577 152.193 347.236 141.159 350.956 131.563C351.544 130.055 358.209 151.281 358.968 155.701C362.433 175.946 362.631 218.5 341.716 227.485" stroke="#000000" stroke-opacity="0.9" stroke-width="16" stroke-linecap="round" stroke-linejoin="round"/>
<path d="M298.456 214.512C298.456 212.346 298.456 210.186 298.456 208.026" stroke="#000000" stroke-opacity="0.9" stroke-width="16" stroke-linecap="round" stroke-linejoin="round"/>
<path d="M57.1618 154.837C48.3983 158.82 43.4638 165.712 39 172.999" stroke="#000000" stroke-opacity="0.9" stroke-width="16" stroke-linecap="round" stroke-linejoin="round"/>
</svg>