<?xml version="1.0" encoding="utf-8"?><!-- Uploaded to: SVG Repo, www.svgrepo.com, Generator: SVG Repo Mixer Tools -->
<svg width="800px" height="800px" viewBox="0 0 400 400" fill="none" xmlns="http://www.w3.org/2000/svg">
<path d="M123.05 335.483C132.357 324.323 146.784 305.788 166.331 279.88C156.599 226.275 172.195 193.889 213.12 182.721C223.34 179.927 317.602 168.537 302.016 177.452" stroke="#000000" stroke-opacity="0.9" stroke-width="16" stroke-linecap="round" stroke-linejoin="round"/>
<path d="M303.751 176.375C284.524 196.917 263.408 217.254 241.244 232.063" stroke="#000000" stroke-opacity="0.9" stroke-width="16" stroke-linecap="round" stroke-linejoin="round"/>
<path d="M246.927 233.2C266.988 228.212 311.737 213.987 319.662 212.743" stroke="#000000" stroke-opacity="0.9" stroke-width="16" stroke-linecap="round" stroke-linejoin="round"/>
<path d="M319.662 212.743C301.569 233.935 267.575 257.513 253.746 274.113" stroke="#000000" stroke-opacity="0.9" stroke-width="16" stroke-linecap="round" stroke-linejoin="round"/>
<path d="M224.197 193.423C239.334 237.553 253.3 291.289 268.52 330.937" stroke="#000000" stroke-opacity="0.9" stroke-width="16" stroke-linecap="round" stroke-linejoin="round"/>
<path d="M260.565 290.643C300.16 269.681 302.164 319.526 262.328 315.982" stroke="#000000" stroke-opacity="0.9" stroke-width="16" stroke-linecap="round" stroke-linejoin="round"/>
<path d="M216.541 193.199C168.91 265.764 69.9937 220.643 82.0024 142.829C88.8118 98.6959 130.411 146.706 140.751 162.744C143.026 166.272 142.423 173.87 146.627 173.87C153.452 173.87 123.473 93.4352 164.251 95.9744C189.797 97.5678 194.281 114.85 204.793 135.804C207.756 141.712 211.256 161.15 211.256 154.544C211.256 138.921 194.954 44.5416 230.055 69.0349C265.346 93.6639 270.813 164.097 227.706 185.585" stroke="#000000" stroke-opacity="0.9" stroke-width="16" stroke-linecap="round" stroke-linejoin="round"/>
<path d="M207.15 229.79C204.856 224.231 201.623 217.471 200.331 213.879" stroke="#000000" stroke-opacity="0.9" stroke-width="16" stroke-linecap="round" stroke-linejoin="round"/>
</svg>