<?xml version="1.0" encoding="utf-8"?><!-- Uploaded to: SVG Repo, www.svgrepo.com, Generator: SVG Repo Mixer Tools -->
<svg width="800px" height="800px" viewBox="0 0 400 400" fill="none" xmlns="http://www.w3.org/2000/svg">
<path d="M351 202.989C270.157 160.766 196.991 185.1 126.323 204.931C99.9573 212.33 79.5439 209.28 48 221.557" stroke="#000000" stroke-opacity="0.9" stroke-width="16" stroke-linecap="round" stroke-linejoin="round"/>
<path d="M247.141 187.559C249.418 192.462 252.594 196.028 256.669 198.257C250.289 200.334 247.113 203.534 247.141 207.859C247.168 212.183 251.297 215.898 259.528 219.005C251.27 222.666 247.141 226.085 247.141 229.263" stroke="#000000" stroke-opacity="0.5" stroke-width="16" stroke-linecap="round" stroke-linejoin="round"/>
<path d="M214.746 193.225C214.774 198.421 218.903 202.886 227.133 206.62C221.098 210.087 216.969 213.492 214.746 216.835" stroke="#000000" stroke-opacity="0.5" stroke-width="16" stroke-linecap="round" stroke-linejoin="round"/>
<path d="M178.537 199.836C178.565 205.032 182.694 209.497 190.924 213.231C184.889 216.698 180.76 220.103 178.537 223.446" stroke="#000000" stroke-opacity="0.5" stroke-width="16" stroke-linecap="round" stroke-linejoin="round"/>
<path d="M50.8594 206.919C52.765 201.882 52.765 196.373 50.8594 190.392C157.965 216.835 221.029 258.851 345.092 216.835" stroke="#000000" stroke-opacity="0.9" stroke-width="16" stroke-linecap="round" stroke-linejoin="round"/>
<path d="M275.727 193.225C275.658 206.569 280.185 218.453 289.066 227.223" stroke="#000000" stroke-opacity="0.5" stroke-width="16" stroke-linecap="round" stroke-linejoin="round"/>
<path d="M320.639 201.724C320.748 199.975 320.785 197.943 320.859 196.058" stroke="#000000" stroke-opacity="0.9" stroke-width="16" stroke-linecap="round" stroke-linejoin="round"/>
<path d="M242.376 239.5C233.701 246.565 225.468 249.098 215.697 247.572" stroke="#000000" stroke-opacity="0.9" stroke-width="16" stroke-linecap="round" stroke-linejoin="round"/>
<path d="M244.192 181.158C235.665 175.281 215.697 165.217 222.367 175.281" stroke="#000000" stroke-opacity="0.9" stroke-width="16" stroke-linecap="round" stroke-linejoin="round"/>
</svg>