<?xml version="1.0" encoding="utf-8"?><!-- Uploaded to: SVG Repo, www.svgrepo.com, Generator: SVG Repo Mixer Tools -->
<svg width="800px" height="800px" viewBox="0 0 400 400" fill="none" xmlns="http://www.w3.org/2000/svg">
<path d="M122.981 129.072C111.003 25.3108 137.933 45.7622 153.942 131.823" stroke="#000000" stroke-opacity="0.9" stroke-width="16" stroke-linecap="round" stroke-linejoin="round"/>
<path d="M247.009 122.901C268.112 44.7579 295.512 42.3953 271.777 141.754" stroke="#000000" stroke-opacity="0.9" stroke-width="16" stroke-linecap="round" stroke-linejoin="round"/>
<path d="M137.519 179.269C149.095 167.732 164.765 157.745 178.03 168.265" stroke="#000000" stroke-opacity="0.9" stroke-width="16" stroke-linecap="round" stroke-linejoin="round"/>
<path d="M178.458 171.545C177.647 178.905 177.325 186.338 176.507 193.613" stroke="#000000" stroke-opacity="0.9" stroke-width="16" stroke-linecap="round" stroke-linejoin="round"/>
<path d="M178.03 169.338C172.119 173.601 166.533 178.387 161.606 183.682" stroke="#000000" stroke-opacity="0.9" stroke-width="16" stroke-linecap="round" stroke-linejoin="round"/>
<path d="M224.933 175.959C223.323 183.54 222.403 191.339 222.006 199.13" stroke="#000000" stroke-opacity="0.9" stroke-width="16" stroke-linecap="round" stroke-linejoin="round"/>
<path d="M225.111 172.488C234.815 167.653 248.177 164.263 255.769 171.338" stroke="#000000" stroke-opacity="0.9" stroke-width="16" stroke-linecap="round" stroke-linejoin="round"/>
<path d="M228.396 178.166C233.89 180.8 238.175 184.507 243.725 186.993" stroke="#000000" stroke-opacity="0.9" stroke-width="16" stroke-linecap="round" stroke-linejoin="round"/>
<path d="M136.971 319.793C120 288.625 127.523 248.454 139.557 237.739C148.663 229.632 167.028 226.27 172.374 229.632C175.13 231.362 176.869 237.466 179.771 236.007C189.612 231.058 179.984 211.252 203.02 234.412C203.336 234.731 211.509 229.709 212.894 229.632C222.399 229.099 232.792 226.986 246.268 237.739C262.8 250.932 265.233 292.509 244.203 319.793" stroke="#000000" stroke-opacity="0.9" stroke-width="16" stroke-linecap="round" stroke-linejoin="round"/>
<path d="M212.259 294.042C202.603 290.467 196.295 284.575 193.336 276.367C189.265 287.439 184.25 289.736 173.024 294.042" stroke="#000000" stroke-opacity="0.9" stroke-width="16" stroke-linecap="round" stroke-linejoin="round"/>
<path d="M187.114 259.816C187.114 259.816 194.482 259.816 198.846 259.816C203.211 259.816 196.209 265.713 194.212 267.753C192.215 269.793 188.911 267.924 188.911 266.173" stroke="#000000" stroke-opacity="0.9" stroke-width="16" stroke-linecap="round" stroke-linejoin="round"/>
<path d="M144.543 309.531C155.919 329.919 171.952 340.113 192.642 340.113C223.677 340.113 223.424 328.528 236.06 314.022" stroke="#000000" stroke-opacity="0.9" stroke-width="16" stroke-linecap="round" stroke-linejoin="round"/>
</svg>