<?xml version="1.0" encoding="utf-8"?><!-- Uploaded to: SVG Repo, www.svgrepo.com, Generator: SVG Repo Mixer Tools -->
<svg width="800px" height="800px" viewBox="0 0 400 400" fill="none" xmlns="http://www.w3.org/2000/svg">
<path d="M201.294 226.245C189.685 222.298 177.957 220.029 166.567 215.477C150.648 209.115 127.539 208.697 110.287 208.697C103.98 208.697 90.4142 207.456 84.7394 210.293C78.6687 213.326 115.539 244.761 120.263 247.385C154.084 266.16 182.69 264.218 205.681 232.629" stroke="#000000" stroke-opacity="0.9" stroke-width="16" stroke-linecap="round" stroke-linejoin="round"/>
<path d="M261.809 276.229C254.469 262.607 165.715 263.773 169.728 287.542C175.462 321.516 236.347 313.523 254.852 300.878" stroke="#000000" stroke-opacity="0.9" stroke-width="16" stroke-linecap="round" stroke-linejoin="round"/>
<path d="M252.455 278.204C236.719 286.119 221.594 280.945 209.689 291.623" stroke="#000000" stroke-opacity="0.9" stroke-width="16" stroke-linecap="round" stroke-linejoin="round"/>
<path d="M306.539 219.367C388.381 232.662 315.689 186.944 297.891 212.095" stroke="#000000" stroke-opacity="0.9" stroke-width="16" stroke-linecap="round" stroke-linejoin="round"/>
<path d="M293.883 217.819C295.084 229.615 302.574 236.001 312.593 240.631" stroke="#000000" stroke-opacity="0.9" stroke-width="16" stroke-linecap="round" stroke-linejoin="round"/>
<path d="M285.863 213.794C276.595 214.411 263.814 219.936 259.135 223.187" stroke="#000000" stroke-opacity="0.9" stroke-width="16" stroke-linecap="round" stroke-linejoin="round"/>
<path d="M237.086 232.156C237.086 231.097 237.086 230.038 237.086 228.979" stroke="#000000" stroke-opacity="0.9" stroke-width="16" stroke-linecap="round" stroke-linejoin="round"/>
<path d="M223.721 237.313C223.721 236.84 223.721 236.371 223.721 235.898" stroke="#000000" stroke-opacity="0.9" stroke-width="16" stroke-linecap="round" stroke-linejoin="round"/>
<path d="M244.435 203.007C232.908 166.602 215.635 206.917 208.352 225.871" stroke="#000000" stroke-opacity="0.9" stroke-width="16" stroke-linecap="round" stroke-linejoin="round"/>
<path d="M209.687 201.248C202.252 169.676 191.362 183.145 189.641 209.768" stroke="#000000" stroke-opacity="0.9" stroke-width="16" stroke-linecap="round" stroke-linejoin="round"/>
<path d="M164.252 197.508C153.05 185.701 147.038 196.499 137.523 205.743" stroke="#000000" stroke-opacity="0.9" stroke-width="16" stroke-linecap="round" stroke-linejoin="round"/>
<path d="M88.0741 230.737C65.0715 214.972 64.1597 256.738 56 264.785" stroke="#000000" stroke-opacity="0.9" stroke-width="16" stroke-linecap="round" stroke-linejoin="round"/>
<path d="M100.102 242.602C79.2017 236.654 82.4903 274.738 65.3555 280.888" stroke="#000000" stroke-opacity="0.9" stroke-width="16" stroke-linecap="round" stroke-linejoin="round"/>
<path d="M114.804 255.393C86.1408 259.554 110.627 290.417 84.0664 298.332" stroke="#000000" stroke-opacity="0.9" stroke-width="16" stroke-linecap="round" stroke-linejoin="round"/>
<path d="M136.185 264.785C124.404 272.016 116.569 290.561 110.793 305.041" stroke="#000000" stroke-opacity="0.9" stroke-width="16" stroke-linecap="round" stroke-linejoin="round"/>
<path d="M105.448 198.023C75.5156 144.938 46.7293 186.411 80.7239 209.769" stroke="#000000" stroke-opacity="0.9" stroke-width="16" stroke-linecap="round" stroke-linejoin="round"/>
<path d="M70.7006 159.583C54.4569 130.17 50.6637 158.229 64.4396 173.538" stroke="#000000" stroke-opacity="0.9" stroke-width="16" stroke-linecap="round" stroke-linejoin="round"/>
<path d="M57.4413 142.675C56.673 126.324 60.2331 96.9599 64.018 89" stroke="#000000" stroke-opacity="0.9" stroke-width="16" stroke-linecap="round" stroke-linejoin="round"/>
<path d="M69.3652 93.0254C70.7776 112.884 86.1313 119.908 101.439 110.114" stroke="#000000" stroke-opacity="0.9" stroke-width="16" stroke-linecap="round" stroke-linejoin="round"/>
<path d="M92.0839 113.154C90.1101 98.7657 81.2115 81.7264 65.3555 92.2831" stroke="#000000" stroke-opacity="0.9" stroke-width="16" stroke-linecap="round" stroke-linejoin="round"/>
</svg>