<?xml version="1.0" encoding="utf-8"?><!-- Uploaded to: SVG Repo, www.svgrepo.com, Generator: SVG Repo Mixer Tools -->
<svg width="800px" height="800px" viewBox="0 0 400 400" fill="none" xmlns="http://www.w3.org/2000/svg">
<path d="M47.0879 179.03C66.4208 178.409 84.6789 187.59 101.68 195.952C151.857 220.625 232.212 288.373 292.749 254.886C302.751 249.353 371.287 209.39 363.364 197.699C359.105 191.421 337.266 189.971 312.755 189.017C182.249 183.936 118.112 186.513 37 206.452" stroke="#000000" stroke-opacity="0.9" stroke-width="16" stroke-linecap="round" stroke-linejoin="round"/>
<path d="M241 182C220.769 154.443 192 131.055 192 177.192" stroke="#000000" stroke-opacity="0.9" stroke-width="16" stroke-linecap="round" stroke-linejoin="round"/>
<path d="M211.541 248C164.94 275.692 229.485 270.67 250 256.671" stroke="#000000" stroke-opacity="0.9" stroke-width="16" stroke-linecap="round" stroke-linejoin="round"/>
<path d="M327 226.907C315.091 220.177 293.133 217.778 305.827 237" stroke="#000000" stroke-opacity="0.9" stroke-width="16" stroke-linecap="round" stroke-linejoin="round"/>
<path opacity="0.503384" d="M333.741 205C334.605 202.582 333.035 203.095 333 203" stroke="#000000" stroke-opacity="0.9" stroke-width="16" stroke-linecap="round" stroke-linejoin="round"/>
<path d="M45.9407 186C46.4627 195.741 43.5433 198.867 37 204" stroke="#000000" stroke-opacity="0.9" stroke-width="16" stroke-linecap="round" stroke-linejoin="round"/>
</svg>