<?xml version="1.0" encoding="utf-8"?><!-- Uploaded to: SVG Repo, www.svgrepo.com, Generator: SVG Repo Mixer Tools -->
<svg width="800px" height="800px" viewBox="0 0 400 400" fill="none" xmlns="http://www.w3.org/2000/svg">
<path d="M97.7023 147.336C73.1289 115.747 115.913 83.7114 132.522 123.581" stroke="#000000" stroke-opacity="0.9" stroke-width="16" stroke-linecap="round" stroke-linejoin="round"/>
<path d="M279.746 121.42C313.87 88.7165 315.507 128.451 306.302 155.529" stroke="#000000" stroke-opacity="0.9" stroke-width="16" stroke-linecap="round" stroke-linejoin="round"/>
<path d="M200.426 151.432C201.698 142.491 203.395 130.209 201.346 124.119" stroke="#000000" stroke-opacity="0.9" stroke-width="16" stroke-linecap="round" stroke-linejoin="round"/>
<path d="M171.815 135.045C172.048 132.663 173.046 130.49 173.655 128.216" stroke="#000000" stroke-opacity="0.9" stroke-width="16" stroke-linecap="round" stroke-linejoin="round"/>
<path d="M231.247 136.41C231.723 132.558 231.247 130.5 231.247 126.851" stroke="#000000" stroke-opacity="0.9" stroke-width="16" stroke-linecap="round" stroke-linejoin="round"/>
<path d="M98.4429 201.962C89.7318 197.983 80.8486 197.865 71.1792 197.865" stroke="#000000" stroke-opacity="0.9" stroke-width="16" stroke-linecap="round" stroke-linejoin="round"/>
<path d="M95.7164 233.553C84.2865 232.868 73.6197 234.22 63 236.104" stroke="#000000" stroke-opacity="0.9" stroke-width="16" stroke-linecap="round" stroke-linejoin="round"/>
<path d="M101.169 267.514C92.8272 270.936 83.8408 272.816 75.2686 275.708" stroke="#000000" stroke-opacity="0.9" stroke-width="16" stroke-linecap="round" stroke-linejoin="round"/>
<path d="M302.92 199.231C311.824 195.963 315.457 196.538 322.005 196.538" stroke="#000000" stroke-opacity="0.9" stroke-width="16" stroke-linecap="round" stroke-linejoin="round"/>
<path d="M302.92 236.104C314.392 235.71 325.79 233.669 337 232.007" stroke="#000000" stroke-opacity="0.9" stroke-width="16" stroke-linecap="round" stroke-linejoin="round"/>
<path d="M301.557 270.245C308.727 274 316.947 274.399 324.731 275.708" stroke="#000000" stroke-opacity="0.9" stroke-width="16" stroke-linecap="round" stroke-linejoin="round"/>
<path d="M181.634 200.199C181.634 213.654 169.21 233.407 172.66 246.98C173.542 250.451 195.515 273.301 198.685 274.342C198.856 274.397 216.859 267.243 220.759 254.887C229.83 224.433 222.551 214.116 220.759 196.499" stroke="#000000" stroke-opacity="0.9" stroke-width="16" stroke-linecap="round" stroke-linejoin="round"/>
<path d="M163.875 285.715C169.887 290.097 181.358 298.27 188.059 292.333C191.771 289.051 193.865 274.36 198.238 276.618C213.205 284.343 221.774 311.872 237.266 279.884" stroke="#000000" stroke-opacity="0.9" stroke-width="16" stroke-linecap="round" stroke-linejoin="round"/>
<path d="M154.623 205.223C150.98 201.279 144.17 197.815 139.338 195.134" stroke="#000000" stroke-opacity="0.9" stroke-width="16" stroke-linecap="round" stroke-linejoin="round"/>
<path d="M262.025 192.402C258.387 194.524 254.755 196.651 251.117 198.772C249.758 199.836 248.394 200.899 247.03 201.962" stroke="#000000" stroke-opacity="0.9" stroke-width="16" stroke-linecap="round" stroke-linejoin="round"/>
<path d="M181.597 242.932C197.934 237.225 218.575 242.101 219.766 242.932" stroke="#000000" stroke-opacity="0.9" stroke-width="16" stroke-linecap="round" stroke-linejoin="round"/>
</svg>