<?xml version="1.0" encoding="utf-8"?><!-- Uploaded to: SVG Repo, www.svgrepo.com, Generator: SVG Repo Mixer Tools -->
<svg width="800px" height="800px" viewBox="0 0 400 400" fill="none" xmlns="http://www.w3.org/2000/svg">
<path d="M170.028 329.937C141.084 183.066 323.753 272.618 323.753 288.701C323.753 310.93 220.5 320.116 180.737 291.756" stroke="#000000" stroke-opacity="0.9" stroke-width="16" stroke-linecap="round" stroke-linejoin="round"/>
<path d="M286.888 261.748C286.665 257.319 285.936 253.181 285.611 249.247" stroke="#000000" stroke-opacity="0.9" stroke-width="16" stroke-linecap="round" stroke-linejoin="round"/>
<path d="M270.089 254.929C269.288 251.651 269.663 248.109 269.448 244.701" stroke="#000000" stroke-opacity="0.9" stroke-width="16" stroke-linecap="round" stroke-linejoin="round"/>
<path d="M296.25 277.659C295.077 276.384 295.823 274.617 295.609 273.113" stroke="#000000" stroke-opacity="0.9" stroke-width="16" stroke-linecap="round" stroke-linejoin="round"/>
<path d="M179.626 262.218C181.523 237.807 195.099 224.673 191.232 199.649C187.49 175.465 165.635 157.797 158.481 135.27C156.182 128.026 136.175 66.5717 138.681 64.0749C140.087 62.6771 140.513 81.1242 128.781 95.1271C113.84 112.96 97.6108 133.916 86.1347 154.206C55.3136 208.698 99.3455 280.838 156.958 289.024" stroke="#000000" stroke-opacity="0.9" stroke-width="16" stroke-linecap="round" stroke-linejoin="round"/>
<path d="M285.113 335.62C276.775 306.328 269.143 313.649 264.656 335.62" stroke="#000000" stroke-opacity="0.9" stroke-width="16" stroke-linecap="round" stroke-linejoin="round"/>
<path d="M178.283 303.798C181.139 310.733 186.443 319.126 189.648 324.255" stroke="#000000" stroke-opacity="0.9" stroke-width="16" stroke-linecap="round" stroke-linejoin="round"/>
<path d="M161.27 275.386C158.162 262.685 179.134 218.194 165.907 208.424C160.516 204.442 152.862 228.561 151.226 222.119C148.324 210.693 151.114 197.339 150.455 185.596C148.649 153.651 140.641 195.102 138.864 186.355C133.436 159.634 138.09 127.839 138.09 100.368" stroke="#000000" stroke-opacity="0.9" stroke-width="16" stroke-linecap="round" stroke-linejoin="round"/>
<path d="M113.752 143.554C118.438 152.564 119.942 157.745 123.876 166.41C127.245 173.827 129.152 181.256 132.442 188.506C142.483 210.603 119.281 179.821 112.975 183.934C107.625 187.421 139.442 218.613 137.115 222.027C134.021 226.57 122.43 218.873 118.426 222.791C115.684 225.473 146.23 279.659 146.462 279.932" stroke="#000000" stroke-opacity="0.9" stroke-width="16" stroke-linecap="round" stroke-linejoin="round"/>
</svg>