<?xml version="1.0" encoding="utf-8"?><!-- Uploaded to: SVG Repo, www.svgrepo.com, Generator: SVG Repo Mixer Tools -->
<svg width="800px" height="800px" viewBox="0 0 400 400" fill="none" xmlns="http://www.w3.org/2000/svg">
<path d="M149.069 257.269C178.43 282.328 183.415 214.001 147.951 219.908C96.9139 228.41 126.453 288.244 165.249 296.86C227.82 310.754 229.125 202.753 175.29 175.856C161.844 169.137 151.974 167.622 138.035 169.611C68.102 179.596 97.9229 237.957 79.8757 268.978C74.0734 278.951 57 292.158 57 296.299C57 303.241 70.8113 294.753 77.6439 293.512" stroke="#000000" stroke-opacity="0.9" stroke-width="16" stroke-linecap="round" stroke-linejoin="round"/>
<path d="M205.613 180C222.744 125.268 263.847 82.2357 318.812 120.218C321.789 122.275 335.108 130.245 335.794 133.627C340.257 155.659 271.153 159.357 255.421 156.532" stroke="#000000" stroke-opacity="0.9" stroke-width="16" stroke-linecap="round" stroke-linejoin="round"/>
<path d="M277.115 157.6C238.638 169.696 258.69 272.394 219.633 279.4" stroke="#000000" stroke-opacity="0.9" stroke-width="16" stroke-linecap="round" stroke-linejoin="round"/>
<path d="M275.714 68C268.733 80.6022 265.129 95.0106 261.693 108.6" stroke="#000000" stroke-opacity="0.9" stroke-width="16" stroke-linecap="round" stroke-linejoin="round"/>
<path d="M247.676 82C253.1 87.691 255.282 94.4957 257.49 101.6" stroke="#000000" stroke-opacity="0.9" stroke-width="16" stroke-linecap="round" stroke-linejoin="round"/>
</svg>