<?xml version="1.0" encoding="utf-8"?><!-- Uploaded to: SVG Repo, www.svgrepo.com, Generator: SVG Repo Mixer Tools -->
<svg width="800px" height="800px" viewBox="0 0 400 400" fill="none" xmlns="http://www.w3.org/2000/svg">
<path d="M75.0385 246.879C61.7682 118.602 213.96 96.4821 271.051 191.802C276.089 200.214 300.873 239.741 286.588 250.473C274.05 259.891 202.593 257.654 159.373 257.654C134.405 257.654 110.166 257.654 86.9935 257.654" stroke="#000000" stroke-opacity="0.9" stroke-width="16" stroke-linecap="round" stroke-linejoin="round"/>
<path opacity="0.503384" d="M243.233 193.429C197.617 203.328 152.484 202.406 106.477 202.406" stroke="#000000" stroke-opacity="0.9" stroke-width="12" stroke-linecap="round" stroke-linejoin="round"/>
<path opacity="0.503384" d="M203.689 180.572C202.884 175.892 202.315 171.003 201.498 166.429" stroke="#000000" stroke-opacity="0.9" stroke-width="12" stroke-linecap="round" stroke-linejoin="round"/>
<path opacity="0.503384" d="M154.213 180.929C154.899 174.833 156.011 168.262 157.788 163.857" stroke="#000000" stroke-opacity="0.9" stroke-width="12" stroke-linecap="round" stroke-linejoin="round"/>
<path opacity="0.503384" d="M242.991 237C243.13 230.111 241.57 224.157 240 218" stroke="#000000" stroke-opacity="0.9" stroke-width="12" stroke-linecap="round" stroke-linejoin="round"/>
<path opacity="0.503384" d="M188.032 237.143C187.438 232.326 188.496 227.618 188.948 223" stroke="#000000" stroke-opacity="0.9" stroke-width="12" stroke-linecap="round" stroke-linejoin="round"/>
<path opacity="0.503384" d="M127.219 233.286C127.699 229.871 127.954 226.401 128.314 223" stroke="#000000" stroke-opacity="0.9" stroke-width="12" stroke-linecap="round" stroke-linejoin="round"/>
<path d="M293.729 212.039C369.21 133 369.21 212.039 290.969 248.714" stroke="#000000" stroke-opacity="0.9" stroke-width="16" stroke-linecap="round" stroke-linejoin="round"/>
<path d="M327.467 198.746C327.649 198.202 327.831 197.654 328.013 197.11" stroke="#000000" stroke-opacity="0.9" stroke-width="16" stroke-linecap="round" stroke-linejoin="round"/>
<path d="M275.488 263.519C273.174 265.673 267.167 264.424 262.586 264.246" stroke="#000000" stroke-opacity="0.9" stroke-width="16" stroke-linecap="round" stroke-linejoin="round"/>
<path d="M115.508 259C107.958 275.803 96.1548 264.865 92.2852 259.813" stroke="#000000" stroke-opacity="0.9" stroke-width="16" stroke-linecap="round" stroke-linejoin="round"/>
<path d="M62.6114 246.979C58.7136 247.489 54.729 248.349 51 249.163" stroke="#000000" stroke-opacity="0.9" stroke-width="16" stroke-linecap="round" stroke-linejoin="round"/>
</svg>